<?xml version="1.0" encoding="UTF-8" standalone="no"?>
<!-- Created with Inkscape (http://www.inkscape.org/) -->

<svg
   width="210mm"
   height="210mm"
   viewBox="0 0 210 210"
   version="1.1"
   id="svg1"
   xml:space="preserve"
   xmlns="http://www.w3.org/2000/svg"
   xmlns:svg="http://www.w3.org/2000/svg"><defs
     id="defs1" /><g
     id="layer1">

	<style>
		@media (prefers-color-scheme: dark) {
		.a { fill: #dad8d8 }
		}
	</style>
	<path class="a" fill="#333333"
       d="M 44.960629,189.65706 C 38.701519,187.85253 32.801104,183.01069 30.97748,178.1826 29.338976,173.84462 28.080908,145.96125 27.113357,92.539588 26.493943,58.33971 26.494892,40.43414 27.116157,39.273252 c 0.514739,-0.961798 0.935889,-3.051338 0.935889,-4.643421 0,-5.394386 8.882112,-8.884377 15.684238,-6.162706 3.445114,1.378461 4.155932,2.250179 6.760793,8.291166 5.50485,12.766375 6.89776,27.794512 3.73981,40.348893 -0.64059,2.546663 -0.47817,5.508645 0.58406,10.651222 0.80948,3.918933 1.86203,16.338194 2.33971,27.606774 0.47757,11.26577 1.35931,23.30275 1.95942,26.74884 1.46368,8.40507 3.1417,9.53272 13.78365,9.26273 4.29396,-0.10894 8.74847,0.15013 9.8989,0.5757 1.39686,0.51673 2.79471,0.31312 4.20808,-0.61295 1.47289,-0.96507 6.61734,-1.63541 16.919503,-2.20466 8.14171,-0.44987 18.82035,-1.3404 23.73029,-1.97895 10.46464,-1.36096 17.10381,-1.44126 32.22593,-0.38979 13.49805,0.93855 14.81989,1.79199 20.48599,13.22666 5.09203,10.27614 4.53495,11.37488 -8.66331,17.08665 -5.56902,2.41009 -6.94967,2.60061 -19.61635,2.70692 -11.2303,0.0943 -14.20306,0.4168 -16.91001,1.83467 -2.65403,1.39015 -6.80187,1.87894 -21.61316,2.54694 -10.08085,0.45466 -19.476583,1.63764 -21.053223,1.73618 -2.987275,0.1867 -7.560689,-0.82438 -13.19525,-0.5193 -5.711111,0.30922 -5.390168,0.0465 -8.713998,1.20989 -3.65195,1.27825 -14.529602,2.47503 -20.472062,3.33394 -1.550513,0.2241 -3.879014,0.10189 -5.174451,-0.2716 z m 41.352988,-60.18508 c -1.29209,-0.35356 -4.5693,-1.80665 -7.28269,-3.2291 -3.94373,-2.06742 -4.9614,-3.08491 -5.07279,-5.07195 -0.0766,-1.36713 -0.19332,-9.67442 -0.25928,-18.46064 -0.0869,-11.579082 -0.53439,-17.397128 -1.62612,-21.143303 -2.43124,-8.342538 -3.67244,-22.952456 -2.67444,-31.480031 1.1035,-9.428949 5.66815,-19.203066 9.61659,-20.591659 2.94236,-1.034772 1.616114,-2.117394 10.456903,-2.966833 2.646516,-0.254282 7.569255,0.647371 12.976,3.168053 3.81196,1.777178 6.74059,3.322662 8.06422,4.696247 1.91404,1.986277 6.06003,5.509319 9.16105,7.879954 6.03148,4.610887 16.57413,15.252444 20.07693,20.265295 1.17373,1.679718 2.49205,3.054033 2.92959,3.054033 0.43755,0 1.09075,-3.277212 1.45156,-7.282694 0.36081,-4.005481 1.50251,-9.282914 2.53712,-11.727628 1.03462,-2.444715 1.61284,-5.144044 1.28495,-5.99851 -0.77065,-2.008293 1.07848,-12.204625 2.8263,-15.584534 0.74382,-1.438386 2.40326,-3.303796 3.68764,-4.145358 3.3038,-2.164729 7.00749,-0.425771 11.73256,5.508666 4.49851,5.649887 4.88642,7.0023 8.01785,27.953629 2.1214,14.193588 2.3739,18.181436 1.8445,29.130775 -0.7425,15.356792 -1.44703,17.869458 -6.13568,21.882778 -2.00409,1.71542 -4.08518,4.27988 -4.62465,5.69878 -2.10774,5.54377 -14.48503,7.14482 -23.66366,3.06097 -4.18611,-1.86252 -5.59537,-3.15352 -8.23515,-7.54409 -1.75163,-2.91338 -3.70522,-5.60228 -4.34132,-5.97535 -0.6361,-0.37306 -2.01381,-2.37339 -3.06157,-4.445173 -1.61979,-3.20286 -4.42701,-6.778352 -13.82717,-17.611353 -0.91482,-1.054262 -2.77604,-1.644479 -5.18578,-1.644479 h -3.75881 v 9.773415 c 0,9.895771 -3.08817,34.20275 -4.736783,37.28321 -1.08319,2.02395 -5.35915,5.10901 -7.94921,5.73528 -1.03367,0.24994 -2.93657,0.16516 -4.22866,-0.1884 z"
       id="path1" /></g></svg>
