<?xml version="1.0" encoding="UTF-8" standalone="no"?>
<!-- Created with Inkscape (http://www.inkscape.org/) -->

<svg
   width="210mm"
   height="210mm"
   viewBox="0 0 210 210"
   version="1.1"
   id="svg1"
   xml:space="preserve"
   xmlns="http://www.w3.org/2000/svg"
   xmlns:svg="http://www.w3.org/2000/svg"><defs
     id="defs1" /><g
     id="layer1">
     	<style>
		@media (prefers-color-scheme: dark) {
		.a { fill: #dad8d8 }
		}
	</style>
	<path class="a" fill="#333333"
       d="m 66.765608,153.43681 c -0.251099,-0.17722 -0.573585,-0.18583 -3.678389,-0.0983 -3.660349,0.10319 -4.042936,0.10382 -5.18488,0.009 -0.410945,-0.0343 -3.230085,-0.088 -6.264756,-0.11928 -7.675328,-0.0793 -8.624411,-0.11096 -8.977511,-0.29994 -0.163698,-0.0876 -0.42294,-0.40657 -0.576094,-0.7088 -0.272525,-0.5378 -0.290063,-0.54963 -0.822537,-0.55459 -0.726622,-0.007 -1.635053,-0.25553 -1.810774,-0.49585 -0.0782,-0.10694 -0.610049,-0.39441 -1.181887,-0.63882 -0.571838,-0.24441 -1.211796,-0.57345 -1.422128,-0.73121 -0.210332,-0.15776 -0.615195,-0.40327 -0.899695,-0.54557 -0.284501,-0.14231 -0.663493,-0.38099 -0.842205,-0.53041 -0.178712,-0.14941 -0.388268,-0.27166 -0.46568,-0.27166 -0.07741,0 -0.449897,-0.19398 -0.827746,-0.43106 -1.041369,-0.65342 -1.089711,-0.68316 -1.830132,-1.12616 -0.379334,-0.22695 -1.000062,-0.64431 -1.379396,-0.92746 -0.379334,-0.28316 -0.970678,-0.70105 -1.314098,-0.92865 -0.343421,-0.22761 -0.834831,-0.60204 -1.092022,-0.83207 -0.971855,-0.86923 -1.777395,-1.37629 -2.663375,-1.67651 -0.499338,-0.1692 -1.202961,-0.51119 -1.563607,-0.75997 -0.360647,-0.24878 -1.223918,-0.72636 -1.91838,-1.06128 -0.694462,-0.33493 -1.485662,-0.79166 -1.758222,-1.01497 -0.272559,-0.22332 -0.935245,-0.69025 -1.472634,-1.03763 -0.53739,-0.34738 -1.205794,-0.82342 -1.485343,-1.05786 -0.279548,-0.23443 -1.208448,-0.77015 -2.06422,-1.19048 -1.696258,-0.83316 -2.25948,-1.2451 -2.36611,-1.73058 -0.144179,-0.65644 -0.506312,-1.06135 -1.251356,-1.39917 -0.397325,-0.18016 -0.778826,-0.39599 -0.847782,-0.47964 -0.175426,-0.2128 -0.375977,-1.38312 -0.379323,-2.21355 -0.0015,-0.38353 -0.05365,-0.9177 -0.115795,-1.18705 -0.10705,-0.46399 -0.155626,-0.89587 -0.4556221,-4.05079 -0.069135,-0.72705 -0.1723249,-1.50296 -0.2293119,-1.72424 -0.056987,-0.22128 -0.1847832,-1.07478 -0.2839916,-1.89667 -0.099208,-0.82189 -0.2319285,-1.90816 -0.2949334,-2.41394 -0.063005,-0.50578 -0.1641351,-1.4886 -0.2247339,-2.18405 -0.060599,-0.69544 -0.1877102,-1.72999 -0.2824698,-2.29899 -0.1401118,-0.84132 -0.6370759,-7.57202 -0.7935678,-10.74779 -0.02025,-0.41094 -0.1748528,-1.33694 -0.3435615,-2.05777 -0.4076218,-1.74161 -0.3987061,-2.035877 0.082895,-2.736001 0.5157257,-0.749734 0.9417946,-1.60687 1.0454699,-2.103206 0.1235172,-0.591327 0.4710189,-1.098457 0.9438704,-1.377446 0.3837573,-0.226422 0.4784546,-0.236034 1.1745231,-0.119213 0.637536,0.106998 0.984044,0.09033 2.193981,-0.105568 0.790279,-0.127949 1.824826,-0.226175 2.298993,-0.218281 1.071237,0.01784 2.695924,-0.303115 3.141882,-0.620664 0.478778,-0.34092 1.394288,-0.517184 4.674694,-0.900021 1.10639,-0.12912 2.503028,-0.333686 3.10364,-0.45459 0.600612,-0.120905 1.764477,-0.296591 2.586367,-0.390415 1.069712,-0.122114 1.918979,-0.304762 2.988691,-0.642764 2.049763,-0.647675 2.556398,-0.769847 4.080712,-0.984044 0.727057,-0.102166 1.658149,-0.280797 2.069094,-0.396958 0.410945,-0.116161 1.29031,-0.323369 1.954144,-0.460463 0.663834,-0.137094 1.388017,-0.328754 1.609295,-0.425912 0.221278,-0.09716 0.790279,-0.266665 1.264446,-0.376682 0.474167,-0.110017 1.19835,-0.28046 1.609295,-0.378762 2.062356,-0.493337 3.32563,-0.769491 3.793338,-0.829231 0.284501,-0.03634 0.931093,-0.138857 1.436871,-0.227819 1.256971,-0.22109 3.196995,-0.402781 5.460108,-0.511361 1.877262,-0.09007 3.917635,-0.367529 5.919907,-0.805022 0.569001,-0.124325 1.655275,-0.361515 2.413942,-0.527088 1.646218,-0.359274 3.614111,-0.568131 6.953339,-0.737976 1.358667,-0.06911 2.65185,-0.17111 2.873741,-0.226675 0.221892,-0.05557 0.739154,-0.135776 1.149473,-0.178247 0.41032,-0.04247 0.798275,-0.118777 0.862123,-0.169569 0.200827,-0.159759 2.037573,-0.496738 2.817404,-0.516895 1.195781,-0.03091 3.175012,-0.357346 5.115259,-0.843669 0.505779,-0.126773 1.35928,-0.31759 1.896669,-0.424039 0.53739,-0.106448 1.183982,-0.236038 1.436871,-0.287978 1.158069,-0.237849 3.256982,-0.576344 3.620914,-0.583951 0.221278,-0.0046 0.505778,-0.05011 0.632223,-0.101073 0.128754,-0.0519 0.290989,-0.04391 0.368756,0.01815 0.09259,0.07389 0.360711,0.0272 0.804647,-0.140106 0.366185,-0.138004 1.260656,-0.369763 1.987712,-0.515022 0.727057,-0.145258 1.734849,-0.374067 2.239538,-0.508464 0.50469,-0.134396 1.203009,-0.274369 1.551821,-0.31105 0.348811,-0.03668 0.944566,-0.159044 1.3239,-0.271919 0.967024,-0.287746 2.196503,-0.594474 2.873743,-0.716932 0.93735,-0.169494 3.62543,-0.786777 3.92935,-0.902326 0.1547,-0.05882 0.71109,-0.106942 1.23641,-0.106942 0.55773,0 1.15971,-0.07218 1.44679,-0.173466 0.27041,-0.09541 0.78126,-0.205729 1.13522,-0.245162 0.35395,-0.03943 0.72684,-0.143889 0.82864,-0.232125 0.13117,-0.113699 0.2651,-0.130122 0.4598,-0.05638 0.3435,0.1301 1.88409,-0.01118 2.80582,-0.257308 0.38056,-0.101618 1.25992,-0.235343 1.95415,-0.297167 1.78154,-0.158654 2.26458,-0.238951 2.52351,-0.419488 0.1247,-0.08695 0.4997,-0.158097 0.83333,-0.158097 0.64592,0 2.61567,-0.30803 2.90498,-0.454281 0.0952,-0.04814 0.74214,-0.15178 1.43758,-0.230314 2.08315,-0.235244 2.58826,-0.327025 3.85082,-0.699713 2.12952,-0.628602 2.39618,-0.693866 3.24589,-0.794397 0.45915,-0.05432 1.05845,-0.180245 1.33177,-0.279825 0.27333,-0.09958 0.92936,-0.262079 1.45786,-0.36111 0.52849,-0.09903 1.28456,-0.306898 1.68014,-0.461927 0.50679,-0.198609 0.94455,-0.281871 1.48197,-0.281871 0.49676,0 1.04029,-0.0939 1.55876,-0.269306 0.43782,-0.148118 1.12064,-0.302642 1.51736,-0.343388 0.39673,-0.04075 0.87264,-0.15233 1.05758,-0.247967 0.18494,-0.09564 0.48703,-0.173886 0.67131,-0.173886 0.18428,0 0.45842,-0.09592 0.6092,-0.213159 0.2494,-0.19393 0.82173,-0.361054 1.78045,-0.519911 0.19626,-0.03252 0.41201,-0.0039 0.47945,0.0635 0.0867,0.08671 0.81347,0.08749 2.48095,0.0027 1.88153,-0.09571 2.57475,-0.178034 3.42884,-0.407193 0.58878,-0.157975 1.38088,-0.346197 1.76021,-0.41827 0.37934,-0.07207 0.92248,-0.202928 1.20698,-0.290788 0.68298,-0.210923 2.26,-0.431017 3.33354,-0.465238 0.47416,-0.01512 1.48285,-0.139056 2.24151,-0.275423 1.04233,-0.187354 1.95522,-0.256958 3.73587,-0.284842 2.36016,-0.03696 4.60429,-0.263173 5.9199,-0.596741 0.37934,-0.09618 0.9742,-0.246394 1.32192,-0.333812 0.34773,-0.08742 0.99432,-0.263172 1.43687,-0.390562 0.44256,-0.12739 0.94787,-0.233125 1.12292,-0.234966 0.17505,-0.0018 0.69232,-0.135875 1.1495,-0.297853 0.71697,-0.254025 0.94973,-0.284872 1.69335,-0.224412 0.47416,0.03855 1.13109,0.127003 1.45984,0.196557 0.75646,0.16005 1.01276,0.01215 1.51203,-0.872515 0.26542,-0.470297 0.5415,-0.756348 1.06665,-1.105157 0.49553,-0.329142 0.74487,-0.434281 0.82941,-0.34974 0.0665,0.06649 0.19773,0.120881 0.29165,0.120881 0.0939,0 0.28854,0.11065 0.4325,0.245889 0.14395,0.135238 0.36037,0.303352 0.48093,0.373586 0.76408,0.445133 0.99058,0.546399 1.54515,0.690848 0.67445,0.175672 1.87131,0.990655 1.98613,1.352426 0.046,0.144991 0.13826,0.198941 0.26912,0.157406 0.12488,-0.03963 0.29255,0.04428 0.44977,0.225096 0.13787,0.158559 0.34299,0.288289 0.45583,0.288289 0.11284,0 0.58294,0.181045 1.04467,0.402323 0.46173,0.221278 0.95682,0.402324 1.1002,0.402324 0.14337,0 0.60184,0.181046 1.01882,0.402324 0.41697,0.221278 0.8541,0.402323 0.9714,0.402323 0.1173,0 0.26241,0.04838 0.32247,0.10751 0.0601,0.05913 0.67821,0.311745 1.37365,0.561366 0.69545,0.249621 1.65094,0.640924 2.12333,0.869563 0.47238,0.228638 0.93459,0.415705 1.02713,0.415705 0.0925,0 0.28492,0.109595 0.4275,0.243544 0.1834,0.172288 0.40176,0.241577 0.74634,0.236822 0.53578,-0.0074 0.90591,0.139551 0.90591,0.359661 0,0.172238 0.61741,0.500514 1.09202,0.580631 0.18967,0.03202 0.62769,0.139285 0.97339,0.238374 0.34569,0.09909 0.8391,0.180162 1.09645,0.180162 0.92601,0 1.9106,0.785449 2.07357,1.654187 0.0644,0.34324 0.16288,0.471381 0.47767,0.621492 0.82956,0.395591 1.21653,1.961926 0.60767,2.459693 -0.30653,0.250603 -1.12974,0.372868 -1.81622,0.26975 -1.23844,-0.18603 -1.13702,-0.242714 -1.82906,1.022196 -0.34363,0.628077 -0.79992,1.346578 -1.01399,1.596667 -0.27441,0.320585 -0.49542,0.797496 -0.74927,1.616833 -0.19804,0.639168 -0.39943,1.213851 -0.44755,1.277074 -0.0481,0.06322 -0.118,0.27642 -0.1553,0.473772 -0.10279,0.543802 -1.30032,2.661654 -1.73892,3.075308 -0.22023,0.207703 -0.44104,0.566158 -0.51271,0.832298 -0.0692,0.25711 -0.22371,0.556012 -0.34329,0.664229 -0.2719,0.24607 -0.78623,1.37856 -0.92701,2.041179 -0.219,1.030795 -0.33,1.357548 -0.52865,1.556191 -0.11233,0.11233 -0.35418,0.524672 -0.53746,0.916315 -0.18327,0.391643 -0.40768,0.77388 -0.4987,0.849414 -0.0928,0.07703 -0.16547,0.336388 -0.16547,0.590615 0,0.618681 -0.1262,0.811051 -0.89159,1.359138 -0.53181,0.380815 -0.74868,0.468888 -1.11969,0.4547 -0.70612,-0.027 -0.76348,-0.01115 -0.7415,0.204886 0.041,0.402906 -0.0114,0.42416 -0.21583,0.08755 -0.17051,-0.280774 -0.28586,-0.343757 -0.6316,-0.344849 -0.38751,-0.0012 -0.42299,0.02581 -0.42301,0.322333 -1e-5,0.178018 0.0515,0.419976 0.11452,0.537684 0.063,0.117708 0.0839,0.293732 0.0465,0.391165 -0.0921,0.23994 -1.06603,0.874051 -1.34249,0.874051 -0.12231,0 -0.41832,0.155182 -0.6578,0.344845 -0.23947,0.18967 -0.51198,0.34485 -0.60557,0.34485 -0.0936,0 -0.39651,0.0811 -0.67316,0.18024 -0.27664,0.0991 -0.9944,0.22957 -1.59501,0.28985 -0.60061,0.0603 -1.40238,0.18435 -1.78172,0.27572 -0.37933,0.0914 -1.22717,0.16591 -1.88409,0.16566 -1.22604,-4.7e-4 -1.31016,0.0194 -3.05874,0.7211 -0.88018,0.35323 -1.51373,0.51116 -2.64384,0.65905 -0.569,0.0745 -1.47423,0.26343 -2.01162,0.41994 -0.63157,0.18394 -1.52582,0.32605 -2.52889,0.4019 -1.61645,0.12221 -2.57188,0.24791 -3.44849,0.45367 -0.2845,0.0668 -1.49682,0.1413 -2.69403,0.1656 -2.1278,0.0432 -3.18411,0.16437 -4.17823,0.47931 -0.27091,0.0858 -0.68507,0.15605 -0.92036,0.15605 -0.23529,0 -0.60851,0.0551 -0.82937,0.12253 -0.84401,0.25755 -3.8131,0.90386 -4.72706,1.029 -0.52563,0.072 -0.99187,0.15321 -1.03608,0.18054 -0.0442,0.0273 -0.89918,0.10329 -1.89992,0.16881 -1.00074,0.0655 -2.07816,0.19072 -2.39427,0.27822 -0.71193,0.19706 -1.73816,0.36856 -3.16112,0.52828 -0.60061,0.0674 -1.47997,0.21925 -1.95414,0.33742 -0.47417,0.11816 -1.27594,0.3042 -1.78172,0.41342 -0.50578,0.10921 -1.08709,0.268 -1.2918,0.35286 -0.20471,0.0849 -0.77371,0.20802 -1.26445,0.27369 -0.49073,0.0657 -1.12501,0.19034 -1.40951,0.27704 -1.09289,0.33305 -2.72631,0.59381 -5.09726,0.81371 -0.43266,0.0401 -1.13098,0.16704 -1.55182,0.28202 -1.01923,0.27847 -2.3749,0.53929 -3.63892,0.7001 -0.569,0.0724 -1.16386,0.19762 -1.32192,0.27829 -0.43197,0.22047 -3.63029,0.85946 -4.31753,0.86258 -0.18586,8.5e-4 -0.77761,0.15534 -1.315,0.34332 -0.53739,0.18797 -1.13225,0.34298 -1.32192,0.34447 -0.18967,0.001 -0.86212,0.18803 -1.49435,0.41454 -1.31145,0.46988 -2.34093,0.72543 -2.94591,0.73129 -0.22936,0.002 -0.59146,0.0755 -0.80465,0.16277 -0.21319,0.0873 -0.74971,0.19483 -1.19227,0.23894 -0.44256,0.0441 -1.03742,0.15324 -1.32192,0.2425 -1.12863,0.35414 -2.99401,0.82763 -4.02324,1.02122 -1.21196,0.22797 -5.1846,1.2893 -5.771557,1.54193 -0.297742,0.12815 -0.737424,0.26554 -0.977072,0.30532 -0.929685,0.15429 -4.776483,0.99157 -5.06946,1.10341 -0.170004,0.0649 -0.74878,0.22039 -1.286169,0.34556 -0.53739,0.12517 -1.152569,0.3083 -1.367065,0.40696 -0.368044,0.16928 -0.792573,0.24506 -2.713648,0.48442 -0.442556,0.0551 -0.985693,0.18094 -1.206971,0.27957 -0.221278,0.0986 -1.307552,0.31336 -2.413943,0.47719 -1.10639,0.16383 -2.405796,0.39983 -2.887568,0.52445 -0.481773,0.12462 -1.103923,0.22658 -1.382556,0.22658 -0.685313,0 -0.967653,0.22929 -1.17945,0.95785 -0.09769,0.33604 -0.282273,0.70569 -0.410187,0.82145 -0.127913,0.11576 -0.23257,0.3438 -0.23257,0.50675 0,0.22363 -0.264258,0.55048 -1.077607,1.33285 -0.592685,0.57011 -1.276348,1.28834 -1.519252,1.59606 -0.613358,0.77705 -3.111346,3.06105 -4.368971,3.99472 -0.98372,0.73031 -2.338454,2.11095 -3.088363,3.1474 -0.182973,0.25289 -0.504408,0.65393 -0.7143,0.89119 -0.209892,0.23727 -0.381622,0.5295 -0.381622,0.64941 0,0.20843 0.51967,1.05776 1.065275,1.74105 0.141155,0.17677 0.463555,0.66781 0.716444,1.09119 0.252889,0.42338 0.671242,1.00933 0.929672,1.30211 0.258431,0.29278 0.693358,0.8427 0.966506,1.22203 0.273148,0.37933 0.760024,0.98192 1.081947,1.33908 0.321923,0.35716 0.921542,1.04423 1.332487,1.52681 0.410945,0.48258 1.349184,1.48354 2.084976,2.22436 1.375799,1.38518 1.784944,1.93827 2.616894,3.53752 0.422313,0.81181 0.483419,1.02468 0.494974,1.72425 0.01774,1.07405 -0.05205,1.23147 -0.702981,1.58576 -0.658479,0.35838 -0.79747,0.36997 -1.259238,0.10495 -0.343058,-0.19689 -0.357191,-0.19441 -1.119174,0.19641 -0.42445,0.2177 -0.975505,0.56607 -1.224566,0.77416 -0.532102,0.44456 -0.670388,0.45485 -1.874137,0.13956 -0.979831,-0.25664 -1.513767,-0.24623 -3.499784,0.0683 -1.870665,0.29622 -2.217473,0.3098 -2.516746,0.0986 z m 4.930688,-4.18326 c 1.179412,-0.17475 1.370929,-0.30332 1.090153,-0.73184 -0.108348,-0.16536 -0.242774,-0.30065 -0.298726,-0.30065 -0.05595,0 -0.101729,-0.0713 -0.101729,-0.15835 0,-0.0871 -0.08547,-0.22928 -0.189927,-0.31597 -0.273011,-0.22658 -1.074519,-1.33181 -1.074519,-1.4817 0,-0.0696 -0.04906,-0.0963 -0.109019,-0.0593 -0.100807,0.0623 -0.851036,-0.83519 -1.283368,-1.53528 -0.101979,-0.16514 -0.370654,-0.49485 -0.597055,-0.73268 -0.226402,-0.23784 -0.555096,-0.696 -0.730432,-1.01815 -0.175336,-0.32216 -0.432892,-0.62911 -0.572347,-0.68213 -0.158203,-0.0601 -0.393384,-0.39052 -0.62539,-0.87852 -0.20451,-0.43016 -0.564809,-0.97043 -0.800664,-1.20061 -0.410748,-0.40085 -1.374056,-1.72516 -1.374056,-1.88899 0,-0.0775 -0.558319,-0.7529 -1.085716,-1.31342 -0.339893,-0.36125 -0.622996,-0.93222 -0.555703,-1.12076 0.02821,-0.079 -0.0048,-0.14369 -0.07325,-0.14369 -0.198639,0 -0.146532,-1.15113 0.07663,-1.69297 0.156651,-0.38034 0.299592,-0.52787 0.646002,-0.66675 0.244661,-0.0981 0.749959,-0.48346 1.122883,-0.85638 0.372924,-0.37292 0.7754,-0.70894 0.894391,-0.74671 0.118991,-0.0378 0.245121,-0.1832 0.280289,-0.32318 0.03517,-0.13999 0.367976,-0.56711 0.739574,-0.94916 0.371597,-0.38206 0.722989,-0.77698 0.780871,-0.8776 0.05788,-0.10063 0.402671,-0.50587 0.766199,-0.90055 0.363529,-0.39467 0.660961,-0.78368 0.660961,-0.86446 0,-0.16574 0.925449,-0.74346 1.190956,-0.74346 0.09512,0 0.202738,-0.0939 0.23915,-0.20859 0.03641,-0.11472 0.271448,-0.36043 0.522303,-0.54601 0.250854,-0.18558 0.457322,-0.37622 0.458816,-0.42364 0.0015,-0.0474 0.08336,-0.0862 0.181926,-0.0862 0.09856,0 0.154915,-0.0393 0.125222,-0.0874 -0.131036,-0.21202 0.277624,-0.80353 0.770291,-1.11494 0.293799,-0.18571 0.52814,-0.39205 0.520757,-0.45854 -0.04124,-0.37143 0.05888,-0.53383 0.472364,-0.76622 0.252201,-0.14174 0.485968,-0.34411 0.519483,-0.44971 0.03351,-0.10559 0.194909,-0.25303 0.358655,-0.32764 0.215552,-0.0982 0.281351,-0.19825 0.23841,-0.36245 -0.03262,-0.12474 -0.01241,-0.19782 0.04492,-0.16239 0.05733,0.0354 0.10423,-0.0162 0.10423,-0.11479 0,-0.12759 -0.113927,-0.17921 -0.39554,-0.17921 -0.217547,0 -0.426343,-0.0498 -0.463991,-0.11075 -0.03821,-0.0618 -0.168159,-0.0111 -0.294158,0.11495 -0.174152,0.17415 -0.383244,0.2257 -0.915405,0.2257 -0.51659,0 -0.742816,0.0531 -0.901332,0.21164 -0.175248,0.17525 -0.315201,0.19835 -0.814012,0.13435 -0.847557,-0.10873 -1.887035,-0.0499 -2.932151,0.16599 -0.492709,0.10177 -0.986194,0.15636 -1.096632,0.12131 -0.110438,-0.035 -0.26616,0.015 -0.34605,0.11129 -0.07989,0.0963 -0.26134,0.17502 -0.403224,0.17502 -0.141883,0 -0.510573,0.0986 -0.81931,0.21911 -0.308736,0.12051 -0.897567,0.30078 -1.308512,0.4006 -0.784647,0.19059 -1.366008,0.33374 -2.413943,0.5944 -0.347722,0.0865 -1.330542,0.28502 -2.184043,0.44118 -0.853501,0.15616 -1.758729,0.33518 -2.011619,0.39781 -0.252889,0.0626 -0.718435,0.13525 -1.034546,0.16137 -0.316112,0.0261 -0.885113,0.12841 -1.264446,0.22731 -0.645965,0.16843 -1.462213,0.35406 -2.126569,0.48364 -0.158056,0.0308 -0.520147,0.11293 -0.804647,0.18244 -0.284501,0.0695 -0.66464,0.0973 -0.844754,0.0617 -0.22538,-0.0445 -0.415897,0.005 -0.611067,0.15836 -0.200801,0.15795 -0.40245,0.20785 -0.690766,0.17094 -0.223949,-0.0287 -0.595561,-0.003 -0.825804,0.0565 -0.230243,0.0597 -0.88417,0.1688 -1.453171,0.24234 -1.309076,0.16919 -1.429306,0.2031 -1.207072,0.34045 0.140778,0.087 0.14347,0.17739 0.01779,0.5973 -0.08145,0.27213 -0.195861,1.14572 -0.254252,1.94132 -0.05839,0.79559 -0.18642,1.83014 -0.284507,2.29899 -0.281051,1.34339 -0.511286,3.32544 -0.6398,5.50791 -0.06515,1.10639 -0.181574,2.14094 -0.258721,2.299 -0.07715,0.15805 -0.155245,0.72705 -0.173551,1.26444 -0.01831,0.53739 -0.102712,1.28744 -0.187568,1.66677 -0.367898,1.64462 -0.553385,5.14632 -0.316144,5.96829 0.05935,0.20561 0.183753,0.34609 0.320969,0.36243 0.123234,0.0147 0.637881,0.0646 1.143659,0.11105 0.505778,0.0464 0.971324,0.12368 1.034547,0.17172 0.111947,0.0851 3.936679,0.0657 10.679776,-0.0541 2.363208,-0.042 3.49205,-0.10626 3.908288,-0.22254 0.440795,-0.12315 0.897451,-0.14316 1.849735,-0.0811 0.695445,0.0454 1.351568,0.0401 1.458051,-0.0118 0.316185,-0.15391 1.954133,-0.10386 2.450237,0.0749 0.252889,0.0911 0.666708,0.1687 0.919597,0.17244 0.252889,0.004 0.692572,0.0823 0.977072,0.17449 0.542705,0.17596 0.616327,0.17399 2.184043,-0.0583 z M 16.652467,129.76641 c 0.86364,-0.20693 2.005786,-0.59886 2.240187,-0.76873 0.07187,-0.0521 0.485687,-0.16619 0.919597,-0.25357 0.433911,-0.0874 0.94411,-0.21087 1.133777,-0.27442 1.004488,-0.33656 1.34388,-0.38959 2.62641,-0.41035 1.161396,-0.0188 1.474795,-0.0629 1.856824,-0.26145 0.25278,-0.13135 0.640647,-0.31638 0.861925,-0.41117 0.221278,-0.0948 0.752462,-0.33408 1.18041,-0.53174 0.427947,-0.19767 0.870754,-0.3594 0.984013,-0.3594 0.11326,0 0.51449,-0.12093 0.891622,-0.26872 0.604633,-0.23696 0.95713,-0.27776 2.981749,-0.34513 1.355369,-0.0451 2.578622,-0.14526 2.985753,-0.24446 0.379334,-0.0924 0.83333,-0.16989 1.008881,-0.17214 0.354765,-0.005 2.00057,-0.50296 2.587002,-0.78344 0.207512,-0.0992 0.673058,-0.1876 1.034547,-0.19634 0.361489,-0.009 0.802871,-0.0773 0.980848,-0.15233 0.177977,-0.075 0.488341,-0.13767 0.689698,-0.13918 0.201357,-0.001 0.573012,-0.0549 0.825902,-0.11862 0.252889,-0.0637 0.584187,-0.14256 0.736218,-0.17516 0.152031,-0.0326 0.365071,-0.10671 0.473422,-0.1647 0.108351,-0.058 0.228417,-0.074 0.266813,-0.0356 0.0384,0.0384 0.141712,0.0101 0.229591,-0.0628 0.185589,-0.15402 1.549665,-0.54479 2.547093,-0.72967 0.379333,-0.0703 0.883919,-0.24947 1.121301,-0.39812 0.237382,-0.14865 0.57509,-0.25934 0.750463,-0.24598 0.175372,0.0134 0.39189,-0.0208 0.48115,-0.076 0.186272,-0.11512 1.720401,-0.11399 2.084392,0.002 0.135258,0.0429 0.429371,-2.6e-4 0.661855,-0.0972 0.697951,-0.29097 0.866249,-0.34526 1.165594,-0.37603 0.158056,-0.0162 0.75292,-0.13939 1.321921,-0.27366 1.900408,-0.44843 2.065632,-0.48295 2.758792,-0.57646 0.889995,-0.12007 2.896981,-0.45471 4.195662,-0.69959 0.347722,-0.0656 0.942587,-0.15641 1.321921,-0.20187 0.379333,-0.0455 0.844879,-0.16849 1.034546,-0.27339 0.522858,-0.28919 1.072409,-0.43677 1.626448,-0.43677 0.275067,0 0.500121,-0.0434 0.500121,-0.0965 0,-0.1372 0.594486,-0.40704 0.82887,-0.37623 0.108156,0.0142 0.305573,-0.0324 0.438705,-0.10369 0.574456,-0.30744 3.11587,-0.64927 5.589534,-0.75182 0.641906,-0.0266 1.304797,-0.10073 1.473091,-0.16472 0.168294,-0.064 0.455864,-0.11633 0.639043,-0.11633 0.18318,0 0.606563,-0.0983 0.940852,-0.21853 0.334288,-0.12019 0.685388,-0.225 0.780222,-0.2329 0.09483,-0.008 0.405197,-0.0293 0.689698,-0.0476 0.2845,-0.0183 0.636347,-0.0978 0.781881,-0.17666 0.145534,-0.0789 0.611081,-0.162 1.034547,-0.18474 0.423466,-0.0228 1.028575,-0.0694 1.344687,-0.1037 0.316111,-0.0343 0.807521,-0.0869 1.092021,-0.11696 0.284501,-0.03 0.808512,-0.0999 1.164469,-0.15533 0.355957,-0.0554 0.756844,-0.0601 0.89086,-0.0106 0.134015,0.0496 0.243664,0.0496 0.243664,1.8e-4 0,-0.17738 0.872068,-0.5223 1.379396,-0.54557 0.2845,-0.0131 0.801774,-0.082 1.149496,-0.15313 0.347723,-0.0712 1.020179,-0.17456 1.494346,-0.22978 0.882256,-0.10273 2.158812,-0.43435 2.607547,-0.67737 0.138094,-0.0748 0.380746,-0.13598 0.539227,-0.13598 0.158481,0 0.314886,-0.0433 0.347567,-0.0962 0.03268,-0.0529 0.248648,-0.10325 0.479928,-0.11195 0.23128,-0.009 0.491423,-0.0747 0.578095,-0.14659 0.08667,-0.0719 0.287576,-0.0982 0.446453,-0.0583 0.211563,0.0531 0.288867,0.0267 0.288867,-0.0985 0,-0.10542 0.06669,-0.14541 0.173888,-0.10428 0.09564,0.0367 0.241375,0.0107 0.323858,-0.0577 0.228005,-0.18922 1.580348,-0.58779 2.000082,-0.58947 0.204193,-8.1e-4 0.566285,-0.0729 0.804648,-0.16023 0.238363,-0.0873 0.795478,-0.22024 1.238034,-0.29539 1.101501,-0.18704 2.098268,-0.42855 2.882879,-0.6985 0.36249,-0.12471 0.80441,-0.22675 0.98203,-0.22675 0.17762,0 0.49282,-0.0708 0.70044,-0.15742 0.73724,-0.30742 1.1877,-0.44334 1.6157,-0.48751 0.23846,-0.0246 0.65228,-0.10176 0.9196,-0.17146 0.26731,-0.0697 0.79639,-0.16715 1.17573,-0.21657 0.37933,-0.0494 0.92247,-0.1779 1.20697,-0.2855 0.2915,-0.11025 0.67584,-0.17013 0.88058,-0.13719 0.26736,0.043 0.463,-0.0151 0.74077,-0.22002 0.21685,-0.15998 0.53626,-0.27848 0.75066,-0.27848 0.20527,0 0.40062,-0.0443 0.43411,-0.0985 0.0335,-0.0542 0.32672,-0.13002 0.6516,-0.1685 0.32489,-0.0385 0.76244,-0.17129 0.97235,-0.29513 0.2099,-0.12385 0.4829,-0.1987 0.60665,-0.16634 0.12376,0.0324 0.25977,0.003 0.30225,-0.0661 0.0425,-0.0687 0.3271,-0.12497 0.63249,-0.12497 0.3054,0 0.98376,-0.0813 1.50746,-0.18062 0.52371,-0.0994 1.0467,-0.15592 1.1622,-0.12571 0.1155,0.0302 0.21,-5.9e-4 0.21,-0.0684 0,-0.0678 0.0278,-0.0956 0.0617,-0.0616 0.10298,0.10298 1.54529,-0.24037 2.22811,-0.53041 0.87788,-0.3729 1.80686,-0.64248 2.21397,-0.64248 0.18657,0 0.43733,-0.0525 0.55725,-0.11669 0.11993,-0.0642 0.36223,-0.14079 0.53846,-0.17023 0.17622,-0.0294 0.78595,-0.12845 1.35495,-0.22002 0.569,-0.0916 1.39664,-0.25274 1.8392,-0.35816 0.44255,-0.10542 1.06328,-0.23237 1.37939,-0.28211 0.31611,-0.0497 0.93684,-0.20379 1.3794,-0.34234 1.33343,-0.41746 2.16731,-0.59681 2.4862,-0.53474 0.23253,0.0453 0.3718,-0.0193 0.60437,-0.28037 0.16622,-0.18655 0.35355,-0.34565 0.41628,-0.35355 0.0627,-0.008 0.17872,-0.0237 0.25775,-0.0352 0.079,-0.0114 0.28558,0.0759 0.45901,0.19406 0.17343,0.11817 0.37278,0.17935 0.44299,0.13596 0.0702,-0.0434 0.368,-0.0955 0.66175,-0.1157 1.27944,-0.0881 2.53395,-0.2779 3.00942,-0.45522 0.49265,-0.18373 0.94258,-0.28502 2.06517,-0.46493 0.2845,-0.0456 0.61931,-0.15293 0.74401,-0.23852 0.12471,-0.0856 0.40554,-0.15562 0.62407,-0.15562 0.21852,0 0.55617,-0.0484 0.75033,-0.10763 0.55432,-0.16902 1.46937,-0.3664 1.84735,-0.39848 0.18967,-0.0161 0.61526,-0.11949 0.94576,-0.22976 0.33049,-0.11027 0.65319,-0.16817 0.71711,-0.12867 0.0639,0.0395 0.35686,-0.0346 0.651,-0.16474 0.29414,-0.13011 0.90254,-0.26439 1.35199,-0.29838 1.07185,-0.0811 2.12039,-0.27823 2.50698,-0.47139 0.49687,-0.24826 2.0378,-0.20051 2.76024,0.0855 0.72868,0.28851 1.41627,0.23571 1.93619,-0.14868 0.25849,-0.19111 0.58196,-0.2769 1.26559,-0.33565 0.52839,-0.0454 1.03881,-0.15784 1.20201,-0.26478 0.16174,-0.10597 0.3951,-0.15788 0.54294,-0.12078 0.31794,0.0798 2.00683,-0.20259 2.36816,-0.39597 0.14462,-0.0774 0.4534,-0.12957 0.68618,-0.11594 0.23279,0.0136 0.6043,-0.006 0.82557,-0.0427 1.53577,-0.25752 2.4534,-0.34463 3.96577,-0.37645 1.86005,-0.0391 3.5658,-0.19102 4.48303,-0.399167 0.31612,-0.07174 0.91098,-0.169394 1.32192,-0.21702 0.41095,-0.04763 1.09157,-0.198731 1.51249,-0.33579 0.42093,-0.137059 1.01579,-0.272644 1.32192,-0.3013 0.30614,-0.02866 1.02216,-0.130387 1.59116,-0.22607 0.569,-0.09568 1.09223,-0.175086 1.16273,-0.176452 0.0705,-0.0014 0.27482,-0.117826 0.45404,-0.258802 0.17922,-0.140976 0.44397,-0.240842 0.58833,-0.221925 0.14435,0.01892 0.3258,-0.0048 0.40321,-0.05259 0.0774,-0.04784 0.2464,-0.101222 0.37551,-0.118619 0.12912,-0.0174 0.51927,-0.0889 0.86699,-0.158888 0.34772,-0.06999 1.1495,-0.196119 1.78172,-0.280282 0.63222,-0.08416 1.38227,-0.215726 1.66677,-0.292362 0.2845,-0.07663 0.95695,-0.183959 1.49434,-0.238497 0.53739,-0.05454 1.16737,-0.131511 1.39994,-0.171053 0.42869,-0.07288 1.24391,0.119924 1.24391,0.294197 0,0.05232 0.27156,0.02712 0.60348,-0.056 0.33192,-0.08312 0.73281,-0.142864 0.89086,-0.132774 0.2663,0.017 0.28473,-0.01468 0.25126,-0.431977 -0.0256,-0.319719 0.0342,-0.545461 0.20642,-0.778372 0.1334,-0.180429 0.21126,-0.378671 0.17302,-0.440539 -0.0382,-0.06187 -0.006,-0.112487 0.0714,-0.112487 0.0775,0 0.10928,-0.03162 0.0706,-0.07026 -0.0387,-0.03864 0.082,-0.198422 0.26821,-0.355067 0.28114,-0.236558 0.33848,-0.37132 0.33848,-0.79547 0,-0.377795 0.0517,-0.530492 0.19859,-0.586872 0.31777,-0.121939 0.87559,-0.749813 1.10457,-1.243271 0.11612,-0.250263 0.28016,-0.594357 0.36452,-0.764654 0.0844,-0.170296 0.12573,-0.415372 0.0919,-0.544614 -0.0397,-0.151779 0.004,-0.260184 0.12401,-0.306154 0.10201,-0.03914 0.18547,-0.122136 0.18547,-0.184428 0,-0.06229 0.10345,-0.244779 0.2299,-0.405527 0.12644,-0.160748 0.2299,-0.378242 0.2299,-0.48332 0,-0.105077 0.22519,-0.533917 0.50043,-0.952976 0.27524,-0.419059 0.6204,-1.057484 0.76701,-1.418721 0.14662,-0.361237 0.51524,-0.940961 0.81917,-1.288276 0.4312,-0.492751 0.54811,-0.710206 0.53219,-0.98983 -0.0402,-0.705332 0.15469,-1.347048 0.44986,-1.481536 0.32922,-0.150005 0.98935,-1.084017 0.88523,-1.252498 -0.0993,-0.160592 0.1868,-0.670482 0.37614,-0.670482 0.0841,0 0.15301,-0.103985 0.15301,-0.231078 0,-0.127093 0.19074,-0.502116 0.42388,-0.833385 0.23313,-0.331269 0.51926,-0.860943 0.63585,-1.177055 0.11658,-0.316111 0.26667,-0.683415 0.33353,-0.81623 0.15757,-0.312992 0.0835,-0.802784 -0.11491,-0.760294 -0.0842,0.01802 -0.21227,-0.01371 -0.28465,-0.07052 -0.0724,-0.05681 -0.363,-0.138678 -0.64585,-0.181931 -0.28285,-0.04325 -0.60188,-0.157926 -0.70896,-0.254829 -0.10708,-0.0969 -0.31534,-0.159099 -0.4628,-0.138213 -0.17791,0.0252 -0.30775,-0.03938 -0.38592,-0.191925 -0.0675,-0.131634 -0.31311,-0.276835 -0.57475,-0.339709 -0.25132,-0.06039 -0.48859,-0.155336 -0.52727,-0.21098 -0.0387,-0.05564 -0.10267,-0.09831 -0.14221,-0.0948 -0.0395,0.0035 -0.30961,-0.09554 -0.60016,-0.220081 -0.29056,-0.124547 -0.62112,-0.226449 -0.73458,-0.226449 -0.11346,0 -0.27069,-0.07759 -0.34939,-0.172424 -0.0787,-0.09483 -0.23389,-0.172425 -0.34485,-0.172425 -0.11096,0 -0.26817,-0.08003 -0.34935,-0.177842 -0.19689,-0.237238 -1.27621,-0.741755 -1.58684,-0.741755 -0.30955,0 -1.55989,-0.585548 -2.28564,-1.070385 -0.30172,-0.201567 -0.6779,-0.384137 -0.83596,-0.405712 -0.15805,-0.02157 -0.53018,-0.170469 -0.82695,-0.330878 -0.30425,-0.164453 -0.62213,-0.259972 -0.72887,-0.219014 -0.10826,0.04155 -0.33244,-0.02929 -0.5237,-0.165484 -0.18393,-0.130968 -0.33442,-0.201762 -0.33442,-0.15732 0,0.04444 -0.10536,-0.05314 -0.23413,-0.216841 -0.13724,-0.174475 -0.30373,-0.270937 -0.40232,-0.233103 -0.0925,0.0355 -0.1682,0.0127 -0.1682,-0.05066 0,-0.06336 -0.27156,-0.255728 -0.60348,-0.427485 -0.33192,-0.171756 -0.68108,-0.37712 -0.77591,-0.456365 -0.0948,-0.07924 -0.42897,-0.177407 -0.74253,-0.21814 -0.31356,-0.04073 -0.61729,-0.121247 -0.67497,-0.178922 -0.0577,-0.05768 -0.17615,-0.07751 -0.26328,-0.04407 -0.0908,0.03482 -0.15842,-0.0121 -0.15842,-0.109858 0,-0.09386 -0.0744,-0.232369 -0.16526,-0.307806 -0.13471,-0.111802 -0.19883,-0.07226 -0.3468,0.213878 -0.19344,0.374074 -0.79472,0.75822 -0.99401,0.635053 -0.066,-0.04077 -0.42143,0.06118 -0.78992,0.226552 -0.69504,0.311915 -1.38224,0.48948 -2.3492,0.60701 -0.31046,0.03773 -0.69176,0.134643 -0.84732,0.21535 -0.15557,0.08071 -0.39296,0.12549 -0.52754,0.09952 -0.13459,-0.02597 -0.46398,0.0558 -0.73198,0.181709 -0.26801,0.125913 -0.64469,0.228933 -0.83708,0.228933 -0.19239,0 -0.53345,0.07674 -0.75792,0.170527 -0.22447,0.09379 -0.82891,0.205619 -1.3432,0.248509 -0.53434,0.04456 -1.08448,0.16228 -1.28369,0.274684 -0.33511,0.189082 -2.20169,0.401848 -4.54428,0.517989 -0.47416,0.02351 -1.11271,0.09607 -1.41899,0.161245 -0.43874,0.09337 -2.62422,0.158719 -3.63879,0.108813 -0.31889,-0.01569 -1.31803,0.151706 -1.78172,0.298502 -0.26062,0.08251 -0.73752,0.121345 -1.10091,0.08966 -0.50246,-0.04382 -0.78926,0.0039 -1.3262,0.220815 -0.55173,0.222856 -0.80732,0.263363 -1.31303,0.208096 -0.43424,-0.04745 -0.73433,-0.01749 -0.9728,0.09713 -0.18966,0.09116 -0.42244,0.201182 -0.51727,0.244481 -0.0948,0.0433 -0.45654,0.09077 -0.80379,0.105491 -0.34726,0.01472 -0.86453,0.132259 -1.1495,0.261197 -0.51974,0.235164 -1.94688,0.419044 -3.85167,0.496268 -1.71327,0.06946 -2.621,0.163641 -2.74184,0.284478 -0.0662,0.06622 -0.34524,0.120408 -0.62003,0.120408 -0.4284,0 -0.52637,0.04659 -0.68719,0.326807 -0.15118,0.263405 -0.27366,0.330181 -0.63133,0.344196 -0.24406,0.0096 -0.60274,0.0996 -0.79705,0.200081 -0.20745,0.107279 -0.57336,0.171461 -0.88641,0.155483 -0.51904,-0.02649 -1.2803,0.17726 -1.2803,0.342671 0,0.04527 -0.30747,0.06006 -0.68326,0.03288 -0.55502,-0.04015 -0.75814,-0.0032 -1.08213,0.197086 -0.21937,0.135579 -0.72661,0.291975 -1.12719,0.347546 -0.85405,0.118477 -1.96845,0.418987 -2.42034,0.652668 -0.17546,0.09073 -0.53899,0.161347 -0.80785,0.156916 -0.83896,-0.01382 -0.97595,0.002 -1.44323,0.166884 -0.49734,0.17547 -1.23739,0.276453 -2.52709,0.344834 -0.46071,0.02443 -0.90243,0.09817 -0.9816,0.163881 -0.16453,0.13655 -1.06216,0.37986 -1.3868,0.375903 -0.11954,-0.0015 -0.41114,0.09622 -0.648,0.21705 -0.44963,0.229382 -1.59524,0.447371 -2.31058,0.439658 -0.22942,-0.0025 -0.51392,0.0453 -0.63222,0.106167 -0.1183,0.06086 -0.68911,0.142749 -1.26848,0.181964 -0.73198,0.04954 -1.17041,0.139416 -1.43687,0.294538 -0.47318,0.275461 -1.20767,0.334183 -1.59045,0.127154 -0.15805,-0.08549 -0.28858,-0.159622 -0.29007,-0.164744 -0.001,-0.0051 -0.12762,0.107073 -0.28031,0.249323 -0.20023,0.186543 -0.41787,0.258637 -0.78077,0.258637 -0.27673,0 -0.59028,0.04633 -0.69676,0.102967 -0.10648,0.05663 -0.5557,0.12129 -0.99825,0.143687 -0.44256,0.0224 -0.83194,0.07689 -0.8653,0.121089 -0.0333,0.0442 -0.24216,0.09899 -0.46401,0.121749 -0.22186,0.02276 -0.47907,0.08848 -0.57158,0.146056 -0.0925,0.05757 -0.57685,0.09341 -1.07631,0.07965 -0.52193,-0.01438 -0.972,0.028 -1.05834,0.09965 -0.0826,0.06857 -0.63093,0.135751 -1.21846,0.149285 -0.58753,0.01353 -1.18263,0.0874 -1.32245,0.164138 -0.13983,0.07674 -0.65332,0.15852 -1.1411,0.181727 -0.64467,0.03067 -0.92366,0.09251 -1.02159,0.226431 -0.0741,0.101329 -0.15921,0.159741 -0.18915,0.129803 -0.0299,-0.02994 -0.49051,-0.06257 -1.02349,-0.07252 -0.78832,-0.01472 -1.05928,0.02793 -1.45271,0.228644 -0.28874,0.147305 -0.69837,0.246734 -1.01649,0.246734 -0.32963,0 -0.64921,0.08051 -0.83796,0.211101 -0.16782,0.116105 -0.64135,0.30302 -1.05229,0.415368 -0.410947,0.112347 -0.876493,0.269621 -1.034549,0.349499 -0.280542,0.141778 -1.546674,0.341915 -2.931216,0.463337 -1.322446,0.115976 -2.13963,0.273894 -2.544457,0.491708 -0.135006,0.07264 -0.419506,0.126817 -0.632223,0.120396 -0.212718,-0.0064 -0.690628,0.124249 -1.062023,0.290379 -0.391593,0.175165 -0.883705,0.302054 -1.171449,0.302054 -0.272903,0 -0.528504,0.05229 -0.568002,0.1162 -0.0395,0.06391 -0.210665,0.112806 -0.38037,0.108659 -1.196931,-0.02925 -3.355784,0.09188 -3.485727,0.195578 -0.086,0.06863 -0.259823,0.108189 -0.386267,0.0879 -0.126445,-0.02028 -0.669582,0.06543 -1.206972,0.190479 -0.537389,0.125048 -1.138412,0.246912 -1.335605,0.270807 -0.197193,0.0239 -0.513931,0.123807 -0.703861,0.222023 -0.189931,0.09822 -0.368245,0.155661 -0.396253,0.127652 -0.02801,-0.02801 -0.228544,0.001 -0.445635,0.06456 -0.217091,0.06351 -0.646146,0.141468 -0.953455,0.173229 -0.30731,0.03176 -0.649668,0.106408 -0.760797,0.165882 -0.111128,0.05947 -0.233407,0.07678 -0.27173,0.03845 -0.03832,-0.03832 -0.420148,0.01359 -0.848499,0.115365 -1.198299,0.28471 -2.78016,0.498999 -3.480136,0.471441 -0.347723,-0.01369 -0.683951,0.0084 -0.747173,0.04915 -0.06322,0.04072 -0.295995,0.08207 -0.517273,0.09189 -0.221278,0.0098 -0.686824,0.07854 -1.034547,0.152709 -0.808125,0.172377 -1.127627,0.212269 -2.184043,0.272693 -0.474168,0.02712 -1.012918,0.108566 -1.197224,0.180989 -0.184306,0.07242 -0.753307,0.15508 -1.264446,0.183682 -0.51114,0.0286 -1.343164,0.07853 -1.848942,0.110942 -0.505778,0.03242 -1.449827,0.08962 -2.097886,0.127112 -0.648059,0.0375 -1.20718,0.11492 -1.242492,0.172057 -0.03531,0.05714 -0.309443,0.103884 -0.609179,0.103884 -0.299736,0 -0.594115,0.04655 -0.654176,0.103455 -0.06006,0.0569 -0.433769,0.132223 -0.830461,0.167385 -0.396692,0.03516 -0.782755,0.101938 -0.857919,0.148391 -0.262998,0.162542 -3.283213,0.643079 -3.438522,0.547093 -0.04809,-0.02972 -0.276182,0.02482 -0.506868,0.121208 -0.230686,0.09639 -0.532414,0.14689 -0.670507,0.112231 -0.138094,-0.03466 -0.404242,-0.004 -0.591441,0.0681 -0.187199,0.07211 -0.572474,0.157321 -0.856167,0.189349 -0.283692,0.03203 -0.609926,0.108605 -0.724965,0.170172 -0.115039,0.06157 -0.581246,0.111018 -1.036016,0.109891 -0.45477,-0.0011 -1.033764,0.01408 -1.286653,0.03379 -0.25289,0.01971 -0.964899,0.07385 -1.582243,0.120313 -0.758459,0.05708 -1.373508,0.179981 -1.896669,0.379 -0.425824,0.16199 -1.006998,0.317303 -1.291499,0.345139 -0.2845,0.02784 -0.566414,0.09732 -0.626475,0.154418 -0.06006,0.05709 -0.273585,0.103805 -0.474498,0.103805 -0.200913,0 -0.539727,0.07091 -0.75292,0.157589 -0.213194,0.08667 -0.667875,0.193062 -1.010403,0.236418 -0.342529,0.04336 -0.804456,0.154738 -1.026505,0.247516 -0.519767,0.217172 -1.972617,0.520931 -2.103797,0.439858 -0.05543,-0.03426 -0.397532,0.07452 -0.76022,0.241722 -0.816823,0.376571 -1.650764,0.540576 -2.843477,0.559203 -0.730432,0.01141 -0.959365,0.0575 -1.112923,0.224078 -0.106329,0.115343 -0.287374,0.199909 -0.402323,0.187924 -0.436552,-0.04551 -0.715686,0.01052 -0.882275,0.177109 -0.1049,0.1049 -0.386401,0.172424 -0.718818,0.172424 -0.605294,0 -2.343769,0.430357 -2.343769,0.580197 0,0.05237 -0.09052,0.09308 -0.201162,0.09047 -0.110639,-0.0026 -0.555849,0.129173 -0.989355,0.292853 -0.496482,0.187457 -1.134628,0.321652 -1.724245,0.36259 -0.514828,0.03575 -1.260245,0.120112 -1.656483,0.187482 -0.396237,0.06737 -0.939374,0.137261 -1.206971,0.155313 -1.165358,0.07861 -1.900698,0.219793 -2.383209,0.457558 -0.626054,0.308498 -1.017609,0.372917 -3.13346,0.515518 -1.098656,0.07404 -1.863848,0.187486 -2.317537,0.343578 -0.372529,0.128169 -0.826978,0.233034 -1.009887,0.233034 -0.182909,0 -0.480739,0.07663 -0.661844,0.170278 -0.223208,0.115426 -1.003792,0.208784 -2.42315,0.289809 -1.151628,0.06574 -2.143703,0.15033 -2.204612,0.187974 -0.06091,0.03764 -0.311828,0.06567 -0.557599,0.06227 l -0.446857,-0.0062 0.01124,0.596253 c 0.0062,0.32793 0.06136,0.65864 0.122613,0.7349 0.06126,0.0763 0.08423,0.18257 0.05106,0.23624 -0.03317,0.0537 -0.01373,0.30165 0.0432,0.55105 0.05693,0.2494 0.134229,0.89313 0.171767,1.43052 0.03754,0.53739 0.112275,1.26158 0.166082,1.6093 0.05381,0.34772 0.08914,1.14114 0.07851,1.76315 -0.01062,0.62202 0.02115,1.15595 0.07061,1.18651 0.04946,0.0306 0.06655,0.50031 0.03798,1.04387 -0.04614,0.87779 -0.02081,1.04973 0.2265,1.53778 0.449809,0.88765 0.938369,4.16591 1.128601,7.57295 0.08773,1.57124 0.313514,3.74787 0.417334,4.02323 0.05959,0.15806 0.101582,0.46042 0.09331,0.67191 -0.0083,0.2115 0.03748,0.41841 0.101677,0.4598 0.07087,0.0457 0.110393,0.68483 0.10062,1.62709 -0.0089,0.8535 0.03276,1.68113 0.09248,1.83919 0.104617,0.27691 0.203556,0.94904 0.371657,2.52481 0.101671,0.95307 0.315081,1.15709 1.152909,1.10221 0.325489,-0.0213 0.972081,-0.12988 1.436871,-0.24124 z m 6.632165,-7.85562 c -0.5585,-0.56793 -0.901733,-1.19997 -0.901733,-1.66047 0,-0.20671 -0.04117,-0.42498 -0.09148,-0.48504 -0.134718,-0.16081 -0.379224,-0.92426 -0.431997,-1.34887 -0.127695,-1.02745 -0.31343,-2.15983 -0.44714,-2.7261 -0.08211,-0.34772 -0.148808,-0.73567 -0.148227,-0.86212 0.0034,-0.7309 -0.06894,-1.78533 -0.149762,-2.18404 -0.169108,-0.83428 -0.354846,-2.08382 -0.365512,-2.45896 -0.0062,-0.21775 -0.09657,-0.4293 -0.220478,-0.51609 -0.115493,-0.0809 -0.226798,-0.25724 -0.247345,-0.39187 -0.02055,-0.13464 -0.23053,-0.4324 -0.46663,-0.6617 -0.307572,-0.29871 -0.409434,-0.47941 -0.359294,-0.63739 0.04409,-0.13891 0.0071,-0.24459 -0.09985,-0.28565 -0.0934,-0.0358 -0.232584,-0.21668 -0.309288,-0.40186 -0.163487,-0.3947 -0.002,-0.6913 0.329206,-0.60469 0.135959,0.0356 0.257132,-0.0527 0.36936,-0.2689 0.462219,-0.89058 0.803202,-1.172 1.56355,-1.29043 0.388757,-0.0606 0.916902,-0.21727 1.173654,-0.34826 0.256753,-0.13098 0.625698,-0.23815 0.819878,-0.23815 0.382221,0 1.3592,-0.30374 2.184996,-0.6793 0.2845,-0.12939 0.612743,-0.23638 0.729428,-0.23777 0.116685,-0.001 0.36239,-0.1095 0.546011,-0.24025 0.183621,-0.13075 0.333856,-0.20541 0.333856,-0.16591 0,0.0395 0.114964,-0.009 0.255476,-0.10712 0.140512,-0.0984 0.444559,-0.17895 0.67566,-0.17895 0.231101,0 0.595583,-0.0733 0.80996,-0.16285 0.214377,-0.0896 0.675125,-0.17608 1.023884,-0.19224 0.566783,-0.0263 0.719111,0.0218 1.434719,0.45247 1.276586,0.76829 1.238541,0.7229 1.08468,1.29429 -0.186757,0.69357 -0.888846,1.31541 -1.654675,1.46556 -0.320946,0.0629 -0.764584,0.16347 -0.985862,0.22344 -0.487519,0.13214 -2.152143,0.99438 -2.471417,1.28015 -0.126445,0.11318 -0.785996,0.50138 -1.465668,0.86266 -0.873083,0.4641 -1.253332,0.73016 -1.29561,0.90656 -0.06481,0.27041 -0.0058,1.03036 0.157761,2.03139 0.05681,0.34772 0.08226,0.66874 0.05656,0.71338 -0.0257,0.0446 0.07941,0.16382 0.233579,0.26484 0.456003,0.29878 4.315187,0.23624 4.506328,-0.073 0.1529,-0.2474 0.573469,-0.0601 1.096406,0.48814 0.692503,0.72608 0.765395,1.19138 0.216609,1.38268 -0.189667,0.0661 -0.344849,0.16556 -0.344849,0.22097 0,0.19075 -1.400921,0.76525 -2.076394,0.85151 -0.16207,0.0207 -0.492585,0.17193 -0.734476,0.33609 -0.457286,0.31032 -0.549189,0.3406 -0.914666,0.30135 -0.126447,-0.0136 -0.382396,0.15415 -0.603485,0.39548 -0.402363,0.4392 -0.494358,0.92167 -0.279179,1.46415 0.220654,0.55628 0.614961,2.17029 0.622598,2.54846 0.0086,0.42538 -0.194452,0.76175 -0.459813,0.76175 -0.09027,0 -0.488906,0.32799 -0.885858,0.72887 -0.934206,0.94345 -1.240298,1.01667 -1.813469,0.43382 z m 14.104256,-2.47318 c -0.686949,-0.37992 -1.354972,-1.62508 -1.555386,-2.89915 -0.122835,-0.78088 -0.552204,-2.61512 -0.763608,-3.26209 -0.09296,-0.2845 -0.196958,-0.67245 -0.231098,-0.86212 -0.03414,-0.18967 -0.106228,-0.36112 -0.160196,-0.38101 -0.05397,-0.0199 -0.0751,-0.0975 -0.04696,-0.17243 0.02814,-0.0749 -0.07822,-0.39073 -0.236356,-0.70175 -0.158136,-0.31102 -0.287521,-0.70997 -0.287521,-0.88655 0,-0.17658 -0.107743,-0.60902 -0.239429,-0.96099 -0.279753,-0.7477 -0.221675,-1.45732 0.152602,-1.86453 0.128565,-0.13988 0.291219,-0.36926 0.361453,-0.50972 0.133721,-0.26743 1.29678,-1.13211 1.523222,-1.13244 0.07209,-10e-5 0.511775,-0.18968 0.977072,-0.4213 0.465297,-0.23161 0.949449,-0.43448 1.075894,-0.45082 0.126444,-0.0164 0.498728,-0.10771 0.827297,-0.20304 0.328569,-0.0953 0.794115,-0.15409 1.034547,-0.13058 0.240432,0.0235 0.761122,-0.002 1.15709,-0.0571 0.457712,-0.0635 0.855467,-0.0569 1.092021,0.0179 0.204645,0.0648 0.531256,0.11168 0.725803,0.10423 0.222012,-0.008 0.431956,0.0729 0.563827,0.21862 0.115557,0.12768 0.272702,0.23216 0.349211,0.23216 0.07651,0 0.271205,0.10391 0.432659,0.23091 0.161453,0.127 0.455827,0.26336 0.654164,0.30303 0.307266,0.0615 0.421095,0.19222 0.769473,0.88401 0.268259,0.53269 0.429197,1.03615 0.467995,1.46403 0.06421,0.70806 -0.219455,2.50714 -0.509655,3.23242 -0.09623,0.24049 -0.147253,0.50945 -0.113393,0.59769 0.03386,0.0882 0.358715,0.29647 0.7219,0.46275 0.363185,0.16627 0.735062,0.40899 0.826393,0.53939 0.10977,0.15671 0.245394,0.21633 0.400122,0.17586 0.317403,-0.083 0.778987,0.17368 1.224231,0.68079 0.332211,0.37837 0.361692,0.4693 0.289903,0.89422 -0.114741,0.67914 -0.358064,0.9833 -1.018002,1.27253 -0.468383,0.20528 -0.68619,0.23806 -1.122919,0.16903 -0.298003,-0.0471 -0.893671,-0.11308 -1.323706,-0.14659 -0.430035,-0.0335 -1.040519,-0.13995 -1.35663,-0.23651 -0.323787,-0.0989 -1.001383,-0.17533 -1.55182,-0.17501 -1.614221,9.2e-4 -1.833222,-0.0756 -1.837435,-0.64208 -9.68e-4,-0.13016 -0.07771,-0.33707 -0.170528,-0.45979 -0.236395,-0.31254 -0.215987,-0.84453 0.05382,-1.40296 0.126444,-0.26171 0.229899,-0.52093 0.229899,-0.57604 0,-0.0551 0.283507,-0.39057 0.630016,-0.74548 0.685209,-0.70181 0.8575,-1.12582 0.945725,-2.32744 l 0.05071,-0.69059 -0.784485,-0.16258 c -1.536474,-0.31843 -1.858326,-0.30072 -2.648201,0.14574 -0.391004,0.22101 -0.804079,0.4196 -0.917946,0.44131 -0.292796,0.0558 -0.315883,0.46228 -0.05547,0.97663 0.12249,0.24194 0.259963,0.62093 0.305496,0.84221 0.04553,0.22128 0.152806,0.51308 0.238385,0.64846 0.167678,0.26524 0.370612,1.32221 0.449314,2.34023 0.05314,0.68739 0.244082,1.66847 0.361788,1.85893 0.04056,0.0656 0.07427,0.59237 0.0749,1.17055 7.26e-4,0.65834 0.05985,1.16724 0.158192,1.36163 0.198223,0.39183 0.198925,0.55172 0.0024,0.55172 -0.08503,0 -0.252521,0.1082 -0.372192,0.24043 -0.229843,0.25398 -1.041165,0.68763 -1.247772,0.66695 -0.06715,-0.007 -0.326728,-0.1254 -0.576834,-0.26372 z m 16.634609,-3.85715 c -0.205083,-0.0499 -0.437856,-0.1423 -0.517274,-0.20535 -0.07942,-0.0631 -0.351304,-0.18028 -0.604194,-0.26052 -0.252889,-0.0802 -0.589117,-0.23537 -0.747172,-0.34475 -0.158056,-0.10937 -0.39985,-0.23376 -0.53732,-0.2764 -0.13747,-0.0427 -0.434903,-0.20306 -0.660961,-0.35647 -0.226058,-0.15341 -0.411014,-0.25357 -0.411014,-0.22257 0,0.031 -0.217032,-0.0544 -0.482293,-0.18971 -0.922516,-0.47063 -2.0466,-1.88393 -2.0466,-2.57318 0,-0.16215 -0.09831,-0.57455 -0.218479,-0.91644 -0.120164,-0.34188 -0.197347,-0.64274 -0.171519,-0.66857 0.02583,-0.0258 0.05031,-0.59607 0.05441,-1.2672 0.0069,-1.1335 0.03254,-1.26758 0.360388,-1.88618 0.194116,-0.36627 0.520099,-0.84699 0.724408,-1.06827 0.204309,-0.22128 0.405134,-0.54589 0.446278,-0.72136 0.09577,-0.40842 0.91568,-1.23279 1.226126,-1.23279 0.130663,0 0.420103,-0.13922 0.643201,-0.30939 0.374874,-0.28593 1.533172,-0.57162 1.533172,-0.37815 0,0.0417 0.135409,0.13759 0.300909,0.213 0.252897,0.11522 0.379012,0.0993 0.790416,-0.0999 0.430302,-0.2083 0.557269,-0.22147 1.04975,-0.10889 0.674951,0.15429 1.883425,0.7572 2.085039,1.04022 0.113874,0.15986 0.268126,0.19498 0.711396,0.16198 0.402163,-0.0299 0.6072,0.008 0.708349,0.12938 0.158218,0.19064 0.791321,0.54432 0.791321,0.44206 0,-0.0358 0.212254,0.13101 0.471674,0.37064 0.75866,0.70079 1.222066,1.76345 1.367981,3.13701 0.05951,0.56023 0.04985,0.91311 -0.02759,1.00774 -0.07345,0.0897 -0.09002,0.43013 -0.0432,0.88715 0.07499,0.73196 0.06764,0.75826 -0.569607,2.03842 -0.50769,1.01989 -0.808397,1.46262 -1.407871,2.07281 -0.419261,0.42675 -0.81008,0.77591 -0.868487,0.77591 -0.05841,0 -0.31843,0.17325 -0.577831,0.38501 -0.455591,0.37192 -0.514657,0.38724 -1.736083,0.45023 -0.695446,0.0359 -1.432241,0.0244 -1.637324,-0.0255 z m 2.485685,-4.33086 c 0.32368,-0.41928 0.588509,-0.8331 0.588509,-0.9196 0,-0.0865 0.05478,-0.15727 0.121734,-0.15727 0.06695,0 0.09213,-0.0479 0.05595,-0.10644 -0.03618,-0.0585 0.01806,-0.35338 0.120525,-0.6552 0.352054,-1.03695 0.02096,-1.95768 -0.773513,-2.15106 -0.166584,-0.0405 -0.580402,-0.26344 -0.919597,-0.49532 -0.339195,-0.23188 -0.73054,-0.41422 -0.869657,-0.40521 -0.139117,0.009 -0.284942,-0.0354 -0.324055,-0.0987 -0.03911,-0.0633 -0.119267,-0.0853 -0.178121,-0.0489 -0.05885,0.0364 -0.107007,0.005 -0.107007,-0.0686 0,-0.0939 -0.151548,-0.11206 -0.499558,-0.0599 -0.377687,0.0566 -0.535356,0.0318 -0.646298,-0.10189 -0.323751,-0.3901 -0.567628,-0.20911 -1.039588,0.77152 -0.25103,0.52158 -0.460499,1.10352 -0.465487,1.29318 -0.005,0.18967 -0.04905,0.44719 -0.09791,0.57226 -0.04886,0.12508 -0.04374,0.40958 0.01139,0.63223 0.05513,0.22264 0.12342,0.50457 0.151754,0.62651 0.05838,0.25123 0.744952,0.9998 0.854755,0.93193 0.0395,-0.0244 0.302876,0.0723 0.585272,0.215 0.282397,0.14266 0.677755,0.29191 0.878574,0.33167 0.200819,0.0398 0.588774,0.17473 0.862122,0.29995 0.273348,0.12521 0.626315,0.24954 0.784371,0.27629 0.158056,0.0267 0.294113,0.0557 0.30235,0.0643 0.0082,0.009 0.279806,-0.32739 0.603486,-0.74667 z m 6.747277,-1.34835 c -0.225353,-0.21253 -0.486889,-0.57108 -0.581191,-0.79678 -0.0943,-0.2257 -0.224755,-0.4433 -0.289893,-0.48356 -0.295076,-0.18237 -0.558891,-1.19664 -0.792312,-3.04616 -0.04388,-0.34773 -0.136428,-0.73568 -0.205652,-0.86213 -0.524725,-0.95846 -1.121103,-2.34513 -1.102772,-2.56411 0.03331,-0.39792 0.682066,-1.46442 1.029143,-1.69184 0.246859,-0.16175 0.471543,-0.18843 1.178463,-0.13998 0.721612,0.0495 1.005192,0.13228 1.631283,0.47642 0.416807,0.22911 0.850843,0.51934 0.964525,0.64495 0.113682,0.12562 0.250405,0.2284 0.303829,0.2284 0.05342,0 0.21352,0.10585 0.35577,0.23523 0.532275,0.48412 0.617951,0.53433 1.235709,0.72416 0.471942,0.14503 0.68168,0.28085 0.827307,0.53577 0.122006,0.21356 0.257313,0.3176 0.361209,0.27773 0.167943,-0.0644 3.204487,1.39899 3.275362,1.57853 0.02107,0.0534 0.245559,0.0971 0.498855,0.0971 h 0.460538 l -0.08269,-1.00581 c -0.04548,-0.5532 -0.115351,-1.03167 -0.155268,-1.06329 -0.159348,-0.12619 -0.129871,-1.15638 0.04263,-1.48996 0.294109,-0.56875 0.84383,-1.12353 1.357975,-1.37049 0.478511,-0.229845 0.651033,-0.238277 1.489293,-0.0728 0.28057,0.0554 0.431062,0.0426 0.431062,-0.0368 0,-0.217665 1.487943,-0.853331 1.834976,-0.783925 0.173547,0.03471 0.368143,0.0105 0.432436,-0.05379 0.229198,-0.229198 3.170199,-0.340809 3.585075,-0.136054 0.220791,0.108968 0.341254,0.103916 0.59006,-0.02475 0.238463,-0.123315 0.589488,-0.144801 1.479654,-0.09057 0.641864,0.0391 1.194095,0.114899 1.227182,0.168433 0.09528,0.154159 1.308171,0.110665 1.992464,-0.07145 0.354837,-0.09443 0.830801,-0.137704 1.103533,-0.100322 0.280823,0.03849 0.586062,0.0087 0.736514,-0.07177 0.496404,-0.265667 1.176324,-0.230761 1.58559,0.0814 0.347001,0.264671 0.375764,0.336642 0.373305,0.934083 -0.0025,0.60778 -0.03394,0.6801 -0.514768,1.18398 -0.448078,0.46958 -0.563883,0.53256 -0.926261,0.50381 -0.300823,-0.0239 -0.50265,0.0416 -0.737534,0.23924 -0.177858,0.14966 -0.376815,0.27211 -0.442128,0.27211 -0.06531,0 -0.213553,0.12052 -0.329422,0.26782 -0.206785,0.26289 -0.322557,0.27419 -0.783086,0.0764 -0.287297,-0.12335 -0.965406,-0.20998 -0.956482,-0.12218 0.0036,0.0359 -0.0038,0.0911 -0.01656,0.12276 -0.079,0.19579 -0.0717,0.64243 0.01138,0.69626 0.15563,0.10084 0.240422,1.29006 0.216017,3.02966 -0.01972,1.40557 -0.0507,1.63757 -0.255694,1.91484 -0.163882,0.22166 -0.219033,0.43731 -0.185437,0.72509 0.05251,0.44983 -0.04129,0.53112 -0.612861,0.53112 -0.264847,0 -0.500632,-0.15426 -1.025145,-0.6707 -0.628754,-0.61908 -0.681186,-0.71001 -0.681186,-1.18139 0,-0.28088 -0.07023,-0.61273 -0.156069,-0.73743 -0.08584,-0.12471 -0.221404,-0.43365 -0.30126,-0.68654 -0.07986,-0.25289 -0.19067,-0.50894 -0.246255,-0.569 -0.05559,-0.0601 -0.101064,-0.28296 -0.101064,-0.49532 0,-0.22353 -0.04755,-0.35673 -0.112928,-0.31633 -0.06283,0.0388 -0.196502,-0.2308 -0.301316,-0.60779 -0.10969,-0.39454 -0.347096,-0.86504 -0.56831,-1.1263 -0.356596,-0.42115 -0.396274,-0.43874 -0.646251,-0.28657 -0.195541,0.11904 -0.612333,0.15521 -1.568115,0.13611 -0.715983,-0.0143 -1.36292,0.0217 -1.437638,0.0799 -0.214153,0.16697 -0.646372,0.24305 -0.718429,0.12646 -0.03604,-0.0583 -0.109961,-0.0786 -0.164263,-0.045 -0.0543,0.0336 -0.131804,-0.0432 -0.172227,-0.17055 -0.09213,-0.29028 -0.576252,-0.31167 -0.688272,-0.0304 -0.04406,0.11064 -0.07477,0.84496 -0.06823,1.63183 0.0095,1.14076 0.0515,1.49016 0.207372,1.72425 0.107515,0.16146 0.181557,0.38173 0.164539,0.48949 -0.01702,0.10776 0.0495,0.43286 0.14782,0.72245 0.277979,0.81877 0.239693,1.16447 -0.143769,1.29814 -0.240237,0.0837 -0.358733,0.23327 -0.464413,0.58599 -0.103974,0.34704 -0.202537,0.47356 -0.368908,0.47356 -0.270261,0 -1.505236,-0.66928 -1.639484,-0.8885 -0.06351,-0.10371 -0.216299,-0.13059 -0.47085,-0.0828 -0.257965,0.0484 -0.430818,0.0167 -0.547981,-0.10045 -0.116771,-0.11678 -0.478484,-0.1837 -1.138445,-0.21064 -0.532012,-0.0217 -1.028504,-0.097 -1.103315,-0.1673 -0.236886,-0.22258 -2.330656,-1.09566 -2.450276,-1.02173 -0.110879,0.0685 -0.803876,-0.27415 -0.805543,-0.39832 -4.53e-4,-0.0338 -0.261055,-0.074 -0.579115,-0.0895 -0.31806,-0.0154 -0.721475,-0.10208 -0.896478,-0.19258 -0.28965,-0.14978 -0.330497,-0.14483 -0.455432,0.0552 -0.187564,0.30034 -0.172182,0.57431 0.041,0.73019 0.160462,0.11734 0.157595,0.22053 -0.02874,1.03451 -0.154093,0.67315 -0.275317,0.95149 -0.474433,1.08931 -0.1471,0.10183 -0.420452,0.32739 -0.607449,0.50125 -0.437876,0.40712 -0.573501,0.39821 -1.070279,-0.0703 z m 29.880162,-2.95069 c 0.03785,-0.0613 -0.02475,-0.11149 -0.139119,-0.11164 -0.136381,-1.8e-4 -0.326626,-0.22765 -0.552795,-0.66096 -0.189667,-0.36338 -0.345509,-0.7217 -0.346315,-0.79626 -8.06e-4,-0.0746 -0.02913,-0.16324 -0.06294,-0.19705 -0.03381,-0.0338 -0.04175,-0.64526 -0.01763,-1.35878 0.02412,-0.71351 0.06677,-2.20252 0.09477,-3.30891 0.02801,-1.106388 0.106164,-2.192662 0.173682,-2.41394 0.158442,-0.519262 0.986205,-1.190365 1.509533,-1.223844 0.210186,-0.01345 0.431855,-0.03711 0.492599,-0.05259 0.1049,-0.02672 0.557686,0.141204 1.005979,0.373095 0.11321,0.05856 0.251043,0.07854 0.306293,0.04439 0.163289,-0.100918 0.206666,0.197666 0.09042,0.622413 -0.0815,0.297794 -0.05773,0.562682 0.09607,1.070648 0.172744,0.570533 0.182176,0.736306 0.06097,1.071503 -0.07887,0.2181 -0.136319,0.74499 -0.127674,1.17087 0.0086,0.42588 -0.01838,0.93493 -0.06006,1.13123 -0.06312,0.29728 -0.02545,0.3965 0.225519,0.59391 0.421627,0.33165 1.071037,0.30485 2.682325,-0.1107 0.741503,-0.19123 1.615223,-0.36585 1.941603,-0.38805 0.55949,-0.038 0.61044,-0.0181 0.89086,0.3496 0.31023,0.40673 0.37538,0.68842 0.18626,0.8053 -0.0611,0.0378 -0.0808,0.22082 -0.0436,0.40671 0.0945,0.47263 -0.5379,1.10843 -1.20932,1.2158 -0.26131,0.0418 -0.475101,0.12971 -0.475101,0.19539 0,0.0657 -0.03074,0.0887 -0.06831,0.0511 -0.03757,-0.0376 -0.283274,0.0504 -0.546011,0.19545 -1.600377,0.88365 -2.136494,1.14687 -2.546796,1.2504 -0.621971,0.15693 -3.651302,0.22065 -3.561223,0.0749 z m 11.981289,-0.0622 c -0.17387,-0.0943 -0.31612,-0.13593 -0.31612,-0.0925 0,0.0435 -0.1293,-0.0713 -0.28734,-0.25497 -0.31145,-0.362 -0.46726,-0.93552 -0.36274,-1.33519 0.0361,-0.1382 0.01,-0.31863 -0.0585,-0.40095 -0.091,-0.1097 -0.0848,-0.14967 0.0232,-0.14967 0.0811,0 -0.23941,-0.37571 -0.71222,-0.83492 -0.88233,-0.85694 -1.23085,-1.44033 -1.71373,-2.86858 -0.26588,-0.78643 -0.27635,-1.137935 -0.0557,-1.871025 0.0916,-0.304303 0.16304,-0.584093 0.15881,-0.621755 -0.0247,-0.219274 0.0612,-0.384033 0.43093,-0.826523 0.22628,-0.270833 0.53751,-0.741273 0.69164,-1.045422 0.15412,-0.304149 0.32759,-0.552998 0.38549,-0.552998 0.0579,0 0.13863,-0.105122 0.17941,-0.233604 0.14726,-0.463986 0.91386,-1.063862 2.07364,-1.622659 0.50194,-0.241838 0.67067,-0.265664 1.43115,-0.202086 0.47416,0.03964 1.05031,0.110997 1.28032,0.158568 0.56385,0.116617 1.02564,-0.225235 1.28734,-0.952977 0.10692,-0.297336 0.46875,-0.847354 0.80406,-1.222263 0.55536,-0.620937 0.65504,-0.683968 1.11912,-0.707661 0.73695,-0.03762 1.25564,0.330467 1.51528,1.075323 0.11064,0.317405 0.20116,0.662741 0.20116,0.767413 0,0.274064 -0.42074,1.058883 -0.92748,1.73005 -0.29392,0.389295 -0.42565,0.673871 -0.40091,0.866109 0.0539,0.418547 0.18518,0.688628 0.33488,0.688692 0.16546,7.1e-5 1.01396,0.97812 1.25804,1.450125 0.10094,0.195187 0.36972,0.518371 0.5973,0.718186 0.33971,0.298274 0.42589,0.465557 0.48144,0.934618 0.0452,0.381447 0.0194,0.629509 -0.0776,0.746409 -0.0927,0.11174 -0.11999,0.33345 -0.0753,0.61282 0.0471,0.29451 -0.001,0.63278 -0.14793,1.03392 -0.11985,0.32791 -0.18358,0.59654 -0.14161,0.59695 0.042,4.2e-4 -0.0603,0.0909 -0.22737,0.20117 -0.16701,0.11022 -0.61822,0.49577 -1.00267,0.85679 -0.79065,0.74244 -1.26282,1.022 -1.74952,1.03584 -0.18433,0.005 -0.33515,0.0438 -0.33515,0.0857 0,0.0865 -1.34576,0.55851 -1.6093,0.56445 -0.0948,0.002 -0.43106,0.0635 -0.74717,0.13634 -0.31611,0.0729 -0.67821,0.1398 -0.80465,0.14878 -0.22472,0.016 -0.45544,0.24624 -0.9196,0.91784 -0.12868,0.1862 -0.43233,0.40182 -0.68969,0.48975 -0.55455,0.18946 -0.50232,0.19064 -0.89086,-0.0202 z m 5.63064,-5.70422 c 0.48096,-0.28962 0.83527,-0.7449 0.83527,-1.0733 0,-0.143076 -0.11638,-0.461027 -0.25863,-0.706558 -0.67655,-1.167749 -0.83913,-1.1981 -1.29463,-0.241683 -0.15904,0.333939 -0.35952,0.736479 -0.4455,0.894531 -0.70029,1.28724 -0.66548,1.53344 0.20145,1.42481 0.32469,-0.0407 0.75761,-0.17469 0.96204,-0.2978 z m -4.64829,-1.614518 c 0.15906,-0.395703 0.44925,-1.064054 0.64486,-1.485224 0.4181,-0.900185 0.41823,-0.901005 0.1415,-0.901005 -0.26163,0 -1.20756,0.989405 -1.46791,1.535382 -0.11852,0.248527 -0.15541,0.477293 -0.0983,0.609475 0.0503,0.116386 0.0806,0.300102 0.0673,0.408258 -0.0312,0.254079 0.20136,0.689752 0.32677,0.612242 0.0531,-0.0328 0.22669,-0.383425 0.38574,-0.779128 z m 15.71408,4.120958 c -0.73633,-0.27096 -1.58086,-0.52981 -1.72859,-0.52981 -0.0803,0 -0.34078,-0.19397 -0.57894,-0.43106 -0.23816,-0.23708 -0.52118,-0.51512 -0.62893,-0.61785 -0.38896,-0.37085 -0.60576,-0.65728 -0.68394,-0.90362 -0.0634,-0.19963 -0.13833,-0.23627 -0.36637,-0.17903 -0.26801,0.0673 -0.28182,0.0497 -0.21169,-0.26964 0.0604,-0.2749 0.0276,-0.36697 -0.16775,-0.47153 -0.13353,-0.0715 -0.29335,-0.24318 -0.35516,-0.381582 -0.0618,-0.138406 -0.24307,-0.431398 -0.40279,-0.651094 -0.19408,-0.266944 -0.26867,-0.486083 -0.22486,-0.660625 0.0405,-0.161221 -0.0452,-0.479815 -0.22393,-0.832442 -0.15921,-0.314194 -0.28948,-0.69832 -0.28948,-0.853614 0,-0.158902 -0.14712,-0.429477 -0.33649,-0.618848 -0.31613,-0.316124 -0.32968,-0.366834 -0.22388,-0.837701 0.0619,-0.275664 0.1674,-0.567232 0.23438,-0.647928 0.17783,-0.214278 0.0195,-0.693994 -0.29756,-0.901767 -0.15128,-0.09912 -0.41551,-0.457815 -0.58717,-0.797096 l -0.31211,-0.616873 0.24414,-0.342862 c 0.13428,-0.188575 0.24414,-0.394743 0.24414,-0.458152 0,-0.130172 1.12478,-1.171142 1.26543,-1.171142 0.0501,0 0.0803,-0.155182 0.0672,-0.344848 -0.0253,-0.365922 0.22794,-0.490671 0.35006,-0.172425 0.0984,0.256324 0.35586,0.209315 0.63934,-0.116717 0.13827,-0.159027 0.51296,-0.417806 0.83263,-0.575064 0.31967,-0.157258 0.75698,-0.4151 0.9718,-0.572981 0.21482,-0.157882 0.49514,-0.287058 0.62293,-0.287058 0.12779,0 0.50669,-0.154831 0.842,-0.344069 0.44033,-0.248507 0.76217,-0.344247 1.15879,-0.34471 0.30202,-3.52e-4 0.78191,-0.0092 1.06641,-0.01976 0.2845,-0.01052 0.64659,0.02188 0.80465,0.07201 0.15805,0.05012 0.42991,0.102062 0.60413,0.115424 0.17422,0.01336 0.35095,0.05849 0.39275,0.100279 0.0418,0.04179 0.19034,0.07598 0.33012,0.07598 0.13978,0 0.31854,0.07759 0.39724,0.172425 0.0787,0.09483 0.23325,0.172424 0.34342,0.172424 0.25974,0 0.80948,0.43269 0.77514,0.610096 -0.0148,0.0763 0.12775,0.152201 0.32145,0.171188 0.29378,0.0288 0.38921,0.123971 0.61261,0.610943 0.24862,0.541931 0.25633,0.626803 0.12738,1.402759 -0.14653,0.881741 -0.32608,1.292026 -0.82768,1.89132 -0.17295,0.206632 -0.34535,0.498802 -0.38311,0.649268 -0.0813,0.323931 -0.0262,0.779917 0.0885,0.732572 0.14825,-0.06118 1.02185,0.88048 1.24881,1.346105 0.12327,0.25289 0.43169,0.796027 0.68538,1.206971 l 0.46125,0.747173 -0.066,1.318987 c -0.0363,0.725443 -0.10801,1.346167 -0.15929,1.379397 -0.0513,0.0332 -0.13165,0.18344 -0.17862,0.33381 -0.0917,0.29357 -1.26412,1.50832 -1.45576,1.50832 -0.0636,0 -0.19314,0.0776 -0.28797,0.17242 -0.0948,0.0948 -0.32502,0.17243 -0.51153,0.17243 -0.39467,0 -1.21647,0.50603 -1.31234,0.8081 -0.053,0.16683 -0.12892,0.18959 -0.38641,0.11574 -0.20783,-0.0596 -0.45324,-0.0361 -0.69812,0.0669 -0.46661,0.19619 -1.31079,0.19568 -1.84559,-0.001 z m 1.43687,-3.36263 c 0.37934,-0.1076 0.77158,-0.26447 0.87165,-0.348607 0.10008,-0.08413 0.42337,-0.235232 0.71844,-0.33577 0.45196,-0.153998 0.53648,-0.229309 0.53648,-0.478005 0,-0.578636 -0.81933,-1.637326 -1.26714,-1.637326 -0.0692,0 -0.31668,-0.150422 -0.55006,-0.334271 -0.28501,-0.224525 -0.61929,-0.359722 -1.01819,-0.411788 -1.02502,-0.133794 -1.82495,-0.437494 -2.12841,-0.808066 -0.38548,-0.470734 -0.93008,-1.434565 -0.81058,-1.434565 0.0538,0 0.24992,-0.211885 0.43591,-0.470855 0.62202,-0.866103 0.99252,-1.25339 1.19905,-1.25339 0.11267,0 0.34931,-0.07494 0.52586,-0.166541 0.17656,-0.0916 0.35979,-0.142574 0.40719,-0.113281 0.0474,0.02929 0.11672,-0.04297 0.15405,-0.160584 0.0373,-0.117615 0.35252,-0.357865 0.70043,-0.533889 0.71056,-0.359512 0.8441,-0.500116 0.61364,-0.646091 -0.25594,-0.162109 -1.39479,-0.117082 -1.75212,0.06927 -0.18108,0.09444 -0.43972,0.172057 -0.57474,0.172474 -0.13503,4.17e-4 -0.40068,0.106508 -0.59035,0.235759 -0.18967,0.129251 -0.59742,0.366035 -0.90612,0.526187 -0.63881,0.331406 -1.68025,1.258796 -1.68025,1.496234 0,0.08711 0.16812,0.260885 0.37359,0.386164 0.20547,0.125279 0.32186,0.228765 0.25864,0.22997 -0.0766,0.0015 -0.0766,0.03034 0,0.08664 0.18143,0.1333 0.74954,1.883084 0.74829,2.304789 -0.001,0.392423 0.14916,0.76263 0.41936,1.032828 0.22786,0.227859 0.1912,0.464377 -0.19058,1.22987 -0.18919,0.379334 -0.34217,0.741426 -0.33995,0.804648 0.008,0.219446 1.11098,0.66768 1.46777,0.59632 0.18496,-0.037 0.47292,-0.0311 0.63993,0.0131 0.58982,0.15601 1.05612,0.14228 1.73821,-0.0512 z m 9.02355,-2.105835 c -0.98136,-0.109041 -1.34359,-0.350716 -2.13436,-1.424034 -0.36572,-0.496393 -0.42264,-0.671094 -0.51754,-1.58836 -0.0766,-0.740162 -0.0694,-1.100094 0.0253,-1.277124 0.0807,-0.150838 0.13982,-0.961952 0.15228,-2.090029 0.023,-2.080939 0.12379,-2.432393 0.81469,-2.840038 0.47789,-0.281958 0.49142,-0.384693 0.0788,-0.598063 -0.17401,-0.08999 -0.40304,-0.259427 -0.50896,-0.376539 -0.23757,-0.262683 -0.56665,-1.20737 -0.57964,-1.66393 -0.022,-0.773794 1.43328,-1.610353 3.17423,-1.82469 0.56214,-0.06921 1.20036,-0.200322 1.41825,-0.291363 0.60346,-0.25214 2.67784,-0.153973 3.39763,0.160787 l 0.55027,0.240632 -0.0723,0.605745 c -0.0815,0.682599 -0.53561,1.237968 -1.0122,1.237968 -0.14726,0 -0.36137,0.103455 -0.4758,0.2299 -0.14049,0.155241 -0.35404,0.229899 -0.6576,0.229899 -0.45693,0 -0.88531,0.161949 -1.03371,0.390795 -0.0451,0.06956 -0.12271,0.12677 -0.17243,0.127126 -0.21823,0.0016 -1.987,0.915066 -1.98635,1.025874 4e-4,0.06764 0.1501,0.207944 0.33267,0.311796 0.18256,0.103851 0.40262,0.336624 0.48902,0.517273 0.14236,0.297647 0.22702,0.335141 0.90266,0.399772 0.64673,0.06187 0.76552,0.04282 0.89616,-0.143687 0.23748,-0.339056 0.45619,-0.258913 1.06015,0.388479 0.5018,0.537892 0.74887,1.120759 0.47507,1.120759 -0.0532,0 -0.23729,0.258346 -0.40914,0.574102 -0.31182,0.572911 -0.92333,1.146876 -1.22927,1.153798 -0.0889,0.002 -0.26198,0.0796 -0.38471,0.172424 -0.12272,0.09282 -0.31494,0.168769 -0.42716,0.168769 -0.11221,0 -0.38683,0.08717 -0.61025,0.193715 -0.31017,0.147911 -0.40581,0.263424 -0.40446,0.488535 0.003,0.455211 0.13535,0.570747 0.72107,0.628104 0.39742,0.03892 0.59027,0.004 0.72581,-0.131581 0.15299,-0.152984 0.22411,-0.159894 0.41551,-0.04037 0.19811,0.123718 0.32916,0.09186 0.92207,-0.224156 0.38012,-0.202605 0.78809,-0.465331 0.9066,-0.583837 0.35098,-0.350983 0.35347,-0.349758 1.52754,0.752931 0.66389,0.623523 0.67499,0.643891 0.47275,0.867359 -0.1139,0.125863 -0.3792,0.261128 -0.58954,0.300589 -0.41782,0.07838 -0.55591,0.205014 -0.83691,0.767502 -0.22151,0.443402 -1.82184,1.365904 -2.1986,1.267377 -0.15974,-0.04177 -0.22887,-0.003 -0.22887,0.128445 0,0.103563 -0.12932,0.247217 -0.28737,0.319232 -0.15806,0.07201 -0.28738,0.17433 -0.28738,0.227366 0,0.05304 -0.16811,0.0895 -0.37358,0.08103 -0.20548,-0.0085 -0.60636,0.0083 -0.89086,0.03728 -0.2845,0.02897 -0.80178,0.02107 -1.1495,-0.01757 z m 6.31489,-1.2331 c -0.004,-0.05115 -0.024,-0.262972 -0.0444,-0.47072 -0.0333,-0.339103 -0.0212,-0.356733 0.11863,-0.172424 0.18518,0.244125 0.20845,0.565989 0.0481,0.665098 -0.0632,0.03907 -0.11825,0.02919 -0.12229,-0.02195 z m 4.38704,-1.825111 c -0.1827,-0.153727 -0.39001,-0.279504 -0.4607,-0.279504 -0.22948,0 -0.92945,-1.240736 -1.05173,-1.864243 -0.0655,-0.333945 -0.16888,-0.82953 -0.22978,-1.101298 -0.0634,-0.282963 -0.0683,-0.577702 -0.0115,-0.689698 0.15134,-0.298503 0.0904,-3.25426 -0.0732,-3.550293 -0.23117,-0.418301 -0.15878,-0.835381 0.26651,-1.535494 0.2229,-0.366933 0.39102,-0.71261 0.37359,-0.768171 -0.0597,-0.190338 0.79675,-0.836269 1.10883,-0.836269 0.16803,0 0.51711,-0.107947 0.77572,-0.239881 0.33554,-0.171178 0.58068,-0.219156 0.85593,-0.167518 0.21292,0.03994 0.49311,0.01489 0.62541,-0.05591 0.319,-0.170719 1.42924,-0.456285 1.77398,-0.456285 0.15124,0 0.30253,0.04457 0.3362,0.09905 0.0337,0.05448 0.37247,-0.01 0.7529,-0.143263 0.57266,-0.200617 0.73115,-0.21766 0.92108,-0.09905 0.12617,0.07879 0.36108,0.143263 0.52202,0.143263 0.16095,0 0.47751,0.07725 0.70347,0.171662 0.22597,0.09441 0.45708,0.143088 0.51358,0.108165 0.0565,-0.03492 0.10274,0.01515 0.10274,0.11126 0,0.110946 0.2157,0.238811 0.59074,0.350185 0.32491,0.09649 0.76114,0.3054 0.9694,0.464252 0.20827,0.158852 0.41132,0.288822 0.45123,0.288822 0.12138,0 0.65074,0.676925 0.87811,1.12288 0.27242,0.534341 0.27915,1.432957 0.0141,1.881673 -0.17525,0.296682 -0.17882,0.35215 -0.0287,0.447037 0.1396,0.08826 0.12742,0.108654 -0.0658,0.110088 -0.27452,0.002 -0.74516,0.468532 -1.01781,1.008852 -0.14842,0.294125 -0.24409,0.362563 -0.44419,0.317737 -0.17226,-0.03859 -0.37915,0.05006 -0.63753,0.273176 l -0.38251,0.330309 0.23562,0.461848 c 0.12959,0.254016 0.36638,0.564705 0.5262,0.690419 0.15982,0.125714 0.29058,0.262016 0.29058,0.302894 0,0.04088 0.10404,0.215051 0.23121,0.387052 0.12716,0.172 0.25355,0.428737 0.28085,0.570525 0.0273,0.141789 0.0818,0.309794 0.12106,0.373344 0.1428,0.231054 -0.0819,0.568619 -0.65032,0.976996 -0.526,0.377888 -0.62572,0.409121 -1.05769,0.331265 -0.26231,-0.04728 -0.59049,-0.07348 -0.72929,-0.05821 -0.32482,0.03571 -0.72471,-0.178412 -0.72471,-0.388051 0,-0.08965 -0.23278,-0.265968 -0.51728,-0.391816 -0.2845,-0.125848 -0.51727,-0.277175 -0.51727,-0.336282 0,-0.05911 -0.16812,-0.174831 -0.37359,-0.257164 -0.72925,-0.29221 -1.95537,-1.71332 -2.10139,-2.43557 -0.0223,-0.110499 -0.13247,-0.3564 -0.24473,-0.546448 -0.18608,-0.315014 -0.18921,-0.388661 -0.0354,-0.833639 l 0.16873,-0.488099 0.84897,-0.07578 c 0.46693,-0.04168 1.06179,-0.168986 1.32192,-0.282904 0.62954,-0.275699 1.84542,-1.100178 1.87945,-1.274446 0.0156,-0.07989 -0.15513,-0.166709 -0.40232,-0.204585 -0.23619,-0.03619 -0.58828,-0.115987 -0.78244,-0.177326 -0.49131,-0.15522 -0.92631,-0.139206 -1.29073,0.04752 -0.17072,0.08747 -0.69654,0.197295 -1.16848,0.244045 -1.50499,0.149084 -2.36629,0.913053 -1.73787,1.541475 0.12118,0.121176 0.18807,0.252574 0.14865,0.291995 -0.1645,0.164499 -0.12274,2.883572 0.0543,3.533457 0.13169,0.483506 0.14801,0.741748 0.0624,0.987355 -0.0638,0.182929 -0.0892,0.472695 -0.0564,0.643924 0.0598,0.312621 0.003,0.38869 -0.61625,0.825491 -0.13449,0.09487 -0.4063,0.21889 -0.60402,0.275594 -0.30181,0.08656 -0.41277,0.05826 -0.69165,-0.176403 z m 12.13091,-0.481108 c -0.45082,-0.553362 -0.52216,-0.689021 -0.74025,-1.40769 -0.17028,-0.561131 -0.18766,-0.958077 -0.0861,-1.967838 0.0636,-0.632267 0.0477,-0.951169 -0.057,-1.146792 -0.29763,-0.556133 -0.33446,-1.057907 -0.13318,-1.814466 0.18896,-0.710228 0.21334,-0.741733 0.77058,-0.995737 0.90521,-0.412613 1.47091,-0.541908 2.08016,-0.475431 0.95166,0.103839 1.36312,0.21821 1.50411,0.418097 0.0968,0.13725 0.27591,0.183664 0.63223,0.163845 0.36515,-0.02031 0.64973,0.05702 1.07189,0.291277 0.31611,0.175411 0.88511,0.414702 1.26444,0.531758 0.37934,0.117056 0.74143,0.277451 0.80465,0.356434 0.1312,0.163905 1.23431,0.730565 1.42218,0.730565 0.0684,0 0.20907,0.129318 0.31264,0.287374 0.11742,0.179211 0.29605,0.287374 0.47459,0.287374 0.15746,0 0.43998,0.129319 0.62782,0.287374 0.18784,0.158056 0.47381,0.287374 0.63548,0.287374 0.16168,0 0.4956,0.06041 0.74204,0.134251 0.27184,0.08144 0.48914,0.09275 0.55246,0.02874 0.14772,-0.149345 -0.19208,-2.929354 -0.42339,-3.463868 -0.10353,-0.239241 -0.17589,-0.548544 -0.1608,-0.687342 0.0151,-0.138798 -0.0376,-0.371571 -0.11713,-0.517273 -0.3998,-0.73253 -0.0917,-1.637363 0.70452,-2.068912 0.3698,-0.200437 1.17029,-0.231863 2.04731,-0.08037 0.1295,0.02237 0.52009,0.60768 0.53424,0.800562 0.003,0.03613 0.0998,0.160678 0.21591,0.276779 0.13561,0.135603 0.19131,0.314628 0.15575,0.500601 -0.0304,0.159228 0.0105,0.355308 0.0909,0.435733 0.0804,0.08042 0.20931,0.48056 0.28641,0.88919 0.11257,0.596611 0.11094,0.823864 -0.008,1.153657 -0.1235,0.341531 -0.12006,0.551226 0.0204,1.245191 0.1591,0.785978 0.18881,0.838018 0.51099,0.895044 0.37717,0.06676 0.37731,0.06763 0.21967,1.400241 -0.0711,0.601309 -0.10425,0.660725 -0.40509,0.726802 -0.1802,0.03958 -0.41973,0.188111 -0.53229,0.330075 -0.29196,0.36823 -0.97523,0.604323 -2.10897,0.728721 -0.5416,0.05943 -1.15734,0.194162 -1.36832,0.299412 -0.47912,0.239017 -0.6868,0.240481 -1.01987,0.0072 -0.24277,-0.170046 -0.2741,-0.16893 -0.40826,0.01454 -0.12785,0.174849 -0.19944,0.18162 -0.59601,0.05636 -0.24789,-0.0783 -0.60823,-0.2166 -0.80075,-0.307343 -0.19253,-0.09074 -0.43823,-0.131148 -0.54601,-0.08979 -0.11193,0.04295 -0.19597,0.02063 -0.19597,-0.05205 0,-0.06999 -0.0388,-0.1171 -0.0862,-0.104698 -0.14088,0.03685 -1.43472,-0.37471 -1.80894,-0.575406 -0.1905,-0.102167 -0.55552,-0.19376 -0.81115,-0.20354 -0.25563,-0.0098 -0.62808,-0.102228 -0.82767,-0.20544 -0.1996,-0.103213 -0.44563,-0.18766 -0.54674,-0.18766 -0.10111,0 -0.33904,-0.08026 -0.52873,-0.178347 -0.62034,-0.320792 -0.73891,-0.17744 -0.74107,0.895954 -0.002,0.911366 -0.0216,0.982349 -0.49675,1.782548 -0.49627,0.835792 -0.65286,0.954362 -0.91464,0.692576 -0.11112,-0.111112 -0.18837,-0.111112 -0.36628,0 -0.32934,0.205672 -0.35908,0.191403 -0.84548,-0.405645 z m 19.87095,-3.319732 c -0.25289,-0.08855 -0.6057,-0.328225 -0.78403,-0.532612 -0.17833,-0.204387 -0.43924,-0.503304 -0.57982,-0.66426 -0.14057,-0.160956 -0.32323,-0.47132 -0.40591,-0.689698 -0.0827,-0.218377 -0.27926,-0.698922 -0.43686,-1.067877 -0.1576,-0.368954 -0.33915,-1.04141 -0.40345,-1.494345 -0.0643,-0.452935 -0.18187,-0.875937 -0.26127,-0.940005 -0.17533,-0.14147 -0.2427,-2.125031 -0.0722,-2.125031 0.0969,0 0.28907,-0.410837 0.26885,-0.574748 -0.0211,-0.171238 0.27429,-0.342588 0.59,-0.342208 0.19824,2.39e-4 0.61276,-0.0011 0.92117,-0.0029 0.30841,-0.0019 0.62078,0.04643 0.69414,0.107321 0.19995,0.16594 0.91801,0.166628 2.13613,0.002 0.60061,-0.08115 1.21604,-0.151817 1.36761,-0.157039 0.15157,-0.0052 0.41916,-0.151746 0.59464,-0.325608 0.39879,-0.395104 0.60664,-0.399628 0.78098,-0.017 0.10796,0.236958 0.19266,0.28496 0.40762,0.23101 0.25326,-0.06356 0.60497,0.158781 0.46793,0.295822 -0.0317,0.03169 0.0722,0.19771 0.23089,0.368933 0.28533,0.307876 0.37057,0.589227 0.20102,0.663475 -0.0481,0.02107 -0.24211,0.227328 -0.43106,0.458341 -0.41594,0.50851 -2.04647,1.4022 -2.37061,1.299323 -0.15459,-0.04906 -0.33529,0.04525 -0.60671,0.31667 -0.2126,0.212601 -0.44214,0.368014 -0.5101,0.345363 -0.068,-0.02265 -0.20522,0.0045 -0.30503,0.06038 -0.16069,0.08993 -0.15364,0.13697 0.0615,0.41046 0.24969,0.317425 0.85949,0.430562 1.09416,0.203002 0.18382,-0.178248 1.53539,-0.590401 1.92555,-0.587186 0.92239,0.0076 1.53991,0.02744 1.80457,0.05798 0.15805,0.01824 0.40825,-0.04245 0.55598,-0.134856 0.14774,-0.09241 0.28106,-0.150951 0.29627,-0.130094 0.0152,0.02086 0.0931,0.202297 0.17296,0.403199 0.0799,0.200901 0.238,0.449179 0.35132,0.551728 0.18068,0.163516 0.18993,0.249544 0.0752,0.699343 -0.0995,0.389847 -0.22724,0.573028 -0.53265,0.763562 -0.22099,0.13787 -0.48711,0.238354 -0.59139,0.2233 -0.10427,-0.01505 -0.29404,0.119322 -0.4217,0.298613 -0.16598,0.2331 -0.40674,0.36971 -0.84496,0.479439 -0.75581,0.189252 -1.81981,0.675636 -1.81981,0.831881 0,0.06766 -0.1372,0.0856 -0.33028,0.04319 -0.22906,-0.05031 -0.34914,-0.02336 -0.39186,0.08795 -0.0339,0.08827 -0.312,0.228829 -0.61806,0.312356 -0.30606,0.08353 -0.65851,0.220887 -0.78321,0.305243 -0.2821,0.190821 -0.89443,0.176746 -1.49751,-0.03442 z m -4.77041,-8.60585 c -0.0787,-0.09483 -0.21039,-0.172424 -0.29263,-0.172424 -0.0822,0 -0.30126,-0.127676 -0.48671,-0.283724 -0.42929,-0.361222 -0.71036,-1.47304 -0.48372,-1.913452 0.30948,-0.601399 2.3103,-2.28586 2.71517,-2.28586 0.0969,0 0.52157,-0.151616 0.94378,-0.336924 1.67826,-0.736593 2.45422,-0.841035 6.00551,-0.808325 0.22681,0.0021 0.66649,0.101084 0.97707,0.219988 0.56417,0.215997 0.56467,0.216656 0.55761,0.740637 -0.006,0.447794 -0.0699,0.587236 -0.43666,0.95404 -0.37635,0.376353 -0.49156,0.426896 -0.92957,0.407832 -0.3376,-0.01469 -0.58779,0.04707 -0.77032,0.190164 -0.14868,0.116557 -0.45137,0.249561 -0.67265,0.295564 -0.58115,0.120817 -1.73388,0.501449 -1.88357,0.621955 -0.15893,0.127947 -1.59736,0.70376 -1.75805,0.70376 -0.0647,0 -0.28213,0.157212 -0.48319,0.349361 -0.20107,0.192149 -0.40979,0.322036 -0.46383,0.28864 -0.054,-0.0334 -0.16217,0.0163 -0.2403,0.110437 -0.0781,0.09414 -0.21016,0.171159 -0.2934,0.171159 -0.0832,0 -0.39043,0.206909 -0.68262,0.459798 -0.56697,0.490714 -1.06357,0.598669 -1.32192,0.287374 z"
       id="path1" /></g></svg>
