<?xml version="1.0" encoding="UTF-8" standalone="no"?>
<!-- Created with Inkscape (http://www.inkscape.org/) -->

<svg
   width="210mm"
   height="210mm"
   viewBox="0 0 210 210"
   version="1.1"
   id="svg1"
   xml:space="preserve"
   xmlns:inkscape="http://www.inkscape.org/namespaces/inkscape"
   xmlns:sodipodi="http://sodipodi.sourceforge.net/DTD/sodipodi-0.dtd"
   xmlns="http://www.w3.org/2000/svg"
   xmlns:svg="http://www.w3.org/2000/svg"><sodipodi:namedview
     id="namedview1"
     pagecolor="#ffffff"
     bordercolor="#666666"
     borderopacity="1.0"
     inkscape:showpageshadow="2"
     inkscape:pageopacity="0.0"
     inkscape:pagecheckerboard="0"
     inkscape:deskcolor="#d1d1d1"
     inkscape:document-units="mm" /><defs
     id="defs1" /><g
     inkscape:label="Layer 1"
     inkscape:groupmode="layer"
     id="layer1">
     	<style>
		@media (prefers-color-scheme: dark) {
		.a { fill: #dad8d8 }
		}
	</style>
	<path class="a" fill="#333333"
       d="m 117.78941,202.20127 c -0.19838,-0.20683 -5.70236,-0.87264 -6.71591,-0.81242 -0.45328,0.0269 -0.97061,-0.0699 -1.14961,-0.21522 -0.43826,-0.35575 -2.83277,-1.01053 -8.56354,-2.34168 -4.683662,-1.08793 -6.094331,-1.63942 -9.129582,-3.56911 -1.865042,-1.18573 -5.193424,-4.24528 -5.193424,-4.77396 0,-0.17608 -0.450387,-0.85943 -1.000859,-1.51855 -4.444832,-5.32216 -5.608403,-7.08215 -7.219099,-10.91943 -0.519105,-1.2367 -1.515388,-3.17667 -2.213961,-4.31104 -0.698573,-1.13436 -1.76367,-2.9678 -2.366882,-4.0743 -0.603213,-1.1065 -1.45402,-2.54122 -1.890682,-3.18827 -1.360253,-2.01563 -5.139288,-8.5612 -5.139288,-8.90163 0,-0.53208 -0.897477,-2.22933 -1.585683,-2.99873 -0.353473,-0.39518 -0.904297,-1.42983 -1.224052,-2.29922 -0.738065,-2.00675 -2.516871,-5.42249 -3.216344,-6.17618 -0.294924,-0.31778 -0.863932,-1.32303 -1.264464,-2.2339 -0.400531,-0.91086 -0.928645,-1.73302 -1.173586,-1.82701 -0.244941,-0.094 -0.445834,-0.31872 -0.446428,-0.4994 -0.0018,-0.56103 -2.249386,-4.71775 -5.052984,-9.34526 -0.610356,-1.00743 -1.404187,-2.02462 -1.764069,-2.26042 -0.359882,-0.23581 -0.65433,-0.58721 -0.65433,-0.78091 0,-0.56142 -2.743041,-4.97142 -3.864034,-6.21222 -0.561995,-0.62206 -1.021808,-1.27539 -1.021808,-1.45185 0,-0.17646 -0.437633,-1.04907 -0.972518,-1.93914 -0.534884,-0.89007 -1.880629,-3.36428 -2.990544,-5.49824 -1.109915,-2.13396 -2.492263,-4.65592 -3.071885,-5.60435 -0.579622,-0.94843 -1.745404,-3.15947 -2.590627,-4.91343 -0.845222,-1.75396 -2.068882,-3.803833 -2.719244,-4.555267 -0.650362,-0.751434 -1.518842,-2.032329 -1.929956,-2.846433 -0.411114,-0.814104 -1.121981,-2.026493 -1.579704,-2.694197 -1.053377,-1.536613 -2.538756,-4.659806 -2.539054,-5.338671 -1.25e-4,-0.284475 -0.217602,-0.93113 -0.483282,-1.437012 -0.265681,-0.505882 -0.529529,-1.43711 -0.586329,-2.069396 -0.0568,-0.632285 -0.307202,-1.778154 -0.556448,-2.546375 -0.249246,-0.768221 -0.464459,-2.190863 -0.478252,-3.161427 -0.04441,-3.124729 2.606648,-7.705024 5.409213,-9.345635 0.678042,-0.396923 1.445398,-0.494643 3.592531,-0.457497 3.735329,0.06462 5.175293,0.709932 9.212597,4.128554 0.693313,0.587069 1.558595,1.789481 2.171622,3.017726 0.560493,1.12299 1.3759,2.623789 1.812017,3.335111 1.883272,3.071683 3.191172,5.393022 3.620925,6.426635 0.253761,0.61033 0.906303,1.756489 1.450094,2.547022 0.543791,0.790533 0.98871,1.685293 0.98871,1.988357 0,0.303064 1.015276,2.066855 2.256168,3.919535 2.330547,3.479559 5.824551,9.18196 6.761435,11.03502 0.611768,1.21001 2.091467,2.7317 2.377844,2.44533 0.532045,-0.53205 -1.807247,-5.48904 -4.672247,-9.900562 C 58.385261,94.89027 57.799759,93.72107 56.710332,90.614594 56.20847,89.183546 55.589676,87.694967 55.335234,87.30664 54.70875,86.350504 52.751783,82.742298 51.526062,80.283387 c -0.551569,-1.1065 -1.484689,-2.618711 -2.073601,-3.360468 -1.827555,-2.301877 -4.744832,-7.184442 -5.457361,-9.133833 -0.374003,-1.023224 -1.188989,-2.606068 -1.811079,-3.51743 -0.62209,-0.911362 -1.132255,-1.755482 -1.1337,-1.875824 -0.0014,-0.120341 -0.320729,-0.865457 -0.709519,-1.655814 -0.38879,-0.790357 -0.710935,-1.615744 -0.715878,-1.834193 -0.0049,-0.218449 -0.254167,-0.800439 -0.553831,-1.293311 -0.299664,-0.492872 -0.632254,-1.674843 -0.73909,-2.626602 -0.306721,-2.732484 0.626066,-4.73805 3.743909,-8.049701 1.77711,-1.887577 6.631091,-1.937943 9.003031,-0.09342 0.376978,0.293154 0.833147,0.533008 1.013708,0.533008 0.180562,0 0.777444,0.386127 1.326403,0.858059 0.54896,0.471932 1.273194,1.086255 1.609408,1.365162 0.886034,0.735011 3.020872,3.413755 4.242249,5.323075 0.580727,0.907821 1.245889,1.650584 1.478138,1.650584 0.255551,0 0.422272,0.275672 0.422272,0.698223 0,0.384022 0.627405,1.709666 1.394233,2.945875 5.131848,8.273091 9.814464,16.929709 9.814464,18.143717 0,0.300104 0.310581,0.880767 0.690181,1.290362 0.379599,0.409594 1.040807,1.495461 1.469351,2.413037 0.428544,0.917577 1.052447,2.118772 1.386451,2.669324 0.334005,0.550552 0.571096,1.277136 0.526869,1.614632 -0.05584,0.42615 0.388372,1.061038 1.453943,2.078021 0.843896,0.805416 1.553309,1.715998 1.576473,2.023517 0.09324,1.237782 2.802472,4.204121 3.83973,4.204121 0.534968,0 0.891744,-2.396536 0.663183,-4.454738 C 83.816603,88.673347 82.182603,83.761621 81.452304,82.582607 81.25648,82.266464 80.747596,81.089 80.32145,79.96602 c -0.426146,-1.122979 -1.126367,-2.610287 -1.556048,-3.305128 -0.42968,-0.694841 -1.104564,-1.962907 -1.499742,-2.817924 -1.383833,-2.994093 -2.646365,-5.36125 -3.999408,-7.498602 -3.823745,-6.040227 -4.537509,-7.225211 -5.678129,-9.426769 -0.67973,-1.311975 -1.609411,-2.928614 -2.065957,-3.592531 -0.456546,-0.663918 -1.314468,-2.157923 -1.906494,-3.320011 -0.592027,-1.162089 -1.423426,-2.520066 -1.847554,-3.017727 -1.554407,-1.823899 -3.398504,-4.698331 -4.452555,-6.940289 -1.233508,-2.623661 -1.364864,-2.87032 -2.678418,-5.029544 -0.528891,-0.869392 -1.293727,-2.667882 -1.699636,-3.996644 -0.867002,-2.838179 -0.772356,-4.626682 0.34623,-6.542594 0.865725,-1.482811 4.223608,-4.314495 5.420173,-4.5708 0.487573,-0.104439 1.008975,-0.262726 1.158672,-0.35175 0.499051,-0.296781 3.157631,-0.01398 4.179703,0.444614 0.554822,0.248942 1.407586,0.603065 1.895031,0.78694 1.703467,0.642587 4.941077,3.034392 5.308654,3.921802 0.195727,0.472529 0.774122,1.178161 1.28532,1.568071 0.558,0.425607 1.001673,1.070032 1.110164,1.612487 0.09939,0.496957 0.708469,1.602568 1.353505,2.456913 0.645037,0.854345 1.439817,2.157817 1.766179,2.896606 0.326361,0.738788 0.875098,1.795911 1.219414,2.34916 1.607689,2.583246 2.679083,4.568844 3.140425,5.820103 0.454533,1.23279 1.23809,2.668928 4.429687,8.118918 1.034874,1.767158 1.661751,2.973307 2.464652,4.742141 0.251129,0.55325 1.187714,1.975892 2.0813,3.161427 1.766599,2.343775 2.685973,3.842648 2.693724,4.39163 0.0027,0.192781 1.182848,2.031816 2.622502,4.086744 1.439653,2.054927 2.86612,4.285889 3.169927,4.957692 0.431859,0.954967 0.706201,1.221461 1.257431,1.221461 0.933718,0 0.889788,-0.524101 -0.145469,-1.735271 -0.46779,-0.547279 -0.85658,-1.253715 -0.863978,-1.569858 -0.0074,-0.316142 -0.190908,-0.898132 -0.407799,-1.293311 -1.654897,-3.015239 -2.025946,-3.762224 -2.506921,-5.046857 -0.29948,-0.79988 -1.011803,-2.222522 -1.582939,-3.161428 -1.110841,-1.826139 -2.016577,-3.472614 -4.41733,-8.029955 -0.832701,-1.580714 -1.734078,-3.132687 -2.003059,-3.44883 -0.268982,-0.316143 -0.503997,-0.875413 -0.522256,-1.242822 -0.01826,-0.36741 -0.410559,-1.272728 -0.871776,-2.011818 -1.31902,-2.1137 -2.559423,-4.439238 -2.786251,-5.223733 -0.114261,-0.395179 -1.403509,-3.175798 -2.864995,-6.179154 -1.461485,-3.003356 -2.80666,-6.171968 -2.989277,-7.041361 -0.567232,-2.700449 0.510923,-5.458684 2.63775,-6.748138 0.444027,-0.269205 1.207259,-0.880415 1.696072,-1.358245 1.370895,-1.340092 2.600318,-1.716825 5.798107,-1.776717 2.497377,-0.04677 2.959641,0.02143 3.604492,0.531835 0.406844,0.322019 1.348718,0.891634 2.093054,1.26581 1.010966,0.508211 1.640914,1.12623 2.490076,2.442922 1.637893,2.53968 2.24052,3.692529 2.465402,4.716407 0.292143,1.330119 3.047425,5.567961 4.435265,6.821793 1.54343,1.394393 3.97496,4.847229 5.58272,7.927592 1.71082,3.277818 2.74102,5.132082 3.33316,5.999338 0.27289,0.399675 0.8709,1.502668 1.32893,2.451096 0.45803,0.948428 1.19838,2.272652 1.64523,2.942719 0.44685,0.670067 1.00626,1.769381 1.24314,2.442921 0.23688,0.673539 0.8783,2.090914 1.42538,3.14972 0.54708,1.058807 0.99697,2.158122 0.99976,2.442921 0.006,0.636919 6.00502,12.608413 6.88412,13.738333 0.12298,0.158071 0.77348,1.322051 1.44556,2.586622 0.67207,1.264571 1.64171,3.010541 2.15474,3.879934 0.51303,0.869392 1.28511,2.206879 1.71574,2.972194 0.61202,1.087701 0.90602,1.359297 1.34668,1.244062 0.41247,-0.107863 0.65114,0.05858 0.88952,0.620337 0.17918,0.422265 0.53884,1.026417 0.79923,1.34256 0.2604,0.316143 0.6446,1.027464 0.85379,1.580714 0.20919,0.553249 1.09264,2.232182 1.96322,3.730961 1.14956,1.979076 1.61954,3.106757 1.71685,4.11942 0.149,1.550686 0.58333,1.910384 1.63023,1.3501 0.75719,-0.405234 3.08583,-3.432886 4.31321,-5.60795 0.44599,-0.790357 1.21146,-1.840724 1.70104,-2.334149 0.48958,-0.493426 1.40746,-1.631822 2.03975,-2.529771 0.63228,-0.897948 1.4406,-1.968097 1.79626,-2.378108 0.35566,-0.410011 0.64666,-0.846712 0.64666,-0.970447 0,-0.123734 0.46829,-0.719172 1.04064,-1.323194 0.57234,-0.604023 1.55612,-1.87421 2.18615,-2.822638 0.63004,-0.948428 1.32614,-1.918412 1.54689,-2.155519 0.37907,-0.407154 1.22517,-1.468054 3.07505,-3.855702 2.07928,-2.683734 9.53738,-7.039229 12.4903,-7.294274 0.83279,-0.07193 1.5737,-0.227108 1.64647,-0.344843 0.16597,-0.268555 3.98725,0.967064 4.99762,1.615994 1.78542,1.146714 3.72833,4.048928 4.38074,6.543708 0.4981,1.904694 0.54517,6.207681 0.0801,7.322 -0.22247,0.533036 -0.40449,1.274129 -0.40449,1.646874 0,0.909584 -1.15578,3.871194 -3.05142,7.819085 -1.45173,3.023381 -2.27805,4.404146 -4.16086,6.952735 -0.40872,0.553249 -0.90978,1.428555 -1.11347,1.945124 -0.20368,0.516569 -0.87101,1.335756 -1.48294,1.820416 -0.61193,0.48466 -1.11261,1.02917 -1.11261,1.21001 0,0.18085 -0.48499,0.79979 -1.07776,1.37543 -1.43242,1.39102 -1.66648,1.70152 -2.85811,3.79154 -2.04097,3.5797 -4.34686,9.97421 -4.8765,13.52309 -0.32579,2.18295 -0.11239,8.12935 0.36954,10.29739 0.25747,1.15831 0.56761,2.688 0.68919,3.39932 0.34285,2.0059 1.96342,6.0031 3.18266,7.85014 0.60666,0.91905 1.19114,2.14769 1.29885,2.73033 0.10771,0.58263 0.50279,1.51199 0.87797,2.06524 0.37517,0.55325 0.761,1.49377 0.85739,2.09004 0.0964,0.59627 0.25527,1.13361 0.35306,1.19408 0.0978,0.0605 0.17495,3.06456 0.17146,6.67574 -0.006,5.74357 -0.071,6.69175 -0.52241,7.57169 -0.28384,0.55325 -0.75339,2.10523 -1.04345,3.44883 -0.29006,1.34361 -0.85732,3.02491 -1.26058,3.73624 -0.40325,0.71132 -0.9479,1.71363 -1.21032,2.22736 -0.26242,0.51374 -0.58999,0.93406 -0.72793,0.93406 -0.13794,0 -0.43993,0.45266 -0.67109,1.00591 -0.23116,0.55325 -0.53784,1.00591 -0.68151,1.00591 -0.29372,0 -2.35474,3.22809 -2.35474,3.68813 0,0.163 -0.42033,0.58993 -0.93406,0.94874 -0.51373,0.35881 -1.01008,0.76164 -1.10299,0.89517 -0.88602,1.27334 -3.66748,3.99329 -5.29171,5.1747 -1.1065,0.80482 -2.81129,2.13858 -3.78843,2.9639 -0.97713,0.82532 -2.57291,1.99933 -3.54618,2.6089 -0.97327,0.60957 -2.51807,1.5933 -3.43288,2.18607 -0.91481,0.59277 -1.90565,1.07971 -2.20186,1.08209 -0.77223,0.006 -2.3881,0.6137 -3.55629,1.337 -1.50998,0.93493 -6.75482,2.55479 -12.78941,3.94998 -2.10779,0.48732 -6.50713,0.91701 -6.75396,0.65967 z m 6.44608,-8.54587 c 0.15352,-0.15352 0.63831,-0.27914 1.0773,-0.27914 1.02264,0 3.77888,-1.05189 6.6951,-2.55513 1.2602,-0.6496 2.42418,-1.18138 2.58662,-1.18171 0.4128,-8.7e-4 3.50269,-1.64273 4.94557,-2.62792 0.66076,-0.45116 1.34527,-0.8203 1.52113,-0.8203 0.17586,0 1.04093,-0.54965 1.92238,-1.22146 0.88144,-0.6718 2.14608,-1.60945 2.81031,-2.08367 1.44953,-1.03487 6.10383,-5.0389 6.92415,-5.95676 0.32123,-0.35942 0.8032,-1 1.07105,-1.4235 0.26785,-0.4235 0.91343,-1.19949 1.43461,-1.72442 1.81465,-1.82766 2.99934,-3.54792 3.16598,-4.59722 0.0923,-0.5809 0.4361,-1.32455 0.7641,-1.65256 0.32801,-0.32801 0.59638,-0.79233 0.59638,-1.03183 0,-0.2395 0.3795,-1.11249 0.84334,-1.93997 0.78195,-1.39499 0.84778,-1.7451 0.90427,-4.80964 0.0335,-1.81782 -0.0131,-3.49912 -0.1035,-3.73623 -0.1742,-0.45672 -0.33326,-1.35015 -0.74875,-4.20551 -0.14106,-0.96942 -0.59422,-2.43503 -1.00702,-3.25689 -0.4128,-0.82187 -0.75055,-1.68222 -0.75055,-1.9119 0,-0.68639 -0.87674,-1.81078 -1.28869,-1.6527 -0.2107,0.0809 -0.53757,0.55804 -0.72638,1.06042 -1.07588,2.86274 -2.18052,5.05771 -3.00414,5.96936 -0.51399,0.56892 -1.47623,1.8321 -2.13831,2.80706 -0.66209,0.97496 -1.81212,2.26074 -2.55563,2.85728 -1.94493,1.56047 -5.65568,5.50159 -6.21017,6.5957 -0.26036,0.51373 -0.67092,0.93406 -0.91235,0.93406 -0.24144,0 -0.91479,0.32333 -1.49635,0.71851 -0.58156,0.39518 -1.19307,0.7185 -1.35891,0.7185 -0.16584,0 -1.07287,0.77947 -2.0156,1.73215 -1.867,1.88668 -3.12974,2.6669 -4.82804,2.98315 -0.60469,0.1126 -1.54628,0.4557 -2.09241,0.76244 -0.54612,0.30674 -1.22034,0.55772 -1.49825,0.55772 -0.27791,0 -1.01265,0.25866 -1.63274,0.5748 -0.6201,0.31614 -1.54513,0.57481 -2.05563,0.57481 -0.51049,0 -1.00811,0.12933 -1.1058,0.2874 -0.0977,0.15807 -0.53569,0.2874 -0.97332,0.2874 -0.43763,0 -1.56165,0.31101 -2.49781,0.69112 -2.23146,0.90606 -6.44216,1.8955 -8.06655,1.8955 -0.70924,0 -1.52425,0.12563 -1.81114,0.27917 -0.2869,0.15354 -1.4375,0.33689 -2.5569,0.40745 -1.1194,0.0705 -2.13714,0.18868 -2.26165,0.26251 -0.12451,0.0738 -1.90769,0.10366 -3.96262,0.0663 -2.739402,-0.0498 -4.023778,-0.19538 -4.81399,-0.54554 -0.592768,-0.26267 -1.07776,-0.41692 -1.07776,-0.34277 0,0.0741 -0.533585,-0.0534 -1.185744,-0.28355 -0.652159,-0.23009 -1.526366,-0.41835 -1.942683,-0.41835 -0.422904,0 -0.902237,-0.23266 -1.086189,-0.52721 -0.213882,-0.34248 -0.704568,-0.54132 -1.400385,-0.56748 -1.334298,-0.0502 -2.074933,-0.28046 -3.001514,-0.93329 -1.10173,-0.77623 -1.991067,-0.96162 -2.18527,-0.45553 -0.198285,0.51672 2.254595,4.21819 3.730524,5.62946 0.598634,0.57241 1.035809,1.26777 1.035809,1.64752 0,1.30882 5.368023,6.07048 8.792836,7.79961 1.249688,0.63095 3.371476,1.49128 4.715076,1.91185 1.34361,0.42057 2.83092,0.90041 3.30513,1.0663 0.47422,0.1659 1.2502,0.36776 1.72442,0.44858 0.47421,0.0808 1.01205,0.26605 1.19519,0.41162 0.18314,0.14558 1.54111,0.50962 3.01772,0.80898 2.17268,0.44048 3.50584,0.51858 6.98968,0.40945 2.36771,-0.0742 4.43054,-0.26045 4.58407,-0.41398 z m -17.37424,-24.56222 c 0.67581,-0.23844 1.70614,-0.43353 2.28962,-0.43353 0.59775,0 1.75352,-0.35423 2.64749,-0.81143 1.12698,-0.57635 1.94523,-0.79403 2.8245,-0.75139 1.09217,0.053 3.65442,-0.58423 5.32207,-1.32352 0.31614,-0.14015 0.89813,-0.24429 1.29331,-0.23141 1.69917,0.0554 4.52074,-0.68172 5.89175,-1.5391 0.79036,-0.49426 2.019,-1.21195 2.73032,-1.59488 3.07863,-1.65733 4.2236,-2.38466 4.89222,-3.10773 0.39167,-0.42357 1.38142,-1.26851 2.19945,-1.87764 0.81803,-0.60913 1.5704,-1.36926 1.67193,-1.68916 0.10154,-0.31991 0.36438,-0.58166 0.5841,-0.58166 0.21971,0 0.76065,-0.47564 1.20209,-1.05698 0.44144,-0.58134 1.41693,-1.72548 2.16777,-2.54254 0.75084,-0.81706 1.36788,-1.60239 1.3712,-1.74519 0.003,-0.1428 0.71465,-1.00345 1.58072,-1.91256 0.86607,-0.90911 1.57467,-1.74982 1.57467,-1.86824 0,-0.11843 0.51195,-0.77538 1.13766,-1.4599 1.21953,-1.33415 2.04042,-3.21351 2.75448,-6.30617 0.24551,-1.0633 0.7043,-2.71682 1.01955,-3.67448 0.31524,-0.95767 0.4937,-1.94831 0.39657,-2.20143 -0.0971,-0.25313 0.0229,-0.84608 0.2668,-1.31768 0.36644,-0.70861 0.42812,-1.87309 0.35533,-6.70805 -0.0633,-4.20581 0.0129,-6.09299 0.27116,-6.7128 0.19759,-0.47421 0.61528,-1.89686 0.92821,-3.16143 0.88883,-3.59182 1.9932,-7.10487 2.294,-7.29731 0.15058,-0.0963 0.69615,-1.0158 1.21238,-2.04327 1.14166,-2.27229 3.36888,-5.263996 5.75472,-7.72999 2.40398,-2.484754 4.23053,-5.019536 4.59655,-6.378855 0.16639,-0.617917 0.41816,-1.123485 0.55949,-1.123485 0.14132,0 0.34499,-0.277387 0.4526,-0.616415 0.1076,-0.339028 0.67865,-1.082682 1.269,-1.652564 1.32051,-1.274719 2.97383,-4.864604 3.05828,-6.640498 0.0338,-0.711321 0.18163,-1.822673 0.32844,-2.46967 0.35073,-1.545625 -0.19847,-3.755159 -1.11547,-4.487792 -0.54115,-0.432343 -1.01131,-0.5167 -2.30999,-0.414463 -0.89681,0.0706 -1.99612,0.327015 -2.44292,0.56981 -0.4468,0.242796 -1.15678,0.514262 -1.57773,0.603258 -1.23873,0.261888 -2.18618,1.387495 -8.12066,9.647687 -0.85173,1.185535 -1.85211,2.424832 -2.22305,2.753992 -1.1553,1.025186 -2.83171,3.026 -3.30948,3.949924 -0.25147,0.486279 -0.63951,1.066443 -0.86232,1.289253 -0.22281,0.22281 -0.73456,1.069786 -1.13723,1.882169 -0.40266,0.812383 -1.21791,1.929719 -1.81167,2.482969 -0.59376,0.553249 -1.55138,1.71723 -2.12804,2.586622 -1.23818,1.866718 -0.80252,1.388568 -4.3588,4.783848 -1.58071,1.50915 -3.35301,3.068 -3.93844,3.46413 -0.77406,0.52376 -1.19091,1.10106 -1.52813,2.11634 -0.32138,0.9676 -0.7445,1.57588 -1.37851,1.98179 -2.0751,1.32852 -2.21124,1.51838 -5.80217,8.09145 -0.9662,1.76859 -1.11831,2.2364 -0.79432,2.44292 0.3296,0.21008 0.21594,0.74008 -0.6403,2.98575 -0.57256,1.50167 -1.22731,3.13786 -1.45499,3.63596 -0.22769,0.4981 -0.41398,1.03784 -0.41398,1.19941 0,0.16157 -0.30459,0.65935 -0.67687,1.10618 -0.86841,1.0423 -1.21562,2.15686 -1.7751,5.69825 -0.24972,1.58071 -0.52387,3.1584 -0.60922,3.50598 -0.1552,0.6321 -2.23321,1.94763 -2.65991,1.68392 -0.12241,-0.0757 -0.82521,-1.03578 -1.56177,-2.13361 -0.94863,-1.41391 -1.3392,-2.28482 -1.3392,-2.98623 0,-0.54461 -0.13999,-1.39176 -0.31108,-1.88256 -0.61474,-1.76343 1.64863,-8.64068 3.53981,-10.75572 0.60348,-0.67491 1.1675,-1.55043 1.2534,-1.94561 0.0859,-0.39518 0.3412,-1.24015 0.56734,-1.87772 0.22615,-0.63757 0.41117,-1.37073 0.41117,-1.62924 0,-0.2585 0.53318,-1.49565 1.18484,-2.74921 1.38269,-2.65981 1.61853,-4.35972 0.66335,-4.7815 -0.77902,-0.34399 -1.8559,-2.00769 -2.04205,-3.15482 -0.10476,-0.64555 0.02,-1.11597 0.4301,-1.62129 0.55041,-0.67826 0.70431,-0.70792 3.2603,-0.62831 1.47544,0.046 3.09443,0.23053 3.59776,0.41015 1.12917,0.40298 1.45289,0.17358 2.65612,-1.88223 0.47818,-0.81702 1.40091,-2.21692 2.0505,-3.11088 1.16907,-1.608867 1.176,-1.633119 0.68163,-2.387623 -0.2747,-0.419236 -0.96468,-1.001497 -1.5333,-1.293913 -1.91371,-0.984133 -3.11756,-2.426504 -7.25768,-8.695706 -6.66925,-10.098933 -8.57741,-13.077091 -8.57741,-13.387219 0,-0.160789 -0.85065,-1.694387 -1.89034,-3.407996 -2.55463,-4.210535 -4.37909,-8.141066 -4.87651,-10.505731 -0.30388,-1.4446 -0.65823,-2.235601 -1.34922,-3.011832 -1.54501,-1.735594 -1.92973,-2.100098 -2.21661,-2.100098 -0.42604,0 -1.93714,-2.347584 -2.55101,-3.963151 -0.58392,-1.536754 -3.70196,-6.223406 -5.569889,-8.371974 -0.607327,-0.698571 -1.815144,-2.703203 -2.684038,-4.454738 -2.267926,-4.571733 -4.19809,-8.003355 -4.944154,-8.790172 -0.355661,-0.375087 -0.647453,-0.948586 -0.648426,-1.27444 -9.74e-4,-0.325854 -0.194971,-0.962906 -0.431104,-1.415671 -0.236133,-0.452765 -0.434589,-0.97009 -0.441013,-1.14961 -0.02149,-0.600648 -1.56345,-2.146098 -2.334272,-2.339562 -0.419065,-0.105179 -1.016491,-0.055 -1.327611,0.111505 -1.233053,0.65991 -1.010501,1.556984 1.862132,7.506004 0.87778,1.817821 1.800978,3.73815 2.05155,4.267399 0.250573,0.529249 0.920378,1.499232 1.488455,2.155519 0.568077,0.656286 1.201068,1.770762 1.406645,2.476613 0.205578,0.705851 0.857614,2.137198 1.448969,3.180771 0.591355,1.043573 1.166541,2.261374 1.278191,2.706224 0.111651,0.44485 0.692544,1.53546 1.290875,2.423578 0.598331,0.888117 1.428069,2.364909 1.843861,3.281759 0.415789,0.91685 1.034199,2.057709 1.374229,2.535243 0.34003,0.477533 1.35472,2.314006 2.25486,4.081049 1.73938,3.414531 3.08584,5.868738 3.52597,6.426783 0.14746,0.186973 0.98286,2.644265 1.85645,5.460648 1.84958,5.962957 2.05798,8.034694 1.01208,10.061739 -0.3419,0.662645 -1.06034,1.539424 -1.59653,1.948397 -1.24548,0.949975 -4.08406,1.499643 -5.39122,1.043966 -0.50052,-0.174482 -1.27109,-0.317241 -1.71239,-0.317241 -0.4413,0 -0.88229,-0.129331 -0.97998,-0.287402 -0.0977,-0.158072 -0.369229,-0.287403 -0.603408,-0.287403 -0.595295,0 -1.917561,-1.002625 -3.96704,-3.00806 -2.182875,-2.135962 -3.330295,-3.797109 -3.331893,-4.823657 -6.77e-4,-0.434697 -0.252981,-1.042107 -0.560675,-1.349801 -0.307694,-0.307694 -1.737245,-2.319233 -3.176779,-4.470087 -2.405759,-3.594519 -3.620702,-5.753189 -7.512973,-13.348799 -0.765166,-1.493192 -1.974395,-3.349998 -2.687173,-4.126237 -0.712779,-0.776238 -1.295962,-1.554299 -1.295962,-1.729025 0,-0.625795 -2.137632,-5.53561 -2.912646,-6.689904 -0.434768,-0.647537 -0.88146,-1.552855 -0.992649,-2.011818 -0.111189,-0.458963 -0.420918,-1.157806 -0.688288,-1.552984 -0.267369,-0.395179 -0.566817,-0.942331 -0.665438,-1.215894 -0.09862,-0.273563 -0.95026,-1.643951 -1.89253,-3.045306 -0.942269,-1.401356 -1.905383,-3.007837 -2.140252,-3.569959 -0.23487,-0.562122 -0.826919,-1.317687 -1.315666,-1.679033 -0.488746,-0.361346 -0.88863,-0.804743 -0.88863,-0.985327 0,-0.419577 -2.395196,-2.150191 -2.975897,-2.150191 -0.647714,0 -0.887209,0.548947 -0.940411,2.155519 -0.03585,1.082623 0.122241,1.701285 0.641049,2.50861 0.378751,0.589378 0.688637,1.258444 0.688637,1.486812 0,0.228368 0.323328,0.799468 0.718506,1.269111 0.395179,0.469642 0.718507,1.065614 0.718507,1.324382 0,0.258767 0.17694,0.538384 0.3932,0.621371 0.216261,0.08299 0.775155,0.757917 1.241987,1.499843 1.483256,2.357307 3.250655,5.464477 3.250655,5.714803 0,0.132944 0.519314,1.130397 1.154033,2.216562 0.634718,1.086165 1.23876,2.312426 1.342316,2.725025 0.103555,0.412598 0.554224,1.11612 1.001485,1.563382 0.447262,0.447261 0.813203,0.992212 0.813203,1.211002 0,0.21879 0.248169,0.629168 0.551487,0.911951 0.303318,0.282782 0.647817,0.8983 0.765553,1.367816 0.262057,1.045053 1.172585,2.637656 2.058817,3.601072 0.363518,0.395179 0.938746,1.300496 1.278283,2.011818 0.339537,0.711321 0.99501,1.851058 1.456606,2.532749 0.461596,0.681691 1.222317,2.104333 1.690492,3.161427 1.09265,2.467098 2.117094,4.407337 3.342853,6.331171 0.537963,0.844336 1.162498,1.943651 1.387855,2.442921 0.225356,0.499271 0.52575,1.101761 0.667541,1.338868 0.916207,1.532105 2.891214,6.082855 3.055922,7.041361 0.108651,0.632286 0.424817,1.408272 0.70259,1.724415 0.277774,0.316143 0.589792,1.167423 0.693375,1.891734 0.103583,0.72431 0.438748,1.78415 0.744812,2.355198 0.496518,0.926395 0.529684,1.326436 0.307799,3.712615 -0.144551,1.554528 -0.141223,2.877033 0.0079,3.158405 0.344791,0.650353 0.325991,1.671459 -0.03077,1.671459 -0.158071,0 -0.287402,0.210586 -0.287402,0.467969 0,0.694584 -1.699178,3.536606 -2.350628,3.931626 -0.310701,0.1884 -0.742968,0.76287 -0.960593,1.2766 -0.421548,0.99513 -0.292391,0.95753 -3.586439,1.04382 -2.303548,0.0603 -5.740354,-1.22484 -7.659126,-2.8641 -0.865579,-0.73948 -2.085873,-2.235668 -2.860233,-3.506887 -0.742813,-1.219429 -1.949329,-3.187128 -2.681147,-4.372663 -1.742011,-2.822032 -2.031824,-3.366364 -2.031824,-3.816198 0,-0.206343 -0.646656,-1.425948 -1.437013,-2.710235 -0.790357,-1.284287 -1.437012,-2.590012 -1.437012,-2.901611 0,-0.311599 -0.43235,-1.195378 -0.960777,-1.963955 -0.528427,-0.768576 -1.050631,-1.877177 -1.160454,-2.463558 -0.22283,-1.189765 -2.017034,-4.924929 -3.629527,-7.555928 -0.581275,-0.948428 -1.408914,-2.343877 -1.839197,-3.100998 -0.430283,-0.75712 -1.161863,-1.808843 -1.625732,-2.337161 -0.46387,-0.528318 -0.8434,-1.282721 -0.8434,-1.67645 0,-0.720017 -1.471188,-2.744076 -4.798941,-6.602377 C 49.785365,55.593122 47.0884,54.35568 47.0884,55.950098 c 0,0.299787 0.250645,0.86371 0.556989,1.253163 0.306344,0.389453 0.649644,1.077263 0.762889,1.528466 0.113245,0.451203 0.379127,1.152317 0.59085,1.558031 0.211723,0.405714 0.385748,1.024346 0.386722,1.374738 9.73e-4,0.350391 0.454429,1.089734 1.007679,1.642984 0.55325,0.55325 1.005908,1.211313 1.005908,1.462362 0,0.25105 0.496404,1.193011 1.103119,2.093248 0.606714,0.900237 1.443799,2.218785 1.860188,2.930106 0.416388,0.711321 1.083965,1.669088 1.483504,2.12837 0.399539,0.459283 0.727616,1.041273 0.729062,1.293312 0.0014,0.252038 0.320728,1.104907 0.709518,1.895264 0.38879,0.790357 0.710935,1.663342 0.715879,1.939967 0.0052,0.29369 0.229218,0.502954 0.5383,0.502954 0.374208,0 0.635626,0.357925 0.892119,1.221461 0.199544,0.671803 0.792163,1.997447 1.316931,2.945875 0.524768,0.948428 1.311306,2.629733 1.747862,3.736233 0.436556,1.106499 1.504153,3.111131 2.372437,4.454738 3.671211,5.680933 4.415288,6.928208 4.238542,7.104953 -0.205784,0.205784 0.591968,1.717692 1.058348,2.005791 0.204634,0.12641 0.742264,0.97182 1.194733,1.878686 0.452469,0.90687 1.06103,1.86456 1.352358,2.12821 0.291329,0.26365 0.529688,0.69212 0.529688,0.95215 0,0.26002 0.148875,0.62165 0.330834,0.80361 0.181959,0.18196 0.42491,0.88681 0.539892,1.56634 0.114982,0.67953 0.441387,2.07617 0.725345,3.10363 0.327738,1.18588 0.524168,2.92488 0.537867,4.76177 0.01997,2.67732 -0.03561,2.97813 -0.743468,4.02363 -0.885845,1.3084 -2.715707,3.26072 -3.706912,3.95498 -0.933709,0.654 -2.75624,0.60353 -5.017996,-0.13895 -1.945743,-0.63874 -2.323407,-0.96327 -4.095687,-3.51939 -0.516964,-0.74561 -1.324466,-1.57445 -1.794448,-1.84187 -0.469982,-0.26742 -0.855331,-0.71118 -0.856331,-0.98614 -0.0028,-0.77189 -1.493727,-4.35756 -1.91874,-4.61458 -0.20797,-0.12577 -0.906229,-1.35441 -1.551688,-2.73032 -0.645459,-1.37592 -1.485281,-2.76032 -1.866271,-3.07647 -0.380989,-0.31614 -0.884631,-1.12983 -1.119203,-1.80819 -0.43341,-1.25339 -4.945002,-8.107193 -5.33665,-8.107193 -0.480381,0 -1.339258,-1.703531 -1.407789,-2.792265 -0.01209,-0.192139 -0.409983,-0.746255 -0.884197,-1.23137 -0.474214,-0.485114 -0.862207,-1.145259 -0.862207,-1.466989 0,-0.32173 -0.387994,-1.148893 -0.862208,-1.838139 -0.474214,-0.689247 -0.862207,-1.445368 -0.862207,-1.68027 0,-0.653871 -2.714425,-4.566201 -4.39416,-6.333351 -1.816585,-1.911121 -2.922995,-2.299982 -3.725223,-1.309274 -0.41345,0.51059 -0.521036,1.002819 -0.433486,1.983294 0.198416,2.222062 1.364045,6.072282 2.657063,8.776613 2.138252,4.472131 2.734379,5.843009 2.734379,6.288096 0,0.237567 0.126086,0.509865 0.280191,0.605107 0.154106,0.09524 0.80026,1.204567 1.4359,2.465165 0.635639,1.260596 1.649855,3.097936 2.253813,4.082976 1.736028,2.83143 3.046574,5.0799 4.226694,7.25164 1.438453,2.64714 3.768795,6.45005 6.209805,10.13386 1.086545,1.63975 1.975538,3.08621 1.975538,3.21436 0,0.12816 0.207469,0.4052 0.461044,0.61564 0.253574,0.21045 0.5737,0.67895 0.711392,1.0411 0.137692,0.36216 0.431856,0.65847 0.653698,0.65847 0.221843,0 0.577233,0.42033 0.789758,0.93406 0.212524,0.51373 1.4131,2.48603 2.667946,4.38289 3.113873,4.70701 5.209129,8.1613 6.711641,11.06499 0.695248,1.34361 1.384631,2.56579 1.531963,2.71596 0.147332,0.15016 0.267876,0.47452 0.267876,0.72079 0,0.54334 1.062729,2.60937 2.762247,5.37002 0.860717,1.39812 1.490855,2.10981 1.975849,2.23153 0.399722,0.10033 0.918367,0.57761 1.182316,1.08803 0.25862,0.50012 0.875296,1.31619 1.370389,1.81349 0.495093,0.4973 1.338659,1.37955 1.874592,1.96055 0.535932,0.58101 1.150255,1.05638 1.365161,1.05638 0.214907,0 0.39074,0.25469 0.39074,0.56597 0,0.37186 0.54214,0.91278 1.580714,1.57715 0.869392,0.55614 1.580713,1.1421 1.580713,1.30214 0,0.16003 0.162986,0.29097 0.36219,0.29097 0.199204,0 0.710884,0.32333 1.137066,0.71851 0.426183,0.39518 1.071517,0.7221 1.434076,0.7265 0.362559,0.004 1.157313,0.385 1.76612,0.84578 0.608806,0.46078 1.464314,0.91627 1.901128,1.01221 0.436815,0.0959 1.063953,0.42575 1.393641,0.7329 0.329688,0.30715 0.896822,0.54535 1.260298,0.52933 0.645123,-0.0284 2.142176,0.41685 3.200638,0.95199 0.290374,0.14681 1.260358,0.32598 2.155518,0.39816 0.895161,0.0722 2.274221,0.22572 3.064581,0.3412 2.63791,0.38545 4.35773,0.3624 5.59748,-0.075 z m -32.619762,-23.5386 c -0.354578,-0.25928 -0.45941,-0.5854 -0.337737,-1.05068 0.132217,-0.5056 -0.07725,-0.9843 -0.835744,-1.90994 -1.488541,-1.81657 -1.317105,-2.71398 0.829544,-4.34238 1.148296,-0.87107 1.888927,-1.71798 2.398005,-2.74213 0.405114,-0.81499 1.502065,-2.21598 2.437669,-3.11332 1.861937,-1.78579 6.862825,-5.93157 7.792892,-6.46039 0.321195,-0.18262 0.937993,-0.97939 1.370664,-1.77059 0.432671,-0.7912 1.483281,-2.13868 2.334689,-2.99439 1.505309,-1.51293 5.431051,-5.6686 6.723778,-7.11758 0.709277,-0.79501 2.897183,-4.58399 4.015092,-6.95327 0.39577,-0.83881 1.17336,-2.08482 1.72797,-2.76891 0.55461,-0.68409 1.00838,-1.49883 1.00838,-1.81054 0,-0.58289 0.77575,-2.29415 1.15596,-2.550003 0.11746,-0.07904 0.98389,-1.76034 1.92542,-3.736232 1.70645,-3.581168 2.78894,-5.048717 3.93648,-5.336729 0.85125,-0.21365 2.65359,0.605544 3.21398,1.460803 0.47151,0.719611 0.40405,2.231805 -0.29153,6.535448 -0.32887,2.034803 -2.75379,7.677723 -3.81934,8.887833 -0.26491,0.30085 -0.3504,0.71655 -0.2272,1.10473 0.14248,0.44892 -0.002,0.83513 -0.51757,1.38576 -0.85501,0.91274 -2.68825,3.71812 -4.6577,7.12763 -1.1746,2.03347 -2.30717,3.35894 -6.20225,7.25863 -2.620882,2.62398 -5.116679,5.37477 -5.546215,6.11285 -0.429536,0.73808 -1.518456,1.96372 -2.419821,2.72362 -0.901366,0.75991 -1.725389,1.51617 -1.831162,1.68057 -0.493037,0.76632 -1.689104,1.85466 -3.400216,3.09396 -1.027463,0.74416 -2.099174,1.67678 -2.381578,2.07249 -0.493664,0.69174 -3.600329,3.28848 -5.090886,4.25528 -0.395178,0.25632 -1.186257,0.66121 -1.757952,0.89974 -0.863098,0.36013 -1.126679,0.36993 -1.553622,0.0577 z M 51.68684,160.59844 c -2.061757,-0.41902 -4.680794,-1.45639 -5.460647,-2.1629 -0.395178,-0.35801 -1.46216,-0.97755 -2.37107,-1.37675 -0.908911,-0.3992 -1.65536,-0.8946 -1.658776,-1.10088 -0.0034,-0.20629 -0.475122,-0.76307 -1.048236,-1.23728 -0.573114,-0.47421 -1.426037,-1.21393 -1.895384,-1.64382 -0.469347,-0.42989 -1.090533,-0.85689 -1.380414,-0.9489 -0.289881,-0.092 -0.802689,-0.61326 -1.139572,-1.15835 -0.336883,-0.54509 -0.794341,-0.99107 -1.016573,-0.99107 -0.222232,0 -0.747235,-0.54363 -1.166673,-1.20806 -0.419438,-0.66443 -1.506602,-1.95668 -2.41592,-2.87166 -3.53479,-3.5568 -8.832703,-12.65883 -9.782259,-16.80632 -0.174735,-0.76321 -0.491037,-1.96964 -0.702892,-2.68096 -0.521064,-1.74951 -1.001051,-4.79629 -1.001051,-6.3543 0,-1.61623 0.581041,-2.44787 2.009189,-2.87575 0.940143,-0.28168 1.24022,-0.2627 1.816481,0.11488 0.946152,0.61995 1.872115,2.70827 2.187123,4.93263 0.144466,1.02012 0.712949,2.92817 1.263294,4.24011 0.550346,1.31194 1.189889,2.97054 1.421208,3.68578 0.23132,0.71523 1.875247,3.43118 3.653172,6.03545 3.222563,4.72033 4.479386,6.31573 4.975399,6.31573 0.143868,0 0.821448,0.62271 1.505733,1.3838 0.684284,0.76109 1.771023,1.62139 2.414974,1.91177 0.643951,0.29038 1.17082,0.63839 1.17082,0.77336 0,0.50964 2.62965,2.8098 4.228106,3.69833 2.934845,1.63141 3.199117,1.74448 4.598573,1.96763 0.75686,0.12068 1.764102,0.43241 2.238316,0.69273 0.474214,0.26031 1.314866,0.70638 1.868116,0.99126 2.064278,1.06294 2.498261,1.48301 2.525601,2.44462 0.08244,2.89964 -3.246197,4.95862 -6.836638,4.22892 z m -0.921883,-14.99398 c -0.509284,-0.39651 -1.149514,-0.5919 -1.852808,-0.56546 -0.614841,0.0231 -1.283439,-0.14858 -1.562672,-0.40128 -0.268425,-0.24292 -1.291228,-0.68486 -2.272894,-0.98209 -0.981666,-0.29722 -2.005222,-0.73984 -2.274569,-0.9836 -0.269347,-0.24375 -1.064069,-0.74588 -1.766049,-1.11583 -1.276902,-0.67295 -3.419051,-3.12387 -3.44015,-3.93602 -0.0062,-0.2371 -0.261085,-0.94843 -0.566501,-1.58071 -0.305416,-0.63229 -0.559689,-1.34849 -0.565053,-1.59157 -0.0054,-0.24308 -0.392489,-0.88973 -0.860279,-1.43701 -1.481977,-1.7338 -1.054379,-4.91381 0.687659,-5.11407 0.456348,-0.0525 1.126007,-0.28952 1.488132,-0.52679 0.935285,-0.61282 1.549369,-0.30223 2.698371,1.36479 0.553249,0.80268 1.652564,2.21156 2.442921,3.13085 0.790356,0.91929 1.695674,2.09673 2.011817,2.61654 0.753562,1.23903 4.646983,4.41709 5.748049,4.69192 1.743549,0.43521 3.879934,2.81695 3.879934,4.32553 0,0.62371 -1.983271,2.74584 -2.548215,2.72663 -0.258231,-0.009 -0.819693,-0.28861 -1.247693,-0.62183 z M 138.55424,53.55758 c -0.51374,-0.223289 -0.93406,-0.613316 -0.93406,-0.866726 0,-0.25341 -0.25477,-1.020005 -0.56616,-1.703544 -0.31139,-0.683538 -0.76437,-2.754853 -1.00663,-4.60292 -0.24227,-1.848067 -0.55854,-3.580729 -0.70285,-3.850361 -0.1443,-0.269631 -0.41211,-1.316033 -0.59513,-2.325337 -0.18302,-1.009304 -0.82343,-2.945881 -1.42313,-4.303504 -0.5997,-1.357624 -1.16672,-2.691007 -1.26006,-2.963074 -0.0933,-0.272067 -0.79323,-0.942638 -1.55534,-1.490157 -0.8857,-0.636312 -1.57636,-1.427737 -1.91421,-2.193495 -0.31523,-0.714486 -0.9118,-1.424125 -1.47811,-1.758258 -0.87416,-0.515767 -5.22339,-5.194467 -7.11427,-7.653198 -0.44156,-0.574171 -1.18522,-1.204723 -1.65256,-1.401228 -0.46735,-0.196505 -0.84972,-0.481753 -0.84972,-0.633884 0,-0.61264 -4.43226,-4.552435 -5.78335,-5.140766 -0.4548,-0.198043 -0.82691,-0.565637 -0.82691,-0.816876 0,-0.251239 -0.25866,-0.785634 -0.57481,-1.187544 -1.29968,-1.652277 -0.46654,-3.7353434 1.72442,-4.3114768 2.22646,-0.5854703 3.34736,-0.1857522 6.33426,2.2588246 1.52226,1.2458656 3.16492,2.8182622 3.65035,3.4942152 1.37427,1.913631 3.18747,3.662352 4.26362,4.111997 0.56765,0.237178 1.28582,0.892852 1.70462,1.556271 0.39804,0.63053 0.83582,1.146417 0.97284,1.146417 0.36765,0 2.3913,2.026847 3.92875,3.934944 0.73981,0.918173 2.16025,2.445391 3.15653,3.39382 1.35295,1.287963 1.89244,2.033272 2.1315,2.944707 0.17605,0.67116 0.55921,1.447147 0.85148,1.724415 0.29227,0.277267 0.84821,1.344775 1.23542,2.372239 1.2758,3.385355 1.7556,5.972216 1.83908,9.915385 0.0435,2.054928 0.15689,4.572312 0.25198,5.594187 0.12799,1.375573 0.0386,2.28901 -0.3444,3.518223 -0.50181,1.610637 -0.54735,1.660007 -1.52319,1.651477 -0.55325,-0.0048 -1.42623,-0.191484 -1.93996,-0.414773 z m -12.52599,-3.015867 c -0.88337,-1.049828 -1.91599,-3.724814 -1.91599,-4.963349 0,-1.341571 -0.79678,-3.255332 -2.30293,-5.531325 -0.73224,-1.1065 -1.55857,-2.593807 -1.8363,-3.305129 -0.27773,-0.711321 -1.13029,-1.908397 -1.89458,-2.660168 -1.06845,-1.050937 -1.5968,-1.909389 -2.28598,-3.714162 -0.49299,-1.291017 -0.87214,-2.551232 -0.84255,-2.800478 0.0296,-0.249246 -0.0447,-0.679808 -0.16508,-0.956803 -0.15425,-0.354936 -0.0188,-0.668286 0.45879,-1.061332 0.82777,-0.681238 2.73097,-0.583616 4.08942,0.209763 1.03606,0.60509 3.30377,3.283122 5.40649,6.384741 0.80372,1.185535 1.82354,2.543512 2.26626,3.017726 1.57095,1.682692 3.30564,8.978806 2.58525,10.873569 -0.16805,0.442008 -0.30554,1.165978 -0.30554,1.608823 0,0.442844 -0.27591,1.469074 -0.61313,2.28051 -0.73614,1.771369 -1.51937,1.954313 -2.64413,0.617614 z"
       id="path1" /></g></svg>
