<?xml version="1.0" encoding="UTF-8" standalone="no"?>
<!-- Created with Inkscape (http://www.inkscape.org/) -->

<svg
   width="210mm"
   height="297mm"
   viewBox="0 0 210 297"
   version="1.1"
   id="svg5"
   xmlns="http://www.w3.org/2000/svg"
   xmlns:svg="http://www.w3.org/2000/svg">
  <defs
     id="defs2" />
  <g
     id="layer1">
	<style>
		@media (prefers-color-scheme: dark) {
		.a { fill: #dad8d8 }
		}
	</style>
	<path class="a" fill="#333333"
       d="m 72.007971,275.90921 c -4.469343,-0.45072 -14.292903,-2.34287 -15.49014,-2.98361 -0.859995,-0.46024 -1.148136,-1.25457 -1.002068,-2.76239 0.189984,-1.96115 0.521954,-2.22436 4.526112,-3.5886 2.980123,-1.01535 5.971511,-1.48331 9.639355,-1.50794 11.82439,-0.0795 20.090869,-1.94247 33.74694,-7.60576 3.22922,-1.33919 7.82738,-2.6674 10.31608,-2.9799 5.21304,-0.65457 8.54044,-2.61859 13.82173,-8.15835 7.94905,-8.33807 11.04896,-13.24632 11.95856,-18.93461 0.37566,-2.34929 0.22734,-2.85392 -1.11519,-3.79426 -0.85165,-0.59652 -2.33726,-1.08459 -3.30134,-1.08459 -0.99559,0 -3.00646,-0.99199 -4.65454,-2.29618 -3.11859,-2.46782 -8.26286,-4.07916 -10.90548,-3.41589 -0.89676,0.22507 -2.31245,1.14447 -3.14598,2.04311 -1.10561,1.19197 -2.86409,1.89544 -6.50139,2.60087 -2.74224,0.53183 -6.09809,1.43845 -7.45746,2.0147 -1.66846,0.70728 -4.527589,1.04774 -8.798842,1.04774 -14.491352,0 -19.650713,-3.25409 -18.765043,-11.8354 0.206855,-2.00421 0.664324,-3.93224 1.016613,-4.28453 0.53053,-0.53053 3.68145,-0.983 7.903061,-1.13486 0.452133,-0.0163 1.249813,-1.05334 1.772625,-2.30461 0.522818,-1.25127 1.706006,-2.77001 2.629323,-3.37498 1.632393,-1.0696 1.7888,-1.02523 5.664953,1.60702 2.192407,1.48884 4.171991,3.00758 4.39906,3.37499 0.834617,1.35044 3.08855,0.60605 5.09935,-1.68414 3.62252,-4.12582 5.22079,-4.28168 8.65819,-0.84428 1.14703,1.14703 1.88325,1.29253 4.76935,0.9426 12.61208,-1.5292 13.85897,-1.30645 16.01388,2.86069 1.13403,2.19297 4.82616,4.7114 6.90711,4.7114 2.07306,0 3.24784,-2.32274 4.72227,-9.33655 2.25552,-10.72957 5.05329,-18.25612 7.07447,-19.03173 1.66869,-0.64034 3.38816,1.64632 3.97681,5.2886 0.97357,6.02388 0.38009,17.51679 -1.03052,19.95656 -1.02988,1.78129 -2.32287,8.13289 -3.6807,18.08074 -1.4736,10.79618 -1.52885,10.96763 -5.41548,16.80888 -2.08941,3.1402 -5.22296,7.16376 -6.96345,8.94126 -1.74047,1.77749 -3.34541,3.80183 -3.56653,4.49849 -0.51866,1.63419 -6.43012,5.98205 -8.13333,5.98205 -0.71922,0 -2.71425,0.74788 -4.43339,1.66195 -1.71914,0.91408 -3.52199,1.66197 -4.00631,1.66197 -0.48433,0 -1.26154,0.459 -1.72713,1.01999 -0.63062,0.75985 -2.05017,0.99657 -5.56586,0.92813 -3.19929,-0.0623 -5.36168,0.25021 -6.71368,0.97025 -1.0969,0.58417 -2.23513,1.06397 -2.5294,1.06622 -0.2943,0.002 -1.888286,0.62056 -3.542203,1.37401 -6.590528,3.00233 -17.131597,4.41245 -26.170386,3.50094 z m -8.636456,-19.47927 c -0.545298,-0.34431 -2.639364,-0.82663 -4.653481,-1.07182 -5.387925,-0.65591 -11.636238,-2.73714 -13.876315,-4.62205 -1.080945,-0.90956 -3.049748,-2.10682 -4.375115,-2.6606 -2.916245,-1.21848 -3.956008,-3.51614 -3.416641,-7.55006 0.471434,-3.52584 1.149879,-4.44056 3.666922,-4.94397 2.886313,-0.57726 5.878728,0.55309 9.46117,3.57385 l 3.224597,2.71901 8.638296,0.67765 8.638294,0.67764 7.476018,-2.46352 c 4.11181,-1.35493 9.089746,-3.32465 11.062085,-4.37714 1.972332,-1.05251 4.288623,-1.91364 5.14731,-1.91364 0.858687,0 3.135006,-0.59815 5.058494,-1.32923 8.088271,-3.07419 10.527571,-0.59573 6.435971,6.53927 -1.62016,2.82527 -2.66848,3.82336 -5.14584,4.89931 -1.711136,0.74316 -3.709463,1.88315 -4.44073,2.5333 -1.614045,1.43503 -12.572633,6.12349 -17.616748,7.53706 -2.01097,0.56355 -5.152069,1.20285 -6.980222,1.42064 -1.828155,0.21778 -4.221373,0.52745 -5.318266,0.68814 -1.096892,0.16069 -2.440501,0.01 -2.985799,-0.33384 z M 20.45065,233.10033 c -6.937931,-2.01635 -7.25089,-11.44819 -0.462316,-13.93304 1.553734,-0.56873 4.123527,-2.30848 5.71065,-3.86612 2.322048,-2.27893 3.717904,-3.02623 7.146517,-3.82607 3.040057,-0.7092 4.654014,-1.48707 5.633118,-2.71498 1.260982,-1.58144 1.807136,-1.72719 6.73395,-1.79717 l 5.361668,-0.0761 2.292796,2.49808 2.292795,2.49808 -0.578157,4.48214 c -1.169028,9.06284 -3.202235,11.83986 -8.127799,11.10123 -2.413976,-0.362 -3.04368,-0.14485 -5.698063,1.96497 -1.991198,1.5827 -3.683623,2.3741 -5.086234,2.37841 -1.156136,0.003 -4.446812,0.45513 -7.312614,1.00351 -2.865802,0.54838 -5.360125,0.97013 -5.542941,0.93722 -0.182815,-0.0329 -1.246332,-0.32546 -2.36337,-0.65011 z M 170.04041,203.9275 c -2.08792,-0.84632 -2.92979,-2.22376 -3.38387,-5.53662 -0.62737,-4.5772 0.0654,-6.21249 3.75512,-8.86325 1.81948,-1.30717 3.30814,-2.61145 3.30814,-2.89842 0,-0.28698 -0.84046,-0.86991 -1.86766,-1.29539 -2.0205,-0.83691 -4.11539,-3.81108 -4.11539,-5.84272 0,-0.6952 1.0548,-3.87987 2.34401,-7.07704 3.17782,-7.88089 3.51621,-10.73513 1.64812,-13.90132 -1.76519,-2.99177 -3.1864,-3.13307 -6.12955,-0.60943 -3.91818,3.35971 -7.06836,4.94495 -8.90871,4.48304 -2.86534,-0.71915 -4.90867,-3.5097 -4.90867,-6.70373 0,-1.5473 -0.46543,-3.92721 -1.03429,-5.28869 -0.56887,-1.36149 -1.20679,-5.06264 -1.41759,-8.22478 -0.37614,-5.64223 -1.33989,-8.0761 -3.19791,-8.0761 -0.43464,0 -2.5784,1.20071 -4.76391,2.66825 -2.18552,1.46754 -5.89689,3.2275 -8.2475,3.91103 -2.3506,0.68352 -6.51746,2.05882 -9.25969,3.05622 -13.66779,4.97121 -32.865474,4.83165 -38.350892,-0.2788 -2.340535,-2.18054 -3.713459,-11.18391 -2.150714,-14.10394 0.393233,-0.73475 0.78277,-3.55367 0.865648,-6.26427 0.134951,-4.41374 0.34941,-5.13577 2.053827,-6.9148 2.206423,-2.30301 3.572054,-2.80246 12.84806,-4.69895 3.763721,-0.7695 7.867461,-1.82708 9.119421,-2.35019 3.30199,-1.37966 5.69402,-1.23162 6.11507,0.37848 0.31871,1.21878 0.909,1.32999 7.08418,1.33458 12.08263,0.009 19.68556,1.99342 25.56114,6.67163 1.81694,1.44667 3.60538,2.63032 3.97432,2.63032 1.45079,0 5.21246,-15.56831 5.88931,-24.374005 l 0.42593,-5.541242 h -1.64923 c -0.90708,0 -1.84775,0.198512 -2.09037,0.441141 -0.24262,0.242617 -1.98866,0.986106 -3.88007,1.652193 -1.89141,0.666076 -4.06119,1.784443 -4.82172,2.48523 -0.76054,0.700788 -3.26086,2.251023 -5.55626,3.444969 l -4.17346,2.170804 -2.05026,-1.515823 c -2.38122,-1.760506 -2.15523,-1.743344 -13.86741,-1.053066 -7.8345,0.46174 -9.34343,0.742672 -11.87816,2.211439 -2.87069,1.66343 -2.92876,1.66892 -5.12657,0.48533 -2.730357,-1.470388 -7.570691,-1.058721 -8.589431,0.73053 -0.365628,0.64217 -1.318371,1.85236 -2.117216,2.68931 l -1.452443,1.52175 -2.86865,-1.30186 c -1.577756,-0.71603 -3.501399,-1.30844 -4.274761,-1.31647 -2.446788,-0.0254 -4.90933,-2.51103 -4.90933,-4.955346 0,-4.253981 6.984118,-15.002745 9.748187,-15.002745 1.488855,0 4.719543,-1.857909 7.409695,-4.261172 2.357457,-2.106057 2.727925,-2.207883 9.490379,-2.608513 5.60323,-0.331953 7.29648,-0.220673 8.30979,0.546117 1.83329,1.387275 3.37208,1.222191 4.57166,-0.490458 0.84993,-1.213453 1.67765,-1.495762 4.38553,-1.495762 3.06649,0 3.51541,0.211472 5.52161,2.601074 l 2.18373,2.601075 6.93027,-0.447983 c 8.40521,-0.543321 11.93862,-1.314385 13.06173,-2.850336 1.0734,-1.467947 1.1085,-7.028863 0.0511,-8.086313 -0.44074,-0.440735 -2.59764,-0.804354 -4.81968,-0.812521 -2.87458,-0.01061 -4.47771,-0.365196 -5.61962,-1.243114 -1.44461,-1.110632 -1.56154,-1.578617 -1.2204,-4.883931 l 0.37728,-3.6556 -4.00855,-0.363483 c -2.20471,-0.199916 -4.33294,-0.687867 -4.72941,-1.084334 -1.01148,-1.011484 -3.89608,-0.897161 -5.48746,0.217479 -0.88207,0.617832 -4.16827,1.081465 -9.62108,1.357389 l -8.28143,0.419059 -4.87326,-4.682087 c -2.680295,-2.575147 -5.545066,-4.8507 -6.366179,-5.056784 -1.505754,-0.37792 -9.563495,1.465537 -13.480244,3.084022 -1.928409,0.796861 -2.402419,0.719489 -5.319788,-0.86834 -1.761508,-0.958732 -5.146544,-2.081152 -7.522306,-2.494266 -4.013512,-0.697896 -4.57863,-0.63734 -7.975875,0.85468 -2.010969,0.883188 -4.748069,1.80575 -6.082445,2.050139 -1.334375,0.244388 -2.805534,0.901488 -3.269241,1.46022 -1.705444,2.054935 -3.049482,2.294329 -6.240727,1.111571 -2.977209,-1.103431 -3.159796,-1.097386 -5.298879,0.175432 -2.721456,1.619349 -6.735256,4.500851 -10.864873,7.799878 -3.565534,2.848399 -6.435554,3.23595 -9.321112,1.258669 -0.990678,-0.678846 -2.619737,-1.730046 -3.620129,-2.336 -1.000392,-0.605952 -2.263954,-1.780977 -2.807914,-2.611166 -1.426339,-2.176868 -0.426781,-7.92319 1.792236,-10.303314 0.92134,-0.988233 2.936921,-4.638735 4.479071,-8.112225 3.715702,-8.369144 4.215566,-8.891102 7.993157,-8.346449 1.646273,0.237361 3.967549,0.407987 5.158392,0.379171 1.698541,-0.0411 2.330437,0.31034 2.932035,1.630702 0.421778,0.925702 1.115433,1.683093 1.541454,1.683093 0.961997,0 3.087148,-2.315455 4.676635,-5.09542 1.45736,-2.54888 3.456756,-3.542457 7.163719,-3.559928 1.536727,-0.0073 4.830677,-0.307634 7.319889,-0.667539 2.978165,-0.430599 4.945781,-0.429624 5.753867,0.0029 0.783,0.41905 2.938848,0.442402 5.948952,0.06444 3.703812,-0.465068 5.493209,-1.105394 8.305481,-2.972074 5.81406,-3.859155 6.586439,-4.001041 11.367678,-2.088245 2.291023,0.916555 5.770261,2.008393 7.731644,2.426309 1.961372,0.417914 4.133125,1.153801 4.826122,1.635305 1.35272,0.939901 3.03011,0.781136 9.23354,-0.873961 3.78284,-1.009278 3.87245,-1.000888 5.48446,0.513512 0.90132,0.846752 1.63878,1.875421 1.63878,2.285929 0,0.410508 1.13443,1.854123 2.52096,3.208034 2.06807,2.019406 3.005,2.46165 5.21524,2.46165 1.85385,0 3.07121,0.416515 3.9027,1.335306 0.66464,0.73442 2.32997,1.671329 3.70073,2.08202 2.17692,0.652221 2.89932,0.54967 5.70863,-0.81039 2.54817,-1.233636 4.39017,-1.570503 8.86698,-1.621612 3.72659,-0.04255 6.52715,-0.447636 8.22477,-1.1897 1.41577,-0.618854 3.23541,-1.125191 4.04363,-1.125191 2.06332,0 5.68075,4.648624 5.68075,7.300117 0,1.132898 0.59829,3.232588 1.32956,4.665978 0.83848,1.643548 1.32957,3.918076 1.32957,6.157992 0,2.936912 0.3619,4.043941 2.09039,6.394338 1.67173,2.273192 2.37075,2.75469 3.49011,2.404035 4.21237,-1.31958 4.62299,-1.279602 4.13592,0.402664 -1.26341,4.363593 -1.23293,5.834973 0.15749,7.602609 0.76585,0.97362 1.57997,2.86169 1.80916,4.195713 0.22919,1.334023 0.99976,3.672412 1.7124,5.196421 2.19784,4.700249 2.27218,6.955477 0.29049,8.812462 -2.47552,2.31974 -2.35738,5.48889 0.27448,7.362936 2.4639,1.754439 2.65448,4.585084 0.53709,7.977394 -3.97309,6.365368 -4.59916,8.720158 -3.06053,11.511218 0.44027,0.79864 0.96379,2.79825 1.16337,4.44359 l 0.3629,2.99152 3.6563,0.35549 c 2.45641,0.23883 5.73484,1.3646 9.98998,3.43042 5.49923,2.6698 6.83113,3.66682 10.10975,7.56784 2.07684,2.47111 3.96577,5.35661 4.19764,6.41223 0.72401,3.29647 -0.36522,9.63705 -2.09289,12.18291 -0.87791,1.29367 -1.5962,2.51603 -1.5962,2.71634 0,0.20031 -0.59831,1.12483 -1.32957,2.05448 -0.73126,0.92965 -1.32956,2.21195 -1.32956,2.84953 0,0.64235 -0.82833,1.50236 -1.85768,1.92874 -1.02173,0.42321 -2.22532,1.58132 -2.67466,2.57358 -0.44934,0.99227 -1.44868,3.00073 -2.22074,4.46326 -0.77208,1.46252 -1.81155,5.38376 -2.30996,8.71389 -1.0084,6.73763 -3.73966,14.03856 -6.86661,18.35509 -4.4073,6.08399 -6.91783,8.89953 -9.50294,10.65746 -2.79842,1.90298 -3.89708,2.11596 -6.16769,1.19559 z m 7.35794,-57.81789 c 2.44453,-2.2533 6.24936,-4.02298 8.67624,-4.03545 0.3966,-0.002 1.53685,0.91184 2.53389,2.03085 2.13097,2.39166 5.24337,2.55508 5.56453,0.29218 0.10377,-0.73127 0.52495,-2.44169 0.93595,-3.80095 0.93221,-3.08309 0.21017,-4.10341 -4.4372,-6.2701 -5.66573,-2.64146 -9.87826,-1.78111 -13.31024,2.71846 -1.91213,2.50693 -4.30651,8.26212 -4.30651,10.35124 0,1.97106 1.19283,1.61781 4.34334,-1.28623 z m -68.49491,-8.33052 c 10.63659,-1.88592 15.396,-3.3562 26.09274,-8.06059 4.17735,-1.83719 4.53724,-3.41336 1.32957,-5.82296 -4.85557,-3.64747 -21.77465,-5.59625 -22.90955,-2.63877 -0.19793,0.5158 0.30814,1.64892 1.12463,2.51803 1.32764,1.4132 1.43559,2.00174 1.0215,5.56944 -0.42696,3.67878 -0.63432,4.07055 -2.66424,5.03382 -2.92751,1.3892 -4.53931,1.31688 -5.97364,-0.26804 -0.65333,-0.72193 -1.74604,-1.48974 -2.42823,-1.70626 -1.77751,-0.56417 -2.22185,-3.19549 -0.96503,-5.71485 2.49325,-4.99783 -2.62237,-4.07976 -7.859138,1.41044 -3.957621,4.14916 -4.63939,6.3168 -2.557218,8.13066 2.946926,2.5672 7.517286,3.01561 15.788606,1.54908 z m -61.492444,64.83542 c -5.337758,-0.47088 -9.521813,-3.21767 -13.090077,-8.59349 -2.276196,-3.42923 -2.36027,-3.76331 -1.977801,-7.85908 1.041881,-11.15724 7.761818,-16.12941 24.129343,-17.85357 12.239641,-1.28932 12.575563,-1.6195 11.170231,-10.97905 -0.944192,-6.28833 -1.269914,-18.99613 -0.555173,-21.65947 0.419684,-1.56387 3.072162,-3.06369 4.469776,-2.52738 1.245012,0.47776 3.774592,6.83295 3.774592,9.48312 0,1.20527 0.304722,2.76078 0.677161,3.45669 0.658747,1.23087 1.606155,10.92535 1.459497,14.93448 -0.247152,6.75653 -0.944064,9.27916 -3.134099,11.34463 -3.499777,3.30071 -5.959175,4.07789 -14.410769,4.55384 -7.174452,0.40404 -8.107155,0.61631 -12.298487,2.79904 -2.494408,1.29901 -4.909225,2.67091 -5.366264,3.04867 -1.666242,1.37725 -0.856511,3.73313 2.449777,7.12758 3.099356,3.18199 3.468943,3.36823 6.684303,3.36823 2.071083,0 4.625497,-0.55939 6.524796,-1.42887 3.423262,-1.56712 7.487145,-1.98808 7.898486,-0.81819 0.728664,2.07239 -10.359071,12.29649 -13.087028,12.06766 -0.548446,-0.046 -2.941664,-0.25518 -5.318264,-0.46484 z M 17.51763,157.00602 c -4.65372,-1.3083 -9.5821471,-4.47351 -11.3043132,-7.26002 -2.9406544,-4.75808 -0.9979302,-13.4666 4.3598352,-19.54352 3.514383,-3.9861 6.219802,-5.41639 10.245199,-5.41639 1.485283,0 4.411627,-0.71909 6.502986,-1.59798 4.917034,-2.06637 11.407469,-3.3251 14.799422,-2.87014 4.380112,0.58749 6.857456,3.0552 10.285997,10.24601 1.683763,3.53142 3.219391,7.21079 3.412507,8.17636 0.608084,3.04042 -0.982018,7.20517 -3.843408,10.06656 -2.781034,2.78104 -9.848822,6.55777 -12.273926,6.55868 -0.766493,2.9e-4 -2.351295,0.47827 -3.521781,1.06219 -3.102039,1.54751 -14.012314,1.88554 -18.662518,0.57825 z m 12.14843,-8.25473 c 1.533023,-0.34747 4.164626,-0.80798 5.848007,-1.02336 4.214023,-0.53914 11.232145,-5.5724 11.232145,-8.05548 0,-2.1841 -1.980108,-5.5794 -3.253853,-5.5794 -0.535062,0 -1.96613,-0.35918 -3.18015,-0.79817 -1.744017,-0.63065 -2.381815,-0.62255 -3.038722,0.0387 -0.665918,0.67022 -0.467513,1.4908 0.996741,4.12243 1.005484,1.80712 1.828153,4.19823 1.828153,5.31359 0,1.71433 -0.385503,2.18959 -2.492936,3.0734 -1.371115,0.575 -3.574032,1.19197 -4.89537,1.37103 -1.979324,0.26823 -2.596897,0.0488 -3.506594,-1.24559 -2.491892,-3.54584 -2.957453,-9.88097 -0.726139,-9.88097 1.861613,0 0.982401,-1.18198 -1.176036,-1.58102 -3.068271,-0.56725 -5.154366,0.20153 -8.799963,3.24298 -2.82444,2.35639 -4.994287,5.66118 -4.994287,7.60659 0,0.71988 3.267248,2.58117 5.978745,3.40598 2.390373,0.72712 6.946342,0.72236 10.180259,-0.0111 z M 14.836623,113.73558 c -1.279707,-0.57661 -3.059643,-1.39553 -3.955413,-1.81978 -0.8957712,-0.42425 -2.1963365,-1.74335 -2.8901464,-2.93132 -1.1182751,-1.91476 -1.1713848,-2.53549 -0.4678555,-5.46812 0.8606151,-3.587442 4.8824989,-11.922187 6.1793769,-12.805816 0.440905,-0.300404 4.98978,-0.539949 10.10861,-0.532313 5.118829,0.0077 10.653149,-0.0088 12.298488,-0.03746 12.632693,-0.21678 15.853921,0.839269 18.027569,5.910185 1.566764,3.655118 1.559902,3.950534 -0.104014,4.478654 -0.745336,0.23655 -2.124957,1.59335 -3.065824,3.0151 -0.94087,1.42174 -2.209691,2.74338 -2.819604,2.93695 -0.609913,0.19359 -2.735245,1.39975 -4.72296,2.68036 -4.240042,2.73169 -7.745075,3.09479 -9.64191,0.99881 -1.474207,-1.62898 -2.18701,-1.66208 -3.827187,-0.17775 -1.379704,1.24861 -8.44311,4.13339 -11.130433,4.54581 -0.914076,0.14029 -2.708991,-0.21672 -3.988697,-0.79334 z"
       id="path21" />
  </g>
</svg>
