<?xml version="1.0" encoding="UTF-8" standalone="no"?>
<!-- Created with Inkscape (http://www.inkscape.org/) -->

<svg
   width="210mm"
   height="210mm"
   viewBox="0 0 210 210"
   version="1.1"
   id="svg1"
   xml:space="preserve"
   xmlns="http://www.w3.org/2000/svg"
   xmlns:svg="http://www.w3.org/2000/svg"><defs
     id="defs1" /><g
     id="layer1">
	<style>
		@media (prefers-color-scheme: dark) {
		.a { fill: #dad8d8 }
		}
	</style>
	<path class="a" fill="#333333"
       d="m 198.82548,204.00213 c 0.0885,-0.0885 2.48538,-0.10969 2.57235,-0.0227 0.0431,0.0431 -0.53053,0.0784 -1.27481,0.0784 -0.74429,0 -1.32818,-0.0251 -1.29754,-0.0557 z M 32.174368,203.40767 c 0,-0.13852 -0.264605,-0.22334 -1.030551,-0.33037 -1.226505,-0.17139 -3.454747,-0.18675 -3.7095,-0.0256 -0.231388,0.14639 -0.532682,-0.011 -1.276034,-0.66645 -0.320248,-0.28239 -0.98764,-0.76639 -1.483093,-1.07556 -0.874505,-0.54569 -2.735804,-2.42787 -2.750159,-2.781 -0.0035,-0.085 -0.02789,-0.40613 -0.0543,-0.71366 -0.02641,-0.30753 0.0028,-0.62043 0.065,-0.69533 0.06641,-0.08 0.06768,-0.31307 0.0031,-0.56509 -0.06047,-0.2359 -0.208135,-1.26555 -0.328156,-2.28813 -0.167738,-1.42912 -0.184787,-1.91275 -0.0737,-2.09063 0.07949,-0.12728 0.14452,-0.49299 0.14452,-0.81269 0,-0.39727 0.0656,-0.62924 0.207234,-0.7328 0.176405,-0.12899 0.187199,-0.23047 0.07256,-0.68211 -0.103795,-0.40892 -0.09412,-0.68627 0.04217,-1.20954 0.18861,-0.72413 0.189079,-1.55357 9.54e-4,-1.68947 -0.06653,-0.0481 -0.02863,-0.36124 0.0907,-0.74949 0.234379,-0.76257 0.262691,-1.39325 0.226486,-5.04506 -0.01434,-1.44613 0.0228,-2.76143 0.08253,-2.92289 0.06183,-0.16714 0.06102,-0.54111 -0.0019,-0.86831 -0.06076,-0.31611 -0.155434,-0.81261 -0.210386,-1.10333 -0.06942,-0.36727 -0.0518,-0.59729 0.05775,-0.75368 0.133323,-0.19035 0.192074,-0.5961 0.311729,-2.1529 0.0079,-0.10306 -0.105259,-0.51681 -0.25151,-0.91945 -0.178823,-0.49231 -0.281091,-1.1196 -0.312262,-1.91536 -0.03385,-0.86409 -0.100787,-1.24344 -0.248149,-1.40627 -0.177921,-0.1966 -0.194139,-0.57595 -0.137067,-3.20617 0.09272,-4.27293 0.137709,-5.13651 0.277128,-5.31928 0.138991,-0.18221 0.389803,-0.86798 0.790303,-2.16086 0.377202,-1.21766 0.617088,-1.58111 1.257027,-1.90451 0.639358,-0.3231 3.657325,-1.42229 4.490109,-1.63537 0.309165,-0.0791 0.955602,-0.25689 1.436526,-0.39508 2.436429,-0.70013 3.688306,-0.90022 5.683647,-0.90842 3.302682,-0.0136 5.775095,0.67874 7.318154,2.0492 0.825396,0.73307 2.64088,2.13573 3.12922,2.41766 0.352626,0.20359 0.500171,0.21214 1.479379,0.0857 0.709623,-0.0916 1.244024,-0.23703 1.537466,-0.41839 0.541583,-0.33472 2.173454,-0.45554 3.306226,-0.24479 0.725499,0.13498 1.149072,0.0849 1.021898,-0.12091 -0.03801,-0.0615 0.04215,-0.11182 0.178139,-0.11182 0.253993,0 4.864721,-1.93529 5.060524,-2.12409 0.210383,-0.20285 -0.416652,-0.83745 -1.383459,-1.40014 -0.535734,-0.31181 -1.195841,-0.77065 -1.466905,-1.01965 -0.271063,-0.249 -0.53807,-0.45273 -0.593348,-0.45273 -0.05528,0 -0.100504,-0.13367 -0.100504,-0.29704 0,-0.16337 -0.07915,-0.48658 -0.175877,-0.71826 -0.14779,-0.35396 -0.14949,-0.49793 -0.01065,-0.90151 0.09088,-0.26415 0.296498,-0.62028 0.456937,-0.7914 0.314207,-0.33513 6.732751,-3.60589 8.785949,-4.47714 0.687035,-0.29154 1.923696,-0.82127 2.748137,-1.17718 0.824442,-0.35591 1.838889,-0.75718 2.254328,-0.89171 0.5668,-0.18354 0.81025,-0.33754 0.975308,-0.61696 0.362157,-0.61309 0.102857,-0.74769 -0.948138,-0.49219 -0.292976,0.0712 -1.516391,0.35646 -2.718701,0.63387 -1.286221,0.29677 -2.65334,0.70288 -3.321355,0.98663 -0.624436,0.26524 -1.49572,0.59859 -1.936188,0.74078 -0.440468,0.1422 -1.240936,0.40663 -1.778818,0.58764 -0.94048,0.31648 -1.053004,0.32632 -2.93551,0.25651 -1.076648,-0.0399 -2.069966,-0.11144 -2.207373,-0.15894 -0.137407,-0.0475 -0.580921,-0.45117 -0.985587,-0.89706 l -0.735757,-0.81071 0.07096,-1.09526 c 0.08145,-1.25723 0.368486,-1.94743 1.203707,-2.89445 0.706903,-0.80153 2.442506,-2.04462 3.694476,-2.64611 0.953202,-0.45795 2.441942,-1.07817 2.587984,-1.07817 0.276151,0 2.605384,-1.36757 3.480161,-2.04332 0.457355,-0.35329 1.095747,-0.79784 1.418648,-0.98789 0.460017,-0.27074 0.578511,-0.40593 0.547441,-0.62457 -0.03382,-0.23797 -0.127897,-0.28469 -0.639092,-0.31737 -0.805111,-0.0515 -1.647157,0.21113 -3.319128,1.03511 -0.847789,0.41781 -1.563096,0.68957 -1.815034,0.68957 -0.240313,0 -0.884275,0.23233 -1.525767,0.55047 -0.610477,0.30276 -1.44723,0.64728 -1.85945,0.76559 -0.412221,0.11832 -1.086764,0.39056 -1.498984,0.60499 l -0.749492,0.38988 H 51.5987 c -1.374068,0 -2.648556,-0.0421 -2.832196,-0.0936 -0.506184,-0.14197 -1.096526,-0.69797 -1.311471,-1.23517 -0.105814,-0.26446 -0.239488,-0.45172 -0.297052,-0.41615 -0.231065,0.14281 0.05079,-1.76756 0.356894,-2.41897 0.380311,-0.80933 1.769808,-2.26192 2.459926,-2.57163 0.945136,-0.42416 2.998429,-1.48067 3.329558,-1.71321 0.182374,-0.12807 0.735454,-0.3695 1.229066,-0.5365 0.493612,-0.167 0.962728,-0.38284 1.042479,-0.47965 0.07975,-0.0968 0.426061,-0.27847 0.769579,-0.40369 1.852492,-0.6753 3.880286,-1.72204 4.895399,-2.52698 0.726201,-0.57584 0.88067,-0.76934 1.055444,-1.32212 0.210054,-0.66435 0.142317,-0.95983 -0.220034,-0.95983 -0.09464,0 -0.165421,-0.0422 -0.157285,-0.0937 0.04772,-0.30222 -0.081,-0.41595 -0.668095,-0.5903 -1.175478,-0.34908 -2.158548,-0.36973 -3.593819,-0.0755 -2.143077,0.43935 -3.116409,0.74303 -3.726287,1.16264 -0.73575,0.50621 -2.358959,1.21724 -2.783362,1.21922 -0.179487,8.4e-4 -0.540139,0.17144 -0.801449,0.3791 -0.261309,0.20766 -0.620363,0.41178 -0.797897,0.45359 -0.177534,0.0418 -0.997331,0.34252 -1.821773,0.66823 -0.824441,0.32572 -1.920573,0.71716 -2.435848,0.86987 -0.515276,0.15271 -1.695726,0.57517 -2.623222,0.93879 -1.568931,0.61509 -1.806743,0.67218 -3.415235,0.81991 -1.677927,0.15411 -1.750865,0.173 -2.47497,0.64102 -1.001613,0.64737 -1.824943,1.43547 -2.913341,2.78869 -1.466795,1.82368 -2.26266,2.43033 -3.812901,2.90637 -0.446573,0.13713 -1.121115,0.34548 -1.498984,0.46301 -0.377869,0.11753 -1.277259,0.26181 -1.998645,0.32061 -1.576487,0.12851 -10.847009,0.14203 -11.554667,0.0169 -0.420275,-0.0743 -0.520459,-0.15242 -0.630563,-0.49146 -0.07199,-0.22169 -0.224611,-0.47379 -0.339146,-0.56022 -0.130246,-0.0983 -0.203646,-0.3209 -0.195968,-0.59435 0.02289,-0.81511 -0.182947,-2.68525 -0.304274,-2.76452 -0.166606,-0.10887 0.11929,-0.93683 0.420331,-1.21729 0.224291,-0.20896 0.227429,-0.25934 0.05214,-0.83717 -0.102582,-0.33816 -0.187121,-0.99427 -0.187865,-1.45802 -8.59e-4,-0.53601 -0.05209,-0.84317 -0.140634,-0.84317 -0.08715,0 -0.06686,-0.11053 0.05419,-0.29529 0.142477,-0.21744 0.200811,-0.68742 0.221303,-1.78293 0.0285,-1.52361 -0.08681,-2.04399 -0.452899,-2.04399 -0.259249,0 -0.224019,-0.14439 0.113206,-0.46397 0.219027,-0.20756 0.312014,-0.46933 0.372588,-1.04887 0.11324,-1.08342 0.09521,-3.70812 -0.02914,-4.24288 -0.123271,-0.53009 0.01174,-2.67693 0.278276,-4.42488 0.154721,-1.01467 0.19154,-2.70728 0.196146,-9.01703 0.0033,-4.573383 -0.04439,-8.015219 -0.116067,-8.369326 -0.06696,-0.330796 -0.188233,-2.129606 -0.269507,-3.997354 l -0.14777,-3.395906 -0.293685,-0.07371 c -0.293525,-0.07367 -0.293645,-0.07455 -0.219276,-1.600706 0.119868,-2.459863 0.280279,-3.706008 0.622677,-4.837253 0.23427,-0.774 0.300509,-1.206818 0.244391,-1.596906 -0.04234,-0.29432 -0.01864,-0.715909 0.05266,-0.936865 0.0713,-0.220956 0.184575,-1.273023 0.251718,-2.337926 0.07362,-1.167626 0.203771,-2.172049 0.327882,-2.530378 0.161398,-0.46598 0.18977,-0.856802 0.131491,-1.811272 -0.196724,-3.22187 -0.218203,-5.186303 -0.0702,-6.420217 0.08527,-0.710854 0.165283,-2.13564 0.177817,-3.166191 0.01253,-1.030552 0.08813,-2.098578 0.168001,-2.373391 0.140034,-0.481847 0.320509,-2.342947 0.714685,-7.370004 0.102355,-1.305365 0.294567,-3.694371 0.427138,-5.308901 0.132572,-1.614531 0.27477,-3.947324 0.315997,-5.183986 0.04123,-1.236662 0.157342,-2.79727 0.258033,-3.468019 0.145989,-0.972491 0.156943,-1.516551 0.05407,-2.68568 -0.0897,-1.019407 -0.0886,-1.979965 0.0036,-3.152492 0.09164,-1.165541 0.09465,-3.04543 0.0097,-6.086918 -0.08643,-3.096312 -0.08309,-4.614244 0.01129,-5.121529 0.349445,-1.878383 0.745286,-3.235669 1.131337,-3.879204 0.527535,-0.879386 2.423176,-2.88886 3.188495,-3.379964 l 0.594164,-0.381274 2.810041,0.114915 c 3.307133,0.135243 4.342939,0.224178 4.439998,0.381223 0.03913,0.06331 0.195136,0.115114 0.346681,0.115114 0.151546,0 0.477875,0.108446 0.725175,0.240991 0.247301,0.132546 0.668058,0.277548 0.935015,0.322227 0.266958,0.04468 0.69731,0.161081 0.956338,0.25867 0.259028,0.09759 0.780793,0.177434 1.159479,0.177434 0.378685,0 0.884219,0.08177 1.123409,0.181709 0.3491,0.145863 0.637854,0.157945 1.463743,0.06124 0.565869,-0.06626 2.940056,-0.172951 5.275973,-0.237097 4.010144,-0.110122 4.365609,-0.139264 6.370681,-0.522273 1.705618,-0.325808 2.523085,-0.414901 4.153539,-0.452681 1.838315,-0.0426 2.041957,-0.06942 2.156837,-0.284074 0.348333,-0.650867 3.889636,-1.100714 7.055563,-0.896259 1.527458,0.09864 1.695349,0.13633 2.826972,0.634578 l 1.203073,0.529707 0.401577,1.016229 c 0.530397,1.342222 0.652137,2.663065 0.497515,5.397859 -0.06588,1.165276 -0.146619,2.205196 -0.179412,2.310933 -0.03279,0.105738 -0.142054,0.782475 -0.242803,1.503861 -0.100748,0.721386 -0.273957,1.528435 -0.384908,1.793441 -0.110951,0.265007 -0.336813,1.248715 -0.501915,2.186018 -0.357041,2.026962 -0.963986,3.989162 -1.297722,4.195422 -0.06449,0.03986 -0.213696,0.36692 -0.331566,0.726805 -0.259619,0.792673 -0.840211,1.97453 -1.303289,2.652981 -0.187575,0.274814 -0.467062,0.752615 -0.621082,1.06178 -0.477103,0.957692 -2.892245,3.200076 -4.941074,4.587635 -0.991534,0.67151 -2.099149,1.426754 -2.461367,1.678319 -0.362219,0.251565 -1.870153,1.656863 -3.350966,3.122883 -2.273431,2.250722 -2.737391,2.772399 -2.98161,3.352526 -0.159073,0.377869 -0.428368,1.017859 -0.598433,1.4222 -0.212477,0.505177 -0.342972,1.130432 -0.417132,1.998645 -0.225135,2.635713 -0.37794,9.200157 -0.375557,16.133795 0.0027,7.952551 -0.03849,7.530736 0.828153,8.473823 0.439087,0.477816 0.454992,0.483502 1.130364,0.404125 0.711963,-0.08368 2.140611,-0.730558 3.420245,-1.548662 0.406284,-0.259749 0.905326,-0.463919 1.221224,-0.499634 0.52735,-0.05962 0.54614,-0.04809 1.467755,0.900835 0.727732,0.749297 0.933565,1.041438 0.933565,1.32502 0,0.277872 0.08851,0.40956 0.374746,0.55758 0.217081,0.112257 0.374746,0.293735 0.374746,0.431345 0,0.361056 0.587498,0.755351 1.12547,0.755351 0.649182,0 1.247921,-0.132888 1.247921,-0.276971 0,-0.191421 1.165864,-1.592283 2.512619,-3.019077 0.675211,-0.715339 0.723205,-0.742202 1.287893,-0.720842 1.149522,0.04348 2.044683,0.771736 2.813695,2.289076 0.629348,1.241767 1.215427,1.620203 2.636603,1.702473 l 0.996834,0.05771 2.090038,-2.108664 c 1.149521,-1.159766 2.286779,-2.278089 2.527241,-2.485164 0.240462,-0.207074 0.541039,-0.536586 0.667947,-0.732248 0.218067,-0.336205 0.270581,-0.352868 0.955881,-0.303298 0.826904,0.05981 1.42836,0.433833 1.935895,1.20385 0.413157,0.62683 1.18706,2.581569 1.18706,2.998299 0,0.186972 0.08005,0.454237 0.17789,0.593922 0.09784,0.139686 0.28872,0.582265 0.424179,0.983509 0.13546,0.401244 0.434839,1.032422 0.665289,1.402617 l 0.418998,0.673081 0.646102,-0.05733 c 0.776846,-0.06893 2.037412,-0.464896 2.038674,-0.640387 4.97e-4,-0.06919 0.255486,-0.434568 0.566643,-0.811949 0.311156,-0.377382 0.600567,-0.826678 0.643135,-0.998437 0.133287,-0.537799 0.667255,-1.672662 0.910409,-1.934927 0.186532,-0.201193 0.272514,-0.66068 0.432675,-2.312194 0.665597,-6.8634 0.669542,-6.886213 1.46858,-8.494241 0.358461,-0.721386 1.00578,-1.971361 1.438487,-2.777722 0.432708,-0.806361 0.786741,-1.543588 0.786741,-1.638282 0,-0.09469 0.112424,-0.315095 0.24983,-0.48978 0.137407,-0.174684 0.249831,-0.4918 0.249831,-0.704702 0,-0.212902 0.0801,-0.93479 0.178008,-1.604196 0.342029,-2.338577 0.253562,-6.648172 -0.185901,-9.056022 -0.214265,-1.173969 -1.058728,-3.630174 -1.642554,-4.777528 -0.174797,-0.343517 -0.43856,-1.092572 -0.58614,-1.664566 -0.147581,-0.571994 -0.346659,-1.162219 -0.442396,-1.311611 -0.140189,-0.218754 -0.150989,-0.502593 -0.05549,-1.458317 0.06522,-0.652682 0.195302,-1.467755 0.289076,-1.811272 0.09377,-0.343517 0.207015,-1.150448 0.251647,-1.79318 0.04463,-0.642732 0.157748,-1.570228 0.251369,-2.061103 0.09362,-0.490874 0.235964,-1.314088 0.316319,-1.829364 0.08036,-0.515276 0.226139,-1.285689 0.323963,-1.712029 0.09782,-0.42634 0.177861,-1.137038 0.177861,-1.579328 0,-0.965486 0.318888,-4.117667 0.513709,-5.077969 0.07666,-0.377869 0.217143,-0.838553 0.312184,-1.023743 0.09504,-0.18519 0.254246,-0.831627 0.353787,-1.436526 0.19816,-1.204198 0.635502,-2.861507 1.114314,-4.222701 0.169169,-0.480924 0.394542,-1.295996 0.500829,-1.811272 0.378981,-1.837294 0.805893,-3.281822 1.079121,-3.651382 0.219655,-0.297099 0.264592,-0.489291 0.21574,-0.922705 -0.04606,-0.408594 -0.01861,-0.547441 0.108219,-0.547441 0.09346,0 0.313618,-0.267007 0.489242,-0.593348 0.576566,-1.0713602 1.055124,-1.6551281 1.356832,-1.6551281 0.154748,0 0.581677,0.089185 0.948731,0.1981879 0.603527,0.1792283 0.734158,0.1798451 1.365512,0.00645 1.143448,-0.31404 2.966807,-0.4597828 7.2562,-0.5799949 2.99524,-0.083943 4.45279,-0.074254 5.55873,0.036951 1.85723,0.1867505 4.46158,0.1741726 5.62119,-0.027148 0.48092,-0.083494 2.05485,-0.1567514 3.49763,-0.1627947 2.37139,-0.00993 2.78989,0.02159 4.35937,0.3283633 1.63899,0.3203597 1.82424,0.3322759 3.31026,0.2129269 0.86575,-0.069533 2.98609,-0.1644897 4.71186,-0.2110144 2.61102,-0.07039 3.324,-0.050821 4.24712,0.1165719 3.59702,0.652255 3.89951,0.6819116 4.50517,0.4416908 0.61967,-0.2457742 4.31357,-0.058537 5.59809,0.2837563 0.76553,0.2039946 19.23569,0.082074 21.79333,-0.1438561 0.65026,-0.057441 1.64932,-0.056254 2.22012,0.00264 0.60057,0.061963 2.28658,0.056011 4.0017,-0.014126 2.20969,-0.090362 3.22874,-0.082969 4.00487,0.029057 0.77033,0.1111887 1.06364,0.1136493 1.12803,0.00946 0.0565,-0.09139 0.85277,-0.1642155 2.26924,-0.2075354 1.20022,-0.036706 2.98631,-0.098523 3.96907,-0.1373697 1.78126,-0.07041 1.78947,-0.069466 2.62322,0.301417 0.66584,0.2961847 1.07158,0.3850124 1.98985,0.4356285 0.6381,0.035173 1.30785,0.1441571 1.49898,0.2439206 0.40646,0.2121492 1.27597,0.4574082 1.94428,0.5484182 0.57271,0.07799 0.70906,0.264241 1.22468,1.672911 0.56074,1.531919 0.89784,3.143311 0.68275,3.263678 -0.19341,0.10824 -0.29526,0.707918 -0.38777,2.283257 -0.0363,0.618331 -0.1154,1.292874 -0.17574,1.498984 -0.0603,0.20611 -0.14189,0.852547 -0.1812,1.436526 -0.0393,0.583979 -0.12568,1.708217 -0.19193,2.498307 -0.0663,0.790089 -0.18154,2.327943 -0.25621,3.417453 -0.14591,2.129086 -0.29676,3.047457 -0.59792,3.640262 -0.23919,0.470809 -1.87457,2.162406 -2.72438,2.818031 -0.86981,0.671046 -2.18102,1.109042 -3.73012,1.246006 -0.69127,0.06112 -1.65034,0.167611 -2.13127,0.23665 -0.48092,0.06904 -1.21167,0.149327 -1.6239,0.178418 -0.41222,0.02909 -0.91812,0.112156 -1.12423,0.184589 -0.20611,0.07243 -0.79634,0.193285 -1.31161,0.268561 -0.51528,0.07528 -1.30225,0.2446 -1.74882,0.376277 -0.44657,0.131676 -1.20543,0.276065 -1.68636,0.320864 -1.00007,0.09316 -2.99715,0.583234 -4.99661,1.22615 -0.75574,0.243004 -1.79566,0.531167 -2.31093,0.640361 -0.51528,0.109194 -1.18982,0.304633 -1.49899,0.434309 -0.91509,0.383823 -4.94553,1.466242 -6.49559,1.744461 -0.79009,0.141812 -2.39213,0.428669 -3.56009,0.63746 -3.8252,0.683814 -7.33481,0.773326 -10.05568,0.256466 -0.72139,-0.137036 -1.59267,-0.286709 -1.93619,-0.332607 -1.5692,-0.209666 -3.35694,-0.746092 -5.35657,-1.607281 -0.69517,-0.299391 -1.48879,-0.61461 -1.7636,-0.700487 -0.27482,-0.08588 -0.79867,-0.268772 -1.16413,-0.406433 -0.59283,-0.223311 -0.85544,-0.242245 -2.43585,-0.175625 -2.09844,0.08846 -3.44084,0.388243 -4.28272,0.956416 -0.79168,0.534301 -2.72177,1.494226 -3.42324,1.70254 -0.31476,0.09347 -0.76646,0.343306 -1.00378,0.555183 -0.23732,0.211876 -0.83906,0.719744 -1.3372,1.128594 -0.6341,0.520436 -0.90572,0.827372 -0.90572,1.023491 0,0.317771 0.17936,0.39605 2.18602,0.954044 1.71113,0.475816 2.13802,0.678657 2.44073,1.15974 0.22011,0.349802 0.2486,0.536228 0.18498,1.210338 -0.0414,0.438265 -0.15616,0.953384 -0.25509,1.144708 -0.0989,0.191324 -0.21575,0.652945 -0.25957,1.025825 l -0.0797,0.677963 1.73245,0.0768 c 2.61565,0.115958 3.29836,0.402344 3.67425,1.541276 0.12266,0.371666 0.10305,0.568214 -0.12852,1.288391 -0.15029,0.467401 -0.25438,0.983233 -0.23131,1.146294 0.0532,0.375939 0.96576,0.858593 1.6234,0.858593 1.30105,0 3.41941,1.036885 3.98576,1.950932 0.94471,1.524677 -1.0277,4.415747 -4.00578,5.871511 -0.51528,0.25188 -1.24604,0.694988 -1.6239,0.984685 -0.37787,0.289697 -0.9962,0.682336 -1.37407,0.872532 -0.37787,0.190195 -0.97391,0.535297 -1.32454,0.766891 -0.35063,0.231595 -0.69324,0.421082 -0.76136,0.421082 -0.0681,0 -0.23094,0.11857 -0.36182,0.263489 -0.13088,0.144919 -0.54713,0.42726 -0.925,0.627424 -0.37786,0.200165 -1.08051,0.638701 -1.56144,0.974526 -0.48092,0.335825 -1.01493,0.641182 -1.18669,0.678573 -0.30266,0.06589 -1.31088,0.846245 -2.98043,2.306846 -0.6964,0.609239 -0.89164,0.88193 -1.40118,1.957027 -0.79271,1.672572 -0.8517,1.9821 -0.4304,2.25815 0.26674,0.174776 0.49614,0.199051 1.26602,0.133971 1.74245,-0.147291 3.81956,-1.035128 6.40007,-2.735639 0.70373,-0.463748 1.30555,-0.843178 1.33736,-0.843178 0.0771,0 2.20602,-1.234033 2.98441,-1.729953 0.3398,-0.216484 0.66566,-0.393607 0.72415,-0.393607 0.0585,0 0.79229,-0.39 1.63067,-0.866666 0.83838,-0.476667 1.67152,-0.902493 1.85141,-0.94628 0.17989,-0.04379 0.82333,-0.497377 1.42986,-1.007977 0.99985,-0.841699 1.62011,-1.17372 2.1963,-1.175671 0.11319,-3.83e-4 0.55361,-0.173268 0.97872,-0.384189 1.46222,-0.725481 4.04648,-1.118585 5.86279,-0.891816 1.24417,0.155338 3.40279,0.811413 4.78025,1.452872 0.97979,0.456272 1.75922,0.572348 1.93817,0.28864 0.0549,-0.0871 0.32474,-0.222937 0.59955,-0.301848 2.09322,-0.601053 4.47305,-1.673608 5.30891,-2.392647 0.45456,-0.391037 1.17722,-0.854058 1.91461,-1.226731 0.35538,-0.179607 0.98342,-0.670206 1.39564,-1.090219 0.97317,-0.991561 2.58228,-2.413322 3.37271,-2.980016 0.98646,-0.707234 2.21765,-1.279709 4.37204,-2.032905 1.09926,-0.38431 2.49818,-0.898277 3.10872,-1.142149 0.88623,-0.353991 1.48189,-0.489403 2.95395,-0.671522 1.40508,-0.173833 1.99157,-0.302965 2.46454,-0.542637 0.34137,-0.172985 0.95141,-0.397225 1.35563,-0.498311 1.60213,-0.400644 4.84409,-1.678496 8.04251,-3.170028 2.04764,-0.954884 2.5549,-1.11149 3.0252,-0.93397 0.3246,0.122524 0.43098,0.116054 0.59951,-0.03646 0.32905,-0.297787 0.68337,-0.218232 1.34011,0.300891 0.89511,0.707543 1.02804,1.082974 1.23737,3.49475 0.14301,1.647748 0.17389,4.285995 0.14933,12.757597 -0.0337,11.633543 0.0827,22.964393 0.27329,26.606964 0.311,5.942521 0.39557,7.215077 0.50843,7.650667 0.16208,0.625581 0.16215,1.652764 1.4e-4,2.342554 -0.0726,0.30917 -0.13476,0.9275 -0.13812,1.37407 -0.003,0.44657 -0.0711,1.06491 -0.15063,1.37407 -0.0795,0.30917 -0.15142,0.89939 -0.15986,1.31161 -0.0187,0.91651 -0.37782,2.57571 -0.68974,3.18712 -0.38156,0.74792 -2.57579,3.07685 -3.16084,3.35487 -1.14539,0.54431 -6.57396,0.71844 -8.36067,0.26819 -0.95813,-0.24145 -3.42171,-1.40057 -4.16625,-1.96022 -0.21259,-0.1598 -0.45458,-0.29055 -0.53774,-0.29055 -0.29804,0 -2.62861,-1.71813 -4.14465,-3.05551 -0.66602,-0.58753 -1.62949,-1.74182 -1.91546,-2.29482 -0.10949,-0.21173 -0.46589,-0.67275 -0.792,-1.02448 -0.32612,-0.35174 -0.79896,-0.95845 -1.05077,-1.34825 -0.2518,-0.3898 -0.57745,-0.86108 -0.72366,-1.04729 -0.43796,-0.55778 -1.53436,-3.092065 -1.60365,-3.706745 -0.0448,-0.397353 -0.16714,-0.675003 -0.40014,-0.908002 -0.1846,-0.184596 -0.61145,-0.88129 -0.94856,-1.54821 -0.38098,-0.753691 -0.7784,-1.350185 -1.05014,-1.576188 -0.48545,-0.403725 -2.95255,-1.691132 -4.68526,-2.444903 -0.61782,-0.268767 -1.70055,-0.617305 -2.40606,-0.77453 -1.09057,-0.243033 -1.33932,-0.262436 -1.66025,-0.129505 -0.91603,0.379432 -1.20404,0.892525 -0.80048,1.426071 0.10087,0.133362 0.1834,0.338374 0.1834,0.455583 0,0.117208 0.28695,0.782253 0.63767,1.477877 0.63125,1.252007 0.63723,1.274814 0.5925,2.259779 -0.0418,0.919475 -0.0748,1.024608 -0.43511,1.384932 -0.61965,0.619651 -1.20819,0.617444 -2.73125,-0.01024 -1.22379,-0.50435 -1.64155,-0.647074 -3.0909,-1.055967 -0.76194,-0.214962 -2.67803,-1.0981 -4.21257,-1.941601 -2.04663,-1.124994 -4.5567,-1.739045 -6.56213,-1.60533 -0.54465,0.03632 -0.62986,0.07895 -0.66586,0.333142 -0.0374,0.264182 3.8e-4,0.287906 0.40339,0.253185 0.36948,-0.03183 0.52432,0.03891 0.91569,0.418369 0.61061,0.592022 1.76269,1.115222 3.6772,1.669935 0.84733,0.245507 1.76545,0.580139 2.04026,0.743627 0.27481,0.163489 0.86504,0.476206 1.31161,0.694929 0.44657,0.218722 0.95248,0.469133 1.12424,0.556468 0.45225,0.229959 2.02077,1.688293 3.2478,3.019644 0.73352,0.795882 1.1127,1.317242 1.22649,1.686352 0.32207,1.04474 -0.0437,2.95814 -0.66329,3.46981 -0.30153,0.24901 -1.21075,0.20294 -2.28236,-0.11564 -0.46289,-0.13761 -1.40373,-0.31109 -2.09076,-0.3855 -0.68703,-0.0744 -1.67074,-0.26855 -2.18602,-0.4314 -1.58197,-0.49999 -3.27617,-0.92576 -3.99729,-1.00456 -0.37787,-0.0413 -0.98028,-0.21832 -1.33869,-0.3934 -0.81925,-0.40017 -3.4063,-0.77368 -4.1265,-0.59577 -0.70386,0.17387 -0.68664,0.52452 0.0562,1.14377 0.77863,0.64913 1.97218,1.40776 2.21482,1.40776 0.10477,0 0.27806,0.13364 0.38508,0.29697 0.10702,0.16333 0.45964,0.3953 0.7836,0.51548 0.62223,0.23083 2.33316,1.11895 2.65012,1.37564 0.10305,0.0835 0.35601,0.19163 0.56212,0.24039 0.20611,0.0487 0.71201,0.221 1.12424,0.38277 0.41222,0.16177 0.98583,0.35575 1.2747,0.43108 0.28886,0.0753 0.68235,0.2677 0.8744,0.42749 0.19206,0.1598 0.68647,0.41502 1.09869,0.56716 2.11465,0.78046 3.31236,1.94788 3.30904,3.22535 -0.002,0.64179 -0.4895,1.61918 -1.10091,2.20572 l -0.50741,0.48677 -0.97527,-0.0745 c -0.5364,-0.041 -1.70603,-0.26655 -2.59918,-0.50128 -0.89314,-0.23473 -2.27033,-0.59542 -3.06042,-0.80154 -0.79009,-0.20612 -2.03801,-0.6103 -2.77315,-0.89818 -0.92509,-0.36226 -1.65585,-0.55836 -2.3734,-0.63692 -0.57022,-0.0624 -1.33187,-0.1514 -1.69257,-0.19772 -0.55996,-0.0719 -0.6558,-0.0541 -0.6558,0.12168 0,0.24849 0.34476,0.60393 1.78116,1.83634 0.90717,0.77834 1.3874,1.07334 2.81059,1.72652 0.94406,0.43328 2.17708,1.00611 2.74005,1.27295 0.56297,0.26684 1.29372,0.5453 1.6239,0.61879 0.33018,0.0735 0.85327,0.21956 1.16244,0.3246 1.48083,0.5031 4.48845,1.40998 4.93416,1.48779 0.62995,0.10996 1.11422,0.40199 1.74881,1.05458 0.46754,0.4808 0.49916,0.55961 0.49187,1.22579 -0.005,0.4771 -0.0982,0.88598 -0.28189,1.2395 -0.66698,1.2837 -3.48048,3.42167 -4.8943,3.71918 -0.37787,0.0795 -0.81527,0.21342 -0.972,0.29757 -0.15673,0.0841 -0.87548,0.34644 -1.59722,0.58286 -1.46365,0.47946 -2.05265,0.7497 -2.05265,0.94177 0,0.071 0.17415,0.34574 0.387,0.6106 0.32097,0.39941 0.56617,0.53986 1.43709,0.82316 0.97329,0.31661 1.15513,0.33642 2.48636,0.27086 1.79779,-0.0885 4.78423,-0.80567 5.68371,-1.36482 0.32221,-0.2003 0.91756,-0.45009 1.323,-0.55509 0.40544,-0.105 1.13065,-0.37556 1.61157,-0.60124 0.48093,-0.22569 1.17207,-0.54095 1.53589,-0.70058 0.80392,-0.35276 1.92943,-1.43741 2.73051,-2.6314 0.69403,-1.03443 1.48567,-1.83667 1.91691,-1.9426 0.17176,-0.0422 0.45334,-0.17512 0.62572,-0.2954 0.42903,-0.29936 1.12477,-0.46987 2.31909,-0.56836 0.65542,-0.0541 1.0992,-0.0347 1.26727,0.0552 0.20181,0.10801 0.29233,0.0978 0.41197,-0.0463 0.0843,-0.10161 0.23197,-0.18474 0.32808,-0.18474 0.2096,0 1.16872,-0.61774 1.16872,-0.75273 0,-0.20936 0.41218,-0.23187 0.91018,-0.0497 0.28949,0.10589 0.97604,0.35205 1.52567,0.54703 1.24941,0.44322 2.38488,0.95159 2.82434,1.26451 0.18541,0.13203 0.51902,0.24005 0.74135,0.24005 0.22233,0 0.63524,0.10598 0.91758,0.23552 0.28234,0.12954 0.85062,0.32888 1.26284,0.44297 0.41222,0.1141 1.08676,0.33779 1.49898,0.49709 2.82479,1.09163 3.55631,1.39222 4.01058,1.64799 0.28212,0.15885 0.80112,0.4024 1.15335,0.54124 0.35222,0.13883 1.02078,0.4867 1.4857,0.77305 0.46491,0.28635 1.29498,0.78917 1.84461,1.11738 1.52212,0.90895 2.86343,2.12797 3.27117,2.97291 0.18665,0.38681 0.44253,0.84641 0.56862,1.02132 0.12609,0.17491 0.55944,1.29915 0.963,2.49831 0.63331,1.88184 0.74618,2.35981 0.82453,3.49189 0.0685,0.98947 0.14792,1.38478 0.32339,1.60951 0.12793,0.16385 0.2326,0.3755 0.2326,0.47033 0,0.0948 0.16864,0.47122 0.37475,0.83643 0.22456,0.3979 0.37474,0.84474 0.37474,1.11497 0,0.24803 0.0571,0.48627 0.12696,0.52943 0.0698,0.0431 0.0925,0.13418 0.0504,0.20228 -0.0421,0.0681 -0.0148,0.27501 0.0607,0.4598 0.12465,0.30529 0.36224,1.41969 0.61759,2.89674 0.0534,0.30917 0.20484,0.75886 0.33643,0.99933 0.1316,0.24046 0.30465,0.74637 0.38457,1.12423 0.39714,1.87771 0.5702,2.54296 0.78807,3.02936 0.28093,0.62717 0.63946,3.61031 0.63428,5.27751 -0.002,0.61833 0.0802,1.71447 0.18238,2.43585 0.10223,0.72139 0.24976,2.211 0.32785,3.31026 0.0781,1.09925 0.22667,2.2667 0.33018,2.59434 0.10675,0.33789 0.15474,0.76302 0.11087,0.98234 -0.0426,0.21275 0.0105,0.7258 0.11807,1.14069 0.10746,0.41473 0.24348,1.43418 0.30225,2.26546 0.0588,0.83127 0.16492,1.69892 0.23589,1.9281 0.071,0.22918 0.16774,0.89371 0.21504,1.47674 0.0519,0.63912 0.15556,1.1296 0.26117,1.2352 0.15025,0.15026 0.14984,0.22345 -0.003,0.51502 -0.12031,0.22963 -0.14389,0.44339 -0.0727,0.65904 0.058,0.17555 0.15685,1.25234 0.21976,2.39288 0.0892,1.61759 0.16207,2.14649 0.33121,2.40462 0.12908,0.197 0.16046,0.33092 0.0775,0.33092 -0.20323,0 -0.17076,3.04089 0.048,4.49695 0.0981,0.65268 0.27731,1.62375 0.39833,2.15793 0.17726,0.78244 0.1903,1.01886 0.067,1.21623 -0.21721,0.3478 -0.18944,0.71524 0.0648,0.85752 0.20106,0.11252 0.19487,0.14632 -0.0804,0.43933 -0.28908,0.30771 -0.29327,0.3407 -0.13689,1.0776 0.38803,1.82846 -0.26207,5.57725 -1.143,6.59112 -0.19608,0.22568 -0.35652,0.47988 -0.35652,0.56489 0,0.25421 -0.75107,1.08589 -0.98065,1.08589 -0.11714,0 -0.30924,0.11243 -0.42689,0.24983 -0.11765,0.13741 -0.32,0.24983 -0.44967,0.24983 -0.12967,0 -0.29875,0.0759 -0.37574,0.16867 -0.15996,0.19274 -1.19578,0.16375 -2.18147,-0.0611 -0.40865,-0.0932 -0.69195,-0.0975 -0.87441,-0.0134 -0.92456,0.42648 -1.61136,0.53539 -1.76888,0.28052 -0.11849,-0.19171 -0.77884,-0.14846 -1.22053,0.0799 -0.34127,0.17648 -0.73067,0.1958 -2.80969,0.13939 -1.40418,-0.0381 -2.63332,-0.0139 -2.93911,0.0579 -0.28907,0.0678 -1.20013,0.13174 -2.02457,0.14201 -1.3451,0.0168 -1.5729,0.0533 -2.21894,0.35572 -0.70842,0.33164 -0.72843,0.3337 -1.24915,0.12862 -0.44095,-0.17367 -1.02918,-0.2091 -3.52717,-0.21247 -5.6568,-0.008 -9.55862,-0.25003 -13.30348,-0.82653 -2.06042,-0.31718 -4.75904,-0.45481 -6.9328,-0.35356 -1.23667,0.0576 -3.45704,0.10817 -4.93416,0.11238 -3.52252,0.01 -3.67388,0.0214 -3.98186,0.30019 -0.17929,0.16228 -0.31001,0.1981 -0.41906,0.11485 -0.18627,-0.1422 -3.21891,-0.19757 -3.21891,-0.0588 0,0.0988 -1.42121,-0.0936 -2.65963,-0.36016 -0.54441,-0.11717 -0.83809,-0.12135 -1.1867,-0.0169 -0.88433,0.26501 -1.00477,0.28196 -1.08469,0.15265 -0.11273,-0.18241 -1.23216,-0.16262 -1.41988,0.0251 -0.12127,0.12127 -0.17557,0.122 -0.2489,0.003 -0.0679,-0.1098 -0.68853,-0.15083 -2.2443,-0.14836 -1.18277,0.002 -2.19628,-0.0249 -2.25224,-0.0595 -0.056,-0.0346 -0.71599,0.0286 -1.46673,0.14045 -2.52187,0.37566 -14.52503,0.23226 -15.86327,-0.18952 -0.30992,-0.0977 -5.32336,-0.36797 -5.89415,-0.31777 -0.0859,0.008 -0.15614,-0.0362 -0.15614,-0.0973 0,-0.0611 -0.4497,-0.11103 -0.99933,-0.11103 -0.5941,0 -0.99932,-0.0515 -0.99932,-0.12705 0,-0.0834 -1.00243,-0.11559 -2.92098,-0.0937 -2.66409,0.0304 -2.94294,0.0136 -3.17065,-0.19131 -0.166932,-0.15022 -0.351446,-0.19913 -0.556788,-0.14759 -0.401382,0.10074 -1.076765,-0.27577 -1.430378,-0.7974 -0.177812,-0.26229 -0.299551,-0.69025 -0.352569,-1.23939 -0.04454,-0.46131 -0.141997,-1.11981 -0.216576,-1.46333 -0.07458,-0.34352 -0.132945,-0.9481 -0.129702,-1.34353 0.008,-0.98162 0.814705,-4.22852 1.466173,-5.90156 0.294278,-0.75574 0.658403,-1.71134 0.809166,-2.12356 0.150762,-0.41222 0.349783,-0.91813 0.442267,-1.12424 0.09249,-0.20611 0.204257,-0.54338 0.248377,-0.74949 0.0441,-0.20611 0.1816,-0.59959 0.30551,-0.87441 2.07748,-4.60747 2.08796,-4.62876 2.82042,-5.73343 0.36905,-0.5566 0.79176,-1.33703 0.93936,-1.73429 0.1476,-0.39727 0.45888,-0.95939 0.69174,-1.24916 0.23286,-0.28977 0.72667,-0.97878 1.09737,-1.53113 0.37069,-0.55236 0.8781,-1.22071 1.12757,-1.48523 0.24948,-0.26452 0.45359,-0.55132 0.45359,-0.63734 0,-0.42252 2.00875,-2.61732 3.22196,-3.52038 0.50107,-0.37297 2.075,-1.84827 3.49763,-3.27845 2.46626,-2.47934 3.82606,-3.61611 6.48294,-5.41966 0.288,-0.19549 0.86664,-0.70139 1.28587,-1.12421 0.41923,-0.42282 0.90217,-0.90929 1.07321,-1.08105 1.18858,-1.1936 4.41041,-5.76103 4.71412,-6.68297 0.0679,-0.20611 0.22733,-0.63812 0.35429,-0.96002 0.12696,-0.32191 0.23084,-0.65176 0.23084,-0.733 0,-0.0812 0.15563,-0.32499 0.34585,-0.54163 0.44702,-0.50913 1.28009,-3.70763 1.04077,-3.99599 -0.11299,-0.13614 -0.0858,-0.40846 0.12009,-1.20275 0.3262,-1.25842 0.35605,-2.53928 0.072,-3.08862 -0.11254,-0.21762 -0.20461,-0.53749 -0.20461,-0.71083 0,-0.17333 -0.10778,-0.55555 -0.23951,-0.84938 -0.13173,-0.29382 -0.33312,-0.80124 -0.44754,-1.12758 -0.2441,-0.69624 -0.3009,-0.70714 -2.12355,-0.40768 -1.66742,0.27397 -2.3772,0.24719 -2.99157,-0.11286 -0.7742,-0.45371 -0.86691,-0.71612 -0.76431,-2.16328 l 0.0874,-1.23261 -0.62748,-0.58693 c -0.44512,-0.41636 -0.73136,-0.58694 -0.9849,-0.58694 -0.53315,0 -1.52017,0.32289 -2.35099,0.76908 -0.4056,0.21784 -0.9342,0.44019 -1.17467,0.49412 -0.24046,0.0539 -0.74456,0.18526 -1.12023,0.29184 -1.08616,0.30815 -1.55971,0.2597 -2.07408,-0.2122 -0.40903,-0.37525 -0.45625,-0.49576 -0.62416,-1.59267 -0.23583,-1.5406 -0.40428,-2.25167 -0.60725,-2.56336 -0.21634,-0.33221 -2.09461,-0.64759 -2.72134,-0.45694 -0.22567,0.0687 -0.56618,0.15936 -0.75669,0.20159 -0.1905,0.0422 -0.743,0.44075 -1.22776,0.88562 -0.48477,0.44487 -0.92939,0.80886 -0.98805,0.80886 -0.0587,0 -0.14118,0.10877 -0.18338,0.24173 -0.0867,0.27305 -0.83804,0.57995 -1.69152,0.6909 -0.53081,0.069 -0.59187,0.0451 -1.01698,-0.39838 -0.24874,-0.25949 -0.48811,-0.59149 -0.53193,-0.73779 -0.10865,-0.36276 0.2503,-1.36729 0.72385,-2.02568 0.52879,-0.73519 0.94971,-1.53313 0.95128,-1.80332 7.1e-4,-0.12243 0.0929,-0.4316 0.20477,-0.68703 0.11192,-0.25543 0.19573,-0.61394 0.18625,-0.79669 -0.009,-0.18275 0.23164,-0.86851 0.53583,-1.52391 0.3042,-0.6554 0.73704,-1.74254 0.96189,-2.41586 0.22485,-0.67333 0.50503,-1.39287 0.62264,-1.59898 0.11761,-0.20611 0.2544,-0.57149 0.30399,-0.81195 0.0496,-0.24046 0.2886,-0.83069 0.53116,-1.31161 0.39428,-0.78174 0.45842,-1.05313 0.60521,-2.56077 0.0903,-0.92749 0.22982,-2.0448 0.31002,-2.4829 0.18941,-1.03461 0.0827,-3.32043 -0.16863,-3.61363 -0.0998,-0.11643 -0.2167,-0.3109 -0.25974,-0.43217 -0.105,-0.29587 -0.67879,-0.50155 -1.17749,-0.42207 -0.5201,0.0829 -1.35235,0.68165 -1.97691,1.42228 -0.5935,0.70381 -0.87246,1.14647 -1.59471,2.53053 -0.30473,0.58398 -0.67277,1.16886 -0.81785,1.29974 -0.15484,0.13968 -0.26379,0.38988 -0.26379,0.6058 0,0.68167 -0.82212,3.48906 -1.18306,4.03993 -0.0958,0.14625 -0.25527,0.56876 -0.35431,0.93891 -0.39128,1.4624 -1.00787,3.47654 -1.39148,4.54537 -0.22192,0.61833 -0.47409,1.32098 -0.56038,1.56144 -0.0863,0.24046 -0.20741,0.57773 -0.26917,0.74949 -0.22378,0.62243 -1.006762,3.56785 -1.029386,3.87238 -0.01276,0.17176 -0.113661,0.48092 -0.224225,0.68703 -0.110563,0.20611 -0.272617,0.5996 -0.360119,0.87441 -0.283736,0.89111 -1.044266,2.2119 -1.466344,2.54654 -0.2265,0.17958 -0.551974,0.53731 -0.723275,0.79494 -0.259762,0.39069 -0.383029,0.46844 -0.742662,0.46844 -0.360751,0 -0.606287,-0.1562 -1.50279,-0.95598 -1.479477,-1.31986 -3.558735,-4.09351 -3.558735,-4.74722 0,-0.23092 -0.269576,-0.70837 -1.416219,-2.50827 -0.332347,-0.5217 -0.656054,-1.08474 -0.719347,-1.25122 -0.347296,-0.91346 -5.221705,-5.65207 -5.814044,-5.65207 -0.08866,0 -0.362301,-0.17657 -0.608101,-0.39239 -0.78311,-0.68758 -2.362501,-0.85772 -2.907058,-0.31316 -0.450543,0.45054 -0.24075,2.16534 0.598283,4.89022 0.148084,0.48092 0.342292,1.18357 0.431574,1.56144 0.137004,0.57984 1.29895,2.94077 1.969558,4.0019 0.106946,0.16922 0.329663,0.56063 0.494928,0.86979 0.600081,1.12259 2.571277,3.99518 4.028745,5.87102 1.387469,1.78575 2.067951,2.82057 2.067951,3.14477 0,0.12254 0.241444,0.44536 0.536541,0.71737 0.295098,0.27201 0.834934,0.98987 1.199635,1.59524 0.364701,0.60537 0.879169,1.40984 1.143263,1.78771 0.598071,0.85573 1.542761,2.75085 1.742474,3.49554 0.08261,0.30802 0.29114,0.83818 0.463413,1.17814 0.292974,0.57816 0.729622,2.31561 1.055249,4.19892 0.127979,0.74018 0.111129,0.93156 -0.182313,2.07065 -0.177829,0.6903 -0.575864,1.84102 -0.884524,2.55716 -1.24209,2.88182 -1.807877,4.11121 -2.046628,4.44706 -0.137872,0.19394 -0.698596,1.19581 -1.246053,2.22636 -0.547456,1.03055 -1.228366,2.23377 -1.513132,2.67381 -0.284765,0.44005 -0.517756,0.86791 -0.517756,0.95079 0,0.0829 -0.277089,0.57096 -0.615754,1.08462 -0.820311,1.24417 -1.250434,2.15757 -2.370603,5.03417 -0.187275,0.48093 -0.479526,1.09926 -0.649446,1.37407 -0.16992,0.27481 -0.410234,0.83693 -0.53403,1.24915 -0.246805,0.82182 -0.795101,1.88028 -1.326516,2.56077 -0.472487,0.60503 -0.839831,1.36132 -1.205349,2.48159 -0.418545,1.28278 -1.147261,2.81395 -1.788872,3.75877 -0.290154,0.42727 -0.712181,1.18199 -0.937837,1.67716 -0.225657,0.49517 -0.61459,1.21969 -0.864295,1.61005 -0.249706,0.39035 -0.507772,0.85113 -0.573482,1.02396 -0.06571,0.17283 -0.450545,0.83461 -0.855191,1.47063 -0.404646,0.63602 -1.030637,1.71527 -1.391091,2.39832 -1.147018,2.17357 -1.445318,2.57872 -2.548779,3.46172 -0.402336,0.32195 -0.686209,0.46276 -0.836655,0.41501 -0.184721,-0.0586 -0.253346,0.0291 -0.363536,0.46497 -0.351654,1.39086 -0.469809,1.56883 -1.414541,2.13063 l -0.891532,0.53017 -2.189514,0.088 c -3.702263,0.14885 -6.339012,0.44937 -7.32502,0.83488 -0.735039,0.28739 -2.401736,0.72759 -3.067377,0.81015 -0.249861,0.031 -0.56852,0.11748 -0.708131,0.1922 -0.139611,0.0747 -0.363075,0.13585 -0.496586,0.13585 -0.133511,0 -0.312725,0.0843 -0.398253,0.18737 -0.10419,0.12554 -0.387479,0.18786 -0.858474,0.18886 -0.386632,8.1e-4 -1.001331,0.0809 -1.365997,0.17797 -0.514641,0.13699 -0.845975,0.14801 -1.480459,0.0492 -0.615137,-0.0958 -1.02295,-0.086 -1.647904,0.0394 -0.456761,0.0917 -0.914792,0.1539 -1.017847,0.13829 -0.103055,-0.0156 -0.446094,0.089 -0.762309,0.23255 -0.546105,0.24784 -0.595013,0.25055 -0.975303,0.0539 -0.351162,-0.18159 -0.518458,-0.18862 -1.361251,-0.0572 -0.528487,0.0824 -1.194578,0.25665 -1.480203,0.38723 -0.426106,0.1948 -0.755984,0.2311 -1.837877,0.20226 -0.922139,-0.0246 -1.365016,0.0113 -1.473081,0.11938 -0.08499,0.085 -0.261796,0.15452 -0.392907,0.15452 -0.131112,0 -0.820262,0.19674 -1.531445,0.4372 -0.711184,0.24046 -1.4499,0.43837 -1.641592,0.43979 -0.191691,0.001 -1.023073,0.14087 -1.847514,0.30989 -2.013271,0.41274 -3.685002,0.54271 -3.685002,0.2865 z m 3.243529,-4.47008 c 0.459038,-0.13671 1.167747,-0.30035 1.574909,-0.36366 0.781335,-0.12148 3.803732,-0.7399 5.174788,-1.05882 1.227866,-0.28561 3.245782,-0.53898 6.495596,-0.81557 4.296993,-0.36571 4.229918,-0.35929 5.246444,-0.50286 0.997753,-0.14093 2.696403,-0.52705 3.622544,-0.82345 0.309166,-0.099 0.963223,-0.236 1.453462,-0.30457 0.490239,-0.0686 1.349321,-0.26935 1.909072,-0.44617 0.55975,-0.17683 1.508049,-0.40081 2.10733,-0.49773 1.239012,-0.2004 4.341037,-0.43007 5.847468,-0.43295 l 1.011818,-0.002 0.672632,-0.78072 c 0.369947,-0.4294 0.739755,-0.83694 0.821796,-0.90564 0.265287,-0.22216 1.411161,-1.96802 1.353219,-2.06177 -0.03088,-0.05 0.05495,-0.1914 0.190733,-0.31429 0.135787,-0.12288 0.246885,-0.29224 0.246885,-0.37634 0,-0.2053 0.613264,-1.53544 0.745634,-1.61725 0.103432,-0.0639 0.540972,-0.80824 1.279552,-2.17668 0.207425,-0.38432 0.412786,-0.72686 0.456357,-0.76122 0.04357,-0.0343 0.247678,-0.42118 0.453569,-0.85963 0.205891,-0.43844 0.503571,-0.94435 0.661511,-1.12423 0.157939,-0.17989 0.320622,-0.48612 0.361516,-0.68052 0.0409,-0.1944 0.178857,-0.41871 0.306583,-0.49848 0.127726,-0.0798 0.23223,-0.21386 0.23223,-0.29799 0,-0.48983 0.513672,-1.7054 1.080205,-2.55623 0.216244,-0.32477 0.488232,-0.8604 0.604418,-1.1903 0.36649,-1.04063 0.854345,-2.0814 1.214907,-2.59185 0.191547,-0.27117 0.348268,-0.64302 0.348268,-0.82633 0,-0.18331 0.117651,-0.48286 0.261446,-0.66567 0.546389,-0.69462 0.938211,-1.62247 1.505831,-3.56588 0.08904,-0.30487 0.297738,-0.75448 0.463763,-0.99913 0.306614,-0.45182 0.740719,-1.34944 1.708206,-3.53211 0.295763,-0.66725 0.676572,-1.398 0.846244,-1.6239 0.376338,-0.50105 0.99443,-1.73146 1.210333,-2.40937 0.191271,-0.60057 0.677794,-1.59115 0.900848,-1.83417 0.177179,-0.19304 0.373448,-0.54668 1.755118,-3.16244 0.662878,-1.25495 1.462123,-3.07007 1.540097,-3.49763 0.176202,-0.96617 0.114298,-3.94912 -0.10259,-4.94343 -0.262699,-1.20434 -2.169065,-5.1605 -3.030539,-6.2891 -0.246536,-0.32298 -0.645089,-0.96323 -0.885675,-1.42278 -0.240585,-0.45955 -0.573633,-1.00418 -0.740107,-1.21029 -0.166473,-0.20611 -0.515446,-0.63845 -0.775495,-0.96074 -0.799699,-0.99113 -1.159851,-1.50867 -1.159851,-1.66671 0,-0.0833 -0.309166,-0.52856 -0.687034,-0.98955 -0.377869,-0.46099 -0.687035,-0.89214 -0.687035,-0.9581 0,-0.066 -0.244341,-0.38453 -0.54298,-0.70792 -0.29864,-0.3234 -0.811692,-1.0377 -1.140117,-1.58732 -0.328425,-0.54963 -0.791099,-1.23896 -1.028166,-1.53185 -0.237067,-0.2929 -0.584992,-0.82691 -0.773165,-1.1867 -0.188174,-0.35979 -0.537123,-0.9681 -0.775442,-1.3518 -0.238319,-0.3837 -0.512772,-0.94582 -0.609896,-1.24915 -0.09712,-0.30334 -0.334031,-0.74702 -0.526463,-0.98596 -0.192431,-0.23894 -0.349875,-0.55677 -0.349875,-0.7063 0,-0.14952 -0.147435,-0.68478 -0.327633,-1.18946 -0.180198,-0.50468 -0.355862,-1.14018 -0.390364,-1.41222 -0.0345,-0.27203 -0.167842,-0.63741 -0.296312,-0.81195 -0.322614,-0.43829 -0.659656,-2.6245 -0.666487,-4.32316 -0.0054,-1.33029 0.01027,-1.413 0.412962,-2.18601 0.616187,-1.18287 0.937844,-1.55308 1.663613,-1.91474 0.533725,-0.26597 0.824467,-0.32441 1.596163,-0.32085 1.432746,0.007 2.824454,0.29773 3.76315,0.78715 0.451515,0.23542 0.985528,0.46423 1.186695,0.50848 0.559701,0.12311 2.159131,1.37926 4.071196,3.19741 0.482926,0.4592 0.749918,0.82212 0.804094,1.09301 0.04461,0.22304 0.14828,0.40553 0.230381,0.40553 0.262948,0 1.154063,0.85115 1.372044,1.31051 0.221519,0.46682 1.163628,1.80364 1.822155,2.58559 0.213497,0.25351 0.494247,0.6751 0.623889,0.93686 0.129642,0.26177 0.462235,0.78511 0.739097,1.16298 0.749551,1.023 1.24407,1.87911 1.388521,2.40378 0.08729,0.31705 0.245916,0.5282 0.49269,0.65581 0.200174,0.10351 0.387608,0.1882 0.41652,0.1882 0.02891,0 0.08917,-0.27589 0.133899,-0.6131 0.04473,-0.3372 0.190878,-0.9315 0.324769,-1.32066 0.133891,-0.38917 0.330478,-1.33162 0.436861,-2.09435 0.106382,-0.76273 0.276643,-1.6319 0.378358,-1.9315 0.101715,-0.29959 0.184936,-0.67331 0.184936,-0.83047 0,-0.15717 0.252953,-0.80549 0.562119,-1.4407 0.309165,-0.63521 0.562119,-1.2406 0.562119,-1.3453 0,-0.1047 0.112424,-0.33329 0.24983,-0.50797 0.139051,-0.17678 0.249831,-0.50676 0.249831,-0.74417 0,-0.23461 0.08823,-0.59718 0.196073,-0.80572 0.10784,-0.20854 0.309559,-0.83814 0.448264,-1.3991 0.138708,-0.56096 0.482738,-1.49773 0.764528,-2.08171 0.28178,-0.58398 0.49793,-1.18597 0.48032,-1.33776 -0.0176,-0.15178 0.0541,-0.46095 0.1593,-0.68703 0.10522,-0.22608 0.28122,-0.85332 0.39112,-1.39387 0.21608,-1.06286 0.76224,-2.31599 1.23017,-2.82258 0.16096,-0.17425 0.45313,-0.61777 0.64928,-0.9856 0.43811,-0.82155 2.27552,-2.72491 3.0856,-3.19633 0.85618,-0.49826 2.73146,-0.67084 3.52544,-0.32444 0.20611,0.0899 0.50601,0.1807 0.66645,0.20172 1.04847,0.1374 2.65563,2.1885 3.15917,4.03181 0.26007,0.95206 0.31321,3.34411 0.0948,4.2656 -0.0733,0.30917 -0.20544,0.98371 -0.29366,1.49899 -0.0882,0.51527 -0.35746,1.69572 -0.59832,2.62322 -0.24086,0.9275 -0.47637,1.90307 -0.52337,2.16795 -0.0779,0.43926 -0.34949,1.1529 -1.24275,3.26587 -0.17427,0.41222 -0.38108,1.05865 -0.45959,1.43652 -0.0785,0.37787 -0.20329,0.76159 -0.27731,0.8527 -0.21516,0.26487 0.1282,0.39241 1.06218,0.39454 0.46095,0.001 1.26925,0.066 1.79623,0.14442 0.92259,0.13722 0.99186,0.17192 1.86695,0.93512 1.18664,1.03493 1.64781,1.63269 1.88524,2.44363 0.10684,0.36488 0.23588,0.70734 0.28678,0.76104 0.0509,0.0537 0.62196,-0.10656 1.26904,-0.35612 1.12446,-0.43368 1.22625,-0.45067 2.30102,-0.38407 1.27519,0.079 2.03377,0.30667 2.66961,0.80115 0.24121,0.18759 0.60844,0.42539 0.81607,0.52844 0.20763,0.10306 0.50608,0.38412 0.66321,0.62458 0.15714,0.24046 0.44742,0.60584 0.64506,0.81195 0.19765,0.20611 0.42974,0.59959 0.51575,0.87441 0.23928,0.76445 0.31366,0.81195 1.27156,0.81195 0.72768,0 1.01963,0.0704 1.81357,0.4372 0.52045,0.24046 1.01097,0.4372 1.09004,0.4372 0.33008,0 1.69477,1.725 1.69477,2.14223 0,0.0711 0.10604,0.2641 0.23564,0.42886 0.1296,0.16476 0.32842,0.67953 0.44182,1.14394 0.1134,0.46441 0.31363,1.18165 0.44495,1.59387 0.42601,1.33725 0.5331,2.22888 0.47542,3.95817 -0.0537,1.60902 -0.0765,1.72455 -0.70173,3.55758 -0.35545,1.04201 -0.64626,2.00307 -0.64626,2.13568 0,0.13261 -0.11243,0.37074 -0.24984,0.52917 -0.1374,0.15843 -0.24983,0.40947 -0.24983,0.55786 0,0.1484 -0.16295,0.42593 -0.36211,0.61674 -0.19917,0.19081 -0.48027,0.67097 -0.62468,1.06702 -0.14441,0.39604 -0.3976,0.86579 -0.56265,1.04389 -0.16505,0.17809 -0.33755,0.5455 -0.38332,0.81646 -0.0468,0.27713 -0.21606,0.61744 -0.38685,0.77788 -0.16698,0.15688 -0.30361,0.35777 -0.30361,0.44643 0,0.0887 -0.0988,0.2141 -0.21962,0.27875 -0.51412,0.27514 -1.52919,1.31904 -1.52919,1.57261 0,0.76633 -3.43268,4.5644 -4.12529,4.5644 -0.13911,0 -0.5956,0.3695 -1.06218,0.85977 -0.55976,0.58818 -0.94363,0.88485 -1.21521,0.93917 -0.21834,0.0437 -0.62368,0.29808 -0.90075,0.56538 -0.27708,0.26729 -1.22048,1.14744 -2.09645,1.95589 -0.87597,0.80845 -1.59267,1.51777 -1.59267,1.57625 0,0.0912 -1.79256,1.99979 -4.35359,4.63542 -0.38802,0.39931 -0.86006,0.81897 -1.049,0.93257 -0.18893,0.1136 -0.34351,0.28701 -0.34351,0.38535 0,0.15933 -0.60504,0.97909 -1.05396,1.42802 -0.0923,0.0923 -0.42637,0.55748 -0.74228,1.03364 -0.31591,0.47617 -0.85607,1.27731 -1.20035,1.78032 -0.34428,0.50301 -0.62596,0.94512 -0.62596,0.98246 0,0.22413 -1.61324,3.24689 -2.01889,3.78285 -0.51734,0.68352 -0.78611,1.33421 -0.9303,2.25225 -0.0486,0.30916 -0.32503,0.99137 -0.61439,1.51601 -0.28936,0.52465 -0.55593,1.11487 -0.59239,1.31161 -0.0365,0.19675 -0.17802,0.66688 -0.31457,1.04475 -0.13656,0.37787 -0.34451,1.13673 -0.4621,1.68636 -0.1176,0.54963 -0.29252,1.22605 -0.38872,1.50316 -0.0962,0.27711 -0.17491,0.67565 -0.17491,0.88565 0,0.21 -0.11243,0.82139 -0.24983,1.35865 -0.29751,1.16324 -0.31615,1.72565 -0.0641,1.93481 0.13032,0.10816 1.2575,0.18727 3.77869,0.2652 5.95663,0.18414 8.85856,0.34561 11.02543,0.61346 1.13361,0.14013 2.17353,0.25541 2.31094,0.25618 1.22514,0.007 4.99903,-0.1379 5.19208,-0.19917 0.13511,-0.0429 0.43911,-0.0141 0.67556,0.0639 0.33181,0.10951 0.88288,0.0969 2.41512,-0.0551 3.21456,-0.31902 8.72957,-0.23052 15.01394,0.24093 1.64377,0.12332 3.96049,0.10296 4.8717,-0.0428 1.00216,-0.16031 4.94693,-0.36381 9.11882,-0.47043 1.92705,-0.0492 2.97809,-0.0153 4.24712,0.13694 0.9275,0.11131 2.33279,0.25659 3.12288,0.32284 2.59991,0.21801 4.04814,0.39059 4.8717,0.58053 0.49273,0.11365 1.14193,0.16454 1.65127,0.12946 0.46162,-0.0318 0.86845,-0.0287 0.90406,0.007 0.0356,0.0356 0.47299,0.0543 0.97196,0.0414 0.49896,-0.0128 3.04326,-0.0758 5.65399,-0.13996 2.61073,-0.0642 5.05595,-0.18013 5.43381,-0.2577 0.37787,-0.0776 0.7573,-0.13432 0.84318,-0.12614 0.36305,0.0346 0.6341,0.0124 1.34284,-0.11012 1.38999,-0.24027 3.80438,-0.3861 4.03412,-0.24366 0.15313,0.0949 0.31834,0.0875 0.58775,-0.0264 0.23457,-0.0992 1.02889,-0.16495 2.12356,-0.17577 1.51554,-0.015 1.83455,-0.0547 2.39156,-0.29806 1.25651,-0.54888 1.75375,-1.64684 1.42398,-3.14435 -0.0978,-0.4442 -0.16849,-2.60982 -0.20552,-6.29817 -0.031,-3.09165 -0.10727,-5.90548 -0.16941,-6.25294 -0.0621,-0.34746 -0.14929,-1.4717 -0.19366,-2.49831 -0.0444,-1.0266 -0.12721,-2.00708 -0.18407,-2.17884 -0.11613,-0.35081 -0.30163,-2.01477 -0.49437,-4.43449 -0.0711,-0.89315 -0.21911,-1.90496 -0.32881,-2.24848 -0.1097,-0.34352 -0.24968,-1.13048 -0.31107,-1.74881 -0.0614,-0.61833 -0.20025,-1.96742 -0.30859,-2.99797 -0.10834,-1.03055 -0.24415,-3.30713 -0.30179,-5.05907 -0.0979,-2.97478 -0.2374,-4.22768 -0.53376,-4.79322 -0.17712,-0.33799 -0.71865,-2.34035 -0.72048,-2.66402 -8.5e-4,-0.15104 -0.13481,-0.71316 -0.29768,-1.24916 -0.16287,-0.536 -0.36485,-1.31181 -0.44886,-1.72403 -0.084,-0.41222 -0.2318,-0.8987 -0.32845,-1.08105 -0.0966,-0.18236 -0.17572,-0.62969 -0.17572,-0.99406 0,-0.59248 -0.0477,-0.71132 -0.45114,-1.12451 -0.48867,-0.50044 -0.58663,-0.83384 -0.80324,-2.73386 -0.18758,-1.64533 -0.26061,-1.99831 -0.41441,-2.00288 -0.16186,-0.005 -1.21886,-1.75676 -1.35856,-2.25176 -0.0505,-0.179 -0.22546,-0.38633 -0.38877,-0.46073 -0.27806,-0.1267 -0.30092,-0.21728 -0.35983,-1.42619 -0.0346,-0.71 -0.0363,-1.36117 -0.004,-1.44704 0.0325,-0.0859 0.19268,-0.15615 0.35598,-0.15615 h 0.29692 l -0.2466,-0.47311 c -0.34481,-0.66154 -2.13907,-2.27503 -2.52992,-2.27503 -0.0668,0 -0.49788,-0.25029 -0.95805,-0.55621 -0.46017,-0.30592 -1.42333,-0.81599 -2.14036,-1.1335 -0.71703,-0.3175 -1.73482,-0.76879 -2.26175,-1.00285 -0.52694,-0.23407 -1.39822,-0.54315 -1.93619,-0.68685 -0.53797,-0.14369 -1.37161,-0.41984 -1.85253,-0.61365 -0.48093,-0.19381 -1.07115,-0.39148 -1.31161,-0.43927 -0.62753,-0.12471 -2.36672,-0.67873 -2.83119,-0.90189 -0.21744,-0.10447 -0.45475,-0.15322 -0.52736,-0.10834 -0.0726,0.0449 -0.27723,-0.0135 -0.45469,-0.12983 -0.26132,-0.17123 -0.40337,-0.18665 -0.74712,-0.0812 -0.29919,0.0918 -0.43761,0.0908 -0.46907,-0.004 -0.0283,-0.0849 -0.13321,-0.0944 -0.28697,-0.0258 -0.41945,0.18709 -1.98272,0.40848 -2.17852,0.30852 -0.10306,-0.0526 -0.58086,-0.0221 -1.06178,0.0679 -0.78094,0.14605 -0.91442,0.21475 -1.24873,0.64272 -0.50837,0.65078 -3.00775,3.11237 -3.61048,3.55588 -0.26795,0.19717 -0.60079,0.35848 -0.73966,0.35848 -0.13886,0 -0.34122,0.0792 -0.44969,0.17599 -0.4068,0.36303 -2.48556,1.31091 -3.55315,1.62017 -0.60911,0.17644 -1.17123,0.37163 -1.24915,0.43373 -0.0779,0.0621 -0.28222,0.15255 -0.45398,0.20099 -0.29143,0.0822 -1.45128,0.60052 -1.87373,0.83738 -0.4631,0.25965 -0.86829,0.38526 -1.6239,0.5034 -0.44657,0.0698 -0.87592,0.17892 -0.95411,0.24244 -0.0884,0.0718 -0.26183,0.061 -0.4587,-0.0287 -0.23624,-0.10764 -0.41878,-0.10857 -0.71965,-0.004 -0.22172,0.0773 -0.59224,0.14053 -0.82338,0.14053 -0.23115,0 -0.52101,0.0629 -0.64415,0.13982 -0.17499,0.10928 -0.33152,0.0855 -0.71657,-0.10902 -0.27097,-0.13687 -0.88616,-0.28969 -1.36708,-0.3396 -1.10161,-0.11433 -1.48792,-0.27619 -2.36581,-0.99124 -0.38739,-0.31553 -0.77242,-0.57583 -0.85563,-0.57845 -0.0832,-0.003 -0.44128,-0.27538 -0.79573,-0.60613 -1.31766,-1.22956 -1.71079,-3.11316 -0.9992,-4.78747 0.38697,-0.91052 0.60024,-1.11444 2.04019,-1.95078 0.63196,-0.36705 1.03894,-0.52053 1.38032,-0.52053 0.26626,0 0.53751,-0.0499 0.60278,-0.11093 0.17719,-0.16564 1.99148,-0.76347 2.31696,-0.76347 0.5154,0 2.17903,-1.22634 1.95808,-1.4434 -0.0188,-0.0185 -0.33513,-0.14777 -0.70297,-0.28735 -0.4808,-0.18243 -0.72661,-0.21857 -0.87441,-0.12855 -0.38126,0.23222 -4.19919,-1.23309 -4.336,-1.66414 -0.0572,-0.18009 -0.11915,-0.19809 -0.3172,-0.0921 -0.31131,0.1666 -0.66774,0.0569 -1.29189,-0.39752 -0.27117,-0.19745 -0.62507,-0.35899 -0.78644,-0.35899 -0.24954,0 -1.4018,-0.49479 -3.13925,-1.34802 -0.23179,-0.11383 -0.5031,-0.33159 -0.6029,-0.48391 -0.31813,-0.48553 -0.98008,-1.13031 -1.36447,-1.32909 -0.20476,-0.10588 -0.62138,-0.46383 -0.92583,-0.79545 -0.30445,-0.33162 -0.6631,-0.65915 -0.79701,-0.72785 -0.47336,-0.24288 -1.31691,-2.00558 -1.32081,-2.76001 -7.4e-4,-0.14393 0.10789,-0.36056 0.2414,-0.48139 0.13351,-0.12082 0.28003,-0.38941 0.32559,-0.59687 0.053,-0.24142 0.43468,-0.72478 1.06039,-1.34297 0.84757,-0.83738 1.05094,-0.97585 1.52955,-1.04145 0.3036,-0.0416 0.74306,-0.027 0.97657,0.0324 0.72778,0.18531 2.11091,0.27554 2.11091,0.13772 0,-0.0693 -0.14052,-0.15519 -0.31228,-0.19085 -0.17176,-0.0357 -0.43877,-0.0923 -0.59335,-0.1259 -0.41468,-0.0901 -2.88079,-2.38561 -3.46307,-3.22351 l -0.50299,-0.72381 0.003,-1.27484 c 0.002,-1.0107 0.0554,-1.39083 0.2567,-1.83471 0.29613,-0.652855 0.58367,-1.001564 0.82586,-1.001564 0.0947,0 0.36427,-0.192089 0.59904,-0.426863 0.54968,-0.549679 1.42378,-0.757726 2.76779,-0.658769 1.23084,0.09062 2.88021,0.399211 3.09747,0.579518 0.0906,0.07519 0.66342,0.195778 1.27294,0.26798 0.60952,0.0722 1.30711,0.23253 1.5502,0.356284 0.32317,0.164524 0.61603,0.208282 1.08948,0.162789 0.51243,-0.04924 0.81111,0.0061 1.43176,0.265125 0.65404,0.27299 2.15772,0.69446 2.50183,0.70124 0.0515,0.001 0.0937,-0.0608 0.0937,-0.13745 0,-0.20274 -0.88889,-0.984939 -1.11927,-0.984939 -0.10783,0 -0.39981,-0.109213 -0.64886,-0.242696 -0.57669,-0.309087 -2.56628,-1.078984 -3.25994,-1.261473 -0.56432,-0.148463 -6.01815,-2.836094 -6.60936,-3.257071 -0.19279,-0.13728 -0.54731,-0.546064 -0.78783,-0.908409 -0.40855,-0.615512 -0.43826,-0.728275 -0.45215,-1.715786 -0.013,-0.923184 0.032,-1.1604 0.35562,-1.874041 0.39206,-0.864683 0.63814,-1.096282 1.77907,-1.674426 0.73516,-0.372528 1.06886,-0.402214 3.62254,-0.322272 0.87569,0.02741 1.38312,0.113217 1.93619,0.3274 0.41222,0.159638 1.05866,0.32856 1.43653,0.375383 0.77874,0.0965 1.60368,0.419422 1.85779,0.727238 0.0943,0.11422 0.32854,0.207673 0.52054,0.207673 0.49006,0 1.40799,0.417428 2.29767,1.044858 0.909,0.641061 2.03645,1.112919 2.52549,1.056964 0.32588,-0.03729 0.36243,-0.09337 0.43356,-0.665295 0.0427,-0.343518 0.13922,-0.845012 0.21444,-1.114431 0.0762,-0.273039 0.10291,-0.813862 0.0603,-1.22189 l -0.0765,-0.732035 0.581,-0.556693 c 0.76485,-0.732851 1.82965,-1.255234 2.74308,-1.345734 0.39979,-0.03961 0.81193,-0.142593 0.91586,-0.228852 0.57183,-0.474577 4.48571,0.345179 5.33874,1.118192 0.14498,0.131375 0.59768,0.341642 1.006,0.46726 0.40832,0.125618 1.01825,0.414027 1.35539,0.640908 0.33715,0.226881 0.69535,0.41251 0.79602,0.41251 0.19755,0 0.68954,0.23268 0.79119,0.374177 0.0344,0.04782 0.47826,0.306411 0.98648,0.574647 0.51271,0.270614 1.08419,0.68656 1.28386,0.934447 0.44635,0.554162 1.60203,2.903854 1.60203,3.257219 0,0.14319 0.15949,0.441996 0.35443,0.664013 0.33882,0.385897 1.14456,2.550644 1.14456,3.07505 0,0.126762 0.11242,0.290643 0.24983,0.364181 0.13757,0.07363 0.24983,0.261551 0.24983,0.418228 0,0.156488 0.17319,0.449622 0.38488,0.651411 0.21168,0.201788 0.58393,0.721842 0.82721,1.155674 0.28812,0.5138 0.61121,0.8954 0.92673,1.09458 0.26642,0.16818 0.4844,0.37999 0.4844,0.47069 0,0.0907 0.22859,0.3486 0.50799,0.57313 0.27939,0.22452 0.67686,0.64147 0.88326,0.92654 0.37659,0.52015 1.23672,1.28236 2.16884,1.92194 0.27481,0.18856 0.52776,0.37798 0.56211,0.42092 0.0344,0.0429 0.29443,0.19566 0.57795,0.33937 0.28351,0.14371 0.54837,0.34699 0.58856,0.45174 0.0402,0.10475 0.29858,0.22651 0.57417,0.27058 0.2756,0.0441 0.68215,0.21371 0.90346,0.37699 0.2213,0.16327 0.55329,0.29686 0.73775,0.29686 0.18446,0 0.63729,0.1382 1.00628,0.30711 0.56148,0.25703 0.96632,0.32431 2.48218,0.41249 2.55091,0.14839 4.43213,-0.22726 4.78076,-0.95465 0.0856,-0.17864 0.30974,-0.39864 0.49805,-0.4889 0.31858,-0.15269 0.34243,-0.21789 0.34315,-0.938 4.2e-4,-0.42565 0.0755,-0.9172 0.16695,-1.09235 0.2598,-0.49782 0.35416,-1.44379 0.16008,-1.60486 -0.12725,-0.10561 -0.15187,-0.60295 -0.11035,-2.2292 0.0294,-1.151293 -0.009,-2.683484 -0.0854,-3.404869 -0.13318,-1.258531 -0.41693,-3.233428 -0.52005,-3.619579 -0.0312,-0.116864 0.0583,-0.200718 0.2444,-0.228939 0.24985,-0.03789 0.28125,-0.09422 0.21055,-0.377712 -0.11157,-0.447382 -0.10429,-0.587165 0.075,-1.437558 0.12634,-0.59942 0.12353,-0.777763 -0.0157,-0.999323 -0.31311,-0.498106 -0.41264,-1.257231 -0.43662,-3.330115 -0.0131,-1.133607 -0.0378,-2.595116 -0.0549,-3.247798 -0.0171,-0.652683 0.0288,-1.341703 0.10194,-1.531157 0.0887,-0.229838 0.13544,-2.994035 0.14041,-8.306869 0.004,-4.379324 0.0109,-8.412103 0.0151,-8.96173 0.004,-0.549627 -0.0329,-2.358385 -0.0826,-4.019462 -0.0532,-1.780445 -0.0428,-3.164863 0.0252,-3.372714 0.1233,-0.376612 0.015,-2.519342 -0.24452,-4.83693 -0.11472,-1.024491 -0.20446,-1.394028 -0.36258,-1.493002 -0.16222,-0.101538 -0.56099,0.007 -1.74882,0.476102 -0.84627,0.334198 -1.76353,0.759587 -2.03834,0.945309 -0.7983,0.539497 -1.77567,0.99586 -2.13278,0.99586 -0.1814,0 -0.67512,0.162994 -1.09716,0.362209 -1.0732,0.506577 -2.61897,0.995066 -3.57795,1.130696 -1.2516,0.177016 -2.01643,0.363745 -2.32915,0.568651 -0.1569,0.102806 -0.46995,0.187672 -0.69565,0.188591 -0.2257,9.19e-4 -0.88817,0.174262 -1.47215,0.385207 -0.58398,0.210944 -1.48537,0.509139 -2.00308,0.662656 -0.51772,0.153517 -1.16316,0.429869 -1.4343,0.614117 -0.27114,0.184247 -0.54171,0.334994 -0.60126,0.334994 -0.0595,0 -0.2854,0.07773 -0.50189,0.172728 -0.21649,0.095 -0.59037,0.244947 -0.83083,0.333216 -0.96147,0.352936 -2.13074,1.166921 -3.49763,2.434868 -1.82251,1.690589 -2.24772,2.045225 -2.91427,2.430547 -0.29711,0.171759 -1.12609,0.70215 -1.84216,1.178648 -1.4395,0.957885 -3.63777,2.122173 -4.41963,2.340805 -0.27768,0.07765 -0.84215,0.301681 -1.25437,0.497851 -0.65681,0.312568 -1.73796,0.604713 -3.01191,0.813875 -0.4657,0.07646 -1.89179,-0.267947 -2.17654,-0.52564 -0.11142,-0.100833 -0.27804,-0.183333 -0.37028,-0.183333 -0.22491,0 -0.62457,-0.372087 -0.62457,-0.58148 0,-0.208207 0.002,-0.208268 -0.53706,0.01694 -0.41546,0.173588 -0.48436,0.165857 -1.12148,-0.125827 -0.37336,-0.170929 -1.01016,-0.372972 -1.41511,-0.448986 -0.80374,-0.15087 -2.92685,-0.05809 -3.30529,0.144448 -0.12558,0.06721 -0.3859,0.133486 -0.57847,0.14728 -0.19258,0.01379 -0.79984,0.285614 -1.34946,0.604044 -0.54963,0.31843 -1.23678,0.686191 -1.52699,0.817247 -0.29022,0.131056 -0.53143,0.294495 -0.53601,0.363199 -0.008,0.124323 -1.09808,0.687034 -1.33055,0.687034 -0.0671,0 -0.51142,0.310566 -0.98743,0.690147 -0.47601,0.379581 -1.34327,0.938125 -1.92725,1.241209 -0.58398,0.303084 -1.25539,0.695167 -1.49202,0.871294 -0.23663,0.176128 -0.51769,0.320473 -0.62458,0.320768 -0.10688,2.94e-4 -0.44728,0.17206 -0.75645,0.381702 -0.30916,0.209642 -0.94093,0.575175 -1.40392,0.812294 -0.463,0.23712 -1.13754,0.656591 -1.49899,0.932158 -0.69693,0.53134 -3.64868,2.042316 -4.27972,2.190752 -0.20611,0.04848 -0.45906,0.156545 -0.56212,0.24014 -0.31348,0.254286 -2.38692,0.840554 -3.21285,0.908438 -0.59537,0.04893 -0.8512,0.01524 -1.09444,-0.144131 -0.17459,-0.114397 -0.50126,-0.195614 -0.72594,-0.180482 -0.30311,0.02041 -0.63985,-0.122151 -1.30527,-0.552607 -0.95902,-0.620388 -1.49904,-1.2482 -2.00149,-2.326865 -0.28683,-0.61578 -0.30774,-0.774303 -0.24372,-1.847481 0.0605,-1.014401 0.13476,-1.313253 0.54638,-2.199476 0.84112,-1.810975 1.31391,-2.482042 2.81214,-3.991427 0.80178,-0.807751 1.52247,-1.468639 1.60152,-1.468639 0.079,0 0.49108,-0.244031 0.91561,-0.542292 0.42453,-0.29826 1.24967,-0.80746 1.83365,-1.131556 0.58398,-0.324095 1.48337,-0.865571 1.99865,-1.203279 0.51527,-0.337709 1.02118,-0.65216 1.12424,-0.698781 0.10305,-0.04662 0.56031,-0.32914 1.01612,-0.62782 0.45581,-0.29868 0.88926,-0.543054 0.96323,-0.543054 0.074,0 0.43692,-0.246334 0.80656,-0.547409 0.36964,-0.301075 0.79454,-0.586279 0.94422,-0.633788 0.14969,-0.04751 0.50993,-0.267218 0.80055,-0.488245 0.29061,-0.221027 0.79539,-0.58496 1.12173,-0.80874 0.77048,-0.528335 0.77909,-0.769616 0.0275,-0.769616 -0.65218,0 -1.82271,-0.4529 -2.75217,-1.064868 -0.54624,-0.359655 -0.67959,-0.533648 -0.97905,-1.277522 -0.19067,-0.473638 -0.33327,-1.025699 -0.31688,-1.226801 0.059,-0.724576 0.0473,-0.734951 -1.10089,-0.976043 -1.81251,-0.380569 -1.93308,-0.424989 -2.89243,-1.065567 -0.73622,-0.49159 -0.95891,-0.715022 -1.09113,-1.09474 -0.20449,-0.587296 -0.21739,-1.885215 -0.0281,-2.827756 0.1633,-0.813113 0.0907,-0.964672 -0.6317,-1.318138 -0.24582,-0.120281 -0.55937,-0.280077 -0.69677,-0.355102 -0.13741,-0.07502 -0.50167,-0.211365 -0.80947,-0.30298 -0.59679,-0.177629 -1.32547,-0.826593 -1.61187,-1.435537 -0.0927,-0.197135 -0.22034,-0.45941 -0.2836,-0.582834 -0.12699,-0.247751 -0.01,-1.9749 0.16585,-2.448717 0.0612,-0.164853 0.25364,-0.474018 0.42766,-0.687034 0.17402,-0.213016 0.59277,-0.74449 0.93055,-1.181054 0.40256,-0.520302 0.94844,-1.01722 1.58454,-1.442424 1.20956,-0.808541 2.34848,-1.448826 2.57712,-1.448826 0.0957,0 0.2394,-0.07885 0.31938,-0.175213 0.16716,-0.201412 1.28676,-0.746964 1.77996,-0.867327 0.18334,-0.04474 0.79348,-0.366734 1.35586,-0.715536 1.23459,-0.765714 1.90832,-0.926231 4.64251,-1.106083 2.20989,-0.145364 3.69309,0.02 4.97313,0.554477 0.37786,0.157777 1.00192,0.378192 1.38679,0.489811 0.38487,0.111619 0.82843,0.339895 0.98568,0.507281 0.18786,0.199967 0.41911,0.302403 0.6743,0.298698 0.21362,-0.0031 0.72567,0.167331 1.13789,0.37874 0.41222,0.21141 0.85255,0.384593 0.97851,0.384851 0.12596,2.59e-4 0.66161,0.11092 1.19032,0.245913 1.82941,0.46709 3.78473,0.655177 6.6377,0.638497 1.47712,-0.0086 2.77587,-0.04361 2.8861,-0.07772 0.11023,-0.03411 0.55992,-0.114165 0.99932,-0.177898 0.71272,-0.103379 1.88178,-0.332464 6.32111,-1.238671 0.70129,-0.143156 1.35366,-0.23013 1.4497,-0.193275 0.096,0.03686 0.36543,-0.04378 0.59865,-0.179197 0.53231,-0.309084 1.15218,-0.470446 2.42267,-0.630664 0.54963,-0.06931 1.52187,-0.296752 2.16054,-0.505421 0.63867,-0.208669 1.32905,-0.379398 1.53418,-0.379398 0.20513,0 0.7254,-0.193666 1.15615,-0.430368 0.71358,-0.39212 1.53685,-0.634046 3.26862,-0.960522 1.78201,-0.335946 2.70537,-0.519448 3.49394,-0.694362 0.47889,-0.106224 1.35018,-0.236536 1.93619,-0.289583 0.58601,-0.05305 1.23411,-0.154271 1.44022,-0.224943 0.20611,-0.07067 0.80982,-0.163363 1.34157,-0.205979 0.53176,-0.04262 1.17819,-0.15119 1.43653,-0.241274 0.25833,-0.09008 0.75964,-0.201467 1.11403,-0.247517 0.918,-0.119289 1.99335,-0.515266 2.45612,-0.904423 0.21845,-0.183698 0.60259,-0.649112 0.85366,-1.034252 0.51449,-0.789235 0.54286,-0.948613 0.72822,-4.090868 0.0757,-1.283168 0.19274,-2.214467 0.32184,-2.560764 0.11159,-0.299321 0.25248,-1.106339 0.31308,-1.793373 0.0606,-0.687034 0.1648,-1.698848 0.23155,-2.248476 0.16409,-1.351023 0.16355,-3.389223 -0.001,-3.982016 -0.19462,-0.700952 -0.59326,-1.043322 -1.31618,-1.130415 -0.33497,-0.04035 -0.9463,-0.185399 -1.35852,-0.32232 -0.41222,-0.136921 -1.03055,-0.25031 -1.37407,-0.251975 -0.34352,-0.0017 -0.87753,-0.06639 -1.1867,-0.143831 -0.70918,-0.17764 -1.49531,-0.151214 -2.99796,0.10078 -1.00822,0.169077 -1.70336,0.182815 -4.62187,0.09134 -4.17692,-0.130917 -9.55857,-0.08935 -11.45298,0.08846 -1.31107,0.123058 -8.51401,0.340471 -14.94052,0.450963 -2.31441,0.03979 -3.20234,0.0031 -4.74678,-0.196233 -1.52271,-0.196514 -2.61889,-0.24374 -5.52237,-0.237919 -2.58029,0.0052 -4.08976,-0.04971 -5.24644,-0.190744 -1.27425,-0.155373 -2.86224,-0.196708 -7.37524,-0.191975 -4.09316,0.0043 -5.91159,-0.03712 -6.30718,-0.14364 -0.72008,-0.193897 -6.70731,-0.204771 -8.45754,-0.01536 -0.89362,0.09671 -1.83475,0.101525 -3.12288,0.01598 -1.01408,-0.06734 -4.38007,-0.135189 -7.47997,-0.150768 l -5.636184,-0.02833 -0.513217,0.339631 c -0.282269,0.186797 -0.617047,0.339631 -0.743951,0.339631 -0.499172,0 -1.023775,0.930225 -1.023775,1.815357 0,0.601382 -0.168751,1.421843 -0.474162,2.305366 -0.106589,0.30835 -0.262979,0.870469 -0.347534,1.249153 -0.08455,0.378684 -0.210764,0.857152 -0.280467,1.063263 -0.153849,0.454935 -0.383729,1.385307 -0.570993,2.310933 -0.07645,0.377869 -0.242316,0.839607 -0.368598,1.026086 -0.133228,0.196736 -0.258142,0.668629 -0.297594,1.124238 -0.03739,0.431852 -0.146132,0.939804 -0.241638,1.128781 -0.275809,0.545741 -0.436402,1.527481 -0.546589,3.341407 -0.112445,1.851116 -0.382342,3.970714 -0.536919,4.21662 -0.05424,0.08628 -0.03131,0.342997 0.05095,0.570482 0.12003,0.331938 0.107888,0.757277 -0.06149,2.154061 -0.259479,2.139767 -0.268056,2.193653 -0.430142,2.702588 -0.07216,0.226563 -0.222149,1.228731 -0.333319,2.227042 l -0.202127,1.815109 0.437786,1.432689 c 0.544861,1.783101 0.752574,2.34974 1.145796,3.125727 0.702459,1.386236 1.131308,2.691557 1.311072,3.990609 0.0618,0.446572 0.176155,1.261645 0.254129,1.811272 0.152415,1.074359 0.07247,3.967642 -0.151865,5.496274 -0.07058,0.480924 -0.174768,1.436526 -0.231532,2.123561 -0.152949,1.851194 -0.327716,2.705351 -0.679433,3.320652 -0.173456,0.303448 -0.316051,0.693798 -0.316879,0.867445 -8.27e-4,0.173648 -0.07582,0.426601 -0.16664,0.562119 -0.09082,0.135518 -0.243339,0.443138 -0.338921,0.6836 -0.09558,0.240462 -0.345905,0.663855 -0.556274,0.940873 -0.21037,0.277018 -0.627163,0.973961 -0.926208,1.548763 l -0.543717,1.045094 0.22466,0.38032 c 0.158556,0.268413 0.181213,0.394803 0.077,0.42954 -0.329703,0.109901 -0.445185,0.679178 -0.53771,2.650668 -0.0532,1.133606 -0.151669,2.42648 -0.218816,2.873052 -0.196065,1.303965 -0.730265,3.254343 -1.07149,3.912039 -0.173484,0.334383 -0.315426,0.686142 -0.315426,0.781686 0,0.321181 -1.306916,2.69698 -1.785173,3.245207 -0.26046,0.298565 -0.794473,0.724112 -1.186696,0.945661 -0.392223,0.221548 -0.84719,0.505412 -1.011038,0.630809 -0.163848,0.125396 -0.394112,0.227993 -0.511698,0.227993 -0.117587,0 -0.392424,0.08911 -0.610751,0.198029 -1.013167,0.505434 -2.919371,0.484012 -3.951004,-0.0444 -0.688872,-0.352848 -2.047042,-1.559521 -2.056947,-1.827506 -0.0023,-0.06184 -0.27534,-0.539641 -0.606787,-1.06178 -0.331447,-0.522138 -0.730563,-1.270353 -0.886924,-1.662698 -0.321557,-0.806862 -0.522253,-1.025441 -0.846613,-0.922054 -0.381821,0.121703 -1.498264,1.106811 -1.924228,1.697867 -0.452278,0.627568 -0.526178,0.691362 -1.455031,1.256042 -0.514476,0.312766 -0.892507,0.428561 -1.748815,0.535677 -2.268964,0.283829 -3.389347,0.07951 -4.810455,-0.877257 -0.359721,-0.242185 -0.808622,-0.520352 -0.997556,-0.618149 -0.193284,-0.100049 -0.343517,-0.282447 -0.343517,-0.417064 0,-0.131588 -0.05638,-0.274093 -0.12528,-0.316678 -0.194706,-0.120335 -1.388204,0.584219 -1.503542,0.887581 -0.09907,0.260582 -0.566162,0.638717 -1.494061,1.209526 -0.240462,0.147924 -0.869464,0.39056 -1.397783,0.539192 l -0.96058,0.27024 -0.43809,-0.29769 c -0.302487,-0.205545 -0.623804,-0.30073 -1.038066,-0.307509 -0.706825,-0.01157 -1.209486,-0.301388 -2.524768,-1.455713 -0.487878,-0.428174 -1.013899,-0.810335 -1.168936,-0.849247 -0.155038,-0.03891 -0.490692,0.0165 -0.745898,0.123128 -0.840865,0.351336 -2.58722,0.692667 -3.543898,0.692667 -1.313743,0 -2.438413,-0.478865 -3.716311,-1.582341 -0.524971,-0.453317 -0.954492,-0.921331 -0.954492,-1.04003 0,-0.1187 -0.130919,-0.408738 -0.290932,-0.64453 -0.572467,-0.843577 -0.867118,-3.083192 -0.794549,-6.03929 0.02745,-1.11824 -0.0052,-1.974462 -0.08089,-2.123561 -0.193294,-0.380573 -0.207367,-5.440277 -0.01591,-5.721519 0.10962,-0.16103 0.136412,-0.677406 0.09398,-1.811272 -0.03265,-0.872315 -0.004,-1.923299 0.06372,-2.335519 0.086,-0.52373 0.08269,-0.774755 -0.011,-0.83336 -0.09477,-0.05928 -0.0908,-0.228326 0.01355,-0.576612 0.0812,-0.271009 0.147629,-1.08684 0.147629,-1.812958 0,-0.726119 0.06379,-1.478458 0.141755,-1.671865 0.08186,-0.203063 0.160596,-1.354497 0.186346,-2.72504 0.03634,-1.93412 0.07946,-2.399059 0.232992,-2.512077 0.10362,-0.07628 0.188399,-0.253582 0.188399,-0.394009 0,-0.400568 0.591414,-2.046761 0.871352,-2.425398 0.139087,-0.188125 0.252886,-0.392451 0.252886,-0.454057 0,-0.06161 0.182689,-0.360565 0.405975,-0.664354 0.223286,-0.303789 0.462187,-0.640035 0.53089,-0.747214 0.47166,-0.735799 0.965836,-1.272724 1.555245,-1.689785 0.374461,-0.264965 0.79605,-0.617359 0.936865,-0.783098 0.855645,-1.007092 2.044991,-2.163426 2.657978,-2.584202 0.390339,-0.267943 0.846918,-0.613645 1.01462,-0.768228 0.167702,-0.154583 0.369614,-0.281059 0.448693,-0.281059 0.07908,0 0.355208,-0.21652 0.613618,-0.481156 0.258409,-0.264636 0.732788,-0.612481 1.054175,-0.772989 0.595101,-0.297208 1.681048,-1.08054 2.310684,-1.666778 0.191852,-0.178628 0.486964,-0.35945 0.655805,-0.401827 0.168841,-0.04238 0.306984,-0.151444 0.306984,-0.242373 0,-0.09093 0.163319,-0.281618 0.362931,-0.423754 0.199612,-0.142136 0.507287,-0.504756 0.683723,-0.805821 0.176436,-0.301065 0.401253,-0.578267 0.499595,-0.616004 0.09834,-0.03774 0.261401,-0.350384 0.362355,-0.694772 0.100954,-0.344388 0.38092,-0.89627 0.622147,-1.226404 0.472095,-0.646094 1.208832,-2.336004 1.459769,-3.348382 0.08515,-0.343517 0.230867,-1.15859 0.323821,-1.811272 0.09295,-0.652683 0.261913,-1.37221 0.375464,-1.598951 0.113551,-0.22674 0.26001,-0.788859 0.325464,-1.249153 0.06545,-0.460294 0.177456,-1.117958 0.248892,-1.461475 0.07144,-0.343517 0.150268,-0.87753 0.175181,-1.186695 0.02491,-0.309166 0.115734,-0.899391 0.201826,-1.311611 0.19431,-0.930386 0.191674,-2.731401 -0.0049,-3.326936 -0.253762,-0.768906 -0.615569,-0.995751 -1.821384,-1.141968 -0.747218,-0.09061 -1.15626,-0.09021 -1.350399,0.0013 -0.457726,0.215776 -2.460227,0.680329 -3.463837,0.803564 -0.515276,0.06327 -1.105501,0.173849 -1.311611,0.245727 -0.575162,0.20058 -1.936193,0.447496 -3.99729,0.72518 -2.442569,0.329079 -4.286014,0.588546 -5.371359,0.756026 -0.715401,0.110394 -3.383102,0.167448 -5.558732,0.118885 -0.240462,-0.0054 -1.139852,0.0058 -1.998645,0.02483 -1.672832,0.03706 -3.695379,-0.153897 -5.640812,-0.532574 -0.663474,-0.129145 -1.395774,-0.234809 -1.627333,-0.234809 -0.231559,0 -0.531894,-0.07633 -0.667412,-0.16962 -0.135518,-0.09329 -0.520355,-0.199594 -0.855194,-0.236228 -0.334839,-0.03663 -0.652531,-0.137371 -0.705984,-0.223859 -0.09583,-0.155049 -1.839425,-0.349611 -3.638573,-0.406016 l -0.831149,-0.02606 -0.742268,0.687035 c -0.408247,0.377869 -0.889266,0.968093 -1.068931,1.311611 -0.661272,1.264343 -0.686992,1.699411 -0.568617,9.618479 0.05957,3.984799 0.116592,7.385619 0.126725,7.557377 0.01013,0.171759 -0.0786,1.211679 -0.197182,2.310934 -0.118584,1.099254 -0.236531,3.094777 -0.262106,4.434493 -0.05051,2.645703 -0.169602,4.70876 -0.555258,9.61848 -0.137614,1.751937 -0.313927,4.253367 -0.391806,5.558732 -0.07788,1.305365 -0.192791,3.104145 -0.255359,3.99729 -0.169626,2.421375 -0.214814,3.901933 -0.27641,9.056361 -0.04421,3.700058 -0.09693,4.841807 -0.250896,5.433816 -0.107205,0.412221 -0.196921,0.956799 -0.199368,1.210173 -0.0024,0.253375 -0.08188,0.815494 -0.176508,1.249153 -0.356914,1.635593 -0.460215,2.616426 -0.563234,5.347882 l -0.106005,2.810594 0.372236,0.742525 c 0.226729,0.45227 0.39755,1.021679 0.436992,1.456653 0.05819,0.641688 0.02706,0.76998 -0.306841,1.264729 -0.346355,0.5132 -0.36442,0.596683 -0.265954,1.229026 0.0581,0.373134 0.16369,1.605922 0.234639,2.739529 0.07095,1.133606 0.202482,3.129129 0.292297,4.434494 0.09665,1.404756 0.129593,3.010655 0.08071,3.934835 -0.04543,0.85879 -0.06455,3.10389 -0.04249,4.98912 0.03022,2.58316 0.0029,3.45069 -0.111028,3.52108 -0.157048,0.0971 -0.262025,2.8837 -0.194687,5.16802 0.06999,2.37445 -0.04991,12.00235 -0.161014,12.92874 -0.05617,0.46838 0.251682,1.44282 0.526665,1.66705 0.274905,0.22416 0.468214,0.23403 3.290033,0.168 2.091647,-0.0489 3.224548,-0.12842 3.74746,-0.26293 0.41222,-0.10604 1.255399,-0.23023 1.87373,-0.27599 1.042562,-0.0772 1.183226,-0.12128 1.936187,-0.60738 1.044318,-0.67419 2.254496,-1.87517 3.129445,-3.10566 0.622779,-0.87584 1.249983,-1.57957 1.413271,-1.58569 0.07789,-0.003 0.535092,-0.25629 1.016016,-0.56305 0.480924,-0.30676 0.930619,-0.57963 0.999322,-0.60638 0.439624,-0.17117 2.222982,-0.46571 3.491164,-0.57661 1.271588,-0.11119 1.551649,-0.1756 1.891974,-0.43518 0.219701,-0.16758 0.616093,-0.3591 0.880873,-0.42561 0.264779,-0.0665 0.8749,-0.21602 1.355824,-0.33225 0.480924,-0.11623 1.176514,-0.34447 1.545756,-0.5072 0.369242,-0.16273 0.736786,-0.29587 0.816766,-0.29587 0.07998,0 0.368097,-0.11702 0.640262,-0.26004 0.272165,-0.14302 0.830791,-0.37339 1.241391,-0.51193 0.410601,-0.13854 1.534839,-0.63979 2.498307,-1.11388 0.963468,-0.4741 1.823893,-0.86206 1.912056,-0.86214 0.08816,-8e-5 0.425435,-0.13227 0.749492,-0.29375 0.324058,-0.16149 1.31995,-0.50759 2.213095,-0.76912 0.893144,-0.26154 1.680111,-0.51601 1.748814,-0.5655 0.620525,-0.44696 3.904006,-0.67913 5.101686,-0.36072 0.905189,0.24064 1.966258,0.87768 2.168579,1.30195 0.101681,0.21323 0.304869,0.44098 0.451529,0.50611 0.146661,0.0651 0.329891,0.25896 0.407179,0.43071 0.07729,0.17176 0.269992,0.56525 0.42823,0.87441 0.158239,0.30917 0.388291,0.75886 0.511226,0.99932 0.122935,0.24047 0.284035,0.88482 0.357998,1.4319 l 0.13448,0.9947 -0.449549,0.65272 c -1.118673,1.62427 -3.78461,3.65731 -5.714349,4.35777 -0.44041,0.15986 -1.075739,0.46538 -1.411843,0.67893 -0.336104,0.21355 -0.920263,0.47774 -1.298132,0.58708 -0.377868,0.10935 -0.883775,0.35027 -1.124237,0.53538 -0.59045,0.45454 -1.798638,1.16513 -2.560765,1.50611 -1.254509,0.56128 -1.708807,1.13752 -0.686924,0.87132 0.818888,-0.21333 3.911794,-1.37155 4.371926,-1.63719 1.324266,-0.76452 4.7351,-2.1283 5.808563,-2.32248 0.20611,-0.0373 0.451397,-0.12912 0.545083,-0.20408 0.244731,-0.19583 3.259169,-0.26954 3.794706,-0.0928 0.675105,0.2228 1.400926,0.92376 1.716773,1.65797 0.407474,0.9472 0.293934,2.181 -0.319611,3.47308 -0.600482,1.26458 -0.848428,1.56274 -2.248847,2.70432 -1.606534,1.3096 -1.976416,1.56082 -2.887264,1.96099 -0.425276,0.18684 -1.65174,0.7609 -2.725475,1.2757 -1.073736,0.51479 -2.198295,1.0018 -2.499022,1.08223 -0.499912,0.13371 -0.800458,0.36548 -1.703129,1.31339 -0.241361,0.25345 -0.246019,0.28582 -0.05185,0.36033 0.38984,0.1496 1.940989,-0.19941 3.168457,-0.71291 0.666343,-0.27875 1.669186,-0.69857 2.22854,-0.93291 0.559353,-0.23435 1.34632,-0.50339 1.748814,-0.59786 0.402494,-0.0945 1.040973,-0.26001 1.418842,-0.36786 3.316842,-0.94671 3.062791,-0.9028 4.996613,-0.86367 2.077864,0.042 2.508383,0.12912 3.23268,0.65379 0.844447,0.61172 1.003911,0.98234 0.989175,2.299 -0.007,0.62302 -0.05386,1.18898 -0.104197,1.25768 -0.05034,0.0687 -0.130273,0.3062 -0.177639,0.52776 -0.111461,0.52139 -1.000292,1.59605 -1.910511,2.30996 -0.748138,0.58679 -1.891783,1.22203 -2.200044,1.22203 -0.09836,0 -0.506674,0.17245 -0.907359,0.38322 -0.400684,0.21078 -1.076187,0.46386 -1.501116,0.5624 -1.370917,0.31794 -6.053195,2.63802 -6.776222,3.35763 l -0.298873,0.29746 0.392559,0.47625 c 0.215908,0.26193 0.392307,0.53369 0.391999,0.60392 -3.08e-4,0.0702 0.200276,0.52399 0.445742,1.00836 0.484176,0.9554 0.670675,1.82636 0.448423,2.09416 -0.07606,0.0916 -0.175259,0.56439 -0.220443,1.05055 -0.07842,0.84376 -0.105508,0.90332 -0.596259,1.31102 -0.921199,0.76529 -2.085865,1.47146 -2.427899,1.47212 -0.184076,3.5e-4 -0.559531,0.13913 -0.834345,0.30839 -0.274813,0.16926 -0.62,0.3095 -0.767081,0.31165 -0.147081,0.002 -0.540564,0.19937 -0.874407,0.43829 -2.427611,1.73736 -2.999277,1.98806 -4.115398,1.80483 -0.842082,-0.13825 -2.476395,-0.13995 -2.825164,-0.003 -0.157816,0.062 -0.683337,0.20129 -1.167826,0.30954 -1.063587,0.23764 -4.385176,0.30089 -4.777421,0.091 -0.142309,-0.0762 -0.376254,-0.13848 -0.519878,-0.13848 -0.16272,0 -0.30532,-0.11622 -0.378376,-0.30837 -0.06448,-0.1696 -0.231727,-0.37986 -0.371654,-0.46725 -0.139928,-0.0874 -0.254413,-0.2228 -0.254413,-0.30091 0,-0.0781 -0.08432,-0.21201 -0.187373,-0.29754 -0.103055,-0.0855 -0.187373,-0.24746 -0.187373,-0.35986 0,-0.23851 -1.336772,-1.26302 -1.648771,-1.26362 -0.116735,-2.3e-4 -0.362307,-0.19716 -0.545716,-0.43762 -0.235618,-0.30891 -0.432202,-0.4372 -0.669929,-0.4372 -0.185051,0 -0.585916,-0.12211 -0.89081,-0.27136 -1.2363,-0.60517 -4.896778,-0.3863 -6.800119,0.4066 -0.988477,0.41178 -2.630304,0.99072 -3.013451,1.0626 -0.253514,0.0476 -0.606694,0.16253 -0.784845,0.25549 -0.17815,0.093 -0.389815,0.16937 -0.470366,0.1698 -0.3165,0.002 -0.771212,2.05675 -0.801697,3.62331 -0.03296,1.69357 0.231056,7.25982 0.396966,8.36933 0.07705,0.51527 0.160383,1.18981 0.18518,1.49898 0.174027,2.16966 0.334209,3.65392 0.455991,4.22525 0.108778,0.51033 0.103852,0.99012 -0.02117,2.06111 -0.08962,0.76776 -0.206835,2.29532 -0.260474,3.39458 -0.05364,1.09925 -0.102725,2.06489 -0.109079,2.14586 -0.0064,0.081 -0.09343,0.2291 -0.193493,0.32917 -0.146897,0.14689 -0.154391,0.25493 -0.0389,0.56088 0.153459,0.40656 -0.0465,2.13392 -0.54489,4.70716 -0.193224,0.99762 -0.215793,1.36787 -0.112686,1.84865 0.07091,0.33064 0.128929,0.85889 0.128929,1.17388 0,0.31499 0.0541,0.77597 0.120224,1.0244 0.06612,0.24844 0.153623,0.71695 0.194443,1.04115 0.0642,0.50992 0.178601,0.69672 0.84787,1.38452 0.743009,0.76359 0.830547,0.81379 2.210177,1.26759 1.649927,0.54271 2.274047,0.65598 3.733992,0.67769 0.722545,0.0107 1.307673,-0.0617 1.882928,-0.23298 z m 145.468163,-31.2301 c 0.0425,-0.0687 0.10199,-0.12491 0.13228,-0.12491 0.0303,0 0.0551,0.0562 0.0551,0.12491 0,0.0687 -0.0595,0.12492 -0.13229,0.12492 -0.0728,0 -0.0975,-0.0562 -0.0551,-0.12492 z m 4.55941,31.85341 c 0,-0.0687 0.0876,-0.12492 0.19474,-0.12492 0.10711,0 0.16001,0.0562 0.11754,0.12492 -0.0425,0.0687 -0.13009,0.12491 -0.19474,0.12491 -0.0647,0 -0.11754,-0.0562 -0.11754,-0.12491 z m 12.82464,-1.45735 c -0.0458,-0.0458 -0.0833,-0.14136 -0.0833,-0.21235 0,-0.0783 0.0582,-0.0709 0.14781,0.0187 0.0813,0.0813 0.11878,0.17686 0.0833,0.21236 -0.0355,0.0355 -0.10201,0.0271 -0.14781,-0.0187 z"
       id="path1" /></g></svg>
