<?xml version="1.0" encoding="UTF-8" standalone="no"?>
<!-- Created with Inkscape (http://www.inkscape.org/) -->

<svg
   width="210mm"
   height="210mm"
   viewBox="0 0 210 297"
   version="1.1"
   id="svg5"
   sodipodi:docname="Makey_Makey_drawing.svg"
   inkscape:version="1.3 (0e150ed, 2023-07-21)"
   xmlns:inkscape="http://www.inkscape.org/namespaces/inkscape"
   xmlns:sodipodi="http://sodipodi.sourceforge.net/DTD/sodipodi-0.dtd"
   xmlns="http://www.w3.org/2000/svg"
   xmlns:svg="http://www.w3.org/2000/svg">
  <sodipodi:namedview
     id="namedview1"
     pagecolor="#ffffff"
     bordercolor="#666666"
     borderopacity="1.0"
     inkscape:showpageshadow="2"
     inkscape:pageopacity="0.0"
     inkscape:pagecheckerboard="0"
     inkscape:deskcolor="#d1d1d1"
     inkscape:document-units="mm"
     inkscape:zoom="0.29734127"
     inkscape:cx="395.16882"
     inkscape:cy="396.85039"
     inkscape:window-width="1312"
     inkscape:window-height="449"
     inkscape:window-x="0"
     inkscape:window-y="25"
     inkscape:window-maximized="0"
     inkscape:current-layer="svg5" />
  <defs
     id="defs2" />
  <g
     id="layer1"
     transform="matrix(1.488406,0,0,1.488406,-56.074093,-68.752641)">
    <style
       id="style1">&#10;		@media (prefers-color-scheme: dark) {&#10;		.a { fill: #dad8d8 }&#10;		}&#10;	</style>
    <path
       class="a"
       fill="#333333"
       d="m 32.275729,194.4715 c -0.302345,-0.55337 -0.324994,-0.56155 -1.555076,-0.56177 -0.686545,-1.2e-4 -1.870293,0.0748 -2.630552,0.16648 -3.781695,0.45605 -5.89243,0.56483 -7.379511,0.3803 -1.849127,-0.22945 -2.721481,-0.65495 -3.417863,-1.66711 l -0.534731,-0.7772 0.25775,-1.77251 c 0.983536,-6.76362 1.33836,-13.97153 0.901175,-18.30653 -0.146725,-1.45488 -0.386769,-4.66684 -0.533429,-7.13768 -0.334911,-5.64235 -0.529117,-7.44058 -0.979684,-9.07127 -0.287406,-1.04018 -0.392259,-2.16535 -0.53136,-5.70195 -0.250095,-6.35859 -0.254375,-12.37384 -0.01057,-14.85961 0.116508,-1.1879 0.300994,-3.75378 0.409968,-5.70194 0.168692,-3.01575 0.157728,-3.90159 -0.07378,-5.96113 -0.580765,-5.16658 -0.583454,-5.22272 -0.701115,-14.63908 -0.0875,-7.00231 -0.160269,-6.60556 1.358169,-7.40456 l 0.795434,-0.41856 0.839527,0.4654 0.839526,0.4654 0.110359,-0.58827 c 0.118945,-0.63403 0.806881,-1.417089 1.853337,-2.109596 l 0.655298,-0.433657 0.824533,0.525365 c 0.453491,0.288949 1.291053,0.676328 1.861247,0.860838 1.185165,0.38351 5.229994,0.95874 6.133909,0.87233 l 0.604752,-0.0578 0.0029,-1.268659 c 0.0029,-1.241852 0.0165,-1.281092 0.64541,-1.857448 0.545546,-0.499957 0.768434,-0.588795 1.477222,-0.588795 0.459103,0 1.288345,0.08385 1.842759,0.186343 0.839843,0.155254 1.132786,0.138697 1.75581,-0.09924 0.411281,-0.15707 0.901451,-0.236809 1.089266,-0.177199 0.192011,0.06094 0.521136,-0.0093 0.751919,-0.160548 0.225742,-0.14791 0.461505,-0.217861 0.523922,-0.155445 0.06242,0.06242 1.11905,0.121004 2.348076,0.130196 2.621998,0.01961 2.698036,0.06052 3.717137,1.999874 0.774144,1.473201 1.002345,1.675841 1.58716,1.409381 0.241889,-0.11022 0.506967,-0.15888 0.589065,-0.10814 0.0821,0.0507 0.601107,-0.0204 1.153361,-0.15816 1.27255,-0.317369 4.2861,-0.614559 7.39718,-0.729497 1.33045,-0.04915 2.88553,-0.197069 3.45572,-0.328703 1.45876,-0.336767 5.60797,-0.594471 8.46652,-0.525849 1.33046,0.03194 2.69607,-0.0095 3.0347,-0.09209 0.93909,-0.229028 4.76823,-0.352632 11.91131,-0.384491 5.60635,-0.025 6.61825,-0.06964 7.5093,-0.331274 1.40833,-0.413512 9.25778,-0.440689 11.393541,-0.03945 2.33318,0.438329 3.28608,0.65106 3.58929,0.801289 0.30627,0.151748 3.19683,0.566233 5.26857,0.755471 0.68091,0.0622 5.2295,0.190003 10.10799,0.284015 4.87848,0.094 10.11403,0.21097 11.63454,0.25992 2.66589,0.0858 6.54334,-0.09 10.88553,-0.49349 1.14039,-0.105976 4.21167,-0.20734 6.82506,-0.225251 3.91067,-0.0268 5.13386,-0.09661 6.91144,-0.394431 2.18998,-0.366918 3.73483,-0.399053 21.3391,-0.443875 0.85529,-0.0022 2.95549,0.06014 4.66709,0.138471 2.48434,0.113703 3.59955,0.08565 5.52916,-0.139085 7.4039,-0.86231 7.63779,-0.84759 8.53709,0.53735 0.2299,0.354051 0.60456,0.927741 0.83258,1.27487 0.22803,0.34713 0.52928,1.00803 0.66948,1.46868 0.31946,1.04971 0.0932,2.02523 -0.66305,2.85909 l -0.5172,0.57025 0.12021,4.13585 c 0.0661,2.27474 0.19125,4.76285 0.27808,5.52917 0.24245,2.13988 0.69171,8.31588 0.84294,11.58768 0.0747,1.61555 0.2198,3.28725 0.32252,3.7149 0.29674,1.23532 0.54811,9.06594 0.34191,10.65085 -0.18535,1.4245 -0.077,7.35952 0.19362,10.60184 0.0833,0.99784 0.12073,6.24622 0.0833,11.66307 -0.0674,9.74179 -0.009,11.36135 0.53317,14.77322 0.12834,0.80778 0.28568,2.2851 0.34966,3.28294 0.064,0.99784 0.1706,2.12527 0.23695,2.50541 0.0727,0.41649 0.033,0.98952 -0.1,1.442 -0.12135,0.41297 -0.29846,1.709 -0.39354,2.88005 -0.2229,2.74479 -0.57564,3.82836 -1.38608,4.25757 -0.36162,0.19153 -0.95975,0.31886 -1.49774,0.31886 -1.12769,0 -1.42958,0.1168 -1.62407,0.62832 -0.21051,0.55371 -0.73557,0.52697 -2.08902,-0.10638 -1.40237,-0.65625 -2.24703,-0.80722 -5.33182,-0.95299 -1.84034,-0.087 -3.22873,-0.0426 -5.23036,0.16728 -1.75305,0.18379 -3.29375,0.24705 -4.31965,0.17737 -3.77094,-0.25614 -7.08484,-0.24176 -10.75236,0.0466 -3.98204,0.31315 -7.41977,0.34748 -8.4038,0.0839 -0.3196,-0.0856 -0.77547,-0.0994 -1.01305,-0.0307 -0.60066,0.17365 -3.75891,0.18103 -4.49244,0.0105 -0.34987,-0.0813 -1.95196,-0.0388 -3.8013,0.10098 -3.26405,0.24668 -4.70082,0.21724 -14.42764,-0.2956 -1.80562,-0.0952 -4.72138,-0.20598 -6.47948,-0.24617 -1.7581,-0.0402 -4.09072,-0.15581 -5.18359,-0.25692 -3.78964,-0.35062 -9.76997,-0.41516 -15.72354,-0.16966 -7.19939,0.29686 -18.260061,0.23749 -25.140391,-0.13494 -11.04004,-0.5976 -30.13075,-0.17439 -33.04879,0.73265 -0.44951,0.13972 -1.78922,0.32327 -2.977125,0.40789 -1.187905,0.0846 -2.276458,0.19611 -2.419006,0.24778 -0.142549,0.0517 -1.580994,0.12991 -3.196545,0.17385 -1.710721,0.0465 -3.442453,0.19167 -4.146868,0.34752 -0.665227,0.14719 -2.080205,0.32004 -3.144397,0.38411 l -1.934894,0.1165 -0.05215,0.62312 -0.05215,0.62313 -0.306813,-0.56156 z m -0.420483,-4.87627 c 2.070831,-0.0975 4.403444,-0.25776 5.183586,-0.35622 0.780141,-0.0985 2.678958,-0.24764 4.219592,-0.33153 1.540634,-0.0839 2.890483,-0.20774 2.999663,-0.27522 0.10918,-0.0675 1.453412,-0.22195 2.987183,-0.34327 1.533769,-0.12133 3.410709,-0.34422 4.170969,-0.49533 0.76025,-0.1511 2.78185,-0.39866 4.49244,-0.55013 1.71058,-0.15148 3.25834,-0.33149 3.43947,-0.40004 0.28931,-0.10948 0.25412,-0.169 -0.28966,-0.48983 -0.91844,-0.5419 -1.22301,-1.0998 -1.08519,-1.98785 0.0629,-0.40515 0.13139,-1.03224 0.15224,-1.39353 0.0426,-0.73866 0.30503,-0.97807 1.07624,-0.98193 0.77304,-0.004 1.04097,0.29825 1.37671,1.55243 0.50818,1.89833 0.5221,2.50585 0.0648,2.82617 -0.77991,0.54627 -0.12921,0.65716 3.47275,0.59179 3.41206,-0.0619 6.57998,-0.01 12.527,0.20617 3.04103,0.11042 7.20228,0.26134 9.2472,0.33537 2.04493,0.074 8.10972,0.0924 13.47732,0.0409 5.367611,-0.0515 12.402911,-0.0971 15.634011,-0.1013 5.9275,-0.008 19.12652,0.44671 22.253,0.76609 2.43914,0.24917 26.76681,0.21571 29.49646,-0.0406 1.18978,-0.11171 5.26398,-0.20984 9.07127,-0.21849 4.54715,-0.0103 7.14787,-0.0822 7.6026,-0.21006 1.12409,-0.31611 4.30619,-0.62292 5.48186,-0.52855 0.66701,0.0535 1.42506,0.25474 1.95131,0.5179 0.47331,0.23669 1.08498,0.48448 1.35927,0.55065 0.56607,0.13657 0.56401,0.40986 0.0194,-2.57627 -0.13868,-0.76026 -0.25408,-1.69331 -0.25648,-2.07344 -0.009,-1.40727 -0.81853,-3.02376 -1.51449,-3.02376 -0.14951,0 -0.61591,-0.20164 -1.03644,-0.44808 -0.91091,-0.53383 -2.43463,-0.70602 -5.83164,-0.65902 -1.23542,0.0171 -2.3802,-0.0395 -2.54395,-0.12565 -0.47252,-0.24873 -1.95258,-0.48801 -4.19357,-0.67796 -3.11735,-0.26424 -6.24513,-0.83634 -8.29488,-1.51721 -1.0788,-0.35835 -7.17028,-0.40071 -8.29373,-0.0577 -1.16011,0.35424 -5.92904,0.61171 -11.83586,0.63902 -6.27282,0.029 -10.53151,0.31793 -16.76025,1.1371 -1.80689,0.23763 -4.13173,0.22663 -6.91145,-0.0327 -4.93259,-0.46019 -5.82719,-0.51973 -6.3067,-0.41975 -0.28509,0.0594 -1.56803,0.14097 -2.85097,0.18117 -4.02515,0.12612 -13.4752,0.5953 -15.57793,0.77342 -2.735201,0.2317 -10.497531,0.20596 -13.882111,-0.046 -3.27768,-0.24404 -7.30834,-0.27901 -9.58964,-0.0832 -1.85864,0.15951 -7.67457,0.40607 -13.56371,0.57501 -3.16966,0.0909 -15.377805,0.246 -16.501079,0.20961 -1.368332,-0.0443 -3.007987,0.0838 -3.951674,0.30891 -2.056354,0.49042 -4.551694,0.75033 -7.279428,0.75822 -3.991678,0.0115 -6.55121,0.62463 -8.030659,1.92361 l -0.651678,0.57218 0.125005,3.03016 c 0.06875,1.66659 0.165395,3.09596 0.214761,3.17637 0.04937,0.0804 0.333249,0.10195 0.630851,0.0479 0.297602,-0.0541 2.235409,-0.17807 4.306239,-0.27553 z m 2.026744,-1.92563 c -0.652947,-0.26052 -1.040269,-0.68119 -1.040269,-1.12984 0,-0.22285 -0.07775,-0.40519 -0.172786,-0.40519 -0.09503,0 -0.172787,-0.23169 -0.172787,-0.51486 0,-0.43985 0.132159,-0.59066 0.907128,-1.0351 1.222367,-0.70102 1.836632,-0.68268 2.620155,0.0782 0.848513,0.82402 0.81321,1.27954 -0.181596,2.34307 -0.820733,0.87742 -1.147121,0.98795 -1.959845,0.66369 z m 6.429847,-1.44371 c -1.045054,-0.48654 -1.227395,-0.78642 -0.838795,-1.37949 0.410617,-0.62669 0.169359,-1.0625 -0.537849,-0.97158 -0.377576,0.0485 -0.03284,-0.48512 0.532743,-0.82471 0.943428,-0.56645 1.409251,-0.59367 1.977456,-0.11555 0.280045,0.23564 0.604859,0.68271 0.721808,0.99349 0.11695,0.31078 0.287803,0.72528 0.379675,0.92111 0.11944,0.2546 0.08451,0.56232 -0.122592,1.07991 -0.351112,0.87752 -0.745968,0.933 -2.112446,0.29682 z m 98.337073,-0.078 c -0.71087,-0.43346 -0.76476,-0.54417 -0.50301,-1.03327 0.16099,-0.30081 0.17209,-0.53743 0.0414,-0.88359 -0.12986,-0.34405 -0.11847,-0.61755 0.0418,-1.00455 0.44436,-1.07279 2.43415,-0.86932 3.33601,0.34112 0.94359,1.26646 0.7131,1.97906 -0.82645,2.55508 -1.17604,0.44001 -1.40501,0.44277 -2.0898,0.0252 z m -6.38807,-0.1827 c -0.59111,-0.23883 -1.14337,-1.04344 -0.90957,-1.32516 0.1152,-0.13881 0.15971,-0.55801 0.10798,-1.01699 -0.0739,-0.65599 -0.0299,-0.82153 0.27531,-1.03532 0.19982,-0.13997 0.49204,-0.25448 0.64937,-0.25448 0.15733,0 0.39754,-0.16791 0.5338,-0.37313 l 0.24774,-0.37312 1.00686,0.46096 1.00686,0.46095 -0.0959,0.92944 c -0.12132,1.17551 -0.50852,1.92794 -1.21321,2.35761 -0.59093,0.36032 -1.02367,0.40583 -1.60921,0.16924 z m -50.395691,-0.19185 c -0.93984,-0.22135 -1.68016,-0.81909 -1.67937,-1.35597 8.6e-4,-0.6167 0.58131,-1.50429 1.25047,-1.91228 0.72561,-0.44241 1.85282,-0.44298 2.71843,-0.001 1.42183,0.72536 1.62655,1.83564 0.5224,2.83318 -0.74459,0.67269 -1.38607,0.77225 -2.81193,0.43644 z m -18.58957,-0.28511 -0.92682,-0.27285 0.10696,-0.78038 c 0.0863,-0.62992 0.25728,-0.92441 0.88666,-1.52746 0.70308,-0.67367 0.8631,-0.74709 1.62826,-0.74709 1.00611,0 1.25962,0.20737 1.55849,1.27484 0.28592,1.0212 0.12645,1.59409 -0.5603,2.01281 -0.65885,0.40172 -1.42616,0.41315 -2.69325,0.0401 z m 48.388761,-0.21422 c -0.58566,-0.42425 -1.24162,-1.28009 -1.24162,-1.61995 0,-0.24074 1.31096,-1.59155 1.79788,-1.85252 0.54822,-0.29383 0.59267,-0.2937 1.07169,0.003 1.33219,0.82567 1.77242,2.10883 1.01419,2.9561 -0.26323,0.29414 -1.60903,1.02813 -1.88512,1.02813 -0.0254,0 -0.36604,-0.23173 -0.75702,-0.51495 z m 59.56591,-0.0505 c -0.32047,-0.21597 -0.69945,-0.60072 -0.84218,-0.85502 -0.24089,-0.42918 -0.23085,-0.50112 0.14003,-1.00277 0.38854,-0.52552 0.39083,-0.55005 0.0832,-0.88996 -0.30906,-0.34151 -0.30443,-0.35911 0.20109,-0.76477 0.63188,-0.50705 1.83358,-0.98671 2.26968,-0.90593 0.17665,0.0327 0.49613,0.40641 0.70996,0.83044 1.20675,2.39307 -0.59349,4.91445 -2.5618,3.58801 z M 87.151069,185.0966 c -0.49082,-0.19776 -0.74563,-0.69208 -0.74563,-1.44648 0,-0.82543 0.52078,-1.35444 1.96528,-1.99635 l 1.18775,-0.52782 0.67866,0.67867 c 0.65239,0.65238 0.67665,0.71735 0.62651,1.67763 -0.048,0.9186 -0.0994,1.03073 -0.63926,1.39366 -0.45869,0.30835 -0.81773,0.39229 -1.64147,0.38373 -0.5799,-0.006 -1.22423,-0.0794 -1.43184,-0.16304 z m 17.997341,-0.70039 c -0.73623,-0.2142 -1.5738,-1.16043 -1.71061,-1.93253 -0.10886,-0.61438 -0.0834,-0.66198 0.50315,-0.9417 0.34804,-0.16597 0.65974,-0.4617 0.71385,-0.67727 0.12892,-0.51367 0.93984,-0.84078 1.56649,-0.6319 0.3772,0.12573 0.55669,0.37006 0.82951,1.12919 0.19149,0.53281 0.40647,1.02564 0.47775,1.09518 0.2095,0.20439 0.14911,0.91218 -0.12267,1.43774 -0.35082,0.6784 -1.11273,0.85434 -2.25747,0.52129 z m 58.80949,-0.44671 c -0.44334,-0.24682 -0.85049,-0.61425 -0.90477,-0.81653 -0.12796,-0.47682 -0.12666,-1.64581 0.002,-2.12689 0.10274,-0.38309 1.14378,-0.91907 1.7851,-0.91907 0.42019,0 1.33118,0.76338 1.65249,1.38472 0.32982,0.6378 0.58926,1.82894 0.4851,2.22723 -0.20779,0.79462 -1.80501,0.92711 -3.02029,0.25054 z M 44.072822,175.2346 c 1.092873,-0.19692 2.47234,-0.42664 3.065484,-0.5105 0.593144,-0.0839 1.227523,-0.23225 1.409733,-0.32977 0.18221,-0.0975 1.5871,-0.25702 3.12198,-0.35445 1.81533,-0.11523 3.01353,-0.27327 3.42828,-0.45219 1.13702,-0.49048 2.5064,-0.74521 4.03992,-0.7515 0.82592,-0.003 1.53958,-0.0675 1.5859,-0.14242 0.11668,-0.18879 14.40233,-0.1259 16.03844,0.0706 0.73098,0.0878 2.36381,0.11103 3.62851,0.0516 1.26471,-0.0594 2.38739,-0.0398 2.49485,0.0435 0.35513,0.27531 4.71612,-0.33612 5.67934,-0.79627 0.81158,-0.3877 1.43709,-0.53861 3.97408,-0.95878 0.5702,-0.0944 2.78618,-0.15854 4.92441,-0.14245 l 3.887691,0.0292 -0.026,-0.93805 c -0.0143,-0.51592 -0.0799,-1.18046 -0.14585,-1.47675 -0.14418,-0.64827 0.23836,-1.48689 0.86578,-1.898 0.28549,-0.18706 1.08142,-0.32893 2.39575,-0.42702 1.09828,-0.082 2.41603,-0.29594 2.9814,-0.48411 1.55816,-0.5186 2.16986,-0.57173 3.27333,-0.28431 0.55495,0.14455 1.73519,0.26281 2.62275,0.26281 1.10165,0 1.77395,0.0829 2.11857,0.26106 0.63738,0.3296 1.37866,1.40603 1.37866,2.00197 0,0.25022 0.16113,0.65978 0.35805,0.91013 0.21491,0.27322 0.39633,0.8261 0.45381,1.38299 l 0.0958,0.92779 0.88528,0.1904 c 2.4117,0.51867 3.33382,0.59189 5.71708,0.45397 3.40069,-0.1968 6.17588,-0.16809 8.9911,0.093 1.33046,0.1234 3.07992,0.23897 3.88769,0.25682 0.80778,0.0179 1.50756,0.0466 1.55508,0.0638 0.0475,0.0172 1.69172,0.0649 3.65378,0.10587 1.96206,0.041 4.56682,0.16138 5.78834,0.26757 1.6459,0.14308 2.66832,0.14236 3.94881,-0.003 2.90695,-0.3295 5.17116,-0.7155 5.42599,-0.92502 0.21513,-0.17687 2.51649,-0.21136 7.70576,-0.11547 3.06308,0.0566 11.14135,-0.15583 11.41463,-0.30016 0.41358,-0.21842 5.38343,0.0207 6.35503,0.30576 0.36509,0.10712 0.94825,0.14698 1.29589,0.0886 0.34763,-0.0584 1.40961,0.004 2.35993,0.13964 1.68793,0.24014 2.89766,0.2294 5.70195,-0.0506 0.80364,-0.0802 1.50987,-0.0715 1.68708,0.0208 0.16764,0.0874 0.56992,0.10911 0.89396,0.0483 l 0.58915,-0.11053 0.0934,-1.23594 c 0.21483,-2.84151 0.25676,-19.45198 0.0576,-22.82397 -0.11259,-1.90628 -0.19658,-4.01024 -0.18668,-4.67547 0.01,-0.66523 0.0403,-2.53132 0.0675,-4.14687 0.0367,-2.18064 -0.0244,-3.33268 -0.23722,-4.47187 -0.15765,-0.84399 -0.28665,-2.08278 -0.28665,-2.75288 0,-1.20648 -0.11946,-2.42965 -0.62529,-6.40262 -0.40546,-3.18456 -0.79935,-7.94941 -0.83029,-10.04433 -0.0154,-1.04536 -0.1199,-2.67819 -0.23212,-3.62851 -0.11221,-0.95033 -0.20603,-3.02388 -0.20849,-4.6079 -0.002,-1.58402 -0.0516,-3.00303 -0.10934,-3.15335 -0.0577,-0.15032 -0.28145,-0.27331 -0.49728,-0.27331 -0.21582,0 -0.49907,-0.15692 -0.62946,-0.34872 -0.22225,-0.32693 -0.32343,-0.33799 -1.61935,-0.17696 -2.14236,0.26622 -4.53548,0.26893 -8.20734,0.009 -4.75266,-0.33605 -15.47761,-0.37357 -16.11387,-0.0564 -0.37207,0.18549 -0.55925,0.1935 -0.85264,0.0365 -0.24359,-0.13036 -1.44432,-0.20345 -3.41097,-0.20761 -3.13704,-0.007 -3.34696,0.006 -7.73881,0.47091 -1.73556,0.18367 -4.05725,0.27262 -6.82505,0.26148 -2.3071,-0.009 -5.28328,0.066 -6.61374,0.16725 -4.29508,0.32692 -9.69943,0.41301 -11.66306,0.1858 -1.02327,-0.1184 -5.80688,-0.26502 -10.97193,-0.33629 -5.85486,-0.0808 -9.37577,-0.19526 -9.76241,-0.3174 -0.33262,-0.10507 -1.22679,-0.2633 -1.98704,-0.35162 -0.76026,-0.0883 -1.92657,-0.32589 -2.5918,-0.52794 -1.3894,-0.42201 -6.005761,-1.02142 -8.293731,-1.07691 -0.93282,-0.0226 -2.52303,0.11313 -3.97408,0.33924 -2.00661,0.31267 -3.42056,0.39187 -8.29374,0.46456 -3.2311,0.0482 -6.80778,0.16155 -7.94816,0.25189 -4.25515,0.3371 -5.26347,0.38781 -9.15092,0.46015 -2.18946,0.0407 -4.29185,0.0989 -4.67198,0.12929 -0.38013,0.0304 -1.46868,0.11112 -2.41901,0.17944 -0.95032,0.0683 -2.38876,0.2348 -3.19654,0.36996 -0.80778,0.13516 -1.85342,0.246 -2.32365,0.2463 -1.5346,10e-4 -4.61822,0.44602 -7.352375,1.0611 -1.752727,0.39429 -2.045774,0.4073 -8.641024,0.38365 -5.743947,-0.0206 -7.319814,-0.0824 -9.935206,-0.38978 -1.709639,-0.20091 -3.402819,-0.39669 -3.762624,-0.43507 -0.526535,-0.0562 -0.7008,0.003 -0.893056,0.30338 -0.443449,0.69278 -1.091917,11.37791 -0.718942,11.84637 0.290465,0.36482 0.342253,5.91763 0.08407,9.01484 -0.122196,1.46592 -0.227689,3.86475 -0.234429,5.33073 -0.0089,1.94404 -0.06968,2.68455 -0.224419,2.73614 -0.116691,0.0389 -0.16223,0.15151 -0.101199,0.25026 0.104503,0.16909 0.21664,1.8153 0.586025,8.60304 0.364876,6.70489 0.364456,9.12024 -0.0031,17.79697 -0.006,0.14255 0.05388,1.30886 0.133162,2.59179 0.08754,1.4167 0.08029,2.50223 -0.01848,2.76458 -0.250326,0.66496 -0.206027,5.78687 0.06166,7.12976 0.252778,1.26807 0.398765,1.45534 1.509205,1.93601 0.711886,0.30814 0.769379,0.30835 1.767445,0.006 0.976254,-0.29559 1.136147,-0.29736 2.979081,-0.0329 1.071103,0.15366 2.297351,0.35648 2.724997,0.4507 0.427646,0.0942 1.943844,0.18382 3.36933,0.19912 1.425486,0.0153 3.369331,0.0836 4.319655,0.15183 2.814531,0.202 3.023075,0.19468 5.097192,-0.17904 z m 22.508647,-4.86564 c -0.51674,-0.53656 -0.84101,-1.43273 -0.95024,-2.62613 -0.0382,-0.41782 -0.15095,-0.53525 -0.63272,-0.65927 -0.59914,-0.15423 -2.17869,0.11102 -2.35443,0.39537 -0.0487,0.0788 -0.50928,0.1959 -1.02346,0.26014 -1.16733,0.14585 -3.0912,-0.42531 -3.41695,-1.01442 -0.24694,-0.44658 -0.42377,-2.50561 -0.65537,-7.63111 -0.20059,-4.43923 -0.40314,-6.60801 -0.63917,-6.84404 -0.28495,-0.28495 -8.647011,-0.32308 -9.445504,-0.0431 -0.36832,0.12916 -1.037813,0.23484 -1.487764,0.23484 -0.449949,0 -1.178833,0.0494 -1.619744,0.10988 -0.704729,0.0966 -0.801653,0.16087 -0.801653,0.53165 0,0.23578 -0.222715,0.64448 -0.505068,0.92683 -0.421661,0.42166 -0.645766,0.50507 -1.357058,0.50507 -0.66924,0 -0.951941,-0.0926 -1.31795,-0.43183 -0.546753,-0.50672 -0.966793,-1.4286 -0.966793,-2.12187 0,-0.27025 -0.158617,-1.09695 -0.352482,-1.8371 -0.193866,-0.74016 -0.420661,-1.88873 -0.503993,-2.55238 -0.08333,-0.66365 -0.188447,-1.24357 -0.233593,-1.28872 -0.04514,-0.0451 -0.382065,0.0459 -0.748707,0.20226 -1.428276,0.60922 -1.387312,0.60576 -1.870412,0.15804 -0.319958,-0.29653 -0.654529,-0.42213 -1.124437,-0.42213 -0.510032,0 -0.789766,-0.12082 -1.177505,-0.50856 -1.085278,-1.08528 -1.357239,-3.54267 -0.48824,-4.41167 0.510811,-0.51081 2.4337,-0.92204 2.912688,-0.62291 0.251732,0.15721 0.395957,0.16367 0.535646,0.024 0.242384,-0.24239 0.209625,-2.98309 -0.05382,-4.50244 -0.528423,-3.0476 -0.535359,-3.17015 -0.205349,-3.62851 0.171053,-0.23758 0.574075,-0.56602 0.895604,-0.72987 0.321529,-0.16385 0.864989,-0.60464 1.207687,-0.97955 0.411356,-0.45002 0.825034,-0.71593 1.217374,-0.78254 0.676142,-0.11478 11.197633,-0.23803 11.303253,-0.1324 0.12119,0.12119 3.9658,0.0871 4.36209,-0.0387 0.53971,-0.1713 0.68802,-1.11471 0.32477,-2.06587 -0.41212,-1.07913 -0.77874,-3.32584 -0.97644,-5.98384 -0.27956,-3.75858 -0.67431,-7.10043 -0.94733,-8.01979 -0.29953,-1.00861 -0.33338,-2.84785 -0.0633,-3.44054 0.10482,-0.23005 0.50222,-0.59343 0.88312,-0.80751 0.80763,-0.45391 1.7427,-0.42301 4.78759,0.15824 0.99045,0.18907 1.87387,0.29861 1.96316,0.24342 0.0902,-0.0557 0.11379,-0.46646 0.0531,-0.92381 -0.10001,-0.75393 -0.0684,-0.85785 0.37403,-1.23056 0.26579,-0.2239 0.6992,-0.7937 0.96314,-1.26623 0.69004,-1.23538 1.52268,-2.28538 1.98129,-2.49852 0.2183,-0.10145 0.81398,-0.18446 1.32374,-0.18446 0.83259,0 0.97464,0.0568 1.39699,0.55876 0.46372,0.5511 0.46862,0.58265 0.35741,2.30286 -0.062,0.95926 -0.18182,1.98491 -0.26623,2.27921 -0.0844,0.29431 -0.10873,0.57983 -0.0541,0.6345 0.0547,0.0547 0.72791,0.0982 1.49609,0.0967 1.52708,-0.003 4.27353,-0.51424 5.12355,-0.95381 0.4947,-0.25581 0.58457,-0.25527 1.13703,0.007 0.76449,0.36278 1.20536,1.09104 1.34308,2.21866 0.0598,0.48993 0.14343,3.22341 0.18575,6.07438 0.0423,2.85097 0.16621,5.84449 0.27531,6.65227 0.1091,0.80777 0.22684,2.35786 0.26164,3.44463 0.0348,1.08677 0.12268,2.0337 0.19531,2.10428 0.0726,0.0706 0.98733,0.0552 2.03269,-0.0342 1.04535,-0.0894 2.44492,-0.11565 3.11015,-0.0583 0.68637,0.0592 1.80736,0.0103 2.59179,-0.11298 0.76026,-0.11948 1.65443,-0.2349 1.98704,-0.2565 0.33261,-0.0216 0.73985,-0.0944 0.90497,-0.16173 0.16511,-0.0674 0.54417,-0.0374 0.84234,0.0665 0.42165,0.14699 0.74818,0.12909 1.46932,-0.0805 1.0679,-0.31045 3.81491,-0.38713 5.31833,-0.14846 0.81382,0.1292 1.09188,0.25979 1.38229,0.6492 0.33411,0.44801 0.36682,0.741 0.4042,3.62022 0.0459,3.53765 0.0738,3.6101 1.25391,3.25653 0.87364,-0.26174 1.21082,-0.24348 1.21082,0.0656 0,0.14255 0.0763,0.25918 0.16955,0.25918 0.0933,0 0.709511,0.50939 1.369481,1.13196 1.18674,1.11951 1.20124,1.14408 1.31788,2.23321 0.22104,2.06406 -0.48831,3.17327 -2.13023,3.33103 -0.757291,0.0728 -0.963911,0.0119 -1.822151,-0.53715 l -0.96801,-0.61923 0.10424,1.67934 c 0.0573,0.92363 0.21329,1.94795 0.34656,2.27625 0.27978,0.68923 0.18095,1.35856 -0.33944,2.29879 -0.43807,0.79151 -0.88943,1.10311 -1.93836,1.33818 -0.74061,0.16597 -0.84197,0.14632 -1.32009,-0.256 -0.59807,-0.50324 -0.94773,-0.54544 -1.368,-0.16511 -0.19822,0.17939 -0.90202,0.32718 -2.08703,0.43826 -0.98338,0.0922 -2.52663,0.28204 -3.42944,0.4219 -0.9028,0.13986 -3.14994,0.39063 -4.99364,0.55726 -4.25467,0.38454 -4.07848,0.23543 -3.82925,3.24076 0.0944,1.13795 0.25613,3.68252 0.35946,5.65459 0.10333,1.97208 0.27199,3.82689 0.37479,4.12181 0.10922,0.3133 0.14907,1.14299 0.0959,1.99585 -0.0969,1.55398 -0.28529,1.93692 -1.18023,2.39972 -0.52599,0.27199 -3.43412,0.23121 -4.15093,-0.0582 -0.24826,-0.10024 -1.06467,-0.20769 -1.81426,-0.23878 l -1.36288,-0.0565 v 0.98948 c 0,0.90348 -0.0526,1.04068 -0.60475,1.57839 -0.55763,0.54302 -0.71308,0.59727 -1.99525,0.69631 l -1.3905,0.1074 z m -1.50202,-7.32019 c 1.85646,-0.23092 2.79808,-0.25211 5.28078,-0.11881 1.66181,0.0892 3.30818,0.12875 3.65861,0.0878 l 0.63714,-0.0744 0.0332,-1.57937 c 0.0182,-0.86865 0.0187,-1.77375 0.001,-2.01134 -0.27875,-3.74927 -0.38077,-9.63337 -0.18073,-10.4245 0.14601,-0.57749 0.28365,-0.71349 1.07727,-1.06447 0.50042,-0.22131 1.03417,-0.5921 1.18609,-0.82397 0.54644,-0.83396 1.23789,-0.99287 5.09424,-1.17076 3.95312,-0.18235 5.2778,-0.32819 6.95733,-0.76596 0.61771,-0.161 1.8229,-0.34467 2.67819,-0.40814 l 1.55507,-0.11541 0.15278,-1.01755 c 0.10847,-0.72247 0.0834,-1.37386 -0.0864,-2.24622 -0.23753,-1.22026 -0.31827,-4.78459 -0.15278,-6.74392 0.0857,-1.01494 0.0824,-1.024 -0.43196,-1.17715 -0.82488,-0.2456 -6.73251,0.0122 -7.67114,0.33478 -0.61443,0.21115 -1.43027,0.26655 -3.58605,0.24348 -2.07484,-0.0222 -2.98045,0.0355 -3.53051,0.22504 -0.40691,0.14019 -0.82282,0.2008 -0.92424,0.13468 -0.10141,-0.0661 -0.47386,-0.12506 -0.82767,-0.13098 -0.41413,-0.007 -0.78342,-0.14482 -1.03671,-0.38709 -0.21639,-0.20699 -0.60727,-0.56796 -0.86861,-0.80217 -0.26133,-0.23421 -0.47564,-0.60432 -0.47622,-0.82246 -5.2e-4,-0.21814 -0.10871,-0.60293 -0.24027,-0.85508 -0.69331,-1.3288 -0.96994,-2.86705 -1.14495,-6.36659 -0.0784,-1.56804 -0.23307,-3.70627 -0.34368,-4.75162 -0.11061,-1.04536 -0.22042,-2.73265 -0.24402,-3.74953 -0.0567,-2.44201 -0.0796,-2.46831 -1.99624,-2.29515 -0.8099,0.0732 -3.49414,0.14432 -5.96498,0.15811 -2.47084,0.0138 -4.75725,0.0893 -5.0809,0.16769 l -0.58845,0.1426 0.11752,4.32548 c 0.12957,4.76865 0.28979,6.31555 0.7474,7.21628 0.24065,0.47368 0.31867,1.15168 0.36964,3.21258 l 0.0646,2.61219 -0.49761,0.55692 c -0.435,0.48685 -0.6492,0.57443 -1.7026,0.69614 -0.66275,0.0766 -1.63264,0.33053 -2.15532,0.56436 -1.6849,0.75375 -2.35664,0.81928 -7.688982,0.75011 -5.450542,-0.0707 -6.592159,0.0159 -6.892261,0.52301 -0.569832,0.96288 -0.465531,1.86681 0.24394,2.11413 0.547849,0.19098 0.513974,0.0142 0.848965,4.43056 0.212139,2.79671 0.593721,4.98834 1.056476,6.06791 0.302282,0.70519 0.369434,0.7569 0.97864,0.75355 0.359749,-0.002 1.135908,-0.10459 1.7248,-0.22801 0.633455,-0.13276 1.179473,-0.16353 1.337042,-0.0753 0.150717,0.0844 1.973606,0.0678 4.19927,-0.038 2.16311,-0.1029 4.51609,-0.13955 5.22883,-0.0814 1.05712,0.0862 1.48394,0.0397 2.31647,-0.25232 0.56131,-0.19688 1.16232,-0.35796 1.33558,-0.35796 0.48506,0 0.99247,1.19326 1.26827,2.98254 0.13532,0.87796 0.32128,2.02394 0.41323,2.54662 0.092,0.52267 0.21407,2.38877 0.27139,4.14686 0.14557,4.46508 0.43012,6.21765 1.01021,6.22181 0.11545,8.7e-4 1.2266,-0.12496 2.46923,-0.27953 z m 2.31951,-3.13477 c -1.20072,-0.59983 -1.74584,-2.61962 -0.94565,-3.50382 0.36698,-0.40551 1.93362,-0.74319 2.74327,-0.5913 0.33577,0.063 0.78035,0.26184 0.98795,0.44189 0.2076,0.18005 0.44331,0.32737 0.5238,0.32737 0.46312,0 -0.4137,2.43901 -1.19573,3.32613 -0.34543,0.39185 -1.32896,0.39173 -2.11364,-3.5e-4 z m -0.66283,-6.55513 c -0.83714,-0.41249 -1.12224,-0.93161 -0.97859,-1.78185 0.13916,-0.82369 0.73289,-1.59558 1.45848,-1.89613 0.4524,-0.18739 0.59126,-0.16639 1.1392,0.17226 0.72265,0.44662 1.0047,1.04434 0.84817,1.7974 -0.15499,0.74562 -0.52295,1.27024 -1.16587,1.66225 -0.65914,0.4019 -0.58459,0.39927 -1.30139,0.0461 z m -2.7027,-8.52389 c -0.72052,-0.46625 -1.99085,-1.84313 -1.99085,-2.15783 0,-0.14419 -0.0885,-0.40387 -0.19665,-0.57706 -0.21866,-0.35014 -0.065,-1.8513 0.20664,-2.0192 0.0895,-0.0553 0.1628,-0.40325 0.1628,-0.77314 0,-0.81053 0.41322,-2.46902 0.72509,-2.91021 0.12388,-0.17524 0.62813,-0.7585 1.12056,-1.29613 l 0.89533,-0.97751 1.71006,0.23901 c 0.94052,0.13146 2.08314,0.40406 2.53916,0.60577 0.45601,0.20172 0.92663,0.36676 1.04581,0.36676 0.11919,0 0.41777,0.2636 0.66352,0.58579 0.24574,0.32219 0.69183,0.83082 0.9913,1.13029 0.74629,0.74629 0.88068,2.19526 0.34915,3.76443 -0.20017,0.59095 -0.36395,1.34011 -0.36395,1.66479 0,0.4515 -0.11175,0.66533 -0.47517,0.90923 -0.99555,0.66816 -2.75685,1.21027 -4.65836,1.43379 -0.83531,0.0982 -1.67425,0.21581 -1.86431,0.26137 -0.19007,0.0456 -0.57713,-0.067 -0.86013,-0.25015 z m 3.32708,-4.58493 c 0.47568,-0.33318 0.48772,-0.85472 0.0368,-1.59428 -0.43025,-0.70569 -0.78466,-0.85236 -1.18471,-0.49032 -0.17025,0.15408 -0.40062,0.28014 -0.51193,0.28014 -0.24678,0 -0.26786,1.01476 -0.0339,1.63022 0.13393,0.35226 0.2856,0.44321 0.73909,0.44321 0.31383,0 0.7434,-0.12104 0.9546,-0.26897 z m -13.90863,2.75885 c -0.83924,-0.5625 -0.89478,-0.64615 -1.00274,-1.51027 -0.20584,-1.64743 0.65561,-2.86676 1.86503,-2.63987 0.77395,0.14519 1.7861,1.01834 2.02717,1.74876 0.3704,1.12234 -0.0629,1.80898 -1.82159,2.88689 -0.0987,0.0605 -0.57922,-0.158 -1.06787,-0.48551 z m -8.334855,-0.38238 c -0.652967,-0.65296 -0.718317,-1.69557 -0.164585,-2.62586 0.526857,-0.88513 0.805458,-1.03671 1.905446,-1.03671 0.854503,0 1.038548,0.0602 1.334937,0.43705 0.483757,0.61499 0.623317,1.63498 0.321377,2.34879 -0.38084,0.90033 -0.871255,1.23671 -1.93117,1.32461 -0.866402,0.0719 -0.981419,0.0367 -1.466005,-0.44788 z m 34.042005,-0.50923 c -0.45153,-0.36579 -0.6921,-1.31707 -0.69764,-2.75856 -0.004,-0.95052 0.0556,-1.14192 0.51569,-1.66593 0.64115,-0.73024 1.49273,-0.88356 2.5092,-0.45177 0.80566,0.34223 1.12123,0.8956 1.11033,1.94703 -0.0133,1.28184 -0.27577,2.19738 -0.78129,2.72502 -0.41497,0.43314 -0.61566,0.50659 -1.38419,0.50659 -0.59868,0 -1.02351,-0.10098 -1.2721,-0.30238 z m 8.87644,-0.62478 c -0.37768,-0.17034 -0.6158,-0.46414 -0.82931,-1.02322 -0.26535,-0.6948 -0.27165,-0.85095 -0.0553,-1.36885 0.27215,-0.65135 1.20439,-1.51878 1.63224,-1.51878 0.66121,0 1.80969,0.74595 2.05597,1.33538 0.65704,1.5725 -1.21488,3.29207 -2.80365,2.57547 z M 64.634379,130.5456 c -0.23758,-0.0427 -0.65286,-0.28477 -0.92284,-0.53803 -0.4421,-0.41472 -0.48371,-0.54932 -0.41882,-1.35475 0.0945,-1.1733 1.04343,-3.13504 1.56814,-3.24198 1.43951,-0.29338 1.59033,-0.27855 2.18089,0.21447 l 0.58191,0.48581 -0.20126,1.35318 c -0.40495,2.72269 -1.0171,3.39924 -2.78802,3.0813 z m -0.34557,-7.77538 c -0.50633,-0.0909 -1.31046,-0.80195 -1.6569,-1.46508 -0.58853,-1.12654 -0.0177,-2.98298 1.07826,-3.50656 0.65927,-0.31497 1.72045,-0.33299 2.30127,-0.0391 0.46262,0.23409 0.7297,0.68739 1.04319,1.77058 0.17987,0.62149 0.15491,0.80073 -0.23405,1.68022 -0.29543,0.66802 -0.61962,1.09684 -1.00843,1.33389 -0.57347,0.34963 -0.71661,0.37087 -1.52334,0.22604 z m 60.734341,35.18152 c -0.2851,-0.0984 -1.62239,-0.16999 -2.97175,-0.15912 -2.44569,0.0197 -2.45429,0.0184 -2.74076,-0.41881 -0.81507,-1.24397 0.88469,-3.19858 2.78601,-3.20372 0.45287,-10e-4 1.36156,-0.93459 1.23386,-1.26737 -0.0528,-0.13768 -0.47114,-0.38413 -0.92957,-0.54767 -2.00681,-0.71591 -2.6396,-1.06683 -4.19471,-2.3262 -1.41224,-1.14367 -1.75944,-1.53253 -2.41211,-2.70152 l -0.76241,-1.36554 -0.0645,-3.19655 c -0.0543,-2.69269 -0.012,-3.42804 0.26803,-4.66522 1.06328,-4.69688 1.85469,-6.72494 2.9685,-7.6071 0.36666,-0.2904 0.71927,-0.69977 0.78357,-0.9097 0.0643,-0.20993 0.34205,-0.73295 0.61723,-1.16227 0.45554,-0.71072 0.60443,-0.80862 1.66355,-1.09393 0.63977,-0.17235 1.33807,-0.38309 1.55177,-0.46832 l 0.38854,-0.15496 -0.3447,-0.56536 c -0.46386,-0.76081 -0.43554,-1.23985 0.14581,-2.46601 0.95029,-2.00431 1.95396,-2.77631 3.35221,-2.57844 1.2602,0.17833 1.83466,0.41822 1.95899,0.81806 0.0647,0.20795 0.37975,0.67028 0.70018,1.0274 l 0.58261,0.6493 -0.11188,1.7072 c -0.12926,1.97238 -0.12117,1.98415 1.50592,2.19023 0.51536,0.0653 1.05365,0.21586 1.19619,0.33465 0.14255,0.11879 0.51177,0.34392 0.82049,0.5003 0.76753,0.38878 2.26436,2.24725 3.03874,3.77289 0.35205,0.6936 0.83345,1.48612 1.06978,1.76115 0.23633,0.27504 0.62355,0.91501 0.86049,1.42216 0.23694,0.50715 0.63104,1.34962 0.87577,1.87215 0.41397,0.88389 0.43681,1.06136 0.32808,2.54859 -0.16231,2.21998 -0.33779,2.91633 -1.16256,4.61306 -1.14332,2.35211 -2.06054,3.64463 -3.13292,4.4149 -0.52893,0.37991 -1.09471,0.93776 -1.2573,1.23967 -0.16259,0.30191 -0.45604,0.63336 -0.65211,0.73657 -0.19607,0.10321 -0.58975,0.34151 -0.87485,0.52955 -0.2851,0.18805 -0.71274,0.42885 -0.95032,0.53512 -0.23758,0.10627 -0.57065,0.2649 -0.74016,0.35251 -0.3768,0.19475 -3.42094,0.66503 -4.31384,0.66643 -0.35637,5.2e-4 -0.64795,0.0773 -0.64795,0.17051 0,0.20573 0.77901,0.42175 1.00879,0.27974 0.0905,-0.0559 0.20536,0.005 0.25529,0.13492 0.0566,0.14753 0.51461,0.28197 1.2167,0.35716 0.99553,0.10661 1.17432,0.18415 1.54393,0.66955 0.2299,0.30193 0.47208,0.72003 0.53817,0.9291 0.27747,0.87783 -1.00282,2.17859 -2.44004,2.47905 -1.41906,0.29666 -2.01869,0.3309 -2.5548,0.14589 z m 3.36933,-10.18743 c 0.33261,-0.1155 0.7275,-0.31561 0.87753,-0.4447 0.15004,-0.12909 0.48049,-0.23471 0.73435,-0.23471 0.29508,0 0.46155,-0.0935 0.46155,-0.25918 0,-0.14255 0.10966,-0.25918 0.24368,-0.25918 0.38434,0 2.33098,-2.55475 2.96229,-3.88769 0.99505,-2.10092 0.95978,-4.47852 -0.0897,-6.04752 -0.52622,-0.78672 -0.60998,-0.936 -1.30692,-2.32931 -0.84389,-1.68708 -1.8037,-2.80443 -3.00073,-3.49328 -0.8909,-0.51267 -1.09299,-0.55783 -2.52353,-0.5639 -1.75161,-0.007 -2.71102,0.28777 -3.66905,1.12893 -0.34473,0.30267 -0.77132,0.50594 -1.0618,0.50594 -0.67695,0 -0.99308,0.42183 -1.65956,2.21449 -1.3626,3.66504 -1.54601,8.86932 -0.3862,10.95858 0.19726,0.35534 0.50031,0.69103 0.67346,0.74598 0.17315,0.055 0.31481,0.16929 0.31481,0.25407 0,0.47623 1.89545,1.72096 2.62811,1.72586 0.21761,10e-4 0.51228,0.0839 0.65483,0.18331 0.33082,0.23061 3.32438,0.0879 4.14687,-0.19769 z m -3.40315,-3.78197 c -0.66667,-0.40649 -0.88834,-1.26254 -0.5872,-2.26766 0.23333,-0.77879 0.59641,-1.02287 1.52154,-1.02287 0.82236,0 1.33799,0.34767 1.7692,1.19292 0.32351,0.63412 0.32393,0.66581 0.0155,1.17299 -0.35503,0.58379 -1.34617,1.26294 -1.84168,1.26195 -0.17885,-3.4e-4 -0.57366,-0.15215 -0.87736,-0.33733 z m -0.31961,-5.78808 c -0.49955,-0.49955 -0.55619,-1.3283 -0.17692,-2.58852 0.40575,-1.34821 0.93537,-1.69077 2.12214,-1.3726 0.57084,0.15305 1.08639,1.36173 1.08639,2.54699 0,1.3471 -0.46165,1.83824 -1.72786,1.83824 -0.70355,0 -0.96453,-0.0849 -1.30375,-0.42411 z m 32.45188,18.99105 c -1.15914,-0.57408 -1.60169,-1.1352 -1.60169,-2.03078 0,-0.88552 0.68452,-2.08372 1.33249,-2.33241 1.399,-0.53692 2.2696,-0.44586 2.96435,0.31007 0.4069,0.44273 0.58212,0.49945 1.66428,0.53869 0.84723,0.0307 1.36706,-0.0392 1.73552,-0.23337 0.98442,-0.5188 2.57953,-0.79332 5.30559,-0.91307 l 2.72146,-0.11956 0.51828,0.55482 c 1.18568,1.26928 0.24809,3.18109 -1.85271,3.77778 -0.40123,0.11397 -1.33428,0.21344 -2.07343,0.22105 -0.73915,0.008 -2.03417,0.16946 -2.87782,0.35965 -1.13017,0.25479 -1.78962,0.3131 -2.5054,0.22154 -1.28596,-0.16449 -2.50579,-0.17367 -3.56328,-0.0268 -0.73075,0.10148 -1.00324,0.051 -1.76764,-0.3276 z m 4.53222,-6.1309 c -1.60301,-0.17255 -3.01869,-0.57255 -4.49244,-1.26936 -1.57201,-0.74326 -2.15649,-1.25488 -3.18834,-2.79087 -1.22363,-1.82145 -1.47095,-2.94594 -1.32874,-6.04115 0.11042,-2.40343 0.29995,-3.42116 0.97118,-5.21518 0.19214,-0.51355 0.34935,-1.08883 0.34935,-1.2784 0,-0.58726 1.01445,-3.01035 1.70536,-4.07338 0.7304,-1.12379 2.01806,-2.48044 2.35429,-2.48044 0.11973,0 0.31206,-0.1137 0.42739,-0.25267 0.35189,-0.424 2.64929,-1.58456 3.57759,-1.80725 l 0.87491,-0.20989 0.1025,-0.86547 c 0.0564,-0.47601 0.29,-1.27501 0.51916,-1.77556 l 0.41665,-0.91009 1.08824,-0.11374 c 0.88024,-0.092 1.17338,-0.0563 1.53375,0.18699 0.24503,0.1654 0.60034,0.38137 0.78956,0.47995 0.18922,0.0986 0.37325,0.33277 0.40894,0.52045 0.0357,0.18768 0.21133,0.54762 0.3903,0.79987 0.23269,0.32797 0.3254,0.7579 0.3254,1.50897 v 1.05033 l 0.83956,0.42544 c 0.85706,0.4343 3.65288,2.92462 3.65288,3.25373 0,0.1 0.18276,0.42232 0.40613,0.71639 0.92169,1.21342 1.32173,2.21802 1.32173,3.31919 0,0.58267 0.16163,1.67184 0.35918,2.42038 0.19755,0.74854 0.3993,1.52704 0.44834,1.73 0.11336,0.46923 -0.25174,2.85921 -0.47014,3.07762 -0.0905,0.0905 -0.16459,0.30186 -0.16459,0.46965 0,0.16779 -0.26844,0.7937 -0.59653,1.39093 -0.32809,0.59722 -0.78702,1.59126 -1.01983,2.20897 -0.63849,1.69403 -0.83662,2.07343 -1.08283,2.07343 -0.12359,0 -0.36381,0.14063 -0.53382,0.3125 -0.34549,0.34928 -1.71897,1.21488 -2.64172,1.66487 -0.83618,0.40778 -4.41108,1.42411 -5.35637,1.5228 -0.42765,0.0446 -1.32182,0.0226 -1.98704,-0.049 z m 2.83097,-4.93255 c 1.35856,-0.19802 1.76505,-0.33522 2.5069,-0.84616 0.48698,-0.33539 0.96739,-0.60981 1.06758,-0.60981 0.22012,0 0.92717,-0.75715 1.3715,-1.46868 0.61938,-0.99185 0.98247,-2.6946 1.15636,-5.42287 0.15281,-2.39747 0.13932,-2.72806 -0.13746,-3.36933 -0.16878,-0.39107 -0.43641,-0.86655 -0.59473,-1.05661 -0.15832,-0.19007 -0.33761,-0.48616 -0.39842,-0.65798 -0.25841,-0.73013 -1.70848,-2.51803 -2.25108,-2.77551 -1.17112,-0.55573 -2.2467,-0.67453 -3.51507,-0.38824 -0.64494,0.14558 -1.45551,0.30881 -1.80126,0.36275 -0.83432,0.13014 -1.67464,0.7278 -2.06959,1.47193 -0.55213,1.0403 -1.70782,3.59964 -1.70782,3.78208 0,0.0958 -0.19101,0.78077 -0.42448,1.52218 -0.27149,0.86216 -0.47647,2.06307 -0.56874,3.33197 -0.13457,1.85058 -0.1169,2.05968 0.26273,3.11016 0.44677,1.23626 1.05684,1.97658 2.37196,2.87841 0.966,0.66242 1.09313,0.66606 4.73162,0.13571 z m -1.91509,-2.28845 c -1.03797,-0.99015 -1.12605,-1.51726 -0.3831,-2.29273 0.66319,-0.69222 1.61057,-0.96919 2.31584,-0.67706 0.64232,0.26606 0.84757,0.61478 1.02593,1.74313 0.13272,0.83954 0.12296,0.8663 -0.53108,1.45719 -0.91896,0.83023 -1.35946,0.78839 -2.42759,-0.23053 z m -1.58861,-6.54004 c -0.91396,-0.98567 -0.69509,-1.81414 0.65146,-2.466 0.56571,-0.27385 1.02173,-0.3606 1.69342,-0.32212 l 0.91923,0.0526 0.45975,0.91188 c 0.43947,0.87165 0.4477,0.93645 0.18653,1.46868 -0.15028,0.30624 -0.35707,0.61393 -0.45955,0.68375 -0.10248,0.0698 -0.82464,0.12813 -1.60481,0.12959 -1.3166,0.002 -1.44921,-0.0305 -1.84603,-0.45843 z m -1.74628,-24.0847 c -1.40189,-0.70524 -1.64147,-0.8796 -1.64147,-1.19466 0,-0.48917 -0.18518,-0.86864 -0.4239,-0.86864 -0.11778,0 -0.4788,0.13607 -0.80225,0.30238 -0.47655,0.24502 -0.95755,0.29389 -2.53584,0.25765 -1.64584,-0.0378 -2.04973,0.007 -2.60579,0.29099 -0.70909,0.36175 -3.29799,0.65804 -4.06585,0.46532 -0.24329,-0.0611 -0.59557,-0.27549 -0.78285,-0.47652 -0.36134,-0.38785 -0.36269,-0.38778 -2.08251,0.10111 -1.12924,0.32101 -2.27667,0.34442 -3.0567,0.0624 -0.5044,-0.1824 -0.61563,-0.16453 -0.96259,0.15464 -0.75961,0.69875 -1.59334,1.08699 -2.33565,1.08765 -0.60141,5.1e-4 -0.85907,-0.11249 -1.42775,-0.62626 -0.38165,-0.3448 -0.74405,-0.83077 -0.80532,-1.07992 -0.0613,-0.24915 -0.32344,-0.88065 -0.58259,-1.40333 -1.16487,-2.34946 -0.61329,-3.80129 1.44419,-3.80129 0.51191,0 0.91368,0.11867 1.2215,0.36079 0.41647,0.3276 0.59415,0.34952 1.93072,0.23818 l 1.47205,-0.12262 0.68691,0.7221 0.68692,0.7221 0.48796,-0.34746 c 0.26838,-0.1911 0.59248,-0.4734 0.72024,-0.62733 0.39138,-0.47159 1.5012,-0.94576 2.21358,-0.94576 0.37184,0 1.04426,0.16287 1.49428,0.36193 0.53073,0.23477 1.0393,0.33463 1.44745,0.28422 1.41229,-0.17444 3.14848,-0.66 3.45466,-0.96618 0.21951,-0.21952 0.70576,-0.3667 1.48834,-0.45051 1.12402,-0.12037 1.18419,-0.10688 1.82667,0.40943 0.84761,0.68116 1.17859,0.67131 2.05531,-0.0612 0.71179,-0.59469 0.71273,-0.59491 1.50571,-0.35625 1.42435,0.42866 1.95861,1.27772 1.96065,3.11589 5.2e-4,0.52132 0.1134,1.02921 0.28215,1.27013 0.20515,0.29289 0.25519,0.62083 0.18508,1.21282 -0.1361,1.1492 -0.43223,1.69596 -1.05164,1.9417 -0.29576,0.11734 -0.57662,0.23603 -0.62413,0.26376 -0.0475,0.0277 -0.39741,-0.10603 -0.77754,-0.29725 z M 33.404639,112.16159 c -1.548919,-0.71206 -1.697532,-2.68135 -0.233049,-3.08816 1.38959,-0.38601 2.319169,-0.0976 2.619615,0.81276 0.278455,0.84374 0.07003,1.6777 -0.54961,2.19909 -0.61646,0.51872 -0.853196,0.52855 -1.836956,0.0763 z m 153.687401,0.15009 c -0.15762,-0.11879 -0.40691,-0.50788 -0.55401,-0.86465 l -0.26742,-0.64867 -0.68231,0.45153 c -0.66122,0.43758 -0.74257,0.4486 -2.63237,0.35663 -2.45987,-0.11972 -4.54723,-0.34037 -6.93261,-0.73284 -1.79931,-0.29604 -1.91062,-0.29595 -2.85098,0.002 -1.76999,0.56142 -1.97649,0.61494 -2.37264,0.61494 -0.2157,0 -0.62094,0.1313 -0.90054,0.29176 -0.45529,0.2613 -0.57658,0.2658 -1.16175,0.0431 -0.81472,-0.31008 -1.36437,-1.02477 -1.36437,-1.77402 0,-0.31518 0.22937,-1.17694 0.50972,-1.91502 0.40902,-1.07684 0.64445,-1.4413 1.19171,-1.84485 0.64938,-0.47885 0.7673,-0.50289 2.46652,-0.50289 1.32499,0 2.03084,-0.0866 2.74104,-0.33619 1.4136,-0.49684 3.18915,-0.22845 3.86342,0.58398 0.32361,0.38993 0.84445,0.33365 1.49349,-0.1614 0.34949,-0.26657 0.79307,-0.43196 1.1585,-0.43196 0.34671,0 0.85601,0.17905 1.22871,0.43196 0.78876,0.53527 0.97958,0.53813 1.46449,0.022 0.65194,-0.69396 1.65817,-1.05654 2.40252,-0.86571 0.53695,0.13766 0.7661,0.10004 1.40194,-0.23019 1.38515,-0.71939 2.39193,-0.44565 3.02949,0.82371 l 0.40769,0.81169 -0.34103,0.75599 c -0.18756,0.41579 -0.44905,1.36469 -0.58106,2.10868 -0.2221,1.25156 -0.61873,2.17415 -1.257,2.92376 -0.30003,0.35235 -1.04947,0.39666 -1.46115,0.0864 z M 40.200325,111.65929 c -0.809124,-0.74583 -1.238898,-1.65263 -1.056147,-2.22843 0.05894,-0.1857 0.378287,-0.57569 0.709662,-0.86664 0.497868,-0.43713 0.750426,-0.529 1.454336,-0.529 0.987509,0 1.169558,0.20884 1.322269,1.51683 0.151977,1.30171 -0.102874,1.96082 -0.937073,2.42349 l -0.717958,0.3982 z"
       id="path21" />
  </g>
</svg>
