<?xml version="1.0" encoding="UTF-8" standalone="no"?>
<!-- Created with Inkscape (http://www.inkscape.org/) -->

<svg
   width="210mm"
   height="210mm"
   viewBox="0 0 210 210"
   version="1.1"
   id="svg1"
   xml:space="preserve"
   xmlns="http://www.w3.org/2000/svg"
   xmlns:svg="http://www.w3.org/2000/svg"><defs
     id="defs1" /><g
     id="layer1">
      	<style>
		@media (prefers-color-scheme: dark) {
		.a { fill: #dad8d8 }
		}
	</style>
	<path class="a" fill="#333333"
       d="m 24.388033,170.15498 c -0.180063,-0.0541 -0.327388,-0.16457 -0.327388,-0.24559 0,-0.081 -0.414364,-0.19637 -0.92081,-0.25636 -1.624377,-0.19238 -3.624882,-1.49637 -3.787221,-2.46862 -0.09604,-0.57519 -0.445337,-0.84185 -1.102723,-0.84185 -0.726047,0 -1.633304,-0.87965 -2.275006,-2.20578 l -0.426317,-0.88102 -0.01277,-10.56994 c -0.0086,-7.09666 -0.08005,-10.7851 -0.217524,-11.22472 -0.132374,-0.42331 -0.248729,-4.6228 -0.329145,-11.87949 -0.195047,-17.6009 -0.247227,-19.7496 -0.486615,-20.03804 -0.220684,-0.26591 -0.458987,-3.12328 -0.664766,-7.97089 -0.09067,-2.135987 -0.05879,-2.890992 0.142195,-3.36741 0.211933,-0.502369 0.251064,-2.469248 0.21506,-10.809892 -0.02421,-5.607682 0.03465,-11.542752 0.130783,-13.189044 0.287903,-4.930211 -0.288159,-12.210377 -1.083353,-13.69121 -0.120686,-0.224746 -0.21943,-0.647987 -0.21943,-0.940537 0,-0.29255 -0.127119,-0.713396 -0.282486,-0.935215 -0.447755,-0.639259 -0.561908,-1.978496 -0.213912,-2.509605 0.268467,-0.409732 0.268754,-0.52756 0.0031,-1.289432 -0.309251,-0.887029 -0.258183,-2.939711 0.07853,-3.156441 0.09747,-0.06274 0.241508,-0.319781 0.320076,-0.571202 0.07857,-0.25142 0.410546,-0.840718 0.73773,-1.30955 0.327184,-0.468832 0.785392,-1.273349 1.018239,-1.787816 0.232848,-0.514466 0.501513,-1.081575 0.597035,-1.260242 0.09552,-0.178667 0.173675,-0.41539 0.173675,-0.526051 0,-0.250412 0.950846,-2.295349 1.126625,-2.422976 0.07086,-0.05145 0.527933,-0.682837 1.015725,-1.403089 0.487792,-0.720253 1.08413,-1.534573 1.325195,-1.8096 0.241066,-0.275027 0.626713,-0.94851 0.856993,-1.496629 0.490083,-1.166506 0.769668,-1.475541 1.767143,-1.953288 0.587724,-0.281494 1.116025,-0.346857 2.612643,-0.323245 1.031775,0.01628 2.373156,0.121511 2.980847,0.233849 1.434032,0.265095 5.966328,0.261715 6.927658,-0.0052 1.068394,-0.296604 7.509429,-0.485191 9.784041,-0.286467 2.000483,0.174775 5.41633,-0.03422 7.64333,-0.467644 0.961017,-0.187036 1.545614,-0.169636 3.556837,0.105867 2.832252,0.387969 3.789125,0.399129 21.764754,0.25383 9.573157,-0.07738 14.034437,-0.178393 14.685672,-0.332512 0.582821,-0.137928 4.214317,-0.287535 9.634549,-0.396915 11.73088,-0.236729 13.03714,-0.243983 14.1336,-0.07849 0.68858,0.103934 1.18464,0.06105 1.83055,-0.158237 0.4873,-0.165443 1.1765,-0.300806 1.53156,-0.300806 0.35505,0 1.00454,-0.08018 1.44332,-0.178182 0.43877,-0.098 1.92446,-0.265388 3.30153,-0.371974 1.37707,-0.106587 2.59776,-0.265249 2.71264,-0.352584 0.11488,-0.08733 0.74477,-0.354776 1.39974,-0.594315 1.1772,-0.430524 1.19829,-0.431527 1.83736,-0.08737 0.38742,0.20864 0.79107,0.647425 1.0073,1.094968 0.3827,0.792097 0.48715,1.986084 0.17375,1.986084 -0.1029,0 -0.18835,0.189417 -0.1899,0.420927 -0.003,0.45631 -0.40965,1.737605 -0.61729,1.945243 -0.24295,0.242952 -0.1471,8.101618 0.10421,8.543459 0.27807,0.488913 0.27543,5.81477 -0.003,6.169104 -0.0977,0.124322 -0.22952,0.62408 -0.2929,1.110574 -0.0634,0.486493 -0.22155,1.054745 -0.35147,1.262781 -0.19284,0.308787 -0.18745,0.455544 0.0293,0.799174 0.18316,0.290311 0.29164,1.219132 0.3496,2.993258 0.0462,1.414782 0.15743,2.572331 0.24713,2.572331 0.0897,0 0.1631,0.112755 0.1631,0.250567 0,0.343302 1.32653,1.543893 1.88441,1.705507 0.24974,0.07235 0.74872,0.266041 1.10885,0.430431 0.9429,0.430411 4.88862,0.445178 5.79943,0.0217 0.36013,-0.167437 1.36576,-0.360195 2.23473,-0.428352 0.86897,-0.06816 1.68423,-0.210476 1.8117,-0.316264 0.14285,-0.118557 0.9362,-0.154506 2.06809,-0.09371 4.87232,0.261698 7.80601,0.460937 9.60009,0.651984 1.08038,0.115046 3.94268,0.230746 6.36067,0.257111 3.81613,0.04161 4.48277,0.09263 5.05113,0.386599 0.99356,0.513893 2.24656,0.607398 3.04733,0.227408 1.16532,-0.552981 4.61674,-0.09463 5.23198,0.694808 0.18065,0.231812 0.59689,0.704441 0.92496,1.050287 0.49825,0.525245 0.60943,0.807721 0.67506,1.7151 0.0559,0.772188 -0.0121,1.266544 -0.23501,1.709673 -0.22238,0.442065 -0.34145,1.303556 -0.40938,2.961866 -0.1008,2.460435 -0.73986,6.547752 -1.02377,6.547752 -0.0917,0 -0.16679,0.252556 -0.16679,0.561235 0,0.30868 0.0842,0.561236 0.18708,0.561236 0.25406,0 0.23875,1.931354 -0.0173,2.187443 -0.14323,0.143231 -0.1463,0.312985 -0.0103,0.567177 0.10678,0.199522 0.24876,2.207962 0.31551,4.463202 0.0668,2.255239 0.19794,4.563455 0.29154,5.129368 0.0936,0.565913 0.25872,1.61823 0.36693,2.338483 0.10821,0.720252 0.27629,1.455732 0.3735,1.634399 0.0972,0.178667 0.17674,0.628408 0.17674,0.999425 0,0.391302 0.15712,0.87432 0.37416,1.150243 0.20579,0.26161 0.37416,0.58158 0.37416,0.71103 0,0.26791 0.51305,0.51435 0.75696,0.3636 0.0891,-0.055 0.4706,0.0289 0.84782,0.18647 0.37722,0.15762 1.01674,0.28657 1.42116,0.28657 0.80771,0 3.31801,-0.52013 3.61535,-0.74909 0.29442,-0.22672 3.84717,-0.75954 6.92191,-1.038121 1.5434,-0.139834 3.83617,-0.348028 5.09504,-0.462653 l 2.28886,-0.208409 1.18942,0.585548 c 1.47536,0.726315 2.22066,1.394835 2.73666,2.454725 0.33838,0.69504 0.4145,1.26624 0.49587,3.72081 0.0529,1.59485 0.2557,4.41506 0.45072,6.26714 0.36572,3.47309 0.33596,5.10338 -0.17416,9.54101 -0.10645,0.92604 -0.28798,2.8623 -0.4034,4.3028 -0.11542,1.44051 -0.28416,3.54514 -0.37498,4.67697 -0.0908,1.13183 -0.18791,5.97485 -0.21576,10.76227 l -0.0506,8.70441 -1.33902,2.33323 c -0.73646,1.28328 -1.50726,2.63739 -1.71288,3.00915 -0.74692,1.35034 -0.87883,1.57066 -0.9954,1.66257 -0.12306,0.097 -0.27621,0.42664 -2.04268,4.39634 -0.43874,0.98595 -0.52535,1.96785 -0.27678,3.1378 0.11844,0.55747 0.0809,0.78204 -0.17845,1.06866 -0.59316,0.65543 -1.35608,0.77034 -2.9958,0.4512 -1.93954,-0.3775 -6.13333,-0.62811 -10.9441,-0.65401 -2.91245,-0.0157 -3.98245,-0.0861 -4.44752,-0.29253 -0.60379,-0.26807 -0.74436,-0.26933 -8.55445,-0.0767 -0.20578,0.005 -1.21792,-0.0392 -2.24919,-0.0983 -1.19385,-0.0685 -2.24729,-0.0241 -2.89972,0.12219 -1.29391,0.29012 -2.86453,0.30032 -3.83086,0.0249 -1.09618,-0.31246 -5.78605,-0.27902 -6.86685,0.049 -0.68718,0.20853 -3.00623,0.29557 -10.56994,0.3967 -6.55254,0.0876 -9.81075,0.19714 -10.06377,0.33831 -0.24581,0.13716 -2.01059,0.21415 -5.14466,0.22445 -2.62378,0.009 -7.75909,0.0395 -11.4118,0.0686 -6.41038,0.0511 -8.30865,-0.0347 -8.52542,-0.38546 -0.14237,-0.23038 -1.27272,-0.20769 -1.51072,0.0303 -0.30474,0.30474 -4.808349,0.53642 -6.694892,0.34441 -1.11686,-0.11367 -2.042349,-0.1028 -2.790102,0.0328 -0.717077,0.13003 -2.233204,0.15662 -4.221771,0.074 -2.400646,-0.0997 -3.780296,-0.0547 -6.096133,0.19898 -2.543979,0.27862 -4.004137,0.30998 -9.728089,0.20896 -3.704157,-0.0654 -8.460631,-0.22427 -10.569942,-0.35309 -5.150865,-0.31457 -8.75155,-0.27969 -10.289325,0.0997 -0.668806,0.16499 -1.594845,0.3563 -2.057865,0.42513 -0.46302,0.0688 -0.948104,0.21098 -1.077966,0.31587 -0.135642,0.10956 -1.886974,0.22484 -4.11573,0.27092 -2.13379,0.0441 -4.38473,0.16449 -5.002089,0.2675 -0.61736,0.103 -1.795955,0.26706 -2.619101,0.36457 -0.823146,0.0975 -1.707092,0.25384 -1.964326,0.3474 -0.257233,0.0936 -1.30955,0.22111 -2.338482,0.28345 -1.941385,0.11761 -5.73804,0.75542 -6.320036,1.06171 -0.379284,0.19961 -3.612082,0.38489 -4.109598,0.23554 z m 7.623454,-17.84218 c 0.581373,-0.25505 3.191342,-0.75571 5.051123,-0.96893 1.926767,-0.22091 8.317616,-0.0891 11.411796,0.2353 1.42617,0.14954 3.809383,0.17175 7.763764,0.0724 8.165115,-0.20525 10.272924,-0.19258 11.196588,0.0673 0.923919,0.25995 3.145668,0.50523 7.253603,0.80079 2.042187,0.14693 4.279784,0.14659 8.044381,-0.001 2.86839,-0.11264 8.835227,-0.28836 13.259636,-0.39049 4.424412,-0.10214 10.485762,-0.27855 13.469662,-0.39203 9.27255,-0.35264 14.98966,-0.51212 19.4054,-0.54131 2.33862,-0.0155 4.29322,-0.0947 4.34356,-0.1762 0.0503,-0.0814 1.63062,-0.20876 3.51173,-0.28293 1.88111,-0.0742 4.09369,-0.21842 4.91683,-0.32058 5.14036,-0.63796 9.53754,-0.88035 23.38483,-1.28908 3.70416,-0.10933 8.16598,-0.31463 9.91517,-0.45621 1.74918,-0.14159 4.31684,-0.3472 5.7059,-0.45693 1.38906,-0.10972 3.19904,-0.29395 4.02219,-0.40939 0.82314,-0.11544 2.29639,-0.32135 3.27387,-0.45759 3.20606,-0.44684 4.94864,-0.79253 5.51882,-1.0948 0.30868,-0.16364 0.69434,-0.29805 0.85701,-0.29868 0.56937,-0.002 0.77812,-0.80176 1.29461,-4.95874 0.10227,-0.82314 0.27579,-4.61148 0.3856,-8.41853 0.24796,-8.59703 0.42248,-11.44122 0.74615,-12.16011 0.18514,-0.41121 0.2718,-1.89033 0.32419,-5.53323 l 0.0715,-4.97199 -0.57675,-0.85458 c -0.43706,-0.6476 -0.57674,-1.06322 -0.57674,-1.71607 0,-0.4823 0.0873,-0.86149 0.19837,-0.86149 0.11434,0 0.17377,-0.29147 0.14031,-0.6881 l -0.0581,-0.68809 -2.33848,0.0461 c -2.42622,0.0478 -3.72573,0.18901 -6.26713,0.68075 -0.82315,0.15928 -1.95965,0.36279 -2.52557,0.45225 -0.56591,0.0895 -1.57613,0.29133 -2.24494,0.44859 -0.73799,0.17353 -2.72584,0.33718 -5.05677,0.4163 l -3.84075,0.13036 -1.11683,-0.52445 c -0.61426,-0.28844 -1.14489,-0.59431 -1.17919,-0.67971 -0.0343,-0.0854 -0.16694,-0.15526 -0.29477,-0.15526 -0.12783,0 -0.43651,-0.2176 -0.68596,-0.48356 -0.44324,-0.47259 -0.45222,-0.5451 -0.39548,-3.19433 0.038,-1.77364 -0.0128,-2.796203 -0.14702,-2.957884 -1.03304,-1.244733 -1.19214,-15.193694 -0.24865,-21.800176 0.15429,-1.080379 0.31977,-2.774287 0.36775,-3.764241 0.076,-1.568944 0.0389,-1.879362 -0.28928,-2.419014 l -0.37649,-0.619097 -2.02172,-0.05689 c -1.11194,-0.03129 -2.43716,-0.134502 -2.94492,-0.229362 -0.67203,-0.125548 -1.28254,-0.097 -2.2439,0.104913 -0.72637,0.152564 -1.99416,0.289169 -2.81731,0.303567 -1.52602,0.02669 -12.21998,-0.380324 -14.58819,-0.555234 -1.26173,-0.09319 -3.67141,0.28364 -4.43505,0.693561 -0.74591,0.4004 -3.65007,0.603506 -5.50364,0.384903 -1.00482,-0.118504 -1.91659,-0.287502 -2.02615,-0.375549 -0.10957,-0.08805 -0.57805,-0.216321 -1.04107,-0.285052 -0.91771,-0.136227 -3.02903,-0.839447 -3.18221,-1.059903 -0.0525,-0.07553 -0.32608,-0.195215 -0.608,-0.265973 -0.28193,-0.07076 -0.51259,-0.193498 -0.51259,-0.272754 0,-0.07926 -0.27361,-0.256435 -0.60801,-0.393731 -0.75567,-0.310255 -0.8938,-0.414506 -2.09274,-1.579435 l -0.96932,-0.941819 0.0702,-5.512394 c 0.0699,-5.482359 0.13558,-6.264938 0.69033,-8.219035 0.38591,-1.359339 0.37194,-2.482706 -0.078,-6.273134 -0.20763,-1.749185 -0.42424,-3.648669 -0.48134,-4.221074 -0.091,-0.911898 -0.17471,-1.082608 -0.67638,-1.378952 -0.44107,-0.260543 -0.77194,-0.30916 -1.44077,-0.211702 -0.47752,0.06958 -8.57118,0.202263 -17.98591,0.29485 -10.784781,0.106061 -17.532969,0.24376 -18.240168,0.372198 -1.440438,0.261606 -16.56035,0.258037 -16.822357,-0.004 -0.239851,-0.239851 -1.549627,-0.236775 -1.698427,0.004 -0.159782,0.258533 -0.957988,0.234555 -1.400959,-0.04209 -0.289559,-0.180833 -0.41528,-0.180833 -0.596113,0 -0.307706,0.307706 -12.228522,0.332458 -12.418057,0.02578 -0.09051,-0.146453 -0.182621,-0.146453 -0.329074,0 -0.269244,0.269244 -0.980684,0.258545 -1.429092,-0.02149 -0.272186,-0.169983 -0.465633,-0.172963 -0.792546,-0.01221 -0.268633,0.132095 -2.84216,0.29108 -6.793145,0.41966 -3.49837,0.113851 -6.7816,0.282647 -7.296066,0.375104 -0.514467,0.09246 -1.840427,0.223368 -2.946578,0.290915 -1.106151,0.06755 -2.052124,0.189053 -2.102162,0.270016 -0.05004,0.08096 -0.53978,0.20328 -1.088315,0.271814 -0.548535,0.06854 -1.21625,0.238183 -1.483811,0.376995 -0.267561,0.138813 -0.845334,0.313015 -1.283941,0.387117 -0.48534,0.082 -1.022186,0.345384 -1.371611,0.672937 -0.315778,0.296013 -0.727442,0.538595 -0.914807,0.539071 -0.310942,7.9e-4 -0.332143,0.143686 -0.242994,1.637804 0.05372,0.900316 0.182188,2.478792 0.285488,3.507724 0.1033,1.028933 0.235225,5.111924 0.293167,9.073314 0.05794,3.96139 0.186177,9.096698 0.284967,11.411796 0.09879,2.315098 0.235992,6.884885 0.304895,10.155082 0.0689,3.270197 0.197006,5.990144 0.284675,6.044327 0.08767,0.05418 0.159399,0.378894 0.159399,0.721581 0,0.342688 0.129597,1.306252 0.287995,2.141255 0.266918,1.407078 0.264151,1.585318 -0.03781,2.435497 -0.305208,0.859333 -0.311785,1.577594 -0.10406,11.364134 0.121957,5.74576 0.3054,11.54124 0.407651,12.87885 0.691392,9.04456 0.797891,12.06632 0.483335,13.71394 -0.0969,0.50755 -0.08002,0.95736 0.04562,1.21601 0.10967,0.22577 0.246136,2.0942 0.303258,4.15207 0.101088,3.64183 0.1701,4.34097 0.775595,7.8573 0.159459,0.92604 0.432865,3.12961 0.607569,4.89682 0.174704,1.76721 0.380782,3.27554 0.457952,3.35183 0.07717,0.0763 0.140309,0.32913 0.140309,0.56186 0,0.93098 0.885303,1.19356 2.151404,0.6381 z m 7.670224,-7.9522 c -0.30868,-0.13768 -0.894727,-0.60512 -1.302328,-1.03876 -0.711735,-0.7572 -0.746173,-0.85229 -0.869343,-2.40029 -0.158466,-1.99159 -0.560088,-4.57307 -0.731008,-4.69865 -0.406717,-0.29883 -0.27486,-6.86661 0.179448,-8.93831 0.207934,-0.9482 0.830444,-2.24717 1.198751,-2.50138 0.336842,-0.2325 2.466414,-0.35128 3.433577,-0.19151 0.722147,0.1193 1.244663,0.37383 2.022505,0.98521 0.57684,0.4534 1.19099,0.90855 1.364778,1.01144 0.173789,0.10289 0.372722,0.26588 0.442075,0.3622 0.06935,0.0963 0.827021,0.2398 1.683707,0.31884 0.856687,0.079 1.8688,0.19834 2.24914,0.2651 0.682376,0.11978 2.202713,-0.30263 2.706499,-0.75197 0.11973,-0.10679 0.456471,-0.37727 0.748315,-0.60106 1.029793,-0.78967 1.746635,-1.49996 1.746635,-1.73068 0,-0.12837 0.452587,-0.68239 1.00575,-1.23115 0.827156,-0.82058 1.159135,-1.02075 1.869538,-1.12728 1.658116,-0.24865 2.684897,0.21557 3.352294,1.51562 0.197687,0.38509 0.36119,1.55545 0.496575,3.5545 0.256923,3.79365 0.530422,6.51723 0.750156,7.47026 0.419747,1.82053 0.603101,2.44369 0.767875,2.60975 0.28736,0.2896 0.214994,3.54013 -0.09199,4.13184 -0.357096,0.6883 -0.61552,0.82883 -1.53045,0.83223 -0.517594,0.002 -0.94605,-0.13506 -1.307569,-0.41806 -0.966433,-0.75653 -1.905052,-1.77821 -2.045467,-2.22648 -0.0757,-0.24166 -0.374102,-0.78468 -0.663114,-1.20669 -0.340456,-0.49713 -0.566914,-1.1229 -0.64316,-1.77725 -0.06472,-0.55547 -0.190214,-1.17832 -0.278865,-1.3841 -0.08865,-0.20579 -0.216329,-1.0322 -0.283731,-1.83646 -0.138207,-1.64914 -0.303232,-1.82701 -1.250383,-1.34779 -1.254082,0.63452 -6.282581,1.30986 -8.096131,1.08732 -0.908665,-0.1115 -2.197163,-0.62467 -3.402862,-1.35526 -0.919395,-0.55711 -1.069924,-0.22431 -0.905343,2.0016 0.07421,1.00361 0.197901,1.90893 0.27488,2.01182 0.07698,0.1029 0.332144,1.52011 0.567035,3.14937 0.349983,2.42756 0.388205,3.09203 0.21174,3.68102 -0.249001,0.83109 -1.160483,1.68169 -1.802059,1.68169 -0.243266,0 -0.494331,0.0842 -0.557923,0.18708 -0.152761,0.24717 -0.620181,0.21371 -1.30955,-0.0938 z m 56.030049,-2.27789 c -1.586218,-0.10395 -2.529779,-0.68947 -2.730799,-1.69457 -0.21996,-1.09979 1.039172,-1.65513 4.320967,-1.90575 1.893543,-0.14461 2.941812,-0.48936 3.151792,-1.03656 0.18453,-0.48087 -0.031,-0.74216 -0.956637,-1.15956 -2.17659,-0.98153 -2.648292,-1.18584 -2.737819,-1.18584 -0.114118,0 -1.155718,-0.69905 -1.818968,-1.22076 -0.644939,-0.50731 -1.788776,-2.12762 -1.947,-2.75803 -0.07104,-0.28305 -0.204024,-0.5609 -0.295518,-0.61745 -0.285381,-0.17637 -0.170238,-2.18725 0.181372,-3.16753 0.425718,-1.18688 1.013693,-2.4135 1.195672,-2.49438 0.07717,-0.0343 0.140309,-0.17511 0.140309,-0.31292 0,-0.49515 1.748838,-2.17016 2.790278,-2.67248 0.954728,-0.4605 1.214432,-0.5005 3.011421,-0.46381 2.63684,0.0538 4.86178,0.81085 4.86178,1.65419 0,0.12982 0.0997,0.26926 0.22148,0.30986 0.3513,0.1171 0.32079,2.91264 -0.0344,3.15184 -0.34174,0.23015 -2.59429,0.13169 -2.77222,-0.12118 -0.18982,-0.26978 -1.11458,-0.64128 -1.5963,-0.64128 -0.23225,0 -0.808555,0.24497 -1.280682,0.54439 -0.632568,0.40116 -0.918857,0.73339 -1.088158,1.26278 -0.126361,0.39511 -0.303762,0.79836 -0.394226,0.89611 -0.380754,0.41142 -0.152114,1.13329 0.506621,1.59953 0.36344,0.25723 0.761003,0.5542 0.883474,0.65993 0.289701,0.25011 2.451731,1.21085 2.724861,1.21085 0.11575,0 0.21045,0.0842 0.21045,0.18708 0,0.10289 0.11108,0.18708 0.24683,0.18708 0.24436,0 1.86923,1.14253 2.39452,1.68371 0.1498,0.15434 0.47919,0.61736 0.73197,1.02893 0.40794,0.66419 0.45973,0.96032 0.4607,2.63429 9.4e-4,1.61702 -0.0655,2.03055 -0.46596,2.89972 -0.76445,1.65924 -0.49595,1.57278 -4.94446,1.59211 -2.16833,0.009 -4.405437,-0.0132 -4.97135,-0.0503 z m 19.31196,-0.7677 c -0.23366,-0.20475 -0.71987,-0.57133 -1.08046,-0.81463 -0.3606,-0.2433 -0.69186,-0.61074 -0.73614,-0.81653 -0.0443,-0.20578 -0.1287,-2.3946 -0.1876,-4.86404 -0.18193,-7.62668 -0.33454,-9.92221 -0.6859,-10.31676 -0.16982,-0.1907 -0.43814,-0.66006 -0.59628,-1.04304 -0.25818,-0.62527 -0.25832,-0.75484 -0.001,-1.26994 0.39721,-0.79623 1.39424,-1.22229 4.83504,-2.06617 0.41157,-0.10094 0.91668,-0.26168 1.12247,-0.3572 0.20579,-0.0955 1.08973,-0.33946 1.96432,-0.5421 3.39423,-0.78645 4.3708,-0.73074 4.79031,0.27329 0.14345,0.34333 0.26082,0.80005 0.26082,1.01494 0,0.49277 -1.02122,1.44013 -1.71718,1.59298 -0.29027,0.0638 -0.52777,0.17651 -0.52777,0.25055 0,0.074 -0.31569,0.24484 -0.70154,0.37954 -0.38585,0.1347 -1.23396,0.53806 -1.88469,0.89637 -0.99642,0.54865 -1.24139,0.78734 -1.55218,1.51238 -0.42991,1.00294 -0.41753,2.45369 0.0227,2.65824 0.15434,0.0717 0.4689,0.22767 0.69901,0.34655 0.23011,0.11889 0.9036,0.21708 1.49663,0.21822 1.96919,0.004 2.49237,0.16574 2.78316,0.8617 0.32741,0.7836 0.33558,0.72073 -0.16152,1.2424 -0.56873,0.59685 -2.37173,1.20973 -4.02219,1.36724 l -1.35632,0.12944 v 0.63989 c 0,0.35194 0.11965,0.86722 0.26588,1.14507 0.49823,0.94662 0.83809,1.0876 2.73592,1.13491 0.97279,0.0243 1.97917,0.0889 2.2364,0.14373 1.54737,0.32965 2.68146,1.58745 2.68146,2.97397 0,1.32121 -0.30346,1.51887 -2.49392,1.62434 -1.02136,0.0492 -1.96546,0.17351 -2.09798,0.27628 -0.13253,0.10278 -0.64084,0.29505 -1.12959,0.42728 -0.48874,0.13223 -0.88862,0.3043 -0.88862,0.38237 0,0.0781 -0.28852,0.19607 -0.64116,0.26223 -0.35264,0.0661 -0.67042,0.20806 -0.70619,0.31536 -0.0358,0.10729 -0.56805,0.2397 -1.18285,0.29424 -0.93804,0.0832 -1.18616,0.0393 -1.54267,-0.2731 z m -41.200159,-1.64412 c -0.965557,-0.35905 -1.877195,-0.90322 -2.549121,-1.52161 -0.734782,-0.67623 -1.753688,-2.31091 -1.753688,-2.81352 0,-0.12943 -0.06733,-0.23533 -0.149616,-0.23533 -0.08229,0 -0.304318,-0.62125 -0.493398,-1.38056 -0.327968,-1.31704 -0.329842,-1.53056 -0.04073,-4.64168 0.424825,-4.57146 0.69712,-5.06456 2.85693,-5.17362 1.269311,-0.0641 1.392841,-0.0357 1.812184,0.41679 0.544172,0.58717 0.688307,1.77 0.690262,5.66455 l 0.0013,2.64924 0.575654,0.48438 c 0.31661,0.26641 0.782698,0.53634 1.035751,0.59985 0.699017,0.17545 2.753216,-0.0204 2.83656,-0.27043 0.04021,-0.12062 0.18234,-0.21931 0.315854,-0.21931 0.133513,0 0.588998,-0.39988 1.012189,-0.88862 0.42319,-0.48874 0.885566,-1.0149 1.027502,-1.16924 0.141936,-0.15434 0.322172,-0.49108 0.400526,-0.74832 0.07835,-0.25723 0.23251,-0.52539 0.342571,-0.59591 0.117304,-0.0752 0.252206,-1.27508 0.326004,-2.89972 0.145727,-3.20813 0.457363,-4.41583 1.312782,-5.08751 0.658922,-0.5174 1.750598,-0.61438 2.485917,-0.22085 0.63082,0.33761 1.160545,1.2444 1.331296,2.27894 0.07436,0.45054 0.197333,0.90334 0.27327,1.00623 0.07594,0.1029 0.230417,0.66341 0.343287,1.24559 0.206557,1.06542 7.62e-4,3.3811 -0.338197,3.80554 -0.08217,0.10289 -0.208026,0.66087 -0.279676,1.23995 -0.149554,1.20871 -0.35838,1.57349 -1.776572,3.10338 -0.565913,0.61049 -1.281489,1.42851 -1.590169,1.81784 -2.306467,2.90905 -3.402354,3.44629 -7.296066,3.57679 -1.337612,0.0448 -2.558301,0.0346 -2.71264,-0.0228 z m 62.951959,-0.19518 c -0.68978,-0.16435 -2.04452,-0.6942 -2.29819,-0.89883 -0.85719,-0.69151 -2.28524,-2.23303 -2.28524,-2.46683 0,-0.0605 -0.16114,-0.33631 -0.35809,-0.6129 -0.19695,-0.27659 -0.41678,-0.81575 -0.48852,-1.19812 -0.0717,-0.38238 -0.19535,-0.69523 -0.2747,-0.69523 -0.58329,0 -0.0963,-10.74657 0.54094,-11.93727 0.47252,-0.88292 1.6395,-0.9633 2.53657,-0.17474 0.58414,0.51349 0.78653,1.61966 1.05228,5.75134 0.20692,3.21682 0.69143,5.27595 1.42846,6.07081 0.36846,0.39736 0.61027,0.47694 1.44926,0.47694 0.82465,0 1.11843,-0.0932 1.62236,-0.51447 1.61287,-1.34843 2.63063,-2.90727 2.88634,-4.42083 0.0703,-0.41592 0.19768,-0.88573 0.28312,-1.04402 0.0854,-0.1583 0.23892,-0.75084 0.34104,-1.31675 0.28841,-1.59826 0.80772,-3.63806 0.95256,-3.74157 0.072,-0.0515 0.18661,-0.304 0.25471,-0.56124 0.16618,-0.62764 0.67168,-1.19781 1.39239,-1.57051 0.52261,-0.27024 0.6699,-0.27578 1.22017,-0.0459 0.69194,0.28911 1.43695,1.12083 1.43695,1.60419 0,0.17133 0.0977,0.40921 0.21711,0.52862 0.2984,0.29839 0.32083,4.14073 0.0277,4.73646 -0.12261,0.24915 -0.30665,0.83184 -0.40897,1.29485 -0.58821,2.66176 -0.8546,3.32152 -2.10671,5.21765 -0.70597,1.06907 -1.28357,2.02178 -1.28357,2.11712 0,0.36288 -1.30431,1.53364 -2.26847,2.0362 -2.47199,1.28851 -2.66706,1.35549 -4.0922,1.4052 -0.7717,0.0269 -1.57146,0.009 -1.77725,-0.0402 z m 20.42496,-1.56025 c -0.7558,-0.4839 -0.97573,-0.87102 -1.33362,-2.34734 -0.27811,-1.14726 -0.30889,-2.23688 -0.24839,-8.79269 0.0735,-7.96561 0.1291,-8.46891 1.04376,-9.45068 0.99004,-1.06269 3.40385,-0.94329 4.58441,0.22676 0.2393,0.23717 0.80835,0.73844 1.26457,1.11393 0.45621,0.37549 1.15339,0.97424 1.54929,1.33056 0.3959,0.35632 1.33232,0.96719 2.08094,1.35751 1.29485,0.67511 1.42375,0.70437 2.6476,0.60115 0.70756,-0.0597 1.66915,-0.27287 2.13686,-0.47378 1.05175,-0.45176 2.72886,-2.10428 2.89271,-2.85028 0.067,-0.30488 0.19357,-0.55433 0.28135,-0.55433 0.0878,0 0.20857,-0.14732 0.26842,-0.32738 0.14425,-0.43404 1.47597,-1.369 2.53121,-1.7771 1.06783,-0.41297 1.93332,-0.41632 2.58321,-0.01 0.27933,0.17464 0.53097,0.33102 0.55919,0.34751 0.0282,0.0165 0.21162,0.61022 0.40756,1.3194 0.35271,1.27656 0.44923,2.14993 1.02125,9.24027 0.16187,2.00642 0.3968,4.02687 0.52206,4.48989 0.49594,1.83315 0.0525,4.6516 -0.84963,5.40032 -0.72596,0.60249 -3.05212,0.39509 -3.77969,-0.337 -0.76396,-0.76871 -0.87654,-1.00614 -1.05402,-2.22271 -0.10033,-0.68774 -0.25357,-1.503 -0.34053,-1.81168 -0.087,-0.30868 -0.21582,-1.34054 -0.28635,-2.29301 -0.0705,-0.95248 -0.20343,-1.77825 -0.29535,-1.83506 -0.0919,-0.0568 -0.16711,-0.30189 -0.16711,-0.54464 0,-0.97621 -0.47897,-1.29701 -1.26532,-0.84749 -1.45373,0.83104 -4.16074,1.26862 -6.07752,0.98241 -1.5432,-0.23043 -3.32378,-0.69221 -4.19077,-1.08685 -0.32423,-0.14759 -0.67301,-0.26834 -0.77507,-0.26834 -0.10206,0 -0.23402,-0.12628 -0.29324,-0.28062 -0.14873,-0.38757 -0.98203,-0.354 -1.16097,0.0468 -0.0804,0.18007 -0.20541,2.34784 -0.2778,4.81728 -0.14804,5.0494 -0.32406,6.29869 -0.96249,6.83092 -0.57458,0.47901 -2.27266,0.48256 -3.01652,0.006 z M 39.207374,109.324 c -1.104736,-0.53622 -2.031921,-1.51252 -2.151563,-2.26554 -0.05895,-0.37103 -0.205654,-0.84297 -0.326008,-1.04876 -0.291222,-0.49794 -0.418072,-12.965473 -0.157983,-15.527525 0.278889,-2.747249 0.543036,-4.159411 0.871909,-4.661335 0.416794,-0.636108 1.310811,-0.94982 2.666797,-0.935783 1.070404,0.01108 1.225157,0.06477 1.706861,0.592168 0.291353,0.31899 0.716312,0.986302 0.944353,1.482916 0.228042,0.496613 0.511485,1.113397 0.629874,1.37063 0.294134,0.639089 1.341567,2.157718 2.211458,3.206299 0.395962,0.4773 0.71993,0.931342 0.71993,1.008984 0,0.149417 4.810057,4.930422 6.158005,6.120811 0.436921,0.38585 0.95311,0.701545 1.147088,0.701545 0.336181,0 0.348159,-0.159786 0.255933,-3.414185 -0.05322,-1.877802 -0.172678,-3.708834 -0.265474,-4.06896 -0.0928,-0.360127 -0.207728,-1.190671 -0.255403,-1.845654 -0.04768,-0.654984 -0.177969,-1.282165 -0.28954,-1.393736 -0.336644,-0.336644 -0.235251,-2.038656 0.148847,-2.498588 0.475973,-0.569947 1.532419,-1.182402 2.041002,-1.183232 0.561231,-9.16e-4 1.71273,0.596938 2.215607,1.150336 0.99986,1.100309 1.018976,1.240209 1.568162,11.476772 0.121572,2.266049 0.299952,3.893557 0.492105,4.489887 0.433002,1.34378 0.441949,3.50289 0.01647,3.97349 -0.53583,0.59266 -2.333374,1.04068 -3.808414,0.94923 -1.230788,-0.0763 -3.031143,-0.73094 -3.672138,-1.33524 -0.128384,-0.12104 -0.538965,-0.44811 -0.912402,-0.72684 -0.903684,-0.67449 -2.13676,-1.80453 -5.194116,-4.76012 -3.368851,-3.256711 -3.749293,-3.566952 -3.95982,-3.229131 -0.329895,0.529363 -0.383427,1.806631 -0.163983,3.912601 0.123298,1.18327 0.261752,3.2649 0.307676,4.62585 0.0774,2.29373 0.05322,2.52831 -0.331081,3.21209 -0.571134,1.01619 -1.396192,1.21219 -2.614147,0.62102 z m 87.410236,-4.16527 c -0.84084,-0.33742 -1.69305,-1.14357 -1.98789,-1.88044 -0.24973,-0.62414 -0.26601,-0.95506 -0.0985,-2.00144 0.197,-1.23037 0.5306,-5.425015 0.99241,-12.478383 0.25934,-3.961083 0.42498,-4.517174 1.49703,-5.025896 0.35449,-0.168214 0.73002,-0.305844 0.83451,-0.305844 0.10449,0 0.21804,-0.06639 0.25234,-0.147536 0.0565,-0.133536 0.9547,-0.432142 3.05562,-1.015769 0.41157,-0.114334 0.79041,-0.25794 0.84185,-0.319125 0.31432,-0.373812 2.34595,-0.976318 3.29212,-0.976318 1.26958,0 1.88996,0.471328 2.0685,1.571501 0.096,0.591356 0.0353,0.75288 -0.45264,1.205955 -0.83885,0.778849 -1.09999,0.969443 -1.67384,1.221689 -0.28682,0.126079 -0.56359,0.278764 -0.61504,0.3393 -0.13335,0.156922 -1.92447,1.527752 -2.43271,1.861875 -1.15292,0.757952 -1.37713,1.103267 -1.45998,2.248595 -0.077,1.064857 -0.0594,1.119153 0.42171,1.302085 0.27615,0.104991 1.42264,0.190893 2.54777,0.190893 1.79625,0 2.09131,0.04562 2.41984,0.374157 0.6212,0.621194 0.47018,1.20008 -0.608,2.330553 -0.8948,0.938195 -1.08202,1.045832 -2.10464,1.209996 -0.61736,0.09911 -1.37502,0.232082 -1.6837,0.295499 -0.30868,0.06342 -0.7427,0.151898 -0.96449,0.196622 -0.32482,0.0655 -0.4281,0.26195 -0.53099,1.010048 -0.0702,0.510802 -0.0715,1.184678 -0.003,1.497501 0.12184,0.554742 0.15197,0.568769 1.22149,0.568769 0.60311,0 1.14092,-0.07176 1.19512,-0.159464 0.0542,-0.0877 0.65065,-0.211018 1.32543,-0.274031 0.67479,-0.06301 1.36635,-0.192616 1.53681,-0.288009 0.2031,-0.113665 0.63166,-0.0779 1.24343,0.103783 1.12884,0.335229 1.67798,0.677567 2.08617,1.300545 0.28441,0.434073 0.28475,0.518306 0.004,1.109129 -0.48119,1.01404 -1.7466,2.1367 -2.40839,2.1367 -0.14553,0 -0.75883,0.21717 -1.3629,0.48261 -0.60407,0.26543 -1.26668,0.54882 -1.47247,0.62975 -1.14016,0.44839 -2.49026,0.93071 -2.89972,1.03592 -0.25723,0.0661 -0.63606,0.19406 -0.84185,0.28437 -0.41412,0.18172 -2.22844,0.56739 -2.58154,0.54875 -0.12355,-0.007 -0.41806,-0.0895 -0.65446,-0.18434 z m -56.348543,-1.36971 c -1.258441,-0.92866 -1.870195,-1.75746 -1.874174,-2.53912 -0.01818,-3.570495 -0.263618,-9.898021 -0.393613,-10.14742 -0.254282,-0.487846 -0.200321,-3.834695 0.06961,-4.317646 0.526636,-0.94223 0.943473,-1.23338 2.210273,-1.543826 1.260836,-0.308983 1.298634,-0.307438 1.923355,0.07866 0.427504,0.264213 0.675668,0.585956 0.753985,0.977541 0.06421,0.321036 0.117439,2.446303 0.118294,4.722816 9.68e-4,2.578872 0.105371,4.914829 0.276966,6.19698 0.346201,2.586801 0.371898,5.898324 0.04887,6.297544 -0.858755,1.0613 -1.939084,1.15593 -3.133567,0.27447 z m 23.291289,0.433 c -0.411573,-0.085 -1.754533,-0.20165 -2.984355,-0.2593 -1.991176,-0.0933 -2.315646,-0.1575 -2.962974,-0.58588 -0.399814,-0.26459 -0.86684,-0.72698 -1.037836,-1.02755 -0.170996,-0.30057 -0.370226,-0.54702 -0.442733,-0.54768 -0.07251,-6.5e-4 -0.183798,-0.31687 -0.247312,-0.70272 -0.06351,-0.38585 -0.202828,-0.88161 -0.309586,-1.101693 -0.106758,-0.22008 -0.145076,-0.767285 -0.08515,-1.216011 0.05992,-0.448726 0.221346,-1.65772 0.358715,-2.686652 0.13737,-1.028932 0.303112,-1.997064 0.368318,-2.151404 0.06521,-0.15434 0.148102,-1.753862 0.184216,-3.554494 0.06863,-3.421881 0.190565,-3.986781 0.909843,-4.21507 0.742517,-0.235666 1.919208,0.08794 2.694362,0.740977 l 0.748314,0.630431 0.01153,4.181241 c 0.0063,2.299682 0.07947,4.583982 0.162504,5.076221 0.134254,0.795871 0.231197,0.933741 0.87542,1.244996 0.398446,0.192508 1.167173,0.405032 1.708282,0.472276 5.321716,0.661329 6.285215,0.965108 6.748986,2.127862 0.14437,0.36196 0.22115,0.81621 0.17062,1.00943 -0.11889,0.45465 -1.898004,1.98964 -2.802206,2.41771 -0.756402,0.3581 -2.706005,0.42868 -4.068958,0.14731 z m 17.211234,-0.3779 c -0.58422,-0.17438 -1.29741,-1.08981 -1.51051,-1.93885 -0.0666,-0.26539 -0.19597,-0.5288 -0.28746,-0.58534 -0.0915,-0.0566 -0.16636,-0.54272 -0.16636,-1.08037 0,-0.880624 0.0539,-1.009383 0.54334,-1.298511 0.29883,-0.176524 0.75132,-0.320954 1.00554,-0.320954 1.69469,0 2.19492,-0.680928 0.92992,-1.265807 -0.38585,-0.178398 -0.72961,-0.3875 -0.76391,-0.46467 -0.0343,-0.07717 -0.16124,-0.140309 -0.2821,-0.140309 -0.39522,0 -2.03538,-0.960759 -2.50653,-1.468249 -0.90765,-0.977667 -1.057,-1.489205 -1.04605,-3.582874 0.0105,-2.01338 0.47634,-3.987695 1.10693,-4.691696 0.1455,-0.162442 0.26455,-0.354692 0.26455,-0.427224 0,-0.11641 0.61413,-0.717692 2.90607,-2.845247 0.8996,-0.835079 1.90278,-1.576843 2.13257,-1.576843 0.10976,0 0.19956,-0.07903 0.19956,-0.175616 0,-0.09659 0.39988,-0.224584 0.88862,-0.284435 0.48875,-0.05985 1.35165,-0.254426 1.91756,-0.43239 1.41277,-0.444277 3.65969,-0.424727 4.35718,0.03791 0.78199,0.518694 0.91569,0.893163 0.68642,1.922607 -0.24569,1.103178 -1.27629,2.24246 -2.18229,2.412427 -0.34128,0.06402 -0.66663,0.191048 -0.72301,0.282277 -0.0564,0.09123 -0.29148,0.16587 -0.52244,0.16587 -0.39735,0 -2.16249,0.786018 -2.7123,1.207791 -0.72874,0.559033 -2.45805,2.239444 -2.45805,2.388543 0,0.09458 -0.12628,0.298243 -0.28062,0.452582 -0.42867,0.428668 -0.45597,1.788974 -0.0442,2.200773 0.12983,0.12983 0.6138,0.294283 1.0755,0.365453 0.82364,0.126962 2.46268,0.825458 2.58552,1.101852 0.0343,0.07717 0.17022,0.140309 0.30204,0.140309 0.37505,0 1.34306,0.953398 1.80449,1.777247 0.33553,0.599067 0.42035,1.049454 0.42531,2.258201 0.007,1.756915 -0.34852,2.537512 -1.88048,4.126462 -1.24659,1.29298 -1.72943,1.55041 -3.28759,1.7528 -1.59397,0.20705 -1.74028,0.20624 -2.47725,-0.0137 z m 33.43208,-1.84003 c -0.50265,-0.19947 -0.94139,-0.54584 -1.17224,-0.92546 -0.53713,-0.88324 -0.80136,-3.744474 -0.77123,-8.351511 0.0141,-2.160758 -0.0551,-4.435563 -0.15392,-5.055122 -0.0988,-0.619559 -0.19704,-2.143407 -0.21834,-3.38633 -0.0355,-2.074098 -0.005,-2.302668 0.37091,-2.78064 0.22531,-0.28643 0.40965,-0.602735 0.40965,-0.7029 0,-0.100166 0.63538,-0.807277 1.41196,-1.571359 l 1.41196,-1.389241 0.55237,0.393317 c 0.30379,0.216324 0.55367,0.450723 0.55528,0.520886 0.002,0.07016 0.33543,0.506404 0.74183,0.969424 0.73147,0.833387 1.35796,1.922226 1.60211,2.784466 0.0695,0.24529 0.41167,0.932939 0.76049,1.528108 0.34882,0.595168 0.63422,1.124432 0.63422,1.176142 0,0.341829 2.3701,4.157457 3.50495,5.64263 0.0787,0.102986 0.39265,0.520924 0.69768,0.928751 0.30502,0.407827 0.68386,0.877914 0.84185,1.044636 0.15799,0.166723 0.624,0.708969 1.03558,1.204991 1.3577,1.636282 1.55829,1.725883 2.08027,0.929233 0.3895,-0.594455 0.42029,-3.928855 0.0673,-7.288115 -0.3738,-3.557155 -0.0158,-8.369378 0.69527,-9.346237 0.3936,-0.540707 1.23739,-0.63115 1.68765,-0.180892 0.46417,0.464168 0.98689,1.600907 1.11196,2.418141 0.063,0.411573 0.17779,0.8325 0.25511,0.935393 0.0773,0.102893 0.20268,0.6484 0.27855,1.212238 0.0759,0.563837 0.27139,1.363598 0.43447,1.777247 0.24661,0.625522 0.30767,1.901893 0.36285,7.584571 0.0644,6.6363 0.0555,6.844995 -0.31158,7.268242 -0.47027,0.542226 -2.26788,1.894501 -2.51841,1.894501 -0.10193,0 -0.34341,0.14306 -0.53662,0.3179 -0.54428,0.49257 -2.75433,0.4096 -3.51487,-0.13195 -0.506,-0.3603 -2.71026,-2.557854 -3.95789,-3.945848 -0.98809,-1.099241 -2.5894,-2.928671 -3.17703,-3.629606 -0.34499,-0.411515 -0.73249,-0.859502 -0.86111,-0.995526 -0.12861,-0.136024 -0.23385,-0.322526 -0.23385,-0.41445 0,-0.261612 -0.65011,-0.54369 -0.8988,-0.389987 -0.16054,0.09922 -0.23793,1.326134 -0.27354,4.336525 -0.0438,3.699732 -0.0916,4.275902 -0.4028,4.852942 -0.63936,1.18547 -1.09285,1.32411 -2.50204,0.76489 z m -78.945706,-32.049 c -1.949922,-0.505276 -2.189751,-1.892238 -1.545499,-8.937799 0.09879,-1.080379 0.183289,-3.658495 0.187774,-5.729147 0.01102,-5.087406 0.324027,-5.956748 2.225831,-6.181989 1.22932,-0.145595 2.185816,0.301216 2.344623,1.095251 0.06307,0.315332 0.114666,1.857399 0.114666,3.426817 0,3.351337 0.190607,4.065484 1.165122,4.365354 0.336669,0.103597 1.874906,0.225815 3.418304,0.271596 2.484814,0.07371 2.924014,0.136556 3.835112,0.548813 0.565913,0.256066 1.189305,0.646101 1.385315,0.866744 0.525023,0.591001 0.828475,0.494942 0.948902,-0.300377 0.05842,-0.38585 0.195868,-1.24875 0.305429,-1.917556 0.109561,-0.668806 0.309272,-2.310421 0.443801,-3.648033 0.134529,-1.337612 0.329538,-2.751093 0.433352,-3.141068 0.24341,-0.914358 0.957348,-1.620048 1.772872,-1.752389 1.412861,-0.229276 2.951903,1.371631 2.680924,2.788689 -0.06396,0.334477 -0.196093,1.280385 -0.293627,2.10202 -0.09753,0.821634 -0.26523,1.523179 -0.372657,1.558988 -0.250303,0.08344 -0.263032,4.321368 -0.01494,4.973899 0.09921,0.260943 0.204442,2.181641 0.233849,4.268218 0.05026,3.566512 0.03105,3.819794 -0.320692,4.228094 -0.205786,0.238875 -0.6493,0.550918 -0.985586,0.693429 -0.544985,0.230954 -0.697457,0.220277 -1.403089,-0.09825 -1.894761,-0.855319 -2.407361,-1.869407 -2.529877,-5.004914 -0.04925,-1.260442 -0.141319,-2.291324 -0.204597,-2.290847 -0.06328,4.76e-4 -0.395333,0.26354 -0.737898,0.584588 l -0.622846,0.583722 -4.290458,0.152854 c -3.342661,0.119087 -4.350356,0.212752 -4.561604,0.423999 -0.156981,0.156981 -0.36338,1.008321 -0.490207,2.021968 -0.120484,0.962952 -0.282276,1.835008 -0.359537,1.937901 -0.07726,0.102893 -0.196656,0.450109 -0.265322,0.771591 -0.235714,1.103582 -1.267819,1.656464 -2.497439,1.337838 z M 49.222721,69.276872 C 48.337701,68.989099 47.611848,68.37069 47.222604,67.57282 46.828609,66.765214 46.801701,66.408574 46.678595,60.362516 46.607363,56.864146 46.493651,53.707194 46.4259,53.347067 46.110072,51.66828 46.274564,51.810611 44.772393,51.91633 c -0.74201,0.05222 -2.148871,0.190549 -3.126357,0.307394 -2.132613,0.254925 -5.088801,0.168455 -5.19561,-0.151974 -0.04057,-0.121721 -0.175064,-0.221312 -0.298866,-0.221312 -0.310637,0 -1.614511,-1.781889 -1.614511,-2.20641 0,-0.419812 1.23974,-1.909319 1.589156,-1.909319 0.137747,0 0.278523,-0.08422 0.312834,-0.187151 0.03431,-0.102933 0.567485,-0.282008 1.184831,-0.397943 0.617346,-0.115935 1.290819,-0.280076 1.496605,-0.364758 0.375059,-0.154338 3.495113,-0.436172 8.044381,-0.726648 2.977756,-0.190132 9.556445,-0.237969 10.369292,-0.0754 0.837167,0.167433 1.64278,1.235139 1.362613,1.805918 -0.111679,0.227523 -0.260113,0.624142 -0.329852,0.881375 -0.136651,0.504032 -0.791659,1.30955 -1.064862,1.30955 -0.09214,0 -0.519441,0.23415 -0.949553,0.520334 -0.934015,0.621467 -1.886036,0.969247 -3.401122,1.242456 -1.100468,0.198443 -1.123688,0.215223 -1.184526,0.855997 -0.03413,0.359473 -0.13311,0.739202 -0.219954,0.843843 -0.307056,0.36998 -0.212096,9.801726 0.105461,10.474728 0.0971,0.205786 0.176547,1.35437 0.176547,2.552408 0,2.640572 -0.179974,2.977969 -1.572393,2.947763 -0.472796,-0.01026 -1.028,-0.0734 -1.233786,-0.140309 z m 45.319798,-0.726746 c -0.488743,-0.03861 -0.888624,-0.149763 -0.888624,-0.247019 0,-0.09726 -0.111603,-0.176828 -0.248007,-0.176828 -0.316539,0 -0.931384,-0.670864 -1.320278,-1.440569 -0.383517,-0.759064 -0.388165,-2.338091 -0.01101,-3.741735 0.224566,-0.835768 0.31262,-2.480729 0.383534,-7.164885 0.09918,-6.551217 0.264108,-8.313459 0.827152,-8.838014 0.194132,-0.180862 0.419627,-0.329358 0.501099,-0.329992 0.08147,-6.34e-4 0.379333,-0.12176 0.661914,-0.269169 1.570623,-0.819321 5.766604,-1.05522 10.269224,-0.577338 2.89989,0.307777 3.70347,0.621638 3.96988,1.550536 0.21056,0.734183 3.8e-4,1.916225 -0.34072,1.916225 -0.1411,0 -0.28461,0.07953 -0.31891,0.176737 -0.0722,0.204653 -3.89525,0.708766 -7.21047,0.950785 -2.836735,0.207089 -3.0144,0.331461 -3.089979,2.163101 -0.06817,1.65205 0.08868,1.753149 2.036919,1.312907 0.80649,-0.182242 1.7449,-0.415884 2.08536,-0.519205 0.48802,-0.148104 0.76514,-0.118975 1.30955,0.13765 0.92659,0.436781 1.52522,1.024775 1.52915,1.501994 0.004,0.479148 -1.07602,1.625874 -1.85664,1.97141 -0.31468,0.139292 -0.57215,0.308658 -0.57215,0.376369 0,0.06771 -0.23151,0.218936 -0.51446,0.336057 -0.28296,0.117122 -0.8933,0.415015 -1.35632,0.661984 -0.463024,0.24697 -1.136507,0.503472 -1.496633,0.570003 -1.378492,0.254671 -1.309551,0.156499 -1.309551,1.864787 0,1.986186 0.19943,2.248359 1.571799,2.066307 0.519425,-0.0689 1.037925,-0.202893 1.152225,-0.297753 0.1143,-0.09486 1.17233,-0.22756 2.35118,-0.294889 l 2.14337,-0.122416 0.34861,0.540765 c 0.19174,0.29742 0.5577,0.751228 0.81325,1.008461 1.18677,1.194569 1.11629,2.372703 -0.21541,3.601264 -0.71113,0.656054 -0.83691,0.701544 -1.93971,0.701544 -0.6486,0 -1.3372,-0.09863 -1.53024,-0.219183 -0.27588,-0.172293 -0.58551,-0.150375 -1.44732,0.102452 -0.60299,0.176899 -1.390998,0.397654 -1.751125,0.490565 -0.786709,0.202968 -3.303472,0.334497 -4.536656,0.237092 z"
       id="path1" /></g></svg>
