<?xml version="1.0" encoding="UTF-8" standalone="no"?>
<!-- Created with Inkscape (http://www.inkscape.org/) -->

<svg
   width="210mm"
   height="210mm"
   viewBox="0 0 210 210"
   version="1.1"
   id="svg1"
   xml:space="preserve"
   xmlns="http://www.w3.org/2000/svg"
   xmlns:svg="http://www.w3.org/2000/svg"><defs
     id="defs1" /><g
     id="layer1">
     	<style>
		@media (prefers-color-scheme: dark) {
		.a { fill: #dad8d8 }
		}
	</style>
	<path class="a" fill="#333333"
       d="m 14.333661,151.04954 c -0.765044,-0.33305 -1.049485,-0.98421 -1.081803,-2.47653 -0.01552,-0.71678 0.04061,-1.66204 0.124746,-2.10058 0.08413,-0.43854 0.159074,-1.44971 0.166533,-2.24706 0.01525,-1.63058 0.382839,-6.28729 0.58362,-7.39355 0.07236,-0.39867 0.135447,-2.02176 0.1402,-3.60685 0.0071,-2.36837 0.05923,-3.07888 0.292479,-3.98672 0.156109,-0.6076 0.320858,-1.28578 0.366108,-1.50706 0.108177,-0.529 0.945588,-1.44277 1.759145,-1.91955 l 0.650626,-0.38129 2.92802,0.0649 c 3.479588,0.0772 7.343044,0.34071 7.856414,0.5359 0.33829,0.12861 0.35967,0.1887 0.27001,0.75857 -0.0536,0.3404 -0.25023,0.82077 -0.43707,1.0675 -0.18683,0.24673 -0.3397,0.52399 -0.3397,0.61613 0,0.28283 -0.31239,0.1855 -0.39291,-0.12241 -0.0928,-0.35494 -0.77624,-0.39238 -1.516489,-0.0831 -0.272301,0.11377 -0.916332,0.25219 -1.431178,0.30759 -0.514847,0.0554 -1.143758,0.22589 -1.397581,0.37887 -0.289747,0.17464 -1.064628,0.3574 -2.082139,0.49108 -2.04412,0.26858 -2.234515,0.31828 -2.548566,0.6653 -0.230147,0.25431 -0.25776,0.63908 -0.26437,3.68374 l -0.0074,3.39977 h 1.141527 c 0.987247,0 1.300739,0.0692 2.319547,0.51165 0.64791,0.28141 1.362708,0.6076 1.588439,0.72486 0.225732,0.11726 0.617155,0.21464 0.86983,0.21639 0.252676,0.002 0.743792,0.13222 1.091371,0.28994 0.347578,0.15772 0.692715,0.28676 0.766971,0.28676 0.284368,0 0.993098,0.64702 0.993098,0.90662 0,0.38335 -0.23665,0.78029 -0.53961,0.90511 -0.40422,0.16652 -3.055076,0.38374 -5.936282,0.48642 -1.44878,0.0516 -2.678128,0.13809 -2.731886,0.19212 -0.05376,0.054 -0.01984,0.69762 0.07538,1.43021 0.115083,0.88546 0.13815,2.07809 0.06881,3.55764 -0.09532,2.03394 -0.134307,2.26633 -0.452537,2.69767 -0.191526,0.25959 -0.412929,0.71227 -0.492009,1.00595 -0.110156,0.40909 -0.25009,0.57102 -0.598376,0.69243 -0.600621,0.20938 -1.250806,0.1919 -1.802984,-0.0485 z m 19.730568,-3.12082 c -1.85685,-0.31743 -2.08844,-0.39411 -2.58652,-0.85644 -0.77475,-0.71915 -0.96482,-1.3147 -1.13028,-3.54144 -0.13592,-1.82925 -0.12538,-2.13298 0.0941,-2.7123 0.13597,-0.35881 0.37113,-1.10634 0.52259,-1.6612 0.32629,-1.19528 0.65609,-1.8597 1.43561,-2.89217 0.61412,-0.8134 1.06431,-1.10053 1.72553,-1.10053 0.22543,0 0.68722,-0.0978 1.02621,-0.21745 1.41517,-0.4993 3.35957,-0.19546 4.72313,0.73807 0.5112,0.34998 1.55917,0.9306 2.32883,1.29026 2.03389,0.95045 2.5508,1.41981 2.8725,2.60827 0.33403,1.234 0.24962,2.88928 -0.19931,3.90842 -0.42883,0.9735 -1.74484,2.4372 -2.66365,2.96259 -0.41538,0.23752 -1.2119,0.56171 -1.77004,0.72043 -0.55814,0.15871 -1.48654,0.45694 -2.06312,0.66272 -1.23461,0.44063 -2.15571,0.46 -4.31563,0.0908 z m 3.92493,-4.55719 c 2.28089,-0.68766 2.96122,-1.12612 2.96122,-1.90842 0,-0.46251 -0.46033,-1.22244 -0.74116,-1.22354 -0.12857,-5.1e-4 -0.48004,-0.19663 -0.78104,-0.43583 -0.301,-0.23921 -0.59456,-0.43492 -0.65237,-0.43492 -0.0578,0 -0.35138,-0.19571 -0.65237,-0.43491 -0.47709,-0.37914 -0.66422,-0.43492 -1.45913,-0.43492 -0.82476,0 -0.94076,0.0381 -1.21443,0.39867 -0.16641,0.21927 -0.46128,0.57551 -0.65525,0.79164 -0.45453,0.50643 -0.57386,1.17995 -0.45298,2.55659 0.068,0.77442 0.16963,1.1644 0.33639,1.29087 0.3952,0.29971 2.04149,0.21756 3.31112,-0.16523 z m 101.342871,4.53918 c -0.44315,-0.34858 -1.11342,-1.68274 -1.26882,-2.52556 -0.0588,-0.31894 -0.24281,-0.95547 -0.40889,-1.41451 -0.16608,-0.45904 -0.37205,-1.33974 -0.45771,-1.95712 -0.28158,-2.02945 -0.55351,-3.27285 -0.74192,-3.39241 -0.2672,-0.16956 -1.32976,-0.14877 -1.80694,0.0354 -0.60239,0.23245 -3.05318,0.17211 -3.57459,-0.088 -0.23643,-0.11795 -0.56867,-0.21445 -0.73832,-0.21445 -0.18474,0 -0.65401,-0.3492 -1.17004,-0.87067 -0.77682,-0.78501 -0.85784,-0.92407 -0.82353,-1.41347 0.0817,-1.16509 0.15724,-1.31054 0.81068,-1.56009 0.77836,-0.29726 1.31974,-0.31759 4.30961,-0.16189 1.72979,0.0901 2.55352,0.0786 2.91452,-0.0405 0.51647,-0.17045 2.45666,-0.38522 4.89865,-0.54226 1.36273,-0.0876 1.39629,-0.0819 2.50906,0.43229 0.80919,0.37386 1.40979,0.79328 2.1257,1.48444 l 0.99785,0.96334 -0.0838,0.74568 c -0.1379,1.22679 -0.20923,1.29283 -1.32786,1.22962 -0.77387,-0.0437 -1.06903,-0.13232 -1.47664,-0.44322 -0.28019,-0.21371 -0.80115,-0.52089 -1.15769,-0.68262 -0.66046,-0.29959 -1.80048,-0.40223 -1.94106,-0.17476 -0.0427,0.0691 0.0197,0.67256 0.13858,1.34099 0.3825,2.14974 0.5473,5.53377 0.34512,7.08667 -0.19032,1.46175 -0.39432,1.85358 -1.17705,2.26084 -0.48978,0.25483 -0.43977,0.26029 -0.89489,-0.0977 z m -85.696631,-0.80338 c -0.55814,-0.11622 -1.3307,-0.37185 -1.71679,-0.56807 -0.3861,-0.19622 -0.79635,-0.35677 -0.91168,-0.35677 -0.58549,0 -2.18922,-2.32817 -2.99586,-4.34915 -0.37777,-0.94648 -0.71991,-3.13748 -0.54188,-3.47012 0.32121,-0.60019 1.02083,-1.024 1.69041,-1.024 1.16369,0 1.93717,0.634 1.94066,1.5907 10e-4,0.28126 0.14781,0.82118 0.32619,1.19982 0.39406,0.83647 1.96898,2.71783 2.27685,2.71987 0.58666,0.004 2.12277,-0.68802 2.5781,-1.16124 0.26852,-0.27907 0.68624,-0.70881 0.92827,-0.95497 0.56877,-0.57849 1.28228,-2.35157 1.28228,-3.18648 0,-0.61051 0.0207,-0.64262 0.41498,-0.64262 0.24283,0 0.64202,-0.18042 0.96225,-0.43491 0.73443,-0.58365 1.2692,-0.57194 1.88236,0.0412 0.57089,0.57088 0.86078,1.72146 0.77194,3.06379 -0.0698,1.0541 -1.23657,3.75205 -2.14039,4.94915 -0.64529,0.85468 -2.0592,1.97519 -3.1234,2.47526 -0.85585,0.40218 -2.04319,0.43773 -3.62429,0.10852 z m 109.308631,-0.20827 c -0.31894,-0.15413 -0.97131,-0.41854 -1.44972,-0.58758 -0.72636,-0.25664 -1.07308,-0.51381 -2.10209,-1.55915 -1.2205,-1.23987 -1.2369,-1.26634 -1.71899,-2.77402 -0.91057,-2.84774 -0.90113,-2.73843 -0.3653,-4.23178 0.54942,-1.53122 0.85695,-2.07918 1.62159,-2.88933 0.69792,-0.73947 1.99858,-1.57615 2.45386,-1.57851 0.14075,-7.3e-4 0.57988,-0.15821 0.97586,-0.34995 0.65182,-0.31563 0.75728,-0.32932 1.11433,-0.14468 0.21691,0.11217 0.43121,0.26352 0.47621,0.33634 0.045,0.0728 0.20487,0.10022 0.35526,0.0609 0.15039,-0.0393 0.31727,-5.9e-4 0.37084,0.0861 0.16853,0.27269 0.76596,0.17186 1.21363,-0.20482 0.44071,-0.37084 0.81718,-0.4627 0.95859,-0.2339 0.0437,0.0707 0.31219,0.1722 0.59666,0.22557 0.97321,0.18258 2.52784,1.29348 3.94272,2.81738 1.33391,1.4367 1.34047,1.44746 1.48309,2.4339 0.2336,1.61581 0.18887,4.41813 -0.0791,4.95527 -0.12544,0.25146 -0.28744,0.45719 -0.35999,0.45719 -0.0726,0 -0.2972,0.32619 -0.49922,0.72486 -0.24319,0.47991 -0.4588,0.72486 -0.63803,0.72486 -0.14889,0 -0.79207,0.26095 -1.42929,0.57988 -0.63722,0.31894 -1.24822,0.58275 -1.35778,0.58625 -0.10955,0.004 -0.46014,0.10409 -0.77908,0.22353 -0.61613,0.23074 -3.04116,0.63371 -3.76926,0.62635 -0.23921,-0.002 -0.69587,-0.1305 -1.0148,-0.28464 z m 4.27666,-4.86632 c 1.41931,-0.54167 1.37302,-0.4943 1.41412,-1.44673 0.0331,-0.7673 -0.0271,-0.97343 -0.5887,-2.01453 l -0.62559,-1.15978 -0.78853,0.006 c -0.43369,0.003 -0.96166,0.0576 -1.17326,0.12095 -0.32234,0.0965 -0.478,0.0308 -0.95989,-0.4045 -0.31633,-0.28579 -0.70523,-0.51962 -0.86422,-0.51962 -0.41017,0 -1.02373,0.52363 -1.50762,1.28665 -0.68163,1.07482 -0.54369,2.5424 0.34387,3.6585 0.10216,0.12847 0.55093,0.42845 0.99727,0.66663 0.77609,0.41415 0.85517,0.42723 1.81088,0.29964 0.54965,-0.0734 1.4234,-0.29525 1.94167,-0.49304 z m -14.85959,4.94833 c -0.0797,-0.0266 -0.31982,-0.0868 -0.53351,-0.13374 -0.55684,-0.12238 -0.84372,-0.469 -0.84372,-1.0194 0,-0.26335 -0.10712,-0.76428 -0.23805,-1.11317 -0.17283,-0.46058 -0.27105,-1.44853 -0.35855,-3.60628 -0.0663,-1.63455 -0.16078,-3.72215 -0.20999,-4.63909 l -0.0895,-1.66717 0.72311,-0.70477 0.72311,-0.70476 0.55851,0.18091 c 0.89313,0.2893 1.91403,0.84439 2.05931,1.11969 0.0737,0.13964 0.21365,0.84177 0.31101,1.56028 0.16817,1.241 0.15502,2.23157 -0.0846,6.37711 -0.0608,1.052 -0.0225,1.70824 0.13946,2.39204 0.20917,0.88284 0.20675,0.96519 -0.0383,1.30474 -0.14387,0.19934 -0.4184,0.44302 -0.61005,0.54151 -0.32055,0.16474 -1.16277,0.22734 -1.50822,0.1121 z m -57.118831,-1.51294 c -0.23921,-0.0671 -0.80394,-0.22217 -1.25495,-0.34469 -0.64137,-0.17423 -0.95225,-0.3662 -1.42685,-0.88108 -0.33374,-0.36207 -0.73162,-0.69792 -0.88417,-0.74634 -0.26518,-0.0842 -0.27643,-0.2673 -0.25635,-4.17346 0.0116,-2.24699 -0.0269,-4.32449 -0.0855,-4.61668 -0.0935,-0.4666 -0.0625,-0.56009 0.25506,-0.76817 0.19887,-0.1303 0.44133,-0.42945 0.5388,-0.66476 0.1735,-0.41886 0.19958,-0.42785 1.24127,-0.42785 0.83797,0 1.11916,-0.0561 1.3234,-0.2642 0.14264,-0.1453 0.46448,-0.40579 0.7152,-0.57885 0.41741,-0.28813 0.50298,-0.2985 1.0148,-0.12294 0.42627,0.14621 0.92029,0.16139 2.08116,0.0639 2.387281,-0.20039 3.129381,-0.0885 4.835211,0.7293 1.08551,0.52038 1.63594,0.88524 2.10017,1.39214 0.7291,0.79611 1.33807,2.03323 1.43822,2.92174 0.14337,1.27202 -0.92094,3.70968 -1.85066,4.2387 -0.23777,0.13529 -0.43271,0.2899 -0.43321,0.34359 -0.002,0.25087 -0.84393,1.05518 -1.50944,1.4426 -1.41705,0.82494 -1.547,0.88524 -3.734141,1.73285 -1.9974,0.77407 -3.18391,0.98323 -4.10802,0.72416 z m 2.32911,-4.20741 c 0.54838,-0.28452 0.95157,-0.40226 1.20468,-0.35181 0.27516,0.0548 0.71199,-0.10765 1.578441,-0.58716 0.65891,-0.36464 1.26018,-0.66298 1.33616,-0.66298 0.20737,0 1.12753,-0.96135 1.37122,-1.43259 0.25914,-0.50113 0.0934,-1.26861 -0.39656,-1.83675 -0.36804,-0.42672 -0.71412,-0.51733 -3.562791,-0.93271 -1.45713,-0.21248 -2.2506,-0.39995 -2.63909,-0.62354 -0.38615,-0.22224 -0.60167,-0.27354 -0.70695,-0.16827 -0.0898,0.0898 -0.18614,1.38822 -0.23667,3.18878 l -0.0852,3.03733 0.55621,0.39331 c 0.30592,0.21632 0.60124,0.39572 0.65627,0.39867 0.055,0.003 0.47097,-0.18707 0.92431,-0.42228 z m -28.20655,3.01787 c -0.35881,-0.23957 -0.92454,-0.56237 -1.25719,-0.71733 l -0.60482,-0.28176 0.0822,-1.08708 c 0.0683,-0.90326 0.0399,-1.13381 -0.16784,-1.3634 -0.18208,-0.2012 -0.21262,-0.34855 -0.11232,-0.54207 0.0757,-0.14616 0.17094,-1.12359 0.21154,-2.17205 0.0837,-2.16205 0.33653,-2.85884 1.22817,-3.38492 0.48352,-0.28528 0.48418,-0.28527 1.44704,0.0308 0.69316,0.22755 1.35261,0.6152 2.35155,1.38233 2.1245,1.63149 4.37078,3.08072 4.99228,3.22085 0.30778,0.0694 0.73795,0.29704 0.95593,0.50587 0.52,0.4982 1.36293,0.64328 1.74238,0.29989 0.26885,-0.24331 0.29892,-0.23167 0.79237,0.30668 0.41787,0.45589 0.55845,0.53093 0.75863,0.40493 0.51026,-0.32119 0.54943,-0.57201 0.33107,-2.11953 -0.11603,-0.82229 -0.21096,-2.06413 -0.21096,-2.75964 0,-1.1227 0.037,-1.3016 0.33021,-1.59469 0.27972,-0.27964 0.483,-0.33012 1.32931,-0.33012 1.22387,0 1.42909,0.15993 2.29825,1.79118 0.60293,1.13158 0.60883,1.15725 0.60798,2.64766 -4.7e-4,0.82775 -0.0983,2.15168 -0.21746,2.94208 -0.11913,0.7904 -0.2166,1.63932 -0.2166,1.8865 0,0.327 -0.0888,0.48839 -0.32619,0.59252 -0.1794,0.0787 -0.34703,0.28988 -0.37251,0.46929 -0.0386,0.27151 -0.13672,0.32618 -0.58567,0.32618 -0.29664,0 -0.92817,-0.10628 -1.40339,-0.23619 -1.43467,-0.39218 -2.69175,-0.64959 -3.80045,-0.77822 -0.97686,-0.11334 -1.88995,-0.29939 -3.9838,-0.81175 -0.45727,-0.11189 -1.01533,-0.20344 -1.24012,-0.20344 -0.2248,0 -0.72837,-0.20271 -1.11904,-0.45047 l -0.71032,-0.45047 -0.25849,0.31922 c -0.14216,0.17557 -0.33135,0.59031 -0.42041,0.92163 -0.17749,0.6603 -1.13375,1.69608 -1.55138,1.68039 -0.13618,-0.005 -0.54116,-0.20532 -0.89997,-0.44488 z m 117.499521,-0.64166 c -1.37706,-0.25947 -3.62103,-0.95987 -4.38198,-1.36771 -0.29852,-0.16 -0.63276,-0.29091 -0.74275,-0.29091 -0.10999,0 -0.52844,-0.17876 -0.92987,-0.39725 l -0.72989,-0.39726 -0.30454,0.42087 c -0.85063,1.17559 -1.20622,1.60226 -1.53679,1.84396 -0.32759,0.23953 -0.41796,0.24567 -0.94014,0.0639 -0.32718,-0.11387 -0.70439,-0.387 -0.86983,-0.62983 -0.16066,-0.23582 -0.41269,-0.59935 -0.56006,-0.80786 -0.16128,-0.22819 -0.25925,-0.59697 -0.24609,-0.92645 0.012,-0.30104 0.0303,-0.74923 0.0405,-0.99596 0.0116,-0.27775 -0.16035,-0.7396 -0.45139,-1.21261 -0.42712,-0.69416 -0.48958,-0.94948 -0.68328,-2.79329 -0.11725,-1.11612 -0.17538,-2.14843 -0.12917,-2.29403 0.0462,-0.1456 0.32072,-0.47255 0.61002,-0.72655 0.4998,-0.43884 0.56864,-0.45737 1.38258,-0.3723 0.47112,0.0492 1.03046,0.17901 1.24297,0.28837 0.21251,0.10937 0.6974,0.33782 1.07753,0.50769 0.38013,0.16986 0.99088,0.58512 1.35722,0.92281 0.36634,0.33768 0.88157,0.74571 1.14494,0.90673 0.26337,0.16101 1.14349,0.92882 1.95582,1.70623 1.03938,0.99471 1.58128,1.41347 1.82911,1.41347 0.19368,0 0.59469,0.10414 0.89114,0.23142 0.29644,0.12727 1.0935,0.42139 1.77124,0.65358 1.26211,0.4324 2.98236,0.61284 7.03113,0.73753 l 1.44971,0.0446 0.10613,-1.81215 c 0.0584,-0.99668 0.12787,-2.30486 0.15444,-2.90708 0.0809,-1.83357 0.78185,-2.85698 2.05508,-3.00049 0.46268,-0.0522 0.66394,-0.008 0.81638,0.17784 0.11128,0.13588 0.35026,0.38793 0.53107,0.56012 1.24852,1.18894 1.15047,0.99695 1.26081,2.46874 0.11129,1.48431 0.005,2.74161 -0.30692,3.63037 -0.10946,0.31188 -0.18781,0.88376 -0.17411,1.27084 0.0199,0.56333 -0.0448,0.77944 -0.32435,1.08298 -0.50663,0.55009 -1.3999,0.91402 -2.25239,0.91767 -0.45653,0.002 -0.80828,0.0814 -0.91162,0.20595 -0.0926,0.11152 -0.41042,0.23504 -0.70637,0.2745 -0.29595,0.0395 -1.09261,0.17928 -1.77035,0.31071 -1.75826,0.34097 -2.00361,0.36545 -4.42163,0.44118 -1.57795,0.0494 -2.49278,0.008 -3.33435,-0.15042 z m -76.45169,-0.11129 c -0.29919,-0.3605 -0.60074,-1.24693 -0.60074,-1.7659 0,-0.28481 0.12564,-0.76411 0.2792,-1.06512 0.2571,-0.50395 0.4542,-0.73163 1.52388,-1.76031 0.49988,-0.48072 1.49517,-2.5198 1.62033,-3.31963 0.0566,-0.36143 0.33385,-0.98893 0.64064,-1.44972 0.2975,-0.44685 0.71282,-1.11959 0.92293,-1.49496 0.49866,-0.89087 0.95064,-1.02787 2.50446,-0.7591 1.54353,0.267 2.73352,0.75574 3.40964,1.40038 0.5,0.47672 1.2808,0.83538 1.82377,0.83775 0.10164,4.5e-4 0.24351,0.15523 0.31527,0.34397 0.0718,0.18873 0.68936,0.9418 1.37247,1.67349 0.68357,0.7322 1.27952,1.50676 1.32546,1.7227 0.0459,0.21579 0.25202,0.87425 0.45803,1.46324 0.32029,0.91569 0.35039,1.13778 0.20766,1.53249 -0.0918,0.25388 -0.16692,0.70301 -0.16692,0.99806 0,0.44982 -0.0644,0.56229 -0.39867,0.69638 -0.21927,0.088 -0.54155,0.22596 -0.71619,0.30669 -0.17463,0.0807 -0.51252,0.10777 -0.75088,0.0601 -0.23835,-0.0477 -0.91093,0.0147 -1.49463,0.13871 -1.09367,0.23226 -4.16881,0.31328 -5.89334,0.15525 -1.05647,-0.0968 -1.45892,-0.31592 -1.90453,-1.03694 -0.3711,-0.60046 -0.68693,-0.66214 -0.81325,-0.15883 -0.24576,0.97919 -3.11782,2.14013 -3.66459,1.4813 z m 11.98273,-3.37361 c 0.0626,-0.4383 -0.96859,-1.6749 -1.92739,-2.31131 -0.93885,-0.62318 -2.85849,-1.40601 -3.16208,-1.28951 -0.11469,0.044 -0.38914,0.41871 -0.60991,0.83268 -0.22077,0.41397 -0.55526,0.96034 -0.74331,1.21416 -0.45166,0.60961 -0.45871,0.98746 -0.0157,0.84371 0.7977,-0.25886 1.37919,-0.22762 2.48302,0.13342 0.62812,0.20544 1.31311,0.37524 1.52221,0.37733 0.20909,0.002 0.64111,0.12885 0.96005,0.28169 0.76164,0.36499 1.43457,0.32796 1.49314,-0.0822 z m 31.04782,-8.8167 c -0.26443,-0.25539 -1.63724,-0.66481 -2.22915,-0.66481 -0.24313,0 -0.7695,-0.12937 -1.16971,-0.2875 -0.40021,-0.15812 -0.99459,-0.35357 -1.32083,-0.43432 -0.72331,-0.17903 -2.41065,-1.5554 -3.02107,-2.4643 -0.56474,-0.84088 -0.5728,-1.81812 -0.0276,-3.34673 0.37975,-1.06474 0.41917,-1.11445 1.36407,-1.72019 0.53517,-0.34307 1.14979,-0.74669 1.36583,-0.89694 0.21604,-0.15025 0.54842,-0.27317 0.73863,-0.27317 0.19021,0 0.47011,-0.13766 0.622,-0.30591 0.24435,-0.27067 0.37893,-0.29543 1.16801,-0.21488 1.0877,0.11102 1.6655,0.30398 2.50713,0.83726 0.72908,0.46197 0.87769,0.49618 0.87769,0.20205 0,-0.26697 0.69866,-1.09841 0.92299,-1.09841 0.0948,0 0.28406,-0.13047 0.42061,-0.28994 0.28042,-0.32752 1.12631,-0.38751 2.00853,-0.14245 0.704,0.19555 1.78716,1.17295 2.30533,2.08024 0.39477,0.69122 0.41627,0.80912 0.33346,1.8288 -0.0976,1.20222 -0.58289,2.36662 -1.35074,3.24115 -0.2398,0.27312 -0.43628,0.5532 -0.43662,0.62241 -3.5e-4,0.0692 -0.2593,0.46701 -0.57545,0.88401 -0.31616,0.417 -0.7071,1.01745 -0.86876,1.33434 -0.24331,0.47692 -0.38764,0.59146 -0.83802,0.66506 -1.16055,0.18964 -1.42703,0.25595 -1.8054,0.44926 -0.49594,0.25336 -0.7246,0.2522 -0.99093,-0.005 z M 14.832739,114.28467 c -0.725714,-0.42362 -1.768467,-3.27208 -1.429613,-3.90524 0.09027,-0.16867 0.118629,-0.51942 0.06507,-0.80489 -0.06244,-0.33283 -0.01793,-0.66818 0.130071,-0.98008 0.187766,-0.39569 0.216625,-1.01317 0.174439,-3.73244 -0.0278,-1.79207 -0.05961,-6.769777 -0.07068,-11.061563 -0.01896,-7.348724 -0.0045,-7.830049 0.247888,-8.263384 0.486991,-0.83606 1.867085,-1.030854 2.69417,-0.380269 0.585883,0.460855 0.818103,1.10433 1.053605,2.9195 0.177425,1.367533 0.185216,1.762394 0.04008,2.03107 -0.218416,0.404317 -0.201853,2.750036 0.0305,4.320234 0.21044,1.422085 0.403048,6.939052 0.256669,7.351862 -0.147255,0.41528 0.136977,6.96724 0.316825,7.30329 0.19232,0.35935 1.507451,0.50486 2.471895,0.27349 0.518685,-0.12443 1.093225,-0.14355 1.854541,-0.0617 2.067115,0.22221 3.038626,0.15902 4.29242,-0.27919 0.85294,-0.29811 1.30711,-0.38187 1.71672,-0.31661 0.74112,0.11809 1.52075,0.53244 2.05012,1.08958 l 0.43249,0.45519 -0.36001,0.68162 c -0.32892,0.62276 -0.44138,0.70875 -1.30232,0.99575 -0.51827,0.17278 -1.26325,0.48265 -1.6555,0.68862 -0.39225,0.20596 -0.85642,0.37448 -1.03149,0.37448 -0.17507,0 -0.4739,0.12075 -0.66405,0.26833 -0.696955,0.54091 -1.081049,0.63783 -3.013588,0.76044 -1.084183,0.0688 -2.754089,0.19009 -3.710902,0.26957 -2.20137,0.18287 -4.278282,0.18393 -4.589354,0.002 z m 23.60054,-2.38287 c -0.30799,-0.1098 -0.75638,-0.38419 -0.99641,-0.60977 -0.47499,-0.44637 -0.89631,-1.28196 -0.75868,-1.50465 0.0474,-0.0767 0.005,-0.36506 -0.0951,-0.64083 -0.14656,-0.4053 -0.14512,-0.56902 0.007,-0.85418 0.1586,-0.29635 0.15084,-0.46706 -0.0486,-1.06741 -0.30883,-0.92981 -0.18951,-2.44901 0.31626,-4.02656 l 0.37182,-1.15978 0.0118,-6.306267 c 0.007,-3.939248 -0.0481,-6.687033 -0.14785,-7.320713 -0.20011,-1.271794 -0.075,-1.740288 0.655,-2.453136 0.43109,-0.420948 0.63628,-0.529623 0.83538,-0.442445 0.14516,0.06356 1.60129,0.121234 3.23585,0.128164 1.95673,0.0083 3.54141,0.09558 4.63909,0.255508 1.79344,0.261304 2.27965,0.403053 2.90161,0.845926 0.21957,0.156347 0.7303,0.355272 1.13495,0.442055 1.12269,0.240773 1.47236,0.584851 1.47236,1.44879 0,0.634943 -0.0384,0.72121 -0.35648,0.801046 -0.19606,0.04921 -0.43238,0.180926 -0.52515,0.292705 -0.18964,0.228506 -2.98329,0.26931 -4.5548,0.06653 -0.79657,-0.102788 -4.36646,0.15716 -5.03743,0.366809 -0.35009,0.109389 -0.45101,0.632412 -0.34188,1.771885 0.0511,0.533462 0.0275,2.255662 -0.0524,3.827111 -0.0799,1.571449 -0.10715,2.95647 -0.0606,3.07782 0.0466,0.12135 0.32282,0.29306 0.61389,0.38159 0.40484,0.12313 3.77094,0.2613 6.78812,0.27864 0.21107,0.001 1.06216,0.705262 1.06216,0.878652 0,0.23167 -0.90565,1.16301 -1.35881,1.39735 -1.87374,0.96895 -5.20853,1.59659 -6.39774,1.20411 -0.49583,-0.16364 -0.57576,-0.15497 -0.74843,0.0812 -0.28159,0.3851 -0.26145,2.84606 0.0279,3.40554 l 0.22118,0.42771 1.84467,-0.001 c 1.01456,-6e-4 2.24839,-0.0666 2.74184,-0.14671 1.67463,-0.27178 2.51042,-0.22494 3.31611,0.18587 0.99299,0.50631 1.10685,0.68084 1.18231,1.81244 l 0.0651,0.97644 -0.54055,0.42162 c -0.37218,0.29029 -0.90656,0.50061 -1.71556,0.67521 -0.64625,0.13947 -1.43594,0.31768 -1.75488,0.39603 -0.31894,0.0784 -1.50296,0.18286 -2.63116,0.23225 -1.44151,0.0631 -2.3198,0.17557 -2.95457,0.37836 -1.05,0.33543 -1.59174,0.35287 -2.36781,0.0762 z m 47.03801,-0.23458 c -0.87072,-0.17096 -1.41621,-0.57846 -2.26535,-1.69229 -0.39665,-0.5203 -1.04737,-1.28807 -1.44604,-1.70616 -1.8534,-1.94367 -2.39745,-3.80106 -2.20705,-7.53489 0.0366,-0.71761 0.17058,-1.565704 0.29773,-1.884634 0.12716,-0.31894 0.33296,-1.03049 0.45733,-1.581223 0.12437,-0.550733 0.55087,-1.773397 0.94779,-2.71703 0.39691,-0.943633 0.72166,-1.805289 0.72166,-1.914792 0,-0.109502 0.12167,-0.354676 0.27037,-0.544832 0.1487,-0.190155 0.44103,-0.683615 0.64961,-1.096578 0.20859,-0.412963 0.44573,-0.791927 0.52698,-0.842143 0.0812,-0.05021 0.14773,-0.274192 0.14773,-0.497726 0,-0.236713 0.18772,-0.64176 0.44955,-0.970003 0.24725,-0.309968 0.60186,-0.863018 0.78803,-1.229 0.32015,-0.629376 1.23022,-1.581638 1.51157,-1.581638 0.0713,0 0.23012,-0.100549 0.35301,-0.223441 0.19901,-0.199014 0.26911,-0.199824 0.6412,-0.0074 0.66859,0.345741 0.89573,0.826887 0.89573,1.897396 0,0.805385 -0.10353,1.198669 -0.67266,2.555323 -0.36996,0.881889 -0.90299,1.938291 -1.18452,2.347559 -0.29107,0.423149 -0.58622,1.089676 -0.68425,1.545226 -0.2183,1.014484 -0.60547,2.268533 -0.87395,2.830706 -0.11423,0.239203 -0.33697,1.185143 -0.49497,2.102086 -0.158,0.91695 -0.36442,1.910144 -0.4587,2.207094 -0.15637,0.49247 -0.13118,0.62725 0.28666,1.53377 0.25196,0.54661 0.4581,1.12091 0.4581,1.27621 0,0.1553 0.10897,0.44367 0.24215,0.64081 0.44354,0.65654 1.81287,2.17399 2.10086,2.32812 0.42283,0.2263 2.23639,-0.095 2.97305,-0.52671 0.33381,-0.19562 0.79102,-0.35711 1.01602,-0.35886 0.4549,-0.004 1.55077,-0.45782 1.70452,-0.70658 0.0544,-0.088 0.29976,-0.16007 0.54524,-0.16007 0.30928,0 0.67954,-0.18917 1.2059,-0.61613 1.01338,-0.82198 1.58602,-2.11554 1.8953,-4.28137 0.34418,-2.410251 0.32241,-4.286834 -0.0606,-5.219639 -0.17308,-0.421558 -0.31468,-0.89056 -0.31468,-1.042228 0,-0.2464 -0.77705,-1.311268 -1.37775,-1.888081 -0.12456,-0.119602 -0.5557,-0.537015 -0.9581,-0.927585 -0.92183,-0.89472 -1.56771,-1.233556 -2.66001,-1.395463 -0.62904,-0.09324 -0.93613,-0.218658 -1.12869,-0.460967 -0.36361,-0.457565 -0.97907,-1.655619 -0.97907,-1.905875 0,-0.112974 0.27137,-0.450569 0.60304,-0.75021 l 0.60303,-0.544802 1.46281,0.08354 c 2.22127,0.126855 3.68983,0.470651 4.21728,0.987287 0.89844,0.88002 2.0428,1.816422 2.41471,1.975903 0.25151,0.107847 0.41905,0.319623 0.48292,0.610427 0.10617,0.483354 1.1811,2.182773 1.38068,2.182773 0.350471,0 0.578241,0.499288 0.578241,1.267559 0,0.446564 0.10122,1.352087 0.22493,2.012274 0.18149,0.968557 0.192,1.320658 0.0545,1.823443 -0.0992,0.36251 -0.15946,1.44511 -0.14417,2.58859 l 0.0263,1.965494 -0.57982,1.199 c -0.318901,0.65945 -0.640581,1.27544 -0.714841,1.36886 -0.0742,0.0934 -0.17745,0.46373 -0.22933,0.8229 -0.1215,0.8412 -0.77871,1.98661 -1.48692,2.59145 -0.90381,0.7719 -2.49062,1.72254 -3.55266,2.12837 -0.54428,0.20798 -1.02473,0.43499 -1.06767,0.50447 -0.0429,0.0695 -0.17467,0.0893 -0.29273,0.044 -0.11807,-0.0453 -0.29666,-0.0143 -0.39688,0.0689 -0.17609,0.14614 -1.20045,0.48709 -2.8585,0.95144 -0.75341,0.21099 -2.86603,0.54301 -3.23611,0.50858 -0.0939,-0.009 -0.45771,-0.0722 -0.80848,-0.14111 z m -21.72871,-0.49114 c -0.3414,-0.1066 -0.71574,-0.27268 -0.83188,-0.36907 -0.11614,-0.0964 -0.79583,-0.41643 -1.51044,-0.71121 -1.1459,-0.4727 -1.45598,-0.68704 -2.62676,-1.81567 -1.02039,-0.98366 -1.37963,-1.4344 -1.5529,-1.94845 -0.12399,-0.36782 -0.30853,-0.79924 -0.4101,-0.95871 -0.10158,-0.15947 -0.20434,-0.51827 -0.22836,-0.79734 -0.0556,-0.64525 0.13497,-3.65285 0.32143,-5.074014 0.0785,-0.59801 0.2369,-1.926381 0.3521,-2.95194 0.12456,-1.108938 0.30002,-2.002881 0.43292,-2.205717 0.12291,-0.187586 0.22348,-0.443182 0.22348,-0.567991 0,-0.413899 0.74602,-2.016283 1.39442,-2.995089 0.82233,-1.241367 2.21234,-2.533825 2.92141,-2.716374 0.77079,-0.198442 1.92213,-0.45178 2.39452,-0.526888 0.22225,-0.03534 0.53156,-0.132464 0.68735,-0.215839 0.20752,-0.111061 0.49884,-0.08892 1.08961,0.08282 0.55932,0.162598 1.03041,0.203601 1.53767,0.133835 0.70728,-0.09727 0.75041,-0.0822 1.31235,0.458619 0.94793,0.912299 1.31794,1.590654 1.2027,2.204944 -0.21344,1.13774 -0.58323,1.292671 -2.55671,1.071196 -0.6669,-0.07484 -1.71455,-0.09702 -2.32812,-0.04928 -0.99305,0.07727 -1.1682,0.136765 -1.59468,0.541727 -0.26352,0.250211 -0.69449,0.563499 -0.95773,0.696196 -0.26324,0.132697 -0.51433,0.352021 -0.55799,0.487387 -0.0436,0.135367 -0.23285,0.646654 -0.42044,1.136195 -0.65171,1.700718 -1.26804,7.324853 -0.99918,9.117713 0.0939,0.62595 0.21855,0.80876 1.19918,1.75808 0.88411,0.85589 1.24547,1.1034 1.88049,1.28801 1.28149,0.37254 2.14226,0.42563 2.75035,0.16963 0.29724,-0.12514 0.71551,-0.26502 0.92949,-0.31086 0.51069,-0.10941 1.11906,-0.92561 0.82751,-1.11023 -0.11097,-0.0703 -0.35499,-0.12876 -0.54228,-0.12998 -0.89606,-0.006 -1.77841,-0.79769 -2.36402,-2.12156 l -0.29407,-0.66479 0.42281,-0.52239 c 0.2497,-0.30852 0.62503,-0.57479 0.91676,-0.65039 0.57528,-0.14907 2.40639,-0.0739 4.79909,0.19705 1.56641,0.17737 1.73324,0.17206 2.27551,-0.0725 0.62368,-0.28124 1.03568,-0.23023 1.03568,0.12823 0,0.17531 0.12634,0.20192 0.63065,0.13279 0.9058,-0.12415 1.19611,0.0823 1.30863,0.93051 0.13362,1.00731 -0.10949,1.626 -0.63895,1.626 -0.26718,0 -0.43971,0.0906 -0.49312,0.25884 -0.13032,0.41062 -1.22792,1.17158 -2.07501,1.4386 -0.68208,0.21501 -0.84426,0.34659 -1.33744,1.08514 -0.30868,0.46225 -0.63538,1.0651 -0.72599,1.33965 -0.25285,0.76615 -1.79603,2.11941 -2.839,2.48961 -2.80541,0.99577 -3.66222,1.11899 -4.96094,0.71347 z m 123.684261,-8.6956 c -0.0999,-0.26044 0.062,-0.54865 0.24487,-0.43567 0.1837,0.11354 0.17169,0.64619 -0.0146,0.64619 -0.0822,0 -0.18587,-0.0947 -0.2303,-0.21052 z M 66.127139,77.401278 c -1.44698,-0.594957 -2.93843,-1.740126 -3.39457,-2.606433 -0.31244,-0.593374 -0.29362,-3.030268 0.032,-4.142587 0.12837,-0.438539 0.29155,-1.020236 0.36261,-1.292661 0.0711,-0.272424 0.22517,-0.696466 0.34245,-0.942315 0.11727,-0.24585 0.28431,-0.610093 0.37119,-0.809429 0.0869,-0.199336 0.23804,-0.492903 0.33591,-0.652372 0.0979,-0.159469 0.32085,-0.524387 0.49552,-0.81093 0.37,-0.607 1.0119,-0.948099 2.18534,-1.161273 0.46204,-0.08394 1.33757,-0.375829 1.94561,-0.64865 1.60981,-0.722298 3.19087,-0.615434 4.89444,0.330815 l 0.92596,0.514329 -0.0755,1.478466 c -0.0837,1.640389 -0.28543,2.19532 -0.97694,2.687718 -0.27815,0.198065 -0.4371,0.437688 -0.4371,0.658969 0,0.676095 -1.95949,2.237681 -2.81908,2.246632 -0.24353,0.0025 -0.56941,0.100391 -0.72419,0.217457 -0.31118,0.235365 -1.18218,0.28095 -1.70251,0.0891 -0.87337,-0.322008 -1.13297,-0.32866 -1.13297,-0.02903 0,0.158213 0.20483,0.520948 0.45518,0.806077 l 0.45517,0.518417 1.70786,-0.06037 c 1.38985,-0.04913 1.78424,-0.11298 2.11807,-0.34293 0.44415,-0.30594 2.0413,-0.913392 2.40155,-0.913392 0.30614,0 0.382,0.396813 0.29148,1.524546 -0.0697,0.868169 -0.10531,0.955599 -0.36203,0.888467 -0.4067,-0.106355 -0.87975,0.108043 -1.5254,0.691346 -0.30914,0.279295 -0.72029,0.577439 -0.91365,0.662543 -0.19336,0.0851 -0.56764,0.31239 -0.83172,0.50508 -0.26409,0.19269 -0.85123,0.424978 -1.30475,0.516195 -0.45352,0.09122 -0.93787,0.225464 -1.07632,0.298326 -0.42284,0.222524 -1.15605,0.142835 -2.04364,-0.222114 z m 3.16194,-8.500232 c 0.29899,-0.298327 -0.14821,-0.642427 -0.79497,-0.611689 -1.00942,0.04798 -1.45654,0.753794 -0.66756,1.053818 0.30348,0.115405 1.16469,-0.144941 1.46253,-0.442129 z m -42.74452,7.925757 c -0.72165,-0.223569 -0.888091,-0.467363 -1.127308,-1.651269 -0.222449,-1.10092 -0.206837,-7.313118 0.02206,-8.777659 0.100773,-0.644775 0.08592,-0.922249 -0.06207,-1.159774 -0.109982,-0.176516 -0.234704,-0.971916 -0.286949,-1.829989 -0.05083,-0.834771 -0.148407,-1.573761 -0.216846,-1.6422 -0.258911,-0.258911 -1.313903,-0.385159 -3.276775,-0.392122 -2.461534,-0.0087 -6.654198,-0.544275 -7.625831,-0.974075 -0.470924,-0.208312 -0.727708,-0.437244 -0.901693,-0.803889 -0.344227,-0.725405 -0.304099,-1.13867 0.174752,-1.799704 0.706521,-0.975324 0.817255,-0.991533 5.437724,-0.795941 2.241152,0.09487 4.82505,0.239273 5.741996,0.320892 1.54537,0.137556 9.10261,0.09021 9.57589,-0.06 0.4874,-0.154685 1.72025,-0.29783 2.52924,-0.293668 1.07633,0.0055 2.28152,0.542455 3.20605,1.428313 0.8186,0.784353 0.83809,1.221281 0.0969,2.17262 l -0.53879,0.691565 -0.65722,-0.123544 c -0.36148,-0.06795 -1.27698,-0.114469 -2.03446,-0.103377 -2.00235,0.02932 -6.60347,0.440954 -6.93959,0.62084 -0.42511,0.22751 -0.48393,1.072763 -0.42947,6.171487 0.0459,4.301055 0.062,4.524495 0.37418,5.201165 0.35426,0.767902 0.40891,1.105102 0.17909,1.105102 -0.21384,0 -0.72156,0.887779 -0.72219,1.262786 -3e-4,0.176258 -0.0821,0.385005 -0.18176,0.463881 -0.0997,0.07888 -0.45007,0.375016 -0.77867,0.658088 -0.64639,0.556831 -0.71737,0.570974 -1.55826,0.31047 z m 29.73133,-1.527685 c -0.3105,-0.272619 -0.63038,-0.793873 -0.88421,-1.440846 -0.70718,-1.802498 -1.54583,-2.630412 -2.65769,-2.623689 -0.66184,0.004 -2.73764,0.926472 -3.36964,1.497444 -0.32248,0.291346 -0.65138,0.529721 -0.73089,0.529721 -0.0795,0 -0.41208,0.267527 -0.73906,0.594504 -0.32697,0.326978 -0.87532,0.718726 -1.21855,0.870552 -0.61449,0.271817 -0.63407,0.271752 -1.27793,-0.0042 -0.47812,-0.204946 -0.75094,-0.448693 -1.01496,-0.906795 l -0.36108,-0.626508 0.12907,-3.98672 c 0.071,-2.192697 0.15339,-4.671712 0.1831,-5.508923 0.0846,-2.38248 0.37921,-6.712752 0.58818,-8.644348 0.17698,-1.635922 0.22327,-1.79934 0.66566,-2.349827 0.37465,-0.466207 0.60193,-0.610516 1.0721,-0.680712 0.83907,-0.125271 1.3291,0.10646 1.68012,0.794505 0.28876,0.566019 0.2931,0.679098 0.14055,3.66072 -0.0866,1.692163 -0.18607,3.123015 -0.22108,3.179672 -0.035,0.05666 -0.0712,1.891181 -0.0803,4.07672 -0.0165,3.95113 0.0523,4.602363 0.48659,4.602363 0.0917,0 0.31,-0.134555 0.48505,-0.299011 0.17506,-0.164455 0.66854,-0.388894 1.09663,-0.498752 0.4281,-0.109858 1.07192,-0.274521 1.43072,-0.365917 0.35881,-0.0914 0.87062,-0.232236 1.13737,-0.312978 0.5906,-0.178769 1.61959,-0.04324 2.45733,0.323652 0.34252,0.150012 1.14168,0.782679 1.7759,1.405927 l 1.15313,1.133177 v 2.059332 c 0,2.480296 -0.17842,3.304143 -0.79735,3.681719 -0.55999,0.341628 -0.55595,0.342205 -1.12877,-0.160743 z"
       id="path1" /></g></svg>
