<?xml version="1.0" encoding="UTF-8" standalone="no"?>
<!-- Created with Inkscape (http://www.inkscape.org/) -->

<svg
   width="210mm"
   height="210mm"
   viewBox="0 0 210 210"
   version="1.1"
   id="svg1"
   xml:space="preserve"
   xmlns="http://www.w3.org/2000/svg"
   xmlns:svg="http://www.w3.org/2000/svg"><defs
     id="defs1" /><g
     id="layer1">

	<style>
		@media (prefers-color-scheme: dark) {
		.a { fill: #dad8d8 }
		}
	</style>
	<path class="a" fill="#333333"
       d="m 45.138734,186.40873 c -3.308645,-0.56708 -4.219422,-0.83276 -6.214605,-1.8128 -1.784908,-0.87676 -3.267756,-2.05617 -4.092246,-3.25485 -0.28771,-0.41829 -1.180677,-2.0456 -1.98437,-3.61625 -2.213629,-4.32606 -3.499653,-6.14789 -4.832497,-6.84588 -0.45263,-0.23703 -0.534026,-0.22025 -1.053984,0.21726 -0.539379,0.45386 -0.626334,0.46857 -2.033525,0.34401 l -1.47005,-0.13013 -1.379647,-1.57807 c -1.405778,-1.60797 -2.208394,-2.12558 -5.267868,-3.39726 -0.917629,-0.38141 -1.419567,-0.84677 -2.279358,-2.11323 -0.45265,-0.66675 -0.72522,-1.31308 -0.809372,-1.91922 -0.605761,-4.36323 -0.840064,-6.68508 -0.736908,-7.30246 0.133121,-0.79669 0.575784,-1.81543 1.274609,-2.93336 0.310448,-0.49663 0.431547,-0.907 0.377569,-1.27948 -0.106041,-0.73172 -0.615747,-2.22517 -1.029316,-3.01591 -0.184027,-0.35185 -0.63391,-1.6609 -0.999741,-2.90899 l -0.665147,-2.26925 0.186626,-3.03144 c 0.3473,-5.64134 1.992047,-11.87243 3.624902,-13.73287 0.304634,-0.3471 0.681228,-0.93603 0.836876,-1.30873 0.155647,-0.37271 0.843858,-1.51819 1.529358,-2.54551 0.917164,-1.37452 1.463613,-2.00144 2.068884,-2.37358 0.452386,-0.27814 1.669958,-1.02446 2.705714,-1.65849 1.035756,-0.63402 2.409043,-1.50179 3.051749,-1.92838 2.279609,-1.51304 5.203426,-2.3569 9.047918,-2.61134 4.76949,-0.31567 5.928198,-0.27685 8.120499,0.27208 l 1.982438,0.49638 0.554858,-0.41022 c 0.682026,-0.50425 1.586453,-0.50085 2.587923,0.01 0.397676,0.20275 0.900194,0.36863 1.116706,0.36863 0.632636,0 1.300281,0.66164 1.992082,1.97417 0.857576,1.62704 1.951937,2.88435 2.628268,3.01961 0.294002,0.0588 0.769833,0.30924 1.057402,0.55653 0.558309,0.4801 0.524861,0.30322 0.906672,4.79473 0.106651,1.25461 0.09382,1.31024 -0.389897,1.69073 -0.275097,0.2164 -0.655518,0.39344 -0.845379,0.39344 -0.189862,0 -1.041734,-0.66869 -1.893049,-1.48599 l -1.547847,-1.48599 -1.488491,0.12984 c -0.81867,0.0714 -2.032571,0.24517 -2.697559,0.38612 -0.664987,0.14096 -1.643866,0.25771 -2.175286,0.25946 -0.882394,0.003 -2.784235,0.36205 -6.710646,1.26726 -0.804243,0.18541 -2.243655,0.6406 -3.198694,1.01152 -0.955038,0.37092 -2.620462,0.98972 -3.700941,1.37511 -1.080479,0.38539 -2.402484,0.94789 -2.937788,1.25 -0.891846,0.50332 -1.035859,0.53258 -1.721233,0.34964 -0.691972,-0.1847 -0.798186,-0.16133 -1.419095,0.31227 -0.524024,0.39969 -0.802294,0.49062 -1.269457,0.41481 -0.530846,-0.0862 -0.670823,-0.0104 -1.24131,0.67213 l -0.642994,0.76923 -0.09388,3.00786 c -0.06418,2.05625 -0.228383,3.70179 -0.519021,5.20125 -0.588625,3.03683 -0.555931,3.91641 0.200423,5.39208 0.548493,1.07013 0.617193,1.37864 0.691936,3.1073 0.09473,2.19096 0.195376,2.37754 1.765033,3.27218 0.509674,0.29049 1.678694,1.27513 2.597823,2.1881 1.402485,1.39308 1.684704,1.77079 1.755492,2.34952 0.04639,0.37927 0.238405,1.24319 0.426698,1.91982 l 0.342351,1.23024 -0.810726,0.82607 c -1.326971,1.35208 -1.654843,1.17582 -3.072148,-1.6516 -0.853524,-1.70272 -1.767384,-2.61881 -3.367149,-3.37538 -1.627272,-0.76958 -2.442215,-0.86442 -2.991734,-0.34817 -0.425568,0.3998 -0.442706,0.51042 -0.442706,2.85747 0,3.00236 0.140558,3.39824 1.582371,4.45675 0.587387,0.43124 1.95111,1.59228 3.030497,2.5801 1.079387,0.98781 2.155748,1.88407 2.391913,1.99167 0.369824,0.16851 0.604701,0.0828 1.693128,-0.61784 0.695055,-0.44741 1.537991,-0.95369 1.873191,-1.12505 1.329349,-0.67959 2.457493,-0.22305 2.364694,0.95695 -0.04578,0.58208 0.01783,0.66826 0.819609,1.1105 1.135248,0.62617 1.785299,1.44673 2.493191,3.14716 0.317807,0.76341 0.781113,1.66355 1.029569,2.00031 0.248457,0.33676 0.451739,0.67786 0.451739,0.75799 0,0.0801 0.29262,0.52904 0.650268,0.99758 0.357647,0.46855 0.990324,1.47685 1.405949,2.24067 1.029902,1.89273 3.044873,3.92801 4.166201,4.2082 0.448089,0.11196 1.456825,0.37924 2.241635,0.59394 1.305814,0.35723 1.693661,0.37958 4.569562,0.26326 1.728449,-0.0699 3.51277,-0.20625 3.965157,-0.30299 0.452386,-0.0967 1.273084,-0.25667 1.823773,-0.3554 0.550689,-0.0987 1.689555,-0.50977 2.530813,-0.91344 2.24643,-1.07791 3.389999,-0.94307 3.980125,0.4693 0.335611,0.80323 0.172042,1.19486 -1.2121,2.90208 -0.752071,0.92762 -1.276998,1.40879 -1.606573,1.47268 -0.269236,0.0522 -1.106411,0.29949 -1.860389,0.54955 -0.753977,0.25007 -2.645776,0.6596 -4.203997,0.91008 -1.558221,0.25048 -3.230101,0.53791 -3.71529,0.63872 -1.054912,0.2192 -0.727503,0.24412 -3.870183,-0.29452 z m -0.350727,-7.35781 c -0.05397,-0.0873 -0.427679,-0.21147 -0.830463,-0.27588 -0.626996,-0.10026 -0.787811,-0.22584 -1.117997,-0.87306 -0.474954,-0.93099 -0.389483,-1.15972 0.990205,-2.64995 1.22291,-1.32089 1.720968,-2.5102 1.954277,-4.66661 0.16704,-1.54391 0.158625,-1.60715 -0.308871,-2.32119 -0.577603,-0.88222 -1.185601,-1.15152 -3.74688,-1.65959 -2.522489,-0.50038 -2.721799,-0.60029 -3.306801,-1.65761 -0.661488,-1.19555 -0.643305,-1.67135 0.08736,-2.28617 0.557195,-0.46885 0.666503,-0.49101 1.964912,-0.39848 1.952448,0.13916 5.038451,0.80379 6.218631,1.3393 2.620922,1.18927 3.630855,3.32778 3.419988,7.24175 -0.132823,2.46537 -0.588828,3.80259 -2.054857,6.02585 -1.014979,1.53923 -1.252666,1.79288 -1.684677,1.79788 -0.276637,0.003 -0.662637,0.12657 -0.85778,0.27417 -0.406642,0.30757 -0.587815,0.33488 -0.727052,0.10959 z m 10.86072,-1.50428 c -1.538267,-0.22585 -3.079979,-0.9908 -3.609954,-1.79115 -0.893903,-1.34995 -0.32081,-3.00417 1.198466,-3.45936 1.129927,-0.33853 1.612306,-0.26354 2.323959,0.3613 l 0.65632,0.57626 1.528394,-0.22739 c 1.033393,-0.15374 1.929454,-0.42917 2.766731,-0.85043 1.020855,-0.51362 1.44236,-0.62304 2.400032,-0.62304 1.132279,0 1.167882,0.0147 1.406077,0.58121 0.349641,0.83155 0.12245,1.30167 -1.407622,2.91273 -1.141089,1.20148 -1.52205,1.47441 -2.784232,1.99468 -1.61503,0.6657 -2.674691,0.78998 -4.478171,0.52519 z m -4.458615,-6.48572 c -0.06102,-0.15902 -0.110947,-0.94946 -0.110947,-1.75654 0,-1.29458 0.06761,-1.59428 0.574017,-2.54439 0.743538,-1.39502 1.796104,-2.34868 3.570431,-3.23492 1.920308,-0.95915 3.251822,-1.37941 3.93655,-1.24246 0.798762,0.15975 2.66703,1.14034 3.559312,1.86816 1.208559,0.9858 2.356851,3.28065 1.838132,3.67349 -0.861436,0.65239 -3.073835,0.76542 -4.613492,0.2357 -0.584393,-0.20106 -1.299689,-0.36557 -1.589547,-0.36557 -1.093128,0 -3.308845,1.4428 -4.269754,2.78031 -0.628728,0.87515 -0.62911,0.87534 -1.706312,0.87534 -0.813872,0 -1.104584,-0.0707 -1.18839,-0.28912 z m 19.142737,-1.54971 c -0.318019,-0.20373 -0.712389,-0.57519 -0.876376,-0.82546 -0.277977,-0.42425 -0.275548,-0.48867 0.03588,-0.95168 0.183721,-0.27315 0.46834,-0.79333 0.632487,-1.15595 0.164146,-0.36262 0.893567,-1.18515 1.620934,-1.82782 0.727368,-0.64268 1.495135,-1.36704 1.70615,-1.60968 1.844659,-2.12116 6.043298,-6.05398 8.883049,-8.32065 0.854508,-0.68207 3.609954,-3.17808 6.123213,-5.54669 4.428385,-4.17353 6.448233,-5.94048 8.884931,-7.77249 2.091008,-1.57211 3.511505,-2.70288 5.372105,-4.2764 1.0053,-0.8502 2.4364,-2.05339 3.18021,-2.67376 0.74382,-0.62037 1.93647,-1.62403 2.65035,-2.23035 0.71387,-0.60631 2.0977,-1.77183 3.07517,-2.59003 3.74369,-3.13371 5.82717,-5.01407 9.27684,-8.37247 3.71561,-3.6173 5.54711,-5.20199 8.32089,-7.19959 3.38759,-2.43965 5.14194,-3.75651 5.94043,-4.45906 1.005,-0.88424 6.46104,-4.5063 8.59078,-5.70308 3.40374,-1.91271 9.1242,-4.74232 10.59672,-5.241647 0.85707,-0.29063 3.82025,-1.10725 6.58483,-1.81471 2.76459,-0.707461 5.3601,-1.43354 5.7678,-1.61351 2.01761,-0.890618 5.35712,-1.286798 11.49879,-1.364147 4.69336,-0.05911 5.43083,-0.02885 6.4968,0.266545 0.66136,0.183272 1.97557,0.501951 2.92045,0.708176 1.19107,0.259954 1.86133,0.508009 2.18537,0.808774 0.25706,0.2386 0.68317,0.484495 0.9469,0.546432 0.62211,0.146098 2.47433,2.137441 3.17613,3.414684 0.50696,0.922643 0.54835,1.136963 0.54835,2.839573 0,1.80161 -0.017,1.87597 -0.7844,3.42459 -1.47232,2.97126 -4.85865,5.73394 -8.73267,7.1244 -1.99562,0.71627 -5.78449,1.31267 -7.84727,1.23523 -0.20106,-0.008 -0.90694,0.0373 -1.56862,0.0996 -1.80747,0.17026 -3.15224,-0.17012 -4.09107,-1.03551 -1.0089,-0.92997 -2.47579,-3.79823 -2.4703,-4.83027 0.009,-1.65723 1.69268,-5.0846 3.16471,-6.44147 1.40207,-1.29238 2.01791,-1.50977 4.27257,-1.50818 4.20282,0.003 7.32649,0.73028 8.74268,2.03568 1.03301,0.95219 1.15311,1.52545 0.57813,2.75931 -1.29223,2.77299 -3.25384,3.86552 -4.51549,2.51492 -0.28173,-0.30159 -0.60261,-0.54835 -0.71307,-0.54835 -0.24659,0 -0.25732,-0.37599 -0.028,-0.97924 0.12333,-0.3244 0.1063,-0.50995 -0.0594,-0.6475 -0.12777,-0.10604 -1.39219,-0.24817 -2.80981,-0.31584 l -2.57749,-0.12304 -0.56176,0.88581 c -0.6122,0.96533 -0.75268,2.20588 -0.34991,3.08987 0.35921,0.78836 2.10063,1.0663 3.51745,0.56141 0.43361,-0.15452 1.04771,-0.21464 1.56582,-0.15327 2.13699,0.25309 7.05288,-1.76516 9.09758,-3.73507 0.87815,-0.84603 1.16779,-1.27056 1.39971,-2.05152 0.43247,-1.45627 0.38379,-1.70154 -0.49923,-2.51547 -1.41874,-1.30776 -3.7622,-1.924966 -8.53173,-2.247056 -1.65793,-0.111962 -3.2869,-0.287939 -3.61992,-0.391061 -0.48294,-0.149542 -0.66919,-0.129861 -0.92013,0.09723 -0.22693,0.205376 -1.33167,0.389504 -3.96405,0.660697 -2.64383,0.272371 -4.00201,0.49921 -4.92892,0.82322 -0.70371,0.24599 -2.12825,0.65877 -3.16564,0.9173 -2.71783,0.67732 -8.21488,2.20525 -9.56768,2.65939 -1.73014,0.58081 -4.0195,1.76982 -6.73302,3.49688 -0.55291,0.35192 -1.74557,1.03779 -2.65034,1.52418 -2.41557,1.29854 -7.01692,4.23347 -7.85965,5.0132 -0.40212,0.37206 -0.95721,0.81623 -1.23352,0.98705 -0.27632,0.17081 -1.38469,1.01508 -2.46305,1.87616 -1.07836,0.86108 -2.51867,1.89149 -3.20069,2.28981 -0.68201,0.39832 -1.36983,0.92232 -1.52847,1.16444 -0.15865,0.24213 -0.87757,0.9091 -1.59762,1.48217 -0.72004,0.57306 -2.7897,2.53004 -4.59925,4.34885 -1.80955,1.8188 -3.97543,3.80037 -4.81307,4.40349 -2.61615,1.88369 -3.57986,2.67131 -6.18478,5.05467 -1.39043,1.27217 -3.3917,3.02263 -4.44727,3.88991 -1.05557,0.86728 -2.53611,2.09476 -3.29009,2.72773 -0.75397,0.63296 -2.64577,2.07928 -4.203993,3.21404 -1.55822,1.13476 -3.203263,2.41045 -3.65565,2.83487 -0.452386,0.42442 -1.233781,1.0922 -1.736433,1.48396 -0.502652,0.39177 -1.900938,1.70205 -3.107303,2.91175 -1.206364,1.2097 -3.409794,3.18504 -4.896511,4.38964 -1.486716,1.2046 -3.296263,2.67169 -4.021214,3.26021 -1.759467,1.42834 -3.364573,2.86769 -6.436004,5.77138 -2.203158,2.08284 -4.426874,3.85867 -4.818869,3.84828 -0.06394,-0.002 -0.376455,-0.16976 -0.694474,-0.37349 z m -17.700033,-7.98062 c -0.722976,-0.17511 -1.005304,-0.61189 -1.005304,-1.55528 0,-0.87716 0.03969,-0.94239 1.599347,-2.62883 0.879641,-0.95114 1.625375,-1.84672 1.657187,-1.99018 0.07211,-0.32517 -0.317192,-0.40695 -2.525404,-0.53052 -2.468518,-0.13812 -3.508815,-0.49305 -4.577499,-1.56173 -0.687426,-0.68743 -0.959159,-1.14313 -1.257374,-2.10864 -0.499795,-1.61814 -0.741953,-3.83439 -0.743797,-6.80727 -0.0015,-2.37673 0.0062,-2.42271 0.45465,-2.71653 0.712183,-0.46664 1.593445,-0.20982 2.36231,0.68842 0.695208,0.81219 1.090293,1.81358 1.39346,3.53186 0.312947,1.77371 0.868722,3.2396 1.520228,4.00971 l 0.608804,0.71963 2.541477,0.027 c 2.296568,0.0244 2.639627,0.0716 3.560001,0.48973 1.511233,0.68654 1.814605,1.16789 1.814605,2.87919 0,2.40024 -0.326908,3.14623 -2.17336,4.95955 -2.032432,1.99597 -3.891198,2.91795 -5.229331,2.59386 z m -32.013494,-1.09147 c -0.975207,-2.334 -0.0065,-4.05459 1.98134,-3.51932 0.711857,0.19169 1.792259,1.04238 1.792259,1.4112 0,0.34995 -1.125999,1.70546 -1.855914,2.23421 -1.050353,0.76087 -1.561119,0.72729 -1.917685,-0.12609 z m 10.208246,-8.97784 c -1.228703,-0.39182 -3.260319,-2.3245 -3.43776,-3.27035 -0.12824,-0.68357 0.05391,-2.16604 0.329402,-2.68084 0.141005,-0.26349 0.08453,-0.47286 -0.246518,-0.91391 -0.585238,-0.77971 -0.608149,-2.58963 -0.04241,-3.35067 0.454484,-0.61138 1.349789,-0.76449 1.995667,-0.3413 0.602921,0.39505 0.887418,0.36546 2.461058,-0.256 1.569045,-0.61965 2.446144,-0.67432 4.503457,-0.28069 l 1.428313,0.27328 1.708081,1.69163 c 0.939444,0.9304 1.825603,1.91374 1.969242,2.18521 0.372875,0.7047 0.328072,2.63153 -0.08219,3.53471 -0.602911,1.32729 -2.918571,3.10396 -4.544207,3.4865 -1.493726,0.3515 -4.830998,0.30865 -6.042131,-0.0776 z m 4.166737,-4.96966 c 0,-0.64795 0.561598,-1.27832 1.142391,-1.28227 0.226193,-0.002 0.533292,-0.08 0.682442,-0.17427 0.214156,-0.13541 0.128906,-0.23091 -0.405389,-0.45416 -0.8716,-0.36417 -1.030153,-0.35726 -2.089724,0.0912 -0.99831,0.4225 -1.340327,0.78136 -1.340327,1.40634 0,0.46113 0.803385,0.94054 1.599347,0.95439 0.336691,0.006 0.41126,-0.0923 0.41126,-0.5412 z m 45.184351,1.41555 c -0.660717,-0.79612 -0.431774,-1.62833 1.077836,-3.91797 0.542898,-0.82342 1.552107,-2.36973 2.242687,-3.43624 1.058034,-1.63401 1.430549,-2.05281 2.367474,-2.66161 0.733431,-0.47657 1.291269,-1.01785 1.638938,-1.59027 0.289885,-0.47729 1.321951,-1.65011 2.293479,-2.60627 1.853925,-1.82459 4.362326,-4.53945 6.066255,-6.56554 0.555365,-0.66037 1.845719,-2.01009 2.867453,-2.99938 1.021734,-0.98928 2.289942,-2.4287 2.818242,-3.19869 0.52829,-0.77 1.01107,-1.44112 1.07283,-1.49138 0.48994,-0.39876 2.5959,-3.4736 3.30259,-4.82198 1.36949,-2.61308 1.63251,-3.58693 1.63251,-6.0445 0,-2.06164 -0.0145,-2.13593 -0.71494,-3.65194 -1.0109,-2.18809 -3.24481,-4.49096 -4.35648,-4.49096 -0.24585,0 -0.68807,-0.17165 -0.98269,-0.38144 -0.30127,-0.214522 -1.19346,-0.501799 -2.038824,-0.656481 -0.826728,-0.151272 -2.531294,-0.468558 -3.787924,-0.705081 -4.295544,-0.808507 -12.029684,-1.057891 -14.101761,-0.454705 -0.739134,0.215163 -0.800412,0.311387 -0.985867,1.548091 -0.120763,0.805306 -0.09006,0.900166 0.487948,1.507426 0.955168,1.00351 1.491402,1.153 4.129512,1.15121 1.284991,-8.8e-4 2.768171,-0.0535 3.295956,-0.11686 0.849485,-0.10203 0.959608,-0.16404 0.959608,-0.54032 0,-0.23379 -0.158934,-0.51013 -0.353186,-0.61409 -0.450714,-0.24121 -0.632741,-0.81001 -0.398995,-1.246767 0.100091,-0.187021 0.516097,-0.57158 0.924458,-0.854574 0.715296,-0.495701 0.780327,-0.506933 1.776553,-0.306863 1.267396,0.25453 2.279154,0.835865 3.325059,1.910504 l 0.795717,0.81759 -0.193201,1.77795 c -0.10626,0.97787 -0.217577,1.79585 -0.24737,1.81773 -0.959862,0.7049 -1.857379,1.19637 -2.189101,1.19874 -0.233213,0.002 -1.307382,0.28183 -2.387043,0.6226 -1.349796,0.42603 -2.177733,0.59181 -2.650346,0.53071 -0.37803,-0.0489 -1.038625,-0.008 -1.46799,0.09 -0.556788,0.12755 -1.316845,0.10455 -2.650346,-0.0802 -3.177652,-0.44022 -4.343491,-0.97754 -5.979521,-2.75588 -1.529444,-1.66248 -1.607362,-1.79648 -2.125518,-3.65539 -0.480578,-1.724091 -0.470499,-2.096453 0.108247,-3.998979 0.629117,-2.068112 0.826519,-2.404928 1.494901,-2.550668 0.336047,-0.07327 1.226888,-0.328241 1.979647,-0.566593 0.752759,-0.238352 1.780911,-0.435976 2.284781,-0.439164 0.50387,-0.0032 1.738649,-0.124931 2.743953,-0.27054 1.475863,-0.213767 2.390964,-0.228444 4.752345,-0.07622 2.856775,0.184153 3.376595,0.245158 6.762952,0.793676 0.904773,0.146555 2.261933,0.361274 3.015911,0.477155 2.223375,0.341715 3.865255,0.743995 4.896605,1.19972 1.3992,0.618269 4.04857,2.44846 4.33058,2.991573 0.13288,0.255916 0.64038,0.88266 1.12777,1.392765 0.48739,0.510099 1.24483,1.558489 1.6832,2.329749 0.67237,1.18296 0.82355,1.63825 0.96653,2.91097 0.25102,2.23425 -0.0832,6.39583 -0.67802,8.44331 -0.48761,1.67837 -1.19668,3.27025 -1.55544,3.49198 -0.11148,0.0689 -0.7351,0.94836 -1.38584,1.95437 -0.65074,1.00601 -1.70618,2.47167 -2.34543,3.25702 -0.63924,0.78536 -1.2998,1.71776 -1.4679,2.072 -0.20555,0.43318 -0.61883,0.82084 -1.26207,1.18387 -0.52604,0.29688 -1.10758,0.77333 -1.29231,1.05877 -0.66434,1.02654 -1.921907,2.37422 -3.639688,3.90048 -0.961734,0.85451 -1.749857,1.6737 -1.751384,1.82042 -0.0015,0.14672 -2.174357,2.40866 -4.828513,5.02652 -2.897068,2.85745 -5.249245,5.34416 -5.885399,6.22201 -1.46959,2.02793 -2.932468,3.52402 -3.951082,4.04079 -0.975388,0.49483 -1.295035,0.5372 -1.568348,0.20788 z m -27.650637,-1.77699 c -0.756818,-0.40009 -1.934707,-1.64377 -2.188141,-2.31036 -0.338029,-0.88908 -0.195625,-1.95572 0.437075,-3.27378 1.216043,-2.53331 1.753567,-2.83873 5.94048,-3.37534 2.189361,-0.2806 2.694587,-0.40395 3.059799,-0.74705 0.374177,-0.35152 0.50379,-0.38072 0.896206,-0.20193 0.608097,0.27707 0.604539,0.39452 -0.07948,2.62377 -0.177499,0.57847 -0.154783,0.75401 0.165576,1.27947 0.461526,0.75701 0.466646,1.18644 0.02615,2.19321 -0.600703,1.37293 -3.047746,3.41719 -4.677658,3.90772 -1.226846,0.36923 -2.77903,0.32773 -3.580007,-0.0957 z m 3.486273,-3.23553 c 0,-0.0683 -0.0977,-0.39429 -0.217106,-0.72451 -0.185721,-0.5136 -0.170564,-0.65182 0.104843,-0.95614 0.177072,-0.19567 0.530759,-0.40816 0.785971,-0.47222 0.447768,-0.11238 0.452707,-0.12896 0.141001,-0.47339 -0.411824,-0.45506 -0.82877,-0.45044 -1.749729,0.0194 -1.099784,0.56107 -1.476948,1.68196 -0.84205,2.50249 0.181248,0.23424 1.77707,0.32796 1.77707,0.10437 z m -20.745813,-3.46129 c -1.194728,-0.51138 -1.225214,-0.51318 -5.84904,-0.34676 -3.329223,0.11982 -3.586379,0.0534 -4.250403,-1.09783 -0.535772,-0.92888 -0.432302,-1.5371 0.443265,-2.60561 0.942832,-1.1506 1.551621,-1.35346 4.538268,-1.5122 1.75597,-0.0933 2.811369,-0.23771 3.363348,-0.46011 0.710119,-0.28612 0.934168,-0.2973 1.911707,-0.0954 0.609022,0.12579 1.327225,0.34243 1.596005,0.48143 0.961134,0.49702 2.330492,3.10065 2.104446,4.00129 -0.181763,0.7242 -1.168258,1.71965 -1.907721,1.92503 -0.841431,0.23371 -0.665634,0.25984 -1.949875,-0.28985 z m 12.47845,-2.27134 c -0.389584,-0.23312 -1.237327,-1.64933 -1.237327,-2.06704 0,-0.18206 0.335167,-0.46902 0.826803,-0.70788 0.623243,-0.30279 0.959157,-0.63621 1.364395,-1.35425 0.295676,-0.52391 0.814665,-1.1639 1.153311,-1.42219 0.564776,-0.43078 0.750563,-0.46692 2.245559,-0.43686 1.339318,0.0269 1.791784,-0.0399 2.538346,-0.37467 0.618713,-0.27748 1.435845,-0.44209 2.56173,-0.51605 1.96193,-0.12887 2.123613,-0.0212 2.249576,1.49772 0.07465,0.90021 0.03499,1.03311 -0.454414,1.52251 -0.411089,0.41109 -0.874708,0.60929 -1.986889,0.84943 -0.797876,0.17228 -1.744151,0.50157 -2.102834,0.73176 -0.358682,0.23019 -1.181117,0.68555 -1.827632,1.01191 -0.646515,0.32636 -1.368102,0.71959 -1.603528,0.87385 -0.252225,0.16526 -0.890467,0.29112 -1.553843,0.3064 -0.619189,0.0143 -1.290303,0.0819 -1.491363,0.15029 -0.201061,0.0684 -0.507911,0.0392 -0.68189,-0.0649 z m 61.565831,-13.41367 c -0.93681,-1.59853 -0.67838,-2.16198 2.00628,-4.37429 0.81141,-0.66865 3.46876,-3.26929 5.90522,-5.7792 2.43647,-2.5099 4.93929,-4.94899 5.56183,-5.42019 2.55176,-1.93144 3.84827,-3.27929 6.28563,-6.53454 1.34599,-1.797657 2.56799,-3.501938 2.71555,-3.787288 0.2524,-0.488084 0.24282,-0.53551 -0.16176,-0.8006 -0.36447,-0.238814 -0.65045,-0.251816 -1.8754,-0.08527 -3.52715,0.479559 -5.02764,1.125156 -7.00434,3.013684 -0.81297,0.776704 -1.47813,1.535264 -1.47813,1.685664 0,0.27685 0.36315,0.26628 2.57326,-0.0749 0.95804,-0.1479 1.34103,0.29314 1.19292,1.37373 -0.15382,1.12224 -0.44989,1.51212 -2.043,2.69028 -0.7541,0.55769 -1.88063,1.46862 -2.50339,2.0243 -0.62275,0.55567 -1.34051,1.11799 -1.59501,1.2496 -0.64221,0.3321 -2.06614,0.52218 -2.83342,0.37824 -0.88333,-0.16571 -1.33804,-1.10046 -1.57715,-3.24214 l -0.18406,-1.6486 0.88027,-1.45441 c 1.46249,-2.41635 4.28525,-5.560794 6.08958,-6.783551 2.61379,-1.771305 3.81327,-2.281315 6.58017,-2.797841 3.55897,-0.664389 5.44113,-0.424926 7.01459,0.892453 0.98858,0.827682 1.56673,1.882866 1.57081,2.866871 0.003,0.755838 -1.18121,2.930918 -2.52209,4.631878 -0.48811,0.61917 -1.30231,1.74266 -1.80935,2.49664 -0.50704,0.75398 -1.14723,1.5765 -1.42263,1.82782 -0.27541,0.25133 -1.30875,1.37199 -2.29632,2.49035 -1.10918,1.25609 -2.13108,2.22458 -2.67325,2.53353 -0.48272,0.27507 -1.45344,1.09201 -2.15715,1.8154 -1.98766,2.04326 -5.99751,5.57657 -7.17008,6.31797 -0.58238,0.36824 -2.08807,1.71223 -3.34596,2.98665 -2.67349,2.70863 -2.95344,2.82198 -3.72362,1.50776 z m 1.85538,-33.110803 c -0.0758,-0.07691 -2.79014,-0.164919 -6.03182,-0.195584 -7.471596,-0.07068 -6.761631,-0.07357 -10.829096,0.04415 -2.752666,0.07967 -3.7003,0.04324 -4.569562,-0.175671 -0.603183,-0.151902 -1.927549,-0.313918 -2.943036,-0.360037 -1.160429,-0.0527 -2.050024,-0.189181 -2.394616,-0.367377 -0.488141,-0.252428 -0.59116,-0.253487 -0.939277,-0.0097 -0.310831,0.217715 -0.531913,0.234736 -1.078251,0.08301 -0.377988,-0.10497 -1.486123,-0.191314 -2.462523,-0.191875 -1.34238,-7.71e-4 -2.02038,-0.09273 -2.780449,-0.377104 -0.795169,-0.297511 -1.137264,-0.339614 -1.637396,-0.201521 -0.45554,0.125781 -0.759035,0.108772 -1.086009,-0.06086 -0.249585,-0.129486 -0.737212,-0.328967 -1.083616,-0.443291 -1.083951,-0.357736 -1.143722,-0.825319 -0.895827,-7.00797 0.260792,-6.504334 0.273587,-15.030471 0.03011,-20.067196 -0.0994,-2.05624 -0.265768,-6.288434 -0.369711,-9.404875 -0.103943,-3.116442 -0.279479,-6.036392 -0.39008,-6.488779 -0.122452,-0.500861 -0.226623,-3.639987 -0.266378,-8.027101 -0.03591,-3.962519 -0.147679,-7.650288 -0.248382,-8.195043 -0.216938,-1.173528 -0.01811,-1.687497 0.9979,-2.579566 l 0.657994,-0.577726 3.052688,0.09127 c 1.678979,0.0502 4.226881,0.178146 5.662005,0.284324 1.435124,0.106177 2.686999,0.145039 2.781943,0.08636 0.09495,-0.05868 6.487948,-0.136272 14.206673,-0.172429 12.536663,-0.05873 14.414343,-0.105495 17.598303,-0.438341 3.29718,-0.344681 4.46823,-0.367156 15.6279,-0.299926 13.54411,0.08159 13.85582,0.08729 13.98287,0.255484 0.0503,0.06655 1.07841,0.05658 2.28478,-0.02216 5.96734,-0.389463 12.99272,-0.527321 15.17094,-0.297698 1.38718,0.146233 3.94018,0.208101 6.94574,0.168318 4.8039,-0.06359 8.62929,-0.06874 9.55038,-0.01287 0.27646,0.01677 0.89056,-0.02865 1.36466,-0.100923 0.61045,-0.09306 1.13066,-0.04354 1.78264,0.169712 0.83456,0.272972 0.9611,0.274612 1.35344,0.01754 0.37547,-0.246021 0.82442,-0.260226 3.38946,-0.107246 1.88534,0.112444 3.5662,0.113075 4.6389,0.0017 0.92523,-0.09603 2.05238,-0.127289 2.50476,-0.06947 1.62668,0.207902 3.4473,0.656703 3.64876,0.899455 0.30363,0.365842 0.0273,1.194945 -0.47452,1.42357 -0.27232,0.124077 -0.50201,0.448847 -0.61549,0.870268 -0.20546,0.763015 -0.48867,1.06087 -1.6166,1.70015 -0.76021,0.430865 -0.83471,0.439282 -1.73644,0.196146 -1.43663,-0.387368 -3.43175,-0.516191 -4.17835,-0.269791 -0.42509,0.140293 -2.86451,0.238438 -7.11516,0.286265 -3.55756,0.04003 -6.6731,0.142995 -6.92341,0.228815 -0.25032,0.08582 -2.67593,0.143123 -5.39025,0.127337 -4.21718,-0.02453 -5.56,0.04025 -9.23052,0.445283 -2.36246,0.260691 -5.24128,0.485024 -6.39738,0.498519 -1.1561,0.0135 -2.26247,0.09252 -2.45861,0.175614 -0.39852,0.168834 -8.21302,-0.202278 -10.32084,-0.490138 -0.87555,-0.119571 -5.27676,-0.142149 -12.42921,-0.06376 -6.09052,0.06675 -11.85506,0.129695 -12.8101,0.139879 -0.95504,0.01018 -5.60474,0.08958 -10.33268,0.17643 -8.690963,0.159653 -16.784334,-0.03629 -17.163586,-0.415546 -0.09735,-0.09735 -0.67463,-0.177981 -1.282838,-0.179174 -0.608209,-0.0012 -1.558221,-0.125495 -2.111138,-0.276227 -1.189022,-0.324142 -2.30227,-0.201223 -2.561315,0.282806 -0.333504,0.623159 -0.728772,2.93293 -0.728533,4.257233 2.3e-4,1.277391 0.646381,4.456416 1.114702,5.484268 0.217431,0.477209 0.248342,0.484991 1.518417,0.382242 0.713057,-0.05769 1.502098,-0.173782 1.753424,-0.257991 0.251326,-0.08421 2.419746,-0.197816 4.81871,-0.25246 4.053476,-0.09233 4.410369,-0.07455 5.049582,0.251552 0.378305,0.192997 0.73332,0.305411 0.788921,0.24981 0.311971,-0.311971 6.649944,-0.379274 8.228934,-0.08738 0.84198,0.155649 1.32233,0.13697 2.37166,-0.09223 1.15513,-0.252309 2.77928,-0.272686 13.2991,-0.166851 8.13691,0.08186 12.7131,0.05639 14.25704,-0.07937 2.35626,-0.207183 12.40454,-0.61348 14.77242,-0.597314 l 1.34893,0.0092 -0.12379,-1.52567 c -0.11398,-1.404736 -0.0874,-1.595361 0.3353,-2.404869 0.55863,-1.069807 0.98342,-1.593243 1.51266,-1.86395 0.58017,-0.296757 1.25283,0.06722 1.61335,0.87299 0.16244,0.36306 0.37203,0.824613 0.46577,1.025674 0.0937,0.20106 0.20856,1.105834 0.25517,2.010607 l 0.0847,1.645042 4.43911,-0.06189 c 2.44151,-0.03404 5.46727,0.02612 6.7239,0.133681 2.79885,0.239576 11.44936,0.657617 12.70338,0.613898 2.50642,-0.08738 11.27779,-0.05053 12.17744,0.05116 1.57421,0.177937 2.09648,0.582773 2.35436,1.824968 0.27954,1.346546 0.14655,1.795064 -0.68572,2.312523 l -0.68574,0.426358 -6.85434,-0.01485 c -4.40789,-0.0096 -7.34852,-0.09383 -8.23888,-0.236132 -0.90649,-0.144877 -1.54098,-0.161797 -1.83765,-0.04901 -0.27996,0.106441 -2.30028,0.112778 -5.28702,0.01658 -2.65866,-0.08563 -7.15754,-0.159707 -9.99753,-0.164618 l -5.1636,-0.0089 -0.0132,0.594044 c -0.007,0.326723 -0.1513,2.58034 -0.32003,5.008037 l -0.30677,4.413994 3.71128,0.132531 c 2.40301,0.08581 4.27163,0.06194 5.30085,-0.06772 1.81647,-0.228831 11.2469,-0.156373 15.93799,0.12246 2.12092,0.126064 3.91091,0.117102 6.03182,-0.0302 3.86916,-0.268719 5.81857,-0.252797 6.5582,0.05357 0.44345,0.183682 0.64279,0.192528 0.79983,0.03549 0.27421,-0.274215 1.10069,-0.26812 1.37898,0.01017 0.37141,0.371418 0.24977,1.022067 -0.25642,1.371475 -0.85874,0.592769 -1.49027,1.236313 -1.55884,1.588509 -0.10138,0.520681 -0.86328,0.995687 -1.98662,1.238543 -0.72069,0.155807 -4.9899,0.225595 -15.07956,0.246503 -7.74083,0.01604 -15.69235,0.09331 -17.67004,0.171713 l -3.59579,0.142548 -0.10547,0.846466 c -0.058,0.465556 -0.19141,1.874617 -0.29647,3.131247 -0.10505,1.256629 -0.29606,3.086739 -0.42447,4.06691 l -0.23348,1.782129 h 0.68534 c 0.37694,0 1.28762,-0.07975 2.02374,-0.177214 0.73612,-0.09747 2.53105,-0.21376 3.98874,-0.258427 1.45769,-0.04467 3.21398,-0.171412 3.90287,-0.281653 1.17269,-0.187664 2.27318,-0.173875 7.06408,0.08852 1.05557,0.05781 6.46209,0.161249 12.01449,0.229859 l 10.09527,0.124747 0.56536,0.565415 c 0.38368,0.383717 0.59795,0.808328 0.66675,1.321316 0.15215,1.134379 -0.2318,1.583944 -1.73516,2.031663 -2.36527,0.70441 -3.79223,0.825347 -7.11988,0.603427 -1.80168,-0.120154 -3.64736,-0.143451 -4.48223,-0.05658 -1.81715,0.189086 -8.2824,-0.05331 -8.98859,-0.336999 -0.56679,-0.227687 -1.99307,-0.145205 -3.32019,0.192007 -0.64198,0.163122 -0.88911,0.131088 -1.70869,-0.221482 -0.86448,-0.371892 -1.0234,-0.388481 -1.62564,-0.16969 -0.36712,0.133373 -1.44888,0.266875 -2.40392,0.296671 -0.95504,0.0298 -2.55895,0.185061 -3.56426,0.345034 -1.0053,0.159972 -2.60922,0.367888 -3.56426,0.462035 -2.64581,0.260822 -2.92452,0.328554 -2.92452,0.710731 0,0.184196 -0.10982,0.426048 -0.24405,0.537448 -0.32435,0.269189 -0.59002,1.206126 -0.95121,3.354581 l -0.29855,1.775933 -1.20644,1.12856 c -0.66354,0.620707 -1.58177,1.372682 -2.04052,1.671054 l -0.83409,0.542494 2.55895,-0.117912 c 1.40743,-0.06485 3.99837,-0.236561 5.75765,-0.381575 1.75928,-0.145015 5.4195,-0.271813 8.13382,-0.281773 2.71432,-0.01 6.21004,-0.08608 7.76826,-0.169167 6.20326,-0.330747 11.35992,-0.547467 17.67334,-0.742762 5.45534,-0.168752 6.70376,-0.161909 7.12125,0.03903 0.71092,0.34217 1.60312,1.831083 1.45378,2.426095 -0.1525,0.607603 -1.20775,1.647006 -2.17106,2.138449 -0.94039,0.479751 -3.18967,0.605492 -7.90106,0.441689 -1.10583,-0.03845 -3.82015,0.01268 -6.03182,0.113625 -4.64912,0.212186 -7.67566,0.297859 -14.16565,0.400991 -8.47681,0.134704 -15.43937,0.444298 -17.17811,0.763834 -1.2739,0.234111 -2.17439,0.275115 -3.97804,0.181143 -2.51541,-0.131055 -4.09951,-0.135789 -12.11026,-0.03619 -5.30543,0.06596 -8.33663,0.364951 -11.67334,1.151416 -1.3182,0.3107 -11.32396,0.591741 -11.5865,0.325441 z m 6.16968,-4.829329 c 2.90684,-0.258819 5.03699,-0.505803 7.21991,-0.837127 3.19404,-0.484792 4.4158,-0.600522 7.75093,-0.734193 l 3.19631,-0.128108 -0.69253,-0.50167 c -0.3809,-0.275919 -0.87015,-0.727467 -1.08723,-1.00344 -0.80365,-1.02167 -1.19349,-3.418442 -0.74786,-4.597894 0.28427,-0.752387 0.9908,-1.420958 2.40396,-2.274798 0.68854,-0.416025 1.22867,-0.77695 1.20028,-0.802055 -0.0284,-0.0251 -1.07976,0.0067 -2.33639,0.07072 -1.25663,0.064 -3.97095,0.03883 -6.03182,-0.05593 -4.72781,-0.217397 -6.62317,-0.208173 -11.5153,0.05604 -4.42379,0.238922 -5.05617,0.265749 -5.57487,0.236505 -0.20106,-0.01134 -1.27034,0.06041 -2.37617,0.159431 -4.7381,0.424277 -9.597145,0.616031 -12.931861,0.510334 -1.099928,-0.03486 -1.755245,0.04239 -2.421868,0.2855 -1.223544,0.446218 -5.57801,0.458052 -7.585473,0.02061 -1.990024,-0.433636 -2.06067,-0.430726 -2.209435,0.091 -0.171616,0.601859 -0.172838,5.64381 -0.0017,7.017723 0.194772,1.56367 0.46298,1.729412 2.616308,1.616779 1.382876,-0.07233 1.749455,-0.0365 1.936891,0.18935 0.162641,0.19597 0.43704,0.250959 0.925424,0.185453 0.443805,-0.05953 0.899176,0.01286 1.262371,0.20068 0.476704,0.246512 0.783012,0.264282 1.903268,0.110413 1.810271,-0.248643 4.155427,-0.257152 10.839816,-0.03933 4.64129,0.151246 5.86606,0.139443 6.77078,-0.06525 1.02716,-0.232394 1.22559,-0.219487 2.83313,0.18428 0.95073,0.238797 1.93424,0.400384 2.18556,0.359083 0.25133,-0.0413 1.36173,-0.155654 2.46757,-0.254114 z m 26.15184,-4.219641 c 2.36706,-0.234786 3.21909,-0.620442 3.80253,-1.721142 0.21313,-0.402106 0.44921,-0.758531 0.52461,-0.792057 0.18975,-0.08437 0.17222,-1.376533 -0.0257,-1.897218 -0.16647,-0.437838 -1.07364,-0.912272 -2.86543,-1.498569 -0.82972,-0.271496 -1.02974,-0.275579 -1.91922,-0.03918 -0.54612,0.145149 -1.15746,0.333639 -1.35852,0.418867 -0.49869,0.21139 -2.47459,1.494873 -2.92452,1.899684 -1.17329,1.055623 -1.36765,1.283617 -1.48174,1.738206 -0.17915,0.71378 0.0714,0.993842 1.40306,1.568408 1.32497,0.571677 1.9307,0.612059 4.84497,0.322996 z M 100.11127,70.816829 c 11.53373,-0.679179 17.57454,-0.788602 37.90809,-0.686661 l 11.54242,0.05787 0.19959,-1.557702 c 0.10977,-0.856736 0.28015,-2.544754 0.37862,-3.751151 0.0985,-1.206398 0.23432,-2.788315 0.30189,-3.515371 l 0.12286,-1.321921 -1.80808,0.102022 c -0.99444,0.05611 -2.38384,0.19 -3.08756,0.297529 -2.02723,0.309766 -8.07692,0.375475 -12.06364,0.13103 -2.08016,-0.127545 -9.20422,-0.248387 -16.53017,-0.280394 -7.94562,-0.03471 -13.6837,-0.136968 -14.98816,-0.267093 -1.95464,-0.194983 -4.84265,-0.219503 -14.046876,-0.119262 -2.812893,0.03063 -3.55756,0.0907 -3.685213,0.29725 -0.237712,0.384634 -0.406912,3.925648 -0.341352,7.143833 l 0.05772,2.833129 1.096695,0.04629 c 0.603182,0.02546 2.074193,0.125264 3.268912,0.221785 1.194719,0.09652 2.305123,0.107019 2.467563,0.02333 0.275987,-0.142191 1.072017,-0.074 3.768215,0.322795 1.554433,0.228763 1.913584,0.230262 5.438481,0.02269 z m 43.36444,-14.907568 c 1.10584,-0.154119 2.54525,-0.368217 3.1987,-0.475774 0.65344,-0.107556 1.90779,-0.23469 2.78743,-0.282519 l 1.59935,-0.08696 0.0215,-0.758639 c 0.0119,-0.417251 0.0502,-1.005395 0.0853,-1.306986 0.035,-0.301591 0.11718,-2.213953 0.18251,-4.249693 l 0.11878,-3.701346 -2.07758,0.0051 c -1.14266,0.0028 -3.72262,0.137345 -5.73322,0.29893 -2.84662,0.228772 -6.97269,0.307657 -18.64382,0.356444 -22.75773,0.09513 -35.301424,0.245004 -36.633196,0.437696 -0.661527,0.09572 -1.681134,0.175657 -2.265793,0.177648 -1.784241,0.0061 -1.770113,-0.01712 -1.770113,2.906492 0,1.388444 0.05205,3.257713 0.115664,4.153932 l 0.115665,1.629488 9.343329,0.04707 c 5.138832,0.02589 10.535984,0.121268 11.993674,0.211957 1.45769,0.09069 6.52898,0.165262 11.26954,0.165718 7.42685,7.15e-4 8.69499,0.04003 9.16712,0.284172 0.4623,0.239066 0.79299,0.253365 2.11624,0.09151 0.86258,-0.10551 2.24827,-0.154481 3.07931,-0.108823 3.67116,0.201692 7.14011,0.485896 7.24544,0.593604 0.13849,0.141601 1.96534,-0.01013 4.68415,-0.389052 z"
       id="path1" /></g></svg>
